<svg xmlns="http://www.w3.org/2000/svg" width="292.563" height="103.616" viewBox="0 0 292.563 103.616">
  <g id="Camada_2" data-name="Camada 2" transform="translate(0.042 0.026)">
    <g id="Camada_1" data-name="Camada 1" transform="translate(-0.042 -0.026)">
      <path id="Caminho_6559" data-name="Caminho 6559" d="M7.933,77.462A11.527,11.527,0,0,0,18.6,86.895l11.806.711h.692a11.441,11.441,0,0,0,3.487-.586c1.652,5.312,3.285,8.252,5.475,10.2,4.8,4.563,11.527,5.235,16.849,5.235h.826a61.294,61.294,0,0,0,10.221-1.143A20.057,20.057,0,0,0,78.892,94.5a11.528,11.528,0,0,0,.7-.961,49.4,49.4,0,0,0,5.629-12.853L85.4,92.217A11.527,11.527,0,0,0,96.923,103.59H97.1l16.618-.25c9.356-.471,15.619-2.488,19.779-5.216,3.775,2.978,8.9,4.524,15.37,4.524h1.451a55.59,55.59,0,0,0,10.855-1.575l.7-.221a22.525,22.525,0,0,0,5.322-2.882,11.527,11.527,0,0,0,7.349,2.1l9.712-.644a11.527,11.527,0,0,0,4.649-1.316,11.527,11.527,0,0,0,9.5,5h9.4a11.421,11.421,0,0,0,7.579-2.882c.394.125.807.25,1.124.327a63.6,63.6,0,0,0,15.11,2.113,35.023,35.023,0,0,0,7.32-.73,30.48,30.48,0,0,0,7.685-3.1c4.5,2.882,10.317,3.573,15.619,3.842a46.936,46.936,0,0,0,13.448-1.595,18.927,18.927,0,0,0,12.622-10.567c4.8-10.989,5.514-20.739,2.036-28.991a27.731,27.731,0,0,0-1.335-2.738,11.527,11.527,0,0,0,1.758-5c.7-7.5.586-13.333-.461-18.251-2.622-10.48-11.422-16.734-23.544-16.734a6.123,6.123,0,0,0-.961.048,46.791,46.791,0,0,0-17.012,4.39,11.527,11.527,0,0,0-5.668-.72l-9.539,1.287a11.527,11.527,0,0,0-7.089-3.151l-11.739-.884a12.094,12.094,0,0,0-3.074.259,12.354,12.354,0,0,0-2.459-.134l-13.391.749a11.527,11.527,0,0,0-4.1.961A11.585,11.585,0,0,0,180.466,17.4l-4.976.961a11.527,11.527,0,0,0-6.023-10.269L156.979,1.363a11.527,11.527,0,0,0-10.97,0L133.522,8.087a11.527,11.527,0,0,0-5.965,11.652c-6.907-2.209-15.216-1.556-20.24-1.143L95.2,19.442A11.527,11.527,0,0,0,85.9,25.484a11.527,11.527,0,0,0-10.567-7.012H42.418A11.527,11.527,0,0,0,30.891,30.959l.2,2.526a12.017,12.017,0,0,0-1.921,0l-10.8,1.153A11.527,11.527,0,0,0,8.336,43.5,11.527,11.527,0,0,0,0,55.55L1.055,67.827a11.527,11.527,0,0,0,6.878,9.635Zm100.258-5.12V70.93h0v1.489Z" transform="translate(0.042 0.026)" fill="#071c21"/>
      <path id="Caminho_6560" data-name="Caminho 6560" d="M39.31,55.638,38.7,69.086l-25.677-.375L12,56.445ZM31.567,77.924l-11.806-.711.307-29.26L30.857,46.81Z" transform="translate(-0.433 -1.82)" fill="#ed7f82"/>
      <path id="Caminho_6561" data-name="Caminho 6561" d="M54.073,63.844h0l-4.8-8.722L60.49,44.555l-15.177,1.4L44.16,31.28H77.041V44.094l-7.685,6.628q5.9,1.085,7.31,4.976a30.009,30.009,0,0,1,1.076,8.991q0,14.082-6.186,23.88a8.828,8.828,0,0,1-4.8,2.8,57.118,57.118,0,0,1-7.877.778c-4.582,0-7.608-.644-9.1-2.056q-1.585-1.45-3.785-10.221A40.71,40.71,0,0,1,44.708,69.06l9.03-.884a22.142,22.142,0,0,0,.605,5.648c.961,2.93,1.633,4.582,2.065,4.938.586.567,1.8.836,3.621.816a19.459,19.459,0,0,0,3.112-.307,3.4,3.4,0,0,0,1.921-1.114,17.4,17.4,0,0,0,2.469-9.539,11.882,11.882,0,0,0-.471-3.583q-.72-1.825-5.043-2.171Q56.811,62.605,54.073,63.844Z" transform="translate(-1.7 -1.208)" fill="#ed7f82"/>
      <path id="Caminho_6562" data-name="Caminho 6562" d="M131.592,64.716q2.238,6.907,1.921,21.133-.48,6.4-16.4,7.2l-16.205.231L99.95,32.171l12.113-.845q17.752-1.451,19.346,3.285a41.1,41.1,0,0,1,.567,18.809,10.163,10.163,0,0,1-3.41,6.013A9.279,9.279,0,0,1,131.592,64.716Zm-12.718-9.433q3.66-.471,3.583-8.252c.144-2.526-.6-3.977-2.19-4.332q-2.008-.653-8.223-.442V55.379Zm1.758,24.246q2.171-1.076,2.4-6.522.346-6.945-4.188-7h-6.724V80.182Q118.249,81.095,120.632,79.529Z" transform="translate(-3.898 -1.196)" fill="#fff"/>
      <path id="Caminho_6563" data-name="Caminho 6563" d="M154.906,91.634q-7.406.125-9.808-2.978-1.729-2.133-4.092-15.187Q138,56.4,138,46.918q-.134-10.24,3.285-12.344,6.157-4.121,19.145-5,11.527,0,13.7,7.983a62.5,62.5,0,0,1,1.143,13.391q0,20.9-6.657,35.417a9.491,9.491,0,0,1-5.216,4.121,49.1,49.1,0,0,1-8.492,1.153Zm2.027-70.316L147.7,28.59l-3.247-9.865L156.943,12l12.488,6.724-3.247,9.846Zm2.949,57.088a4.515,4.515,0,0,0,2.094-2.4q2.632-8.511,2.642-20.8a55.814,55.814,0,0,0-.442-7.81q-.778-4.035-5.447-4.669-6.052-.576-8.962,2.43-1.921,1.921.644,21.345,1.527,9.606,2.2,10.826c.624,1.191,1.921,1.777,3.919,1.758a15.053,15.053,0,0,0,3.352-.682Z" transform="translate(-5.397 -0.448)" fill="#fff"/>
      <path id="Caminho_6564" data-name="Caminho 6564" d="M189.658,29.94l14.611,33.486-.778-30.067,13.391-.749-2,60.2h-9.4L191.07,59.565l-.509,29.6-9.654.644L178.64,32.073Z" transform="translate(-6.998 -1.155)" fill="#fff"/>
      <path id="Caminho_6565" data-name="Caminho 6565" d="M255.1,81.017q-.375,8.549-10.317,11.124-5.956,1.239-16.772-1.422-5.37-1.249-6.494-9.068-1.758-14.409,1.047-48.991l11.739.884q-2.68,31.316-1.691,41.19.538,4.467,2.882,5.408a6.33,6.33,0,0,0,4.294.307q3.112-.672,3.785-4.534,1.787-11.095-1.729-39.029l11.527-1.556A310.369,310.369,0,0,1,255.1,81.017Z" transform="translate(-8.661 -1.262)" fill="#fff"/>
      <path id="Caminho_6566" data-name="Caminho 6566" d="M277.113,56.555Q298,64.364,287.978,87.131a7.428,7.428,0,0,1-5.216,4.121A36.5,36.5,0,0,1,272.483,92.4q-8.79-.4-10.519-2.978A19.99,19.99,0,0,1,258.516,77.9a23.8,23.8,0,0,1,2.382-9.981l9.433,1.182q-3.007,5.014-.807,9,.961,1.787,4.63,1.758,4.063,0,5.11-.682a3.045,3.045,0,0,0,2.094-2.4q.961-6.215-5.312-8.521-17.291-7.944-17.617-17.819c-.1-7.877.893-12.488,2.939-13.871q5.552-4.121,15.629-5,10.346,0,12.344,7.983,1.057,4.976.173,14.409l-8.8.413c-.067-1.921-.192-3.621-.375-4.976q-.605-4.669-4.8-5.312c-3.7.048-5.879,1.595-6.561,4.64Q267.921,52.155,277.113,56.555Z" transform="translate(-10.142 -1.219)" fill="#fff"/>
    </g>
  </g>
</svg>
