<svg id="Camada_2" data-name="Camada 2" xmlns="http://www.w3.org/2000/svg" width="488.77" height="81.921" viewBox="0 0 488.77 81.921">
  <g id="Camada_1" data-name="Camada 1">
    <path id="Caminho_11818" data-name="Caminho 11818" d="M450.813,0H37.957A38.072,38.072,0,0,0,0,37.957v6.007A38.072,38.072,0,0,0,37.957,81.921H450.813A38.072,38.072,0,0,0,488.77,43.964V37.957A38.072,38.072,0,0,0,450.813,0Z" fill="#8dc641"/>
    <path id="Caminho_11819" data-name="Caminho 11819" d="M63.9,64.525q-5.958,8.356-11.458,9.223c-3.175.417-5.631.3-7.366-.36Q37.837,71.8,36.036,63.42q-3.077-19.06-1.522-31.164a11.747,11.747,0,0,1,8.1-9.993A23.136,23.136,0,0,1,54.892,20.97q7.488,1.637,7.668,9.133.09,3.437-.065,7.6L53.64,38.721c-.074-1.195-.2-2.382-.352-3.56-.319-1.931-1.334-2.954-3.028-3.053a5.86,5.86,0,0,0-3.92.687q-1.956.876-2.455,4.82-.9,8.781,1.1,22.539.908,4.092,5.213,3,2.791-.687,7.456-6.138Z" transform="translate(-6.173 -3.751)" fill="#7db041"/>
    <path id="Caminho_11820" data-name="Caminho 11820" d="M94.66,19.979a8.593,8.593,0,0,1,4.616,3.65q5.892,12.873,5.892,31.377a55,55,0,0,1-1.015,11.85q-1.94,7.071-12.12,7.071-11.507-.818-16.949-4.46-3.053-1.825-2.905-10.9,0-8.38,2.635-23.5,2.128-11.564,3.625-13.446,2.128-2.75,8.683-2.635a47.59,47.59,0,0,1,7.537.99ZM88.555,30.1c-1.751,0-2.913.491-3.47,1.555q-.606,1.1-1.948,9.551-2.267,17.235-.565,18.913c1.71,1.776,4.362,2.455,7.93,2.161q4.141-.6,4.82-4.092a48.865,48.865,0,0,0,.385-6.948,62.915,62.915,0,0,0-2.332-18.381,3.969,3.969,0,0,0-1.858-2.12A12.775,12.775,0,0,0,88.555,30.1Z" transform="translate(-13.107 -3.448)" fill="#7db041"/>
    <path id="Caminho_11821" data-name="Caminho 11821" d="M125.2,48.72l.065,24.838-8.863-1.072L114.58,22.564l8.528-2.823L133.5,46.895l10.713-29.4L152.66,18.6l-2.185,51.878-8.323,1.228V45.929l-6.171,18.144-4.91.123Z" transform="translate(-20.808 -3.176)" fill="#7db041"/>
    <path id="Caminho_11822" data-name="Caminho 11822" d="M186.1,51.917l-10.451,3.716V74.677l-9.485-1.588L164.4,20h13.291q15.173.712,15.623,6.4.311,13.651-1.825,19.764A7.335,7.335,0,0,1,186.1,51.917ZM175.718,30.582V46.6l5.025-1.637q3.077-.818,3.625-8.184.507-3.928-1.555-4.82A17.482,17.482,0,0,0,175.718,30.582Z" transform="translate(-29.856 -3.632)" fill="#7db041"/>
    <path id="Caminho_11823" data-name="Caminho 11823" d="M214.426,55.009v18.88l-9.526-.818-1.76-53.2Q231.546,17.265,232,26.791q.295,13.651-1.825,19.641-1.138,4.591-5.361,5.483l-.63.147,9.461,16.793L227.5,74.962Zm.057-25.207V44.255q8.184-.655,8.593-8.02c.36-2.9-.155-4.632-1.53-5.2Q219.336,29.77,214.483,29.8Z" transform="translate(-36.891 -3.507)" fill="#7db041"/>
    <path id="Caminho_11824" data-name="Caminho 11824" d="M270,74.778l-2.152-10.115H253.686l-2.455,8.38L241.5,71.1,258.744,20.06l6.645,1.072L280.57,72.388ZM256.747,54.785l8.618-.36-3.683-15.148Z" transform="translate(-43.858 -3.643)" fill="#7db041"/>
    <path id="Caminho_11825" data-name="Caminho 11825" d="M302.8,55.009v18.88l-9.518-.818-1.768-53.2q28.407-2.611,28.857,6.915.311,13.651-1.825,19.641-1.146,4.591-5.361,5.483l-.622.147,9.452,16.793-6.13,6.105Zm.057-25.207V44.255q8.184-.655,8.593-8.02.54-4.346-1.522-5.2Q307.7,29.77,302.853,29.8Z" transform="translate(-52.94 -3.507)" fill="#7db041"/>
    <path id="Caminho_11826" data-name="Caminho 11826" d="M376.965,74.778,374.8,64.663H360.646l-2.455,8.38L348.46,71.1,365.7,20.06l6.645,1.072L387.53,72.388ZM363.7,54.785l8.626-.36-3.683-15.148Z" transform="translate(-63.282 -3.643)" fill="#7db041"/>
    <path id="Caminho_11827" data-name="Caminho 11827" d="M408.894,42.874H424.64l-.687,20.689q-.655,10.009-9.608,10.746-5.729.45-8.348-.687-7.276-1.981-9.191-10.713-3.364-19.944-1.637-35.838.728-5.123,5.18-6.072,10.451-2.611,16.073-1.26,8.258,2.455,8.56,10.205c.106,2.373.115,4.984,0,7.816l-9.191.818c-.1-1.35-.237-2.668-.417-3.945q-.606-3.838-3.118-4.092-3.855-.818-5.778.155t-2.365,4.91q-.818,9.051,1.26,24.249,1.1,4.288,6.5,3.274,3.274-.507,3.355-4.518l.237-6.138-6.948.426Z" transform="translate(-71.658 -3.501)" fill="#7db041"/>
    <path id="Caminho_11828" data-name="Caminho 11828" d="M457.01,19.979a8.626,8.626,0,0,1,4.616,3.65q5.893,12.873,5.892,31.377a54.994,54.994,0,0,1-1.015,11.85q-1.956,7.071-12.12,7.071-11.507-.818-16.949-4.46-3.02-1.825-2.905-10.9,0-8.38,2.635-23.5,2.1-11.564,3.625-13.446,2.128-2.75,8.683-2.635a47.59,47.59,0,0,1,7.537.99ZM450.905,30.1c-1.751,0-2.914.491-3.47,1.555q-.606,1.1-1.948,9.551-2.275,17.235-.565,18.913,2.562,2.66,7.93,2.161c2.75-.4,4.362-1.776,4.82-4.092a48.863,48.863,0,0,0,.385-6.948,62.918,62.918,0,0,0-2.332-18.381,3.97,3.97,0,0,0-1.858-2.12A12.881,12.881,0,0,0,450.905,30.1Z" transform="translate(-78.912 -3.448)" fill="#7db041"/>
    <path id="Caminho_11829" data-name="Caminho 11829" d="M488.436,55.009v18.88l-9.518-.818-1.768-53.2q28.406-2.611,28.857,6.915.295,13.651-1.825,19.641-1.146,4.591-5.36,5.483l-.63.147,9.461,16.793-6.138,6.105Zm.057-25.207V44.255q8.184-.655,8.593-8.02.54-4.346-1.53-5.2-2.21-1.26-7.071-1.228Z" transform="translate(-86.653 -3.507)" fill="#7db041"/>
    <path id="Caminho_11830" data-name="Caminho 11830" d="M544.017,74.778l-2.152-10.115H527.706l-2.455,8.38L515.52,71.1,532.764,20.06l6.645,1.072,15.173,51.256ZM530.759,54.785l8.618-.36-3.683-15.148Z" transform="translate(-93.621 -3.643)" fill="#7db041"/>
    <path id="Caminho_11831" data-name="Caminho 11831" d="M63.9,60.375Q57.943,68.722,52.443,69.6q-4.763.63-7.366-.36-7.251-1.588-9.051-9.968Q32.949,40.193,34.5,28.105a11.755,11.755,0,0,1,8.11-10A23.128,23.128,0,0,1,54.89,16.82q7.488,1.637,7.668,9.125.09,3.454-.065,7.6l-8.855,1.023c-.074-1.195-.2-2.39-.352-3.56-.319-1.94-1.334-2.954-3.028-3.061a5.811,5.811,0,0,0-3.92.7c-1.3.573-2.12,2.185-2.455,4.82q-.9,8.765,1.1,22.539c.606,2.717,2.341,3.707,5.213,3q2.791-.687,7.456-6.138Z" transform="translate(-6.171 -2.997)" fill="#fff"/>
    <path id="Caminho_11832" data-name="Caminho 11832" d="M94.66,15.829a8.56,8.56,0,0,1,4.616,3.65q5.892,12.865,5.892,31.369a55.078,55.078,0,0,1-1.015,11.859q-1.94,7.1-12.12,7.1-11.507-.818-16.949-4.46-3.053-1.866-2.905-10.926,0-8.389,2.635-23.5,2.128-11.548,3.625-13.438,2.128-2.758,8.683-2.635a45.675,45.675,0,0,1,7.537.99ZM88.555,25.944c-1.751,0-2.913.5-3.47,1.555q-.606,1.1-1.948,9.567-2.267,17.235-.565,18.9c1.71,1.776,4.362,2.5,7.93,2.152q4.141-.606,4.82-4.133a48.818,48.818,0,0,0,.385-6.94A62.813,62.813,0,0,0,93.375,28.67a3.994,3.994,0,0,0-1.858-2.128,13.242,13.242,0,0,0-2.963-.6Z" transform="translate(-13.107 -2.694)" fill="#fff"/>
    <path id="Caminho_11833" data-name="Caminho 11833" d="M125.2,44.562l.065,24.879-8.863-1.08L114.58,18.439l8.528-2.856L133.5,42.737l10.713-29.4,8.446,1.1-2.185,51.878-8.323,1.228V41.779l-6.171,18.144-4.91.115Z" transform="translate(-20.808 -2.423)" fill="#fff"/>
    <path id="Caminho_11834" data-name="Caminho 11834" d="M186.1,47.765l-10.451,3.707V70.516l-9.485-1.588L164.4,15.79h13.291q15.173.72,15.623,6.408.311,13.651-1.825,19.756A7.387,7.387,0,0,1,186.1,47.765ZM175.718,26.421V42.437l5.025-1.637q3.077-.818,3.625-8.143c.336-2.611-.18-4.223-1.555-4.82C181.333,27.018,178.967,26.536,175.718,26.421Z" transform="translate(-29.856 -2.868)" fill="#fff"/>
    <path id="Caminho_11835" data-name="Caminho 11835" d="M214.426,50.839V69.727l-9.526-.818-1.76-53.253q28.406-2.6,28.857,6.915.295,13.651-1.825,19.641-1.138,4.575-5.361,5.475l-.63.155,9.461,16.769L227.5,70.718Zm.057-25.182V40.093q8.184-.663,8.593-8.02c.36-2.9-.155-4.632-1.53-5.213Q219.336,25.608,214.483,25.657Z" transform="translate(-36.891 -2.742)" fill="#fff"/>
    <path id="Caminho_11836" data-name="Caminho 11836" d="M270,70.626,267.852,60.5H253.686l-2.455,8.38-9.731-1.94L258.752,15.9l6.645,1.08L280.57,68.2Zm-13.258-20,8.618-.36-3.683-15.148Z" transform="translate(-43.858 -2.888)" fill="#fff"/>
    <path id="Caminho_11837" data-name="Caminho 11837" d="M302.8,50.839V69.727l-9.518-.818L291.51,15.656q28.406-2.6,28.857,6.915.311,13.651-1.825,19.641-1.146,4.575-5.361,5.475l-.622.155,9.453,16.769-6.13,6.105Zm.057-25.207V40.093q8.184-.663,8.593-8.02.54-4.346-1.522-5.213-2.226-1.252-7.071-1.2Z" transform="translate(-52.94 -2.742)" fill="#fff"/>
    <path id="Caminho_11838" data-name="Caminho 11838" d="M376.965,70.626,374.8,60.5H360.646l-2.455,8.38-9.731-1.94L365.7,15.9l6.645,1.08L387.53,68.2Zm-13.266-20,8.626-.36-3.683-15.148Z" transform="translate(-63.282 -2.888)" fill="#fff"/>
    <path id="Caminho_11839" data-name="Caminho 11839" d="M408.894,38.763H424.64l-.687,20.681Q423.3,69.453,414.345,70.2q-5.729.442-8.348-.687-7.276-1.981-9.191-10.721-3.364-19.936-1.637-35.829.728-5.115,5.18-6.081,10.451-2.6,16.073-1.26,8.258,2.455,8.56,10.214.155,3.56,0,7.807l-9.191.818q-.147-2.038-.417-3.953-.606-3.83-3.118-4.092-3.855-.818-5.778.147c-1.277.557-2.062,2.21-2.365,4.91q-.818,9,1.26,24.249,1.1,4.272,6.5,3.274,3.274-.516,3.355-4.518l.237-6.138-6.948.417Z" transform="translate(-71.658 -2.753)" fill="#fff"/>
    <path id="Caminho_11840" data-name="Caminho 11840" d="M457.01,15.836a8.585,8.585,0,0,1,4.616,3.65q5.892,12.865,5.892,31.369A55.078,55.078,0,0,1,466.5,62.714q-1.948,7.1-12.12,7.1-11.507-.818-16.949-4.46-3.02-1.833-2.905-10.893,0-8.389,2.635-23.5,2.1-11.548,3.625-13.438,2.128-2.758,8.683-2.635a45.675,45.675,0,0,1,7.537.958Zm-6.105,10.115c-1.751,0-2.914.5-3.47,1.555q-.606,1.1-1.948,9.551-2.275,17.252-.565,18.921,2.562,2.66,7.93,2.152c2.75-.4,4.362-1.776,4.82-4.133a48.8,48.8,0,0,0,.385-6.94,62.811,62.811,0,0,0-2.332-18.381,3.994,3.994,0,0,0-1.858-2.128A13.348,13.348,0,0,0,450.905,25.952Z" transform="translate(-78.912 -2.701)" fill="#fff"/>
    <path id="Caminho_11841" data-name="Caminho 11841" d="M488.436,50.839V69.727l-9.518-.818L477.15,15.656q28.406-2.6,28.857,6.915.295,13.651-1.825,19.641-1.146,4.575-5.36,5.475l-.63.155,9.461,16.769-6.138,6.105Zm.049-25.182V40.093q8.184-.663,8.593-8.02.54-4.346-1.53-5.213Q493.346,25.608,488.485,25.657Z" transform="translate(-86.653 -2.742)" fill="#fff"/>
    <path id="Caminho_11842" data-name="Caminho 11842" d="M544.017,70.626,541.864,60.5H527.706l-2.455,8.38-9.731-1.94L532.764,15.9l6.645,1.08L554.582,68.2Zm-13.258-20,8.618-.36-3.683-15.148Z" transform="translate(-93.621 -2.888)" fill="#fff"/>
  </g>
</svg>
