<svg id="Camada_2" data-name="Camada 2" xmlns="http://www.w3.org/2000/svg" width="415.895" height="97.573" viewBox="0 0 415.895 97.573">
  <g id="Camada_1" data-name="Camada 1">
    <path id="Caminho_6567" data-name="Caminho 6567" d="M370.686,0H45.209A45.34,45.34,0,0,0,0,45.209v7.155A45.34,45.34,0,0,0,45.209,97.573H370.686A45.34,45.34,0,0,0,415.9,52.364V45.209A45.34,45.34,0,0,0,370.686,0Z" fill="#ed7f82"/>
    <path id="Caminho_6568" data-name="Caminho 6568" d="M70.148,78.529q-4.844,6.8-9.335,7.508a12.731,12.731,0,0,1-5.993-.3q-5.924-1.273-7.384-8.11-2.512-15.522-1.246-25.369A9.545,9.545,0,0,1,52.8,44.123a18.912,18.912,0,0,1,9.965-1.045q6.083,1.322,6.228,7.432.069,2.8-.048,6.187l-7.211.83c-.069-.976-.166-1.945-.3-2.9a2.543,2.543,0,0,0-2.457-2.484,4.754,4.754,0,0,0-3.19.561q-1.592.692-2,3.924-.74,7.135.9,18.345.734,3.308,4.242,2.436,2.263-.561,6.069-5Z" transform="translate(-14.096 -13.19)" fill="#ce5b64"/>
    <path id="Caminho_6569" data-name="Caminho 6569" d="M100.852,42.021A7.01,7.01,0,0,1,104.6,45q4.8,10.477,4.8,25.535a44.794,44.794,0,0,1-.823,9.647q-1.592,5.751-9.868,5.751-9.363-.692-13.792-3.633-2.457-1.481-2.367-8.865A119.212,119.212,0,0,1,84.694,54.3q1.716-9.4,2.948-10.941,1.73-2.242,7.065-2.145A38.627,38.627,0,0,1,100.852,42.021Zm-4.976,8.235q-2.138,0-2.823,1.266-.484.9-1.585,7.771Q89.621,73.327,91,74.7q2.076,2.173,6.456,1.751,3.363-.484,3.924-3.363a39.4,39.4,0,0,0,.318-5.654,51.045,51.045,0,0,0-1.9-14.954,3.252,3.252,0,0,0-1.509-1.73,10.746,10.746,0,0,0-2.422-.491Z" transform="translate(-25.424 -12.694)" fill="#ce5b64"/>
    <path id="Caminho_6570" data-name="Caminho 6570" d="M132,65.19l.048,20.248-7.211-.879L123.35,43.9l6.969-2.291,8.429,22.1,8.726-23.923,6.872.9-1.778,42.212-6.775,1V62.921l-5.017,14.767-4,.1Z" transform="translate(-37.991 -12.252)" fill="#ce5b64"/>
    <path id="Caminho_6571" data-name="Caminho 6571" d="M188.97,68.156l-8.5,3.017v15.5l-7.73-1.294L171.31,42.13h10.816q12.352.588,12.719,5.218.242,11.072-1.488,16.082A5.994,5.994,0,0,1,188.97,68.156ZM180.521,50.78V63.817l4.09-1.315q2.512-.651,2.948-6.629.415-3.183-1.266-3.924A13.311,13.311,0,0,0,180.521,50.78Z" transform="translate(-52.763 -12.976)" fill="#ce5b64"/>
    <path id="Caminho_6572" data-name="Caminho 6572" d="M217.78,70.548V85.917l-7.75-.692L208.59,41.878q23.127-2.118,23.494,5.633.242,11.072-1.488,15.958a5.483,5.483,0,0,1-4.36,4.457l-.512.125,7.7,13.7-5,4.969Zm.048-20.518V61.794q6.678-.54,6.989-6.533c.3-2.353-.118-3.771-1.239-4.242A12.19,12.19,0,0,0,217.828,50.03Z" transform="translate(-64.245 -12.758)" fill="#ce5b64"/>
    <path id="Caminho_6573" data-name="Caminho 6573" d="M268.735,86.787l-1.758-8.235H255.456l-1.979,6.823L245.56,83.79l14.034-41.52,5.412.879,12.352,41.686Zm-10.8-16.276,7.017-.291-3-12.332Z" transform="translate(-75.631 -13.019)" fill="#ce5b64"/>
    <path id="Caminho_6574" data-name="Caminho 6574" d="M302.843,70.548V85.917l-7.744-.692L293.66,41.878q23.127-2.118,23.487,5.633.249,11.072-1.488,15.958a5.466,5.466,0,0,1-4.36,4.457l-.512.125,7.7,13.7-5,4.969Zm.048-20.518V61.794q6.685-.54,7-6.533c.291-2.353-.125-3.771-1.246-4.242A12.166,12.166,0,0,0,302.891,50.03Z" transform="translate(-90.446 -12.758)" fill="#ce5b64"/>
    <path id="Caminho_6575" data-name="Caminho 6575" d="M371.676,86.787l-1.751-8.235H358.4l-2,6.823L348.48,83.79l14.034-41.52,5.411.879,12.352,41.686Zm-10.8-16.276,7.017-.291-3-12.332Z" transform="translate(-107.33 -13.019)" fill="#ce5b64"/>
    <path id="Caminho_6576" data-name="Caminho 6576" d="M404.529,60.691h12.816l-.561,16.836q-.54,8.138-7.82,8.747c-3.121.242-5.384.055-6.8-.561q-5.917-1.612-7.474-8.719a107.283,107.283,0,0,1-1.322-29.168q.588-4.152,4.221-4.948,8.525-2.145,13.079-1.045,6.726,1.979,6.968,8.3c.083,1.931.09,4.055,0,6.36l-7.481.692c-.083-1.107-.194-2.18-.339-3.218q-.488-3.114-2.54-3.342a7.5,7.5,0,0,0-4.7.125c-1.038.519-1.682,1.792-1.924,4.021q-.692,7.363,1.024,19.736.893,3.46,5.287,2.678,2.678-.415,2.727-3.675l.194-5-5.654.339Z" transform="translate(-121.008 -12.77)" fill="#ce5b64"/>
    <path id="Caminho_6577" data-name="Caminho 6577" d="M449.625,42.021A6.982,6.982,0,0,1,453.375,45q4.8,10.477,4.8,25.535a44.72,44.72,0,0,1-.83,9.647q-1.578,5.751-9.868,5.751-9.349-.692-13.792-3.633-2.464-1.481-2.36-8.865A119.212,119.212,0,0,1,433.473,54.3q1.7-9.4,2.948-10.941,1.723-2.242,7.065-2.145a38.629,38.629,0,0,1,6.138.8Zm-4.969,8.235c-1.432,0-2.374.408-2.83,1.266q-.491.9-1.578,7.771-1.861,14.034-.464,15.4c1.384,1.446,3.55,2.028,6.456,1.751q3.363-.484,3.924-3.363a40.623,40.623,0,0,0,.311-5.654,51.223,51.223,0,0,0-1.9-14.954,3.239,3.239,0,0,0-1.516-1.73A10.663,10.663,0,0,0,444.656,50.256Z" transform="translate(-132.846 -12.694)" fill="#ce5b64"/>
    <path id="Caminho_6578" data-name="Caminho 6578" d="M481.533,70.548V85.917l-7.75-.692L472.35,41.878q23.113-2.118,23.487,5.633.235,11.072-1.488,15.958a5.466,5.466,0,0,1-4.36,4.457l-.512.125,7.7,13.7-5,4.969Zm.048-20.518V61.794q6.678-.54,7-6.533c.291-2.353-.125-3.771-1.246-4.242A12.19,12.19,0,0,0,481.581,50.03Z" transform="translate(-145.481 -12.758)" fill="#ce5b64"/>
    <path id="Caminho_6579" data-name="Caminho 6579" d="M532.476,86.787l-1.751-8.235H519.2L517.2,85.375,509.28,83.79l14.034-41.52,5.411.879,12.352,41.686Zm-10.8-16.276,7.017-.291-3-12.332Z" transform="translate(-156.856 -13.019)" fill="#ce5b64"/>
    <path id="Caminho_6580" data-name="Caminho 6580" d="M70.148,74.529q-4.844,6.8-9.335,7.508a12.731,12.731,0,0,1-5.993-.3q-5.924-1.273-7.384-8.11Q44.925,58.108,46.191,48.26A9.545,9.545,0,0,1,52.8,40.123a18.912,18.912,0,0,1,9.965-1.045q6.083,1.322,6.228,7.432.069,2.8-.048,6.187l-7.211.83c-.069-.976-.166-1.945-.3-2.9a2.543,2.543,0,0,0-2.457-2.484,4.754,4.754,0,0,0-3.19.561q-1.592.692-2,3.924-.74,7.135.9,18.345.734,3.308,4.242,2.436,2.263-.561,6.069-5Z" transform="translate(-14.096 -11.958)" fill="#fff"/>
    <path id="Caminho_6581" data-name="Caminho 6581" d="M100.852,38.021A7.01,7.01,0,0,1,104.6,41q4.8,10.477,4.8,25.535a44.794,44.794,0,0,1-.823,9.647q-1.592,5.751-9.868,5.751-9.363-.692-13.792-3.633-2.457-1.481-2.367-8.865A119.212,119.212,0,0,1,84.694,50.3q1.716-9.4,2.948-10.941,1.73-2.242,7.065-2.145a38.629,38.629,0,0,1,6.145.8Zm-4.976,8.235q-2.138,0-2.823,1.266-.484.9-1.585,7.771Q89.621,69.327,91,70.7q2.076,2.173,6.456,1.751,3.363-.484,3.924-3.363a39.4,39.4,0,0,0,.318-5.654,51.045,51.045,0,0,0-1.9-14.954,3.252,3.252,0,0,0-1.509-1.73,10.747,10.747,0,0,0-2.422-.491Z" transform="translate(-25.424 -11.462)" fill="#fff"/>
    <path id="Caminho_6582" data-name="Caminho 6582" d="M132,61.19l.048,20.248-7.211-.879L123.35,39.9l6.969-2.291,8.429,22.1,8.726-23.923,6.872.9-1.778,42.212-6.775,1V58.921l-5.017,14.767-4,.1Z" transform="translate(-37.991 -11.02)" fill="#fff"/>
    <path id="Caminho_6583" data-name="Caminho 6583" d="M188.97,64.156l-8.5,3.017v15.5l-7.73-1.294L171.31,38.13h10.816q12.352.588,12.719,5.218.242,11.072-1.488,16.082A5.994,5.994,0,0,1,188.97,64.156ZM180.521,46.78V59.817l4.09-1.315q2.512-.65,2.948-6.629.415-3.183-1.266-3.924A13.311,13.311,0,0,0,180.521,46.78Z" transform="translate(-52.763 -11.744)" fill="#fff"/>
    <path id="Caminho_6584" data-name="Caminho 6584" d="M217.78,66.548V81.917l-7.75-.692L208.59,37.878q23.127-2.118,23.494,5.633.242,11.072-1.488,15.958a5.483,5.483,0,0,1-4.36,4.457l-.512.125,7.7,13.7-5,4.969Zm.048-20.518V57.794q6.678-.54,6.989-6.533c.3-2.353-.118-3.771-1.239-4.242A12.19,12.19,0,0,0,217.828,46.03Z" transform="translate(-64.245 -11.526)" fill="#fff"/>
    <path id="Caminho_6585" data-name="Caminho 6585" d="M268.735,82.787l-1.758-8.235H255.456l-1.979,6.823L245.56,79.79l14.034-41.52,5.412.879,12.352,41.686Zm-10.8-16.276,7.017-.291-3-12.332Z" transform="translate(-75.631 -11.787)" fill="#fff"/>
    <path id="Caminho_6586" data-name="Caminho 6586" d="M302.843,66.548V81.917l-7.744-.692L293.66,37.878q23.127-2.118,23.487,5.633.249,11.072-1.488,15.958a5.466,5.466,0,0,1-4.36,4.457l-.512.125,7.7,13.7-5,4.969Zm.048-20.518V57.794q6.685-.54,7-6.533c.291-2.353-.125-3.771-1.246-4.242A12.166,12.166,0,0,0,302.891,46.03Z" transform="translate(-90.446 -11.526)" fill="#fff"/>
    <path id="Caminho_6587" data-name="Caminho 6587" d="M371.676,82.787l-1.751-8.235H358.4l-2,6.823L348.48,79.79l14.034-41.52,5.411.879,12.352,41.686Zm-10.8-16.276,7.017-.291-3-12.332Z" transform="translate(-107.33 -11.787)" fill="#fff"/>
    <path id="Caminho_6588" data-name="Caminho 6588" d="M404.529,56.691h12.816l-.561,16.836q-.54,8.138-7.82,8.747c-3.121.242-5.384.055-6.8-.561q-5.917-1.612-7.474-8.719a107.283,107.283,0,0,1-1.322-29.168q.588-4.152,4.221-4.948,8.525-2.145,13.079-1.045,6.726,1.979,6.968,8.3c.083,1.931.09,4.055,0,6.36l-7.481.692c-.083-1.107-.194-2.18-.339-3.218q-.488-3.114-2.54-3.342a7.5,7.5,0,0,0-4.7.125c-1.038.519-1.682,1.792-1.924,4.021q-.692,7.363,1.024,19.736.893,3.46,5.287,2.678,2.678-.415,2.727-3.675l.194-5-5.654.339Z" transform="translate(-121.008 -11.538)" fill="#fff"/>
    <path id="Caminho_6589" data-name="Caminho 6589" d="M449.625,38.021A6.982,6.982,0,0,1,453.375,41q4.8,10.477,4.8,25.535a44.72,44.72,0,0,1-.83,9.647q-1.578,5.751-9.868,5.751-9.349-.692-13.792-3.633-2.464-1.481-2.36-8.865A119.212,119.212,0,0,1,433.473,50.3q1.7-9.4,2.948-10.941,1.723-2.242,7.065-2.145A38.629,38.629,0,0,1,449.625,38.021Zm-4.969,8.235c-1.432,0-2.374.408-2.83,1.266q-.491.9-1.578,7.771-1.861,14.034-.464,15.4c1.384,1.446,3.55,2.028,6.456,1.751q3.363-.484,3.924-3.363a40.623,40.623,0,0,0,.311-5.654,51.223,51.223,0,0,0-1.9-14.954,3.239,3.239,0,0,0-1.516-1.73A10.663,10.663,0,0,0,444.656,46.256Z" transform="translate(-132.846 -11.462)" fill="#fff"/>
    <path id="Caminho_6590" data-name="Caminho 6590" d="M481.533,66.548V81.917l-7.75-.692L472.35,37.878q23.113-2.118,23.487,5.633.235,11.072-1.488,15.958a5.466,5.466,0,0,1-4.36,4.457l-.512.125,7.7,13.7-5,4.969Zm.048-20.518V57.794q6.678-.54,7-6.533c.291-2.353-.125-3.771-1.246-4.242A12.19,12.19,0,0,0,481.581,46.03Z" transform="translate(-145.481 -11.526)" fill="#fff"/>
    <path id="Caminho_6591" data-name="Caminho 6591" d="M532.476,82.787l-1.751-8.235H519.2L517.2,81.375,509.28,79.79l14.034-41.52,5.411.879,12.352,41.686Zm-10.8-16.276,7.017-.291-3-12.332Z" transform="translate(-156.856 -11.787)" fill="#fff"/>
  </g>
</svg>
