<svg xmlns="http://www.w3.org/2000/svg" width="485.238" height="209.159" viewBox="0 0 485.238 209.159">
  <g id="Grupo_761" data-name="Grupo 761" transform="translate(-231 -167.841)">
    <g id="Camada_2" data-name="Camada 2" transform="translate(231 167.841)">
      <g id="Camada_1" data-name="Camada 1" transform="translate(0 0)">
        <path id="Caminho_6521" data-name="Caminho 6521" d="M473.713,142.582a11.889,11.889,0,0,0,4.528-8.233c1.065-11.47.905-20.257-.47-26.83a4.2,4.2,0,0,0-.1-.411,30.881,30.881,0,0,0-3.052-7.546,19.787,19.787,0,0,0,5.45-7.3c5.869-13.281,6.708-24.96,2.582-34.711a32.51,32.51,0,0,0-2.515-4.787,11.78,11.78,0,0,0,2.775-6.573c.838-9.281.729-16.45-.419-21.908a1.951,1.951,0,0,0-.092-.428c-1.484-5.777-7.009-19.175-27.283-19.175h-1.031c-8.661.746-15.989,2.817-21.917,6.1a25.4,25.4,0,0,0-8.929-5.534c-.31-.117-.646-.218-.981-.319a78.826,78.826,0,0,0-13.1-1.769h-.688q-11.411-.2-18.06,4.536a11.738,11.738,0,0,0-3.27-.688L372.17,5.976a11.478,11.478,0,0,0-4.377.537c-.218-.218-.436-.436-.671-.654a11.814,11.814,0,0,0-9.114-3.01L343.076,4.324a11.738,11.738,0,0,0-5.735,2.163l-10.791.6a11.813,11.813,0,0,0-6.389,2.306,11.805,11.805,0,0,0-12.878-6.464L293.156,5.64A11.738,11.738,0,0,0,286.5,9.506L258.411,7.544a12.04,12.04,0,0,0-4.393.528,31.814,31.814,0,0,0-15.142-3.354,8.348,8.348,0,0,0-1.023.042c-8.217.713-15.226,2.6-20.961,5.592a9.039,9.039,0,0,0-1.224-.193L178.835,7.544a11.738,11.738,0,0,0-6.557,1.476A40.7,40.7,0,0,0,154.588,5.1l-18.965-.134a12.149,12.149,0,0,0-8.451,3.488c-.235.235-.453.486-.671.746a11.192,11.192,0,0,0-1.266-1.476,11.855,11.855,0,0,0-8.9-3.354L81.468,6.353A11.287,11.287,0,0,0,80.093,4.5,11.738,11.738,0,0,0,71.8.618L56.851,0A11.738,11.738,0,0,0,45.172,8.105a11.738,11.738,0,0,0-7.37,1.4,12.1,12.1,0,0,0-1.677-1.954,11.847,11.847,0,0,0-8.686-3.27L11.282,4.97A11.805,11.805,0,0,0,0,17.228l2.893,76.3a11.738,11.738,0,0,0,4.024,8.384,35.315,35.315,0,0,0-5.869,15.2.629.629,0,0,1-.042.218c-2,15.981-1.082,35.793,2.918,60.418.042.193.075.394.117.587,3.094,14.455,11.889,24.071,24.8,27.182a33.261,33.261,0,0,0,10.64,1.576,58.476,58.476,0,0,0,7.722-.545h.293a31.534,31.534,0,0,0,12.325-4.922c.243.059.478.134.713.176l17.825,3.563a11.8,11.8,0,0,0,13.65-8.334l2.012-6.85h7.546l1.954,9.172a11.847,11.847,0,0,0,14.2,9.063l14.337-3.287a11.325,11.325,0,0,0,2.976.688l17.431,1.476a11.8,11.8,0,0,0,12.174-7.915l2.935,4.452a11.872,11.872,0,0,0,8.644,5.257,12.082,12.082,0,0,0,1.224.059,11.8,11.8,0,0,0,8.335-3.447l10.295-10.261a11.738,11.738,0,0,0,13.113,9.977l18.026-2.247a11.738,11.738,0,0,0,9.709-7.973,19.289,19.289,0,0,0,2.842,2.247c8.451,5.592,20.424,8.879,36.6,10h.838c11.805,0,19.561-3.27,24.684-7.546,8.057,4.075,18.655,6.557,32.229,7.546h.838c9.164,0,15.88-1.97,20.827-4.846a12.1,12.1,0,0,0,4.846.713l15.737-1.04a11.83,11.83,0,0,0,10.019-7.018l2.515,5.869a11.83,11.83,0,0,0,10.841,7.11h15.243a11.83,11.83,0,0,0,8.041-3.152,58.691,58.691,0,0,0,15.318,2.381h.553c8.217,0,14.757-.771,20.013-2.348,9.676-2.775,14.027-8.8,15.93-13.256,7.051-16.014,8.133-29.982,3.27-41.545a34.887,34.887,0,0,0-4.393-7.73Z" transform="translate(0.02 0.014)" fill="#fff"/>
        <path id="Caminho_6522" data-name="Caminho 6522" d="M30.327,102.207V77.2l.092-.042,14.555,23.023,13.692-3.4L40.447,63.186,57.978,31.435,45.922,27.553,30.327,51.347V23.83l-16.157.7,2.9,76.264Z" transform="translate(-2.272 -3.839)" fill="#d0d2d3"/>
        <path id="Caminho_6523" data-name="Caminho 6523" d="M81.074,38.653l1.165-19.309-14.949-.6L68.766,38.1Z" transform="translate(-10.855 -3.016)" fill="#d0d2d3"/>
        <path id="Caminho_6524" data-name="Caminho 6524" d="M70.191,106.508,82.5,103.062V47.75L67.55,49.486Z" transform="translate(-10.897 -7.703)" fill="#d0d2d3"/>
        <path id="Caminho_6525" data-name="Caminho 6525" d="M101.125,100.454l14.17-1.777,1.04-57.24h13.91l.511-17.507-45.8,2.6.252,14.907h15.134Z" transform="translate(-13.709 -3.855)" fill="#d0d2d3"/>
        <path id="Caminho_6526" data-name="Caminho 6526" d="M197.816,87.056q2.926-8.762,4.276-43.037-.084-18.94-21.388-19.225L161.73,24.66l.838,75.987Q194.379,97.889,197.816,87.056Zm-20.7-45.276q6.565-.553,9.676,1.476c1.9.989,2.616,3.572,2.163,7.747q-1.207,29.538-5.1,30.117l-6.808,2.314Z" transform="translate(-26.113 -3.973)" fill="#d0d2d3"/>
        <path id="Caminho_6527" data-name="Caminho 6527" d="M250.224,97.158l-.629-9.1a27.434,27.434,0,0,0,4.1,10.221q2.214,3.287,13.415,3.8a46.681,46.681,0,0,0,13.138-1.476c3.354-.947,5.55-2.7,6.657-5.257a58.177,58.177,0,0,0,2.834-7.974L289.4,98.81l40.4-1.677L328.861,83.6,304.5,82.4V74.109l17.833-1.124V59.277L304.521,58.7V43.607h24.264l-.394-13.784-36.816-2.6-1.342,45.125c-2.029-7.135-7.722-12.468-17.154-16.014q-11.738-5.584-10.464-10.061c.838-3.874,3.664-5.869,8.384-5.928q5.358.838,6.129,6.775a62.113,62.113,0,0,1,.47,6.347l11.227-.511c.755-8.015.671-14.128-.21-18.362q-2.515-10.187-15.779-10.2Q259.95,25.514,252.882,30.8q-3.932,2.633-3.765,17.708.386,12.577,22.512,22.772c5.358,1.945,7.63,5.592,6.783,10.9a3.906,3.906,0,0,1-2.683,3.069c-.889.57-3.069.838-6.523.838-3.127,0-5.115-.729-5.928-2.247-1.87-3.412-1.534-7.227,1.048-11.487L252.27,70.831A30.386,30.386,0,0,0,249.3,83.592h0l-24.365-1.207V74.076l17.808-1.124V59.2l-17.808-.57V43.5h24.248l-.394-13.784-36.816-2.6-2.1,71.636Z" transform="translate(-33.89 -3.929)" fill="#d0d2d3"/>
        <path id="Caminho_6528" data-name="Caminho 6528" d="M367.665,97.64l.654-37.805L386.731,102.3h12l2.54-76.205,1.954,70.848,12.92,1.484V75.263l12.191-1.3V101.95l13.038-1.023,1.912-74.713-14.949-.981V59.366l-12.191-.713v-36.6l-14.949,1.476.059,1.878-17.079.939,1.006,38.409L366.5,21.98,352.38,24.7l2.893,73.766Z" transform="translate(-56.915 -3.54)" fill="#d0d2d3"/>
        <path id="Caminho_6529" data-name="Caminho 6529" d="M465.393,95.332q7.865,5.265,24.466,6.448,14.689,0,17.5-10.2a.183.183,0,0,1,0-.084,30.444,30.444,0,0,0,3.144,6.464q2.226,3.282,13.415,3.8a46.839,46.839,0,0,0,13.138-1.476c3.236-.981,5.55-2.7,6.657-5.257q12.82-29.077-13.843-39.063Q518.13,50.375,519.4,45.9c.838-3.882,3.664-5.869,8.384-5.936,3.563.553,5.617,2.817,6.129,6.783A61.918,61.918,0,0,1,534.4,53.1l11.227-.511q1.115-12.023-.218-18.362-2.515-10.187-15.771-10.2-12.887,1.132-19.955,6.406c-2.448,1.635-3.689,6.951-3.748,15.838a85.71,85.71,0,0,0-5.609-17.079,12.475,12.475,0,0,0-6.657-5.282,66.923,66.923,0,0,0-10.9-1.417c-6.3-.117-10.48,1.14-12.535,3.806q-2.213,2.717-5.215,19.4-3.807,21.8-3.807,33.915Q461.033,92.716,465.393,95.332Zm63.034-24.407c5.358,1.954,7.621,5.6,6.775,10.9a3.881,3.881,0,0,1-2.675,3.069c-.889.57-3.077.838-6.523.838-3.127,0-5.123-.729-5.928-2.247-1.87-3.412-1.518-7.227,1.048-11.487l-12.057-1.518c-.117.235-.2.495-.319.746a136.538,136.538,0,0,0-1.358-17.112Q511.657,63.22,528.426,70.925Zm-51.4-16.366c1.3-8.116,2.222-12.719,2.817-13.784.838-1.518,2.515-2.289,5.031-2.247a19.285,19.285,0,0,1,4.276.838,5.819,5.819,0,0,1,2.683,3.077c2.239,7.269,3.354,16.09,3.354,26.528a67.907,67.907,0,0,1-.57,10.061c-.671,3.412-2.977,5.374-6.951,5.97-5.165.495-8.98-.553-11.445-3.111Q473.743,79.435,477.022,54.559Z" transform="translate(-74.496 -3.621)" fill="#d0d2d3"/>
        <path id="Caminho_6530" data-name="Caminho 6530" d="M57.464,187.586q-8.56,9.986-13.65,11.252c-5.257,1.316-8.451-.511-9.533-5.475q-3.672-25.237-2.029-41.31.947-7.227,4.486-8.82a10.749,10.749,0,0,1,7.194-1.283c3.111.176,4.964,2.054,5.534,5.6.293,2.163.511,4.326.654,6.515l16.224-1.87c.184-5.081.218-9.734.126-13.926q-.327-13.767-14.044-16.727-10.313-1.962-22.47,2.381-12.795,4.611-14.84,18.32-2.867,22.16,2.8,57.089,3.27,15.352,16.559,18.253c3.178,1.207,7.688,1.425,13.5.654q10.061-1.6,20.961-16.878Z" transform="translate(-2.269 -19.527)" fill="#d0d2d3"/>
        <path id="Caminho_6531" data-name="Caminho 6531" d="M106.609,119.92,75,213.422l17.825,3.572,4.494-15.343H123.26L127.2,220.18l19.359-4.427-27.794-93.846Zm-3.681,63.621,9.038-28.4,6.707,27.752Z" transform="translate(-12.1 -19.363)" fill="#d0d2d3"/>
        <path id="Caminho_6532" data-name="Caminho 6532" d="M198.118,178.15q7.739-1.677,9.81-10.061,3.9-10.9,3.354-35.927-.838-17.431-52.821-12.669l3.228,97.56,17.347,1.492v-34.6l24,36.422,11.252-11.193-17.339-30.729Zm-3.153-28.582c-.478,9-5.735,13.885-15.746,14.7V137.771q8.9-.067,12.945,2.247C194.672,141.1,195.594,144.269,194.966,149.568Z" transform="translate(-25.584 -19.129)" fill="#d0d2d3"/>
        <path id="Caminho_6533" data-name="Caminho 6533" d="M281.479,119.85l-58.129,3.287.335,18.932h19.192l.981,74.914,17.984-2.247,1.316-72.667h17.674Z" transform="translate(-36.068 -19.352)" fill="#d0d2d3"/>
        <path id="Caminho_6534" data-name="Caminho 6534" d="M492.8,160.429q-14.916-7.068-13.272-12.786,1.677-7.42,10.631-7.5,6.808,1.031,7.781,8.611c.3,2.18.495,4.88.612,8.049l14.253-.646q1.417-15.243-.277-23.3-3.245-12.945-20.013-12.945-16.341,1.417-25.329,8.116a8.753,8.753,0,0,0-2.935,4.494L464.6,121.7l-21.715,1.232,1.258,48.755L420.448,117.4l-17.926,3.446,1.635,41.821c-1.593-13.608-4.762-25.706-9.592-36.229a15.821,15.821,0,0,0-8.451-6.708q-3.773-1.031-13.826-1.811c-8-.143-13.314,1.45-15.93,4.821q-2.809,3.463-6.64,24.625-1.8,10.363-2.935,19.007-2.13-22.722-9.986-39.968a15.8,15.8,0,0,0-8.451-6.708q-3.773-1.031-13.826-1.811c-8-.134-13.314,1.459-15.93,4.829q-2.809,3.463-6.632,24.625-4.821,27.668-4.829,43.054-.2,16.6,5.316,19.955,9.986,6.707,31.022,8.175,18.638,0,22.219-12.945c.134-.6.277-1.241.394-1.886.889,3.354,2.247,5.534,4.092,6.657q10,6.707,31.022,8.175,18.638,0,22.219-12.945a83.4,83.4,0,0,0,1.736-15.092l.947,23.912,15.737-1.048.838-47.984,23.367,53.911h15.377l2.088-63.227q4.427,12.7,27.518,23.3,10.2,3.723,8.611,13.834-.327,2.566-3.412,3.9-1.677,1.1-8.267,1.1-5.97.067-7.546-2.851-3.572-6.473,1.325-14.6l-15.285-1.912a38.751,38.751,0,0,0-3.807,16.215q-.31,9.34,5.6,18.68c1.87,2.775,7.546,4.368,17.054,4.821,7.009,0,12.577-.629,16.668-1.87q6.347-1.794,8.443-6.708Q526.67,173.114,492.8,160.429ZM329.621,189.656q-1.266,6.473-8.82,7.546-9.81.947-14.538-3.941-3.136-3.069,1.048-34.661,2.515-15.461,3.563-17.5c1.023-1.928,3.153-2.893,6.364-2.851a24.406,24.406,0,0,1,5.433,1.1,7.546,7.546,0,0,1,3.412,3.9q4.276,13.834,4.268,33.688A91.779,91.779,0,0,1,329.621,189.656Zm57.735,0q-1.266,6.473-8.82,7.546-9.81.947-14.539-3.941-3.136-3.069,1.04-34.661,2.515-15.461,3.572-17.5c1.023-1.928,3.153-2.893,6.364-2.851a24.515,24.515,0,0,1,5.433,1.1,7.462,7.462,0,0,1,3.4,3.9q4.293,13.834,4.276,33.688a91.769,91.769,0,0,1-.729,12.719Z" transform="translate(-46.371 -18.956)" fill="#d0d2d3"/>
        <path id="Caminho_6535" data-name="Caminho 6535" d="M44.977,95.494,30.422,72.463h-.075V97.482L17.091,96.056l-2.9-76.189,16.157-.688V46.7l15.6-23.812L58,26.743,40.45,58.494,58.694,92.032Z" transform="translate(-2.275 -3.087)" fill="#faaf40"/>
        <path id="Caminho_6536" data-name="Caminho 6536" d="M68.766,33.393,67.29,14l14.949.612L81.074,33.9Zm1.383,63.721L67.508,40.1l14.949-1.736V93.7Z" transform="translate(-10.855 -2.251)" fill="#faaf40"/>
        <path id="Caminho_6537" data-name="Caminho 6537" d="M101.132,95.754l-.763-59.009H85.277L85,21.829l45.8-2.6-.52,17.49H116.358l-1.04,57.24Z" transform="translate(-13.716 -3.096)" fill="#faaf40"/>
        <path id="Caminho_6538" data-name="Caminho 6538" d="M162.558,95.947,161.72,19.96l18.974.134q21.288.3,21.389,19.225-1.333,34.275-4.276,43.037Q194.394,93.147,162.558,95.947Zm14.555-58.875-.067,41.662,6.833-2.322q3.9-.562,5.1-30.117c.453-4.192-.252-6.758-2.163-7.739C184.718,37.19,181.49,36.7,177.114,37.072Z" transform="translate(-26.111 -3.213)" fill="#faaf40"/>
        <path id="Caminho_6539" data-name="Caminho 6539" d="M248.782,25.591l.394,13.784H224.929V54.467l17.808.57v13.75l-17.808,1.165v8.326l24.365,1.207.922,13.532-40.4,1.635L211.95,23Z" transform="translate(-33.882 -3.705)" fill="#faaf40"/>
        <path id="Caminho_6540" data-name="Caminho 6540" d="M280.626,51.578q26.629,10,13.868,39.063c-1.107,2.566-3.312,4.318-6.666,5.257a46.4,46.4,0,0,1-13.138,1.484c-7.479-.361-11.973-1.618-13.415-3.807a25.6,25.6,0,0,1-4.41-14.715A30.6,30.6,0,0,1,259.841,66.1L271.9,67.617c-2.566,4.251-2.918,8.091-1.048,11.487.838,1.534,2.775,2.281,5.928,2.239,3.446,0,5.634-.293,6.523-.838a3.893,3.893,0,0,0,2.675-3.077q1.241-7.94-6.775-10.9-22.118-10.162-22.512-22.772-.176-15.092,3.765-17.708c4.72-3.5,11.386-5.651,19.946-6.4q13.214,0,15.779,10.2,1.333,6.347.218,18.353l-11.227.511a61.552,61.552,0,0,0-.469-6.339c-.511-3.983-2.566-6.246-6.129-6.775q-7.093.092-8.384,5.928Q268.879,46,280.626,51.578Z" transform="translate(-41.453 -3.163)" fill="#faaf40"/>
        <path id="Caminho_6541" data-name="Caminho 6541" d="M343.705,25.591l.386,13.784H319.844V54.467l17.808.57v13.75l-17.808,1.165v8.326l24.373,1.207.939,13.532-40.4,1.635L306.865,23Z" transform="translate(-49.221 -3.705)" fill="#faaf40"/>
        <path id="Caminho_6542" data-name="Caminho 6542" d="M366.5,17.28l18.68,42.76-.989-38.417,17.121-.939L398.8,97.577h-12.04l-18.4-42.442L367.71,92.94l-12.409.838L352.4,20Z" transform="translate(-56.918 -2.781)" fill="#faaf40"/>
        <path id="Caminho_6543" data-name="Caminho 6543" d="M437.765,97.265V69.278l-12.191,1.3V93.743l-12.962-1.484L410.6,18.854l14.949-1.484V53.951l12.191.7V20.523l14.949.989-1.912,74.713Z" transform="translate(-66.321 -2.795)" fill="#faaf40"/>
        <path id="Caminho_6544" data-name="Caminho 6544" d="M493.638,19.218a12.358,12.358,0,0,1,6.657,5.274q8.527,18.63,8.527,45.292A78.882,78.882,0,0,1,507.346,86.9q-2.809,10.2-17.49,10.2-16.6-1.157-24.466-6.439-4.377-2.633-4.192-15.721,0-12.09,3.8-33.923,3.018-16.66,5.223-19.4,3.069-3.991,12.526-3.8a66.236,66.236,0,0,1,10.891,1.4Zm-8.8,14.614c-2.515,0-4.192.729-5.031,2.247q-.838,1.593-2.809,13.784-3.287,24.876-.838,27.308,3.723,3.84,11.445,3.111c3.974-.57,6.3-2.566,6.951-5.97a70.259,70.259,0,0,0,.57-10.061q0-15.628-3.354-26.528a5.785,5.785,0,0,0-2.683-3.077A21.473,21.473,0,0,0,484.834,33.832Z" transform="translate(-74.495 -2.866)" fill="#faaf40"/>
        <path id="Caminho_6545" data-name="Caminho 6545" d="M538.454,51.574q26.662,10,13.868,39.063c-1.1,2.566-3.3,4.318-6.657,5.257a46.431,46.431,0,0,1-13.138,1.484c-7.479-.361-11.973-1.618-13.415-3.807a25.512,25.512,0,0,1-4.41-14.715A30.466,30.466,0,0,1,517.678,66.1l12.048,1.518c-2.515,4.251-2.909,8.091-1.04,11.487.839,1.534,2.775,2.281,5.928,2.239,3.446,0,5.634-.293,6.523-.838a3.893,3.893,0,0,0,2.675-3.077q1.241-7.94-6.775-10.9-22.118-10.179-22.529-22.789-.176-15.092,3.756-17.708,7.093-5.257,19.955-6.4,13.205,0,15.779,10.2,1.333,6.347.218,18.353L542.99,48.7a61.251,61.251,0,0,0-.478-6.339q-.771-5.97-6.121-6.775-7.093.092-8.384,5.928Q526.708,46,538.454,51.574Z" transform="translate(-83.108 -3.16)" fill="#faaf40"/>
        <path id="Caminho_6546" data-name="Caminho 6546" d="M57.457,182.889q-8.56,9.986-13.65,11.252c-5.257,1.316-8.451-.511-9.533-5.475q-3.672-25.237-2.029-41.31.947-7.227,4.486-8.82a10.749,10.749,0,0,1,7.194-1.266c3.111.184,4.964,2.054,5.534,5.6q.436,3.245.654,6.515l16.224-1.87c.184-5.081.218-9.726.126-13.926q-.327-13.767-14.044-16.71-10.313-2-22.47,2.348-12.828,4.62-14.874,18.32-2.867,22.16,2.8,57.089,3.27,15.352,16.559,18.261c3.178,1.2,7.688,1.417,13.5.646q10.061-1.593,20.961-16.878Z" transform="translate(-2.263 -18.771)" fill="#a0cfe0"/>
        <path id="Caminho_6547" data-name="Caminho 6547" d="M106.609,115.22,75,208.731l17.842,3.563,4.494-15.343h25.941l3.941,18.529,19.359-4.427-27.811-93.838Zm-3.681,63.629,9.038-28.406,6.707,27.752Z" transform="translate(-12.1 -18.604)" fill="#a0cfe0"/>
        <path id="Caminho_6548" data-name="Caminho 6548" d="M198.118,173.5q7.739-1.677,9.81-10.061,3.9-10.9,3.354-35.927-.838-17.431-52.821-12.669l3.228,97.56,17.347,1.459V179.252l23.971,36.422,11.285-11.151L196.953,173.76Zm-3.153-28.624q-.713,13.507-15.746,14.7V133.079q8.9-.059,12.945,2.247C194.672,136.408,195.594,139.577,194.966,144.876Z" transform="translate(-25.584 -18.378)" fill="#a0cfe0"/>
        <path id="Caminho_6549" data-name="Caminho 6549" d="M281.479,115.15l-58.129,3.3.335,18.924h19.192l.981,74.914,17.984-2.247,1.316-72.667h17.674Z" transform="translate(-36.068 -18.593)" fill="#a0cfe0"/>
        <path id="Caminho_6550" data-name="Caminho 6550" d="M492.8,155.694q-14.916-7.068-13.272-12.786,1.677-7.42,10.631-7.546,6.808,1.031,7.781,8.611c.3,2.188.495,4.88.612,8.057l14.253-.654q1.417-15.243-.277-23.3-3.245-12.937-20.013-12.945-16.341,1.417-25.329,8.116a8.753,8.753,0,0,0-2.935,4.494l.352-10.816-21.724,1.2,1.258,48.755L420.438,112.59l-17.926,3.446,1.635,41.821c-1.593-13.608-4.762-25.706-9.592-36.22a15.8,15.8,0,0,0-8.451-6.708q-3.773-1.031-13.826-1.811-12-.214-15.93,4.821-2.809,3.463-6.64,24.625-1.8,10.38-2.935,19.007-2.13-22.722-9.986-39.968a15.754,15.754,0,0,0-8.451-6.707q-3.773-1.048-13.826-1.819c-8-.134-13.314,1.459-15.93,4.829q-2.809,3.463-6.632,24.625-4.821,27.668-4.829,43.054-.2,16.609,5.316,19.955,9.986,6.707,31.022,8.175,18.638,0,22.219-12.937c.134-.612.277-1.241.394-1.895.889,3.354,2.247,5.534,4.092,6.657q10,6.707,31.022,8.175,18.638,0,22.219-12.945a83.392,83.392,0,0,0,1.736-15.092l.947,23.912,15.737-1.048.838-47.984,23.367,53.92h15.385l2.088-63.235q4.427,12.7,27.518,23.309,10.2,3.723,8.611,13.826-.327,2.566-3.412,3.9-1.677,1.1-8.267,1.1-5.97.059-7.546-2.851-3.572-6.473,1.325-14.6l-15.285-1.786a38.761,38.761,0,0,0-3.781,16.215q-.31,9.332,5.6,18.672c1.87,2.775,7.546,4.368,17.054,4.821,7.009,0,12.577-.629,16.668-1.87q6.347-1.8,8.443-6.708Q526.668,168.4,492.8,155.694ZM329.619,184.939q-1.266,6.481-8.82,7.546c-6.54.637-11.386-.688-14.538-3.932q-3.136-3.085,1.048-34.669,2.515-15.461,3.563-17.49c1.023-1.937,3.153-2.9,6.364-2.859a24.406,24.406,0,0,1,5.433,1.1,7.546,7.546,0,0,1,3.412,3.907q4.276,13.826,4.268,33.68A91.684,91.684,0,0,1,329.619,184.939Zm57.735,0q-1.266,6.481-8.82,7.546c-6.54.637-11.386-.688-14.538-3.932q-3.136-3.085,1.04-34.669,2.515-15.461,3.572-17.49c1.023-1.937,3.153-2.9,6.364-2.859a24.52,24.52,0,0,1,5.433,1.1,7.454,7.454,0,0,1,3.4,3.907q4.293,13.826,4.276,33.68a91.693,91.693,0,0,1-.729,12.719Z" transform="translate(-46.37 -18.179)" fill="#a0cfe0"/>
      </g>
    </g>
  </g>
</svg>
