<svg xmlns="http://www.w3.org/2000/svg" width="432.564" height="311.054" viewBox="0 0 432.564 311.054">
  <g id="Camada_2" data-name="Camada 2" transform="translate(0.019 -0.021)">
    <g id="personagem">
      <path id="Caminho_8302" data-name="Caminho 8302" d="M123.27,239.14h1.17a28.438,28.438,0,0,0,4.38-5.77C127,235.38,125.07,237.28,123.27,239.14Z" fill="#fff"/>
      <path id="Caminho_8303" data-name="Caminho 8303" d="M53.82,155.39A15.74,15.74,0,0,1,66.42,142c3.6-.74,7.69-2.11,11.38-1.51a21.45,21.45,0,0,1,6.84,2.73,6.258,6.258,0,0,1,.5-.76c-.5-.27-1.17-.75-1.36-.84-.81-.44-1.66-.81-2.47-1.24a18.22,18.22,0,0,1-7-6.9c-3.79-5.92-2.48-11.13,1-16a32.6,32.6,0,0,1-6.14-5.33,21,21,0,0,1-4.39-9.34C63.43,94.9,67.51,87.69,72,81.57A162.349,162.349,0,0,1,88.64,63c3-3,5.86-6.37,9.24-8.91a20.59,20.59,0,0,1,8.71-3.43c0-.14,0-.28,0-.43.22-2.46,2.7-5,5.36-4.54a87.9,87.9,0,0,1,50.33,28.9c7.43,5.75,11.59,14.28,15.2,22.78q3.27,7.73,5.9,15.69c1.7,5.1,3.13,10.07,2.93,15.5a47,47,0,0,1-9.94,27.64,31.229,31.229,0,0,1-4.51,4.47,147.53,147.53,0,0,0,16.45-5.22c5.05-2.07,9.51-5.53,14.75-7.07a3.06,3.06,0,0,1,.77-.52l.94-.49a2.59,2.59,0,0,0,.88-1.2,2.47,2.47,0,0,1,2.51-1.31,3.37,3.37,0,0,1,1-.43,26.39,26.39,0,0,0,2.58-2.4c1.78-1.87,5.27,0,4.92,2.5a6.54,6.54,0,0,1-4.62,5.71,3.1,3.1,0,0,1-1.1.57,34.531,34.531,0,0,1-.75,5.15,1.24,1.24,0,1,1,.39,2.45,1.11,1.11,0,0,1-1-.24,28,28,0,0,1-2.69,6.12c-3.09,5.26-6.54,10.11-11.5,13.73a146,146,0,0,1-16.34,10c-3.86,2.1-8.67,5.5-13.34,5.19a2.7,2.7,0,0,1-.63-.07,7.38,7.38,0,0,1-1.64-.39,2.91,2.91,0,0,1-1.4-1c-2.49-1.21-5.43-2.43-7.34-4.51-2.05-2.24-2.94-5.52-4.08-8.27a3.26,3.26,0,0,1,.31-2.86c-.9-1-1.57-1-3.19-.63a2.82,2.82,0,0,1-1.66-.16,13.808,13.808,0,0,0-2.25.75c-3.24,1.45-.13,4,.9,6.13.85,1.76,1.29,3.8.28,5.6-2.17,3.86-7.64,1.56-10.54-.08a19.28,19.28,0,0,1-8.11-8.92c-14.58-1.44-27.81-6.09-41.21-11.94-6.54,3.61-14.08,5.75-21.47,3.62C56.6,168.39,52.83,162.79,53.82,155.39Z" fill="#9b5229"/>
      <path id="Caminho_8304" data-name="Caminho 8304" d="M59.31,203.62c1.61,1.3,2.9-.45,4.74-.94,2.5-.66,5.18-.87,7.72-1.33,1.91-.35,3.82-.72,5.73-1.09,1.24-1.93,3-2.52,5.27-3.26q5.52-1.75,11.11-3.3c7.11-2,14.29-3.67,21.52-5.15a3,3,0,0,1,3.92-2.79c2.72.9,4,3.2,5.7,5.31,2,2.45,4.24,4.79,5.22,7.89a10.68,10.68,0,0,1,.43,4.6,3.22,3.22,0,0,1,.42,1c.61,2.59-1.39,4-3.55,4.74l-.22.07a7.55,7.55,0,0,1-2.09,1l-.15.05a2.7,2.7,0,0,1-1.56,1.45c-1.19,1.21-2.35,1.57-4.35,2-2.67.61-5.17,1.73-7.89,2.2a33.09,33.09,0,0,1-12.74-.33,47.89,47.89,0,0,1-10.48.35,74.114,74.114,0,0,1-8-1.45c-2.8-.62-6.07-1.12-8.5-2.74-.64-.42-1.23-1.31-1.92-1.65-.59-.09-1.19-.16-1.79-.21a5.92,5.92,0,0,1,.48,2.93,3,3,0,0,1-5.22,1.71l-.52-.52a2.89,2.89,0,0,1-.93-.56L55.38,208C52.87,205.8,56.68,201.51,59.31,203.62Z" fill="#9b5229"/>
      <path id="Caminho_8305" data-name="Caminho 8305" d="M200.12,173.36l-.69.48c1.38-1.36,2.7-2.77,4-4.19-.85,1.17-1.74,2.31-2.69,3.4a2.4,2.4,0,0,0-.62.31Z" fill="#b26e42"/>
      <path id="Caminho_8306" data-name="Caminho 8306" d="M155.16,186.75c.5.39,1,.76,1.51,1.13a2.67,2.67,0,0,0-.42.65,11.16,11.16,0,0,1-1.5-1.32,11.42,11.42,0,0,1-1.37-1.91C154,185.81,154.58,186.29,155.16,186.75Z" fill="#b26e42"/>
      <path id="Caminho_8307" data-name="Caminho 8307" d="M143.09,189.54c-4.12-.17-8.53-3.32-10.67-6.9A28.18,28.18,0,0,0,144,180.79a10.74,10.74,0,0,1,.83,1.38c.85,1.76,1.29,3.8.28,5.6a3.84,3.84,0,0,1-2.02,1.77Z" fill="#b26e42"/>
      <path id="Caminho_8308" data-name="Caminho 8308" d="M169.83,111.83c-4.5,2.85-8.86,8.16-14.58,8.17a2.28,2.28,0,0,0-2.2,1.53c-7.12,1.81-13.32-.17-20-2.53-4.43-1.57-9.42-2.54-13.88-.53-5.49,2.47-7.83,8.24-8.66,14.11a2.779,2.779,0,0,0-.26.32c-3.22,4.9-9.15,7.55-15,7.81-5.1-2.18-10.69-5.1-13.88-9.5-3.31-4.55-1.45-10.88-.73-16.1a1.77,1.77,0,0,0-.28-2.54,27.75,27.75,0,0,1-8.53-13.73c-1.47-5.74,0-11.75,1-17.44a1.81,1.81,0,0,0,0-.84A168.562,168.562,0,0,1,88.64,63c3-3,5.86-6.37,9.24-8.91a20.59,20.59,0,0,1,8.71-3.43c0-.14,0-.28,0-.43.22-2.46,2.7-5,5.36-4.54a87.9,87.9,0,0,1,50.33,28.9c7.43,5.75,11.59,14.28,15.2,22.78q2.88,6.8,5.25,13.78C178.53,108.66,174.12,109.12,169.83,111.83Z" fill="#b26e42"/>
      <path id="Caminho_8309" data-name="Caminho 8309" d="M165.88,172.84A39.28,39.28,0,0,0,178,159.35a1.36,1.36,0,0,0,.16-.51,103.359,103.359,0,0,0,10.14-3.44c5.05-2.07,9.51-5.53,14.75-7.07a3.06,3.06,0,0,1,.77-.52l.94-.49a2.59,2.59,0,0,0,.88-1.2,2.47,2.47,0,0,1,2.51-1.31,3.37,3.37,0,0,1,1-.43,26.388,26.388,0,0,0,2.58-2.4c1.78-1.87,5.27,0,4.92,2.5a6.54,6.54,0,0,1-4.62,5.71,3.1,3.1,0,0,1-1.1.57,11.964,11.964,0,0,1-.15,1.48c-1,1.8-1.41,3.84-2.45,5.66-1.3,2.28-3.58,3.8-5.37,5.66-3.48,3.62-6.59,7.51-10.67,10.52-4.51,3.34-10,5.54-15.12,7.83a59.9,59.9,0,0,1-14.31,4.66,51.41,51.41,0,0,1-5.6-3.9,25.351,25.351,0,0,1-4.14-4.28C157.68,177.66,162.27,175.28,165.88,172.84Z" fill="#b26e42"/>
      <path id="Caminho_8310" data-name="Caminho 8310" d="M142.45,176.43a2.15,2.15,0,0,0,.25-.29,81.07,81.07,0,0,0,22.81-9.68,54.519,54.519,0,0,0,8.21-6.35h.15a39,39,0,0,1-9.34,9.72c-3.74,2.71-9.56,5.67-14.23,5.54a1,1,0,0,0-.3,0,1.92,1.92,0,0,0-1.43,0l-.78.14a2.82,2.82,0,0,1-1.66-.16,13.809,13.809,0,0,0-2.25.75,3.131,3.131,0,0,0-.73.44,2.33,2.33,0,0,0-.92.13Z" fill="#b26e42"/>
      <path id="Caminho_8311" data-name="Caminho 8311" d="M186.32,128.51A49.16,49.16,0,0,1,181.53,148v-.05c.95-3,1.77-6,2.7-9a26,26,0,0,0,1.42-7.82c.27-1.32.51-2.73.66-4.16C186.34,127.47,186.34,128,186.32,128.51Z" fill="#b26e42"/>
      <path id="Caminho_8312" data-name="Caminho 8312" d="M53.82,155.39A15.74,15.74,0,0,1,66.42,142c2.32-.47,4.85-1.21,7.34-1.52a30.93,30.93,0,0,1,8.12,5.19,23.1,23.1,0,0,0-13.1-.89c-6.84,1.67-16.51,8-11.89,15.64A13.51,13.51,0,0,0,69.6,170.2a16.36,16.36,0,0,0,12.13-4.46c.51.54,1,1.07,1.56,1.57l.37.32c-6.17,3.1-13.11,4.77-19.93,2.81C56.6,168.39,52.83,162.79,53.82,155.39Z" fill="#b26e42"/>
      <path id="Caminho_8313" data-name="Caminho 8313" d="M79.46,136a28.522,28.522,0,0,1-3.06-2.18c-1.05-.87-2.19-1.73-3.33-2.64-2-4.69-.94-8.93,1.74-13l.48.33a1.549,1.549,0,0,0,.22.12c-.71,5.06-1.19,10.22,1.8,14.69A20.091,20.091,0,0,0,79.46,136Z" fill="#b26e42"/>
      <path id="Caminho_8314" data-name="Caminho 8314" d="M65.65,93.06a62.2,62.2,0,0,0,.5,6.85c.57,4.53,1.37,9,3.46,12.67-.13-.16-.27-.31-.4-.46a21,21,0,0,1-4.39-9.34,19.92,19.92,0,0,1,.83-9.72Z" fill="#b26e42"/>
      <path id="Caminho_8315" data-name="Caminho 8315" d="M104.3,215.24c5.46-.55,11-1.21,16.25-3a71.792,71.792,0,0,0,9.32-4.16,7.829,7.829,0,0,1-2.33,1.22l-.22.07a7.55,7.55,0,0,1-2.09,1l-.15.05a2.7,2.7,0,0,1-1.56,1.45c-1.19,1.21-2.35,1.57-4.35,2-2.67.61-5.17,1.73-7.89,2.2a33.09,33.09,0,0,1-12.74-.33,60.632,60.632,0,0,1-8.05.5C95.09,216.17,99.7,215.71,104.3,215.24Z" fill="#b26e42"/>
      <path id="Caminho_8316" data-name="Caminho 8316" d="M59.31,203.62c1.61,1.3,2.9-.45,4.74-.94,2.5-.66,5.18-.87,7.72-1.33,1.91-.35,3.82-.72,5.73-1.09,1.24-1.93,3-2.52,5.27-3.26q5.52-1.75,11.11-3.3c7.11-2,14.29-3.67,21.52-5.15a3,3,0,0,1,3.92-2.79c2.72.9,4,3.2,5.7,5.31,2,2.45,4.24,4.79,5.22,7.89a10.57,10.57,0,0,1,.5,3.59c-3.29,1.67-6.56,3.42-10,4.79-5.1,2-10.65,2.74-16.08,3.32-10.43,1.11-21.18,2.36-31.43-.59a2.24,2.24,0,0,0-2.62,1,3.88,3.88,0,0,0-1-.79c-.59-.09-1.19-.16-1.79-.21A5.92,5.92,0,0,1,68.3,213a3,3,0,0,1-5.22,1.71l-.52-.52a2.889,2.889,0,0,1-.93-.56L55.38,208C52.87,205.8,56.68,201.51,59.31,203.62Z" fill="#b26e42"/>
      <path id="Caminho_8317" data-name="Caminho 8317" d="M200.12,173.36l-.69.48c1.38-1.36,2.7-2.77,4-4.19-.85,1.17-1.74,2.31-2.69,3.4a2.4,2.4,0,0,0-.62.31Z" fill="#ca936a"/>
      <path id="Caminho_8318" data-name="Caminho 8318" d="M155.16,186.75c.5.39,1,.76,1.51,1.13a2.67,2.67,0,0,0-.42.65,11.16,11.16,0,0,1-1.5-1.32,11.42,11.42,0,0,1-1.37-1.91C154,185.81,154.58,186.29,155.16,186.75Z" fill="#ca936a"/>
      <path id="Caminho_8319" data-name="Caminho 8319" d="M142.34,181.37c.54-.18,1.07-.36,1.61-.58a10.74,10.74,0,0,1,.83,1.38c.85,1.76,1.29,3.8.28,5.6a4.5,4.5,0,0,1-.67.89c-.6-.4-1.17-.81-1.73-1.25C142.3,185.46,142.54,183.36,142.34,181.37Z" fill="#ca936a"/>
      <path id="Caminho_8320" data-name="Caminho 8320" d="M151.39,99.45a2.8,2.8,0,0,0-.06-.28,9.109,9.109,0,0,0,1.74.94,3.171,3.171,0,0,0,.41.12,3.45,3.45,0,0,1-2,0C151.42,99.88,151.41,99.61,151.39,99.45Z" fill="#ca936a"/>
      <path id="Caminho_8321" data-name="Caminho 8321" d="M110.49,132.58c.83-5.87,3.17-11.64,8.66-14.11,4.46-2,9.45-1,13.88.53,6.7,2.36,12.9,4.34,20,2.53a2.28,2.28,0,0,1,2.2-1.53c5.72,0,10.08-5.32,14.58-8.17,4.29-2.71,8.7-3.17,12.91-.73q-2.38-7-5.25-13.78c-3.61-8.5-7.77-17-15.2-22.78a87.83,87.83,0,0,0-40.5-26.45c-10.41,3.19-20.74,12.11-28.3,20-4.73,5-9.93,10.42-13.18,16.63a55.41,55.41,0,0,0,1.2,24.65c2,6.68,4.7,12.9,9.77,18.13a47.57,47.57,0,0,0,14.45,9.82,16,16,0,0,0,4.5-4.47,2.78,2.78,0,0,1,.28-.27Zm26.62-62c-1.63-1.35-1.61-4.43,1-4.62A24.73,24.73,0,0,1,160,75.57c2.85,3.79,5.5,8.84,5.77,13.79,2.59,7.63-1.48,17.16-9.29,19.7a2.05,2.05,0,0,1-2.15-.38,5.44,5.44,0,0,1-4.65-.5,7.45,7.45,0,0,1-3-4.61c-3.72-3.94-5.93-10.34-7.26-15.44-1.42-5.61-3.5-11.76-2.31-17.57Z" fill="#ca936a"/>
      <path id="Caminho_8322" data-name="Caminho 8322" d="M209.69,149.75c-2.89,4.25-5.69,8.65-9.24,12.4a59.1,59.1,0,0,1-11.89,9.34,83.59,83.59,0,0,1-24.8,10.08,45.759,45.759,0,0,1-5.39-4.68,40.389,40.389,0,0,0,7.51-4A39.28,39.28,0,0,0,178,159.35a1.36,1.36,0,0,0,.16-.51,103.359,103.359,0,0,0,10.14-3.44c5.05-2.07,9.51-5.53,14.75-7.07a3.06,3.06,0,0,1,.77-.52l.94-.49a2.59,2.59,0,0,0,.88-1.2,2.47,2.47,0,0,1,2.51-1.31c.29-.19-2.86-2.06-2.47-2.15.9-.74,2-.85,2.77-1.72,1.79-1.87,30.68-3.65,30.34-1.18-.32,2.27-23.12,6.9-24.72,7.92C213,146.66,210.77,148.16,209.69,149.75Z" fill="#ca936a"/>
      <path id="Caminho_8323" data-name="Caminho 8323" d="M142.45,176.43a2.15,2.15,0,0,0,.25-.29,81.07,81.07,0,0,0,22.81-9.68,54.519,54.519,0,0,0,8.21-6.35h.15a39,39,0,0,1-9.34,9.72,34,34,0,0,1-8.82,4.61,2.65,2.65,0,0,0-2.87.73,13.929,13.929,0,0,1-2.54.2,1,1,0,0,0-.3,0,1.92,1.92,0,0,0-1.43,0l-.78.14a2.82,2.82,0,0,1-1.66-.16,13.809,13.809,0,0,0-2.25.75,3.131,3.131,0,0,0-.73.44,2.33,2.33,0,0,0-.92.13Z" fill="#ca936a"/>
      <path id="Caminho_8324" data-name="Caminho 8324" d="M186.32,128.51A49.16,49.16,0,0,1,181.53,148v-.05c.95-3,1.77-6,2.7-9a26,26,0,0,0,1.42-7.82c.27-1.32.51-2.73.66-4.16C186.34,127.47,186.34,128,186.32,128.51Z" fill="#ca936a"/>
      <path id="Caminho_8325" data-name="Caminho 8325" d="M68.78,144.79c-6.32,1.54-15,7.08-12.7,13.92a2.58,2.58,0,0,0-2.35.28,16.22,16.22,0,0,1,.09-3.6A15.74,15.74,0,0,1,66.42,142c2.32-.47,4.85-1.21,7.34-1.52a30.93,30.93,0,0,1,8.12,5.19,23.1,23.1,0,0,0-13.1-.88Z" fill="#ca936a"/>
      <path id="Caminho_8326" data-name="Caminho 8326" d="M78,135c-.53-.37-1-.77-1.57-1.19-1.05-.87-2.19-1.73-3.33-2.64a11.64,11.64,0,0,1-.85-7A82.16,82.16,0,0,0,78,135Z" fill="#ca936a"/>
      <path id="Caminho_8327" data-name="Caminho 8327" d="M66.25,102.71q.44,3.44,1.17,6.83a19.9,19.9,0,0,1-2.6-6.76,17.907,17.907,0,0,1-.22-1.92,6.5,6.5,0,0,0,1.65,1.85Z" fill="#ca936a"/>
      <path id="Caminho_8328" data-name="Caminho 8328" d="M104.3,215.24c5.46-.55,11-1.21,16.25-3a37.559,37.559,0,0,0,4.14-1.65,2.633,2.633,0,0,1-.13.62,2.74,2.74,0,0,1-1,.69c-1.19,1.21-2.35,1.57-4.35,2-2.67.61-5.17,1.73-7.89,2.2a33.089,33.089,0,0,1-12.74-.33,60.632,60.632,0,0,1-8.05.5C95.09,216.17,99.7,215.71,104.3,215.24Z" fill="#ca936a"/>
      <path id="Caminho_8329" data-name="Caminho 8329" d="M129.24,197.87l.33-.57a11.509,11.509,0,0,1,.67,1.66,10.57,10.57,0,0,1,.5,3.59l-.7.36c-.08-.83-.18-1.64-.3-2.44S129.44,198.74,129.24,197.87Z" fill="#ca936a"/>
      <path id="Caminho_8330" data-name="Caminho 8330" d="M59.31,203.62c1.61,1.3,2.9-.45,4.74-.94,2.5-.66,5.18-.87,7.72-1.33,1.91-.35,3.82-.72,5.73-1.09,1.24-1.93,3-2.52,5.27-3.26q5.52-1.75,11.11-3.3c7.11-2,14.29-3.67,21.52-5.15a3.34,3.34,0,0,1,1.41-2.5c2.58,3.76,5.19,7.06,6.66,11.21-.17.26-.36.52-.56.77-1.63,2.07-4.18,3.4-6.56,4.43a71.44,71.44,0,0,1-14.78,4.26c-8.64,1.7-19.22,4.37-27.87,1.52a2.67,2.67,0,0,0-3.5,2.46,2.409,2.409,0,0,0-.54-.38c-.59-.09-1.19-.16-1.79-.21a5.92,5.92,0,0,1,.48,2.93,3,3,0,0,1-5.22,1.71l-.52-.52a2.889,2.889,0,0,1-.93-.56L55.38,208C52.87,205.8,56.68,201.51,59.31,203.62Z" fill="#ca936a"/>
      <path id="Caminho_8331" data-name="Caminho 8331" d="M95,103.87a3.39,3.39,0,0,1-1.15-3.16c.71-5,4.45-10.87,9.34-12.67a11.09,11.09,0,0,1,7.34-.13,3.42,3.42,0,0,1,4.34,0,12.67,12.67,0,0,1,4.75,7,.13.13,0,0,0,0,.06c2.62,5.42,3.92,11.83,1.12,16.94-3.7,6.73-13.65,11-19.84,5.14a12.37,12.37,0,0,1-3.68-9.62A5.12,5.12,0,0,1,96,106.12,8,8,0,0,1,95,103.87Z" fill="#fff"/>
      <path id="Caminho_8332" data-name="Caminho 8332" d="M151.59,82.82a4.05,4.05,0,0,1,5.52-1c5.62,3.87,10.8,11.31,6.25,18-1.72,2.54-5,4.71-8.2,3.94-2.81-.68-3.58-3.4-3.82-6.1A12.68,12.68,0,0,1,151.59,82.82Z" fill="#fff"/>
      <path id="Caminho_8333" data-name="Caminho 8333" d="M126.65,124.53a34.1,34.1,0,0,0,16,3.52c5.37-.18,12-.69,16.76-3.32,3.91-2.16,7.93,3.81,4.35,6.57a29.25,29.25,0,0,1-9,4.84,30.32,30.32,0,0,1-5,.87,3.34,3.34,0,0,1-3,2.53c-5.29.7-11.36,1.32-16.6,0s-7.45-5.5-8.68-10.49C120.73,126.25,124,123.24,126.65,124.53Z" fill="#fff"/>
      <path id="Caminho_8334" data-name="Caminho 8334" d="M56,161.66c.66-1.84,3.15-3.36,5.08-2.4a8,8,0,0,1,2.81,2.06c.21.25.38.53.58.79.06.09.13.17.2.26,2.14,0,4.09.81,6.35,1.2,3.37.58,6.71-.62,9.87-1.67,2.06-.68,4.26,1.27,4.64,3.17.47,2.34-1.14,4-3.17,4.64a30.45,30.45,0,0,1-10,1.95,10.479,10.479,0,0,1-2.42-.38,4.23,4.23,0,0,1-3.5.45c-1.18-.37-2.35-.77-3.5-1.25a3.35,3.35,0,0,1-2.7-1.48,8.309,8.309,0,0,1-1.41-1.25c-.25-.3-.46-.64-.69-.95-.42-.54-1.07-.77.28-.1A4.056,4.056,0,0,1,56,161.66Z" fill="#9b5229"/>
      <path id="Caminho_8335" data-name="Caminho 8335" d="M60.42,155.93a8,8,0,0,1,1.51-2.33,9.321,9.321,0,0,1,.53-1.1c1.39-2.43,3.72-3.08,6.17-2.86a8.16,8.16,0,0,1,3.2.59,3.09,3.09,0,0,1,2.38.11c2.39,1.11,4.54,2.85,5.22,5.52a7.72,7.72,0,0,1-.54,5,6.54,6.54,0,0,1-2,4.86,7.76,7.76,0,0,1-3.81,1.89,10.56,10.56,0,0,1-5.2.25C62.7,166.85,58.18,161.33,60.42,155.93Z" fill="#83391c"/>
      <path id="Caminho_8336" data-name="Caminho 8336" d="M128.57,149a1.74,1.74,0,0,1,3.22-.57,1.64,1.64,0,0,1,1.11.73,2.61,2.61,0,0,1,1.51,1.23v.09a.31.31,0,0,1,.37-.15l.45.14h.09a2.61,2.61,0,0,1,2.36.53,1.56,1.56,0,0,1,2.14-1.55,23.48,23.48,0,0,1,10.51,8.37c2,3,2.25,5.21-1.59,6-4.15.82-8.18,1.74-11.66-.92C131.64,160.45,127.46,155.32,128.57,149Z" fill="#8d2636"/>
      <path id="Caminho_8337" data-name="Caminho 8337" d="M59.19,145.75a16.66,16.66,0,0,1,14.09-5,1.56,1.56,0,0,0,.93-.17c.72.37,1.44.76,2.14,1.18a1.63,1.63,0,0,0,1.16.21c1.19.89,2.38,1.78,3.55,2.68a1.34,1.34,0,0,0,.57.26,1.68,1.68,0,0,0,1.66.3,1.83,1.83,0,0,0,1.79-1.59,1.54,1.54,0,0,0,.94-1,.9.9,0,0,0,.07-.27c1.46-.19,1.82-2.77.21-3.22l-2.3-.65a14.3,14.3,0,0,1-8.75-10.06c1.36-1.51.26-3.82-.46-5.48a9.191,9.191,0,0,1,.6-.93,6.771,6.771,0,0,0,.9-1,1.51,1.51,0,0,0,.28-.93c1.72-.29,1.7-2.89-.19-3.27-5.95-1.18-8.34-7.4-10.28-12.41a1.61,1.61,0,0,0-.26-.45l-.09-1.22c-.16-2.12-3.41-1.49-3.26.61a43.65,43.65,0,0,0,.71,5.58A23.78,23.78,0,0,0,60,119.34a42,42,0,0,0-.76,6.14,100,100,0,0,0-2.76,18.88C56.39,145.71,58.13,146.83,59.19,145.75Zm3.58-6.57c.07-.16.13-.32.19-.49a3,3,0,0,0,.38.24Z" fill="#5a4a42"/>
      <path id="Caminho_8338" data-name="Caminho 8338" d="M57.79,142.34q.28-5.33.56-10.65v-.46a66.2,66.2,0,0,1-.31-11.62,1.72,1.72,0,0,1,2.18-1.44,51.36,51.36,0,0,1,3-17c.75-2,3.87-.88,3.12,1.12-4.73,12.44-2,25.94-2.68,38.89a1.57,1.57,0,0,1-2.54,1.15v.3C61,144.74,57.68,144.47,57.79,142.34Z" fill="#44352e"/>
      <path id="Caminho_8339" data-name="Caminho 8339" d="M7.41,88.8a1.42,1.42,0,0,1,1.75-1.44,34.26,34.26,0,0,1-1-7.66c0-2.13,3.27-1.85,3.3.27a30.14,30.14,0,0,0,1.16,7.84,1.73,1.73,0,0,1,.66.72c3.74,7.29,7.88,15.11,15.9,18.36,4.08,1.65,8.55,2.43,12.84,3.38q7.52,1.67,15.09,3.08a1.72,1.72,0,0,1,1.49,1.35c.93,5.21,0,10.27-.81,15.42a39.79,39.79,0,0,0-.7,9.24c.17,2.21.86,4.4.35,6.62-.63,2.72-3.86,8-7.26,6.48-2-.89-3.68-3.14-5.29-4.5a68.229,68.229,0,0,0-6.84-5.14c-4.43-2.88-9.72-4.41-13.74-7.91s-6.72-8.21-9.06-12.79A73.18,73.18,0,0,1,7.41,88.8Z" fill="#5c87a9"/>
      <path id="Caminho_8340" data-name="Caminho 8340" d="M11.94,92.49c3.8,20.19,28.19,26.37,46.26,21.39a1.45,1.45,0,0,1,.43.82c.93,5.21,0,10.27-.81,15.42a39.79,39.79,0,0,0-.7,9.24c.17,2.21.86,4.4.35,6.62-.63,2.72-3.86,8-7.26,6.48-2-.89-3.68-3.14-5.29-4.5a68.229,68.229,0,0,0-6.84-5.14,37.213,37.213,0,0,0-3.31-1.89C21.56,127.86,9.92,112.06,11.94,92.49Z" fill="#476d87"/>
      <path id="Caminho_8341" data-name="Caminho 8341" d="M71,78.11q1.5-2.16,3-4.23a2.3,2.3,0,0,1-.43-2.17c5-18.26,12-38.09,24.72-52.53C109.23,6.85,126.62-1.15,142.78,4.75a91.709,91.709,0,0,1,14.38,1.59c4.44.85,8.11,3.06,11.69,5.73s7.27,5.6,9.16,9.87,2.17,9,2.49,13.56.49,9.26-.72,13.77c-2.31,8.69-9.62,14.43-16.57,19.47.32,1.3-1.31,2.83-2.55,1.8l-11.45-9.63c-1.6-1.34-3.18-2.79-4.86-4.06a51.94,51.94,0,0,0-5.93-3.1h-.06l-.36-.1a1.46,1.46,0,0,1-.67-.33c-7.3-3.07-15-5-22.7-6.89l-.17-.06A93.68,93.68,0,0,0,73.78,80,1.681,1.681,0,0,1,71,78.11Z" fill="#8d2636"/>
      <path id="Caminho_8342" data-name="Caminho 8342" d="M168,30.08c-1.62-2.41-3.31-4.79-4.75-7.17A34,34,0,0,1,168,30.08Z" fill="#a63650"/>
      <path id="Caminho_8343" data-name="Caminho 8343" d="M174.45,48.38a17.27,17.27,0,0,1-2,5.8A40,40,0,0,0,174.45,48.38Z" fill="#a63650"/>
      <path id="Caminho_8344" data-name="Caminho 8344" d="M71,78.11q1.5-2.16,3-4.23a2.3,2.3,0,0,1-.43-2.17c5-18.26,12-38.09,24.72-52.53C109.23,6.85,126.62-1.15,142.78,4.75a91.709,91.709,0,0,1,14.38,1.59c4.44.85,8.11,3.06,11.69,5.73s7.27,5.6,9.16,9.87,2.17,9,2.49,13.56.49,9.26-.72,13.77c-2.31,8.69-9.62,14.43-16.57,19.47.32,1.3-1.31,2.83-2.55,1.8l-11.45-9.63c-1.6-1.34-3.18-2.79-4.86-4.06a51.94,51.94,0,0,0-5.93-3.1h-.06l-.36-.1a1.46,1.46,0,0,1-.67-.33c-2.81-1.18-5.69-2.19-8.6-3.1a39.47,39.47,0,0,0-10.43-4.68c11.68,1.17,22,6,32.59,12,3.86,2.64,10.05,6.87,14.64,2.63,8.07-7.88,7.32-20.37,2.45-30.12,3.89,5.75,7.42,11.68,6.47,18.3a40,40,0,0,1-2,5.8,17.27,17.27,0,0,0,2-5.8c2.5-9.66,1.41-20.25-5.61-27.87-12.83-14.43-34.66-12.34-50.6-4C104.78,23.81,99,39.72,92.77,53c4.7-14.36,12.26-27.91,17.74-41.74-6.34,9.28-12.8,17.9-17.47,28.89C88.25,50.5,83.86,59.41,79.72,69.62a15.34,15.34,0,0,0-.94,3.64c-1.76,2.16-3.44,4.39-5,6.71A1.672,1.672,0,0,1,71,78.11Z" fill="#a63650"/>
      <path id="Caminho_8345" data-name="Caminho 8345" d="M2,88.87a28.2,28.2,0,0,1,.43-6.42A2.39,2.39,0,0,1,5,80.33a2.34,2.34,0,0,1,2.12,2.5,28.2,28.2,0,0,0-.43,6.42,2.33,2.33,0,0,1-2.5,2.12A2.39,2.39,0,0,1,2,88.87Z" fill="#8d2636"/>
      <path id="Caminho_8346" data-name="Caminho 8346" d="M129.21,194.62a22.92,22.92,0,0,1,2.77,7.94,21.71,21.71,0,0,1,.21,4.48c0,.41-.38,3.49-.72,3.14a1.66,1.66,0,0,0-2.74,1.81l.06.15a1.4,1.4,0,0,0,.18.8A24.82,24.82,0,0,1,132.13,229c-.22,1.54-.5,3.14-.83,4.74h55.82A63.83,63.83,0,0,0,176.2,208.5c-6-8.39-13.75-15.37-21.4-22.25a56.168,56.168,0,0,1-4.24-7.14l-.84-1.75a1.67,1.67,0,0,0-3.14.73c-.05-.08-.11-.15-.17-.23-1.15-1.47-3.7.21-2.74,1.82q1.88,3.13,3.74,6.27c.23,2.13-.36,4.1-2.92,5-3.23,1.17-6.53-.59-9.19-2.32s-8.31-7-11.48-4.33c-1.36,1.14-1.17,2.68-.09,3.9C125.67,190.43,127.72,192,129.21,194.62Z" fill="#bbbdbf"/>
      <path id="Caminho_8347" data-name="Caminho 8347" d="M132.75,206.38c2.2,7.57,9.69,11.46,19.48,8.59-3.94,4.11-9.76,1.84-15,2.82,3,1.46,5.69,1.62,8.54,2.43-1.87,4.39-8.13,6.92-8.45,12.37a7.49,7.49,0,0,0,.16,1.17h49.6A63.83,63.83,0,0,0,176.2,208.5c-6-8.39-13.75-15.37-21.4-22.25a54.716,54.716,0,0,1-3.49-5.73c-1.16.49-2.33.92-3.52,1.29,2.06,3,2.26,7.15-1.55,9.12s-9.53.1-12.51-2.72A2.43,2.43,0,0,1,133,187c-.76-.56-1.61-1.16-2.47-1.69a2.5,2.5,0,0,1-.25.09c-1.19.29-2.38.55-3.57.81C131.87,190.86,133.48,198.86,132.75,206.38Zm39.3,15.72a19.68,19.68,0,0,1-18.3,8.08C160.14,229,167.13,226.89,172.05,222.1ZM157.5,203.49c-1.79-3.53-2.29-8.22-7.12-9.06C155.59,194,156.79,199.5,157.5,203.49Z" fill="#f1f1f2"/>
      <path id="Caminho_8348" data-name="Caminho 8348" d="M59,204.73c1.23-2,5.31-1.46,7.24-1.77a.94.94,0,0,1,.69-1.36c4.39-.76,8.6-2.17,12.93-3.19,3-.72,6.14-1,9.21-1.58l3.11-.89a.88.88,0,0,1,.69.08l.63-.16c4.13-1.18,8-2.72,12.23-3.71a42.24,42.24,0,0,0,14.21-6.32c1-.72,2.35.78,1.3,1.5-7.81,5.34-16.69,6.94-25.5,9.9a40.52,40.52,0,0,1-5.9,1.42l-13.61,3.77c-2.57.71-5.13,1.49-7.72,2.1a35.4,35.4,0,0,1-3.53.67c-.39.05-6,.29-2.91,2.46,1,.74-.08,2.38-1.12,1.64C59.53,208.28,57.86,206.6,59,204.73Z" fill="#dfbe9c"/>
      <path id="Caminho_8349" data-name="Caminho 8349" d="M54.92,205.2a.662.662,0,1,1,1.32.11,5.24,5.24,0,0,0,1.14,2.85,2.12,2.12,0,0,0,2.47.86c.78-.35,1.36.84.58,1.18a3.3,3.3,0,0,1-3.63-.71,6.33,6.33,0,0,1-1.88-4.29Z" fill="#dfbe9c"/>
      <path id="Caminho_8350" data-name="Caminho 8350" d="M58.3,211a.68.68,0,0,1,.88.3,2.4,2.4,0,0,0,1.86,1,.61.61,0,0,1,.59.7.62.62,0,0,1,.48.09,1.93,1.93,0,0,0,2.17-.1c.68-.5,1.55.49.87,1a3.31,3.31,0,0,1-3.79.19.56.56,0,0,1-.28-.58h-.15A3.78,3.78,0,0,1,58,211.85a.67.67,0,0,1,.3-.85Z" fill="#dfbe9c"/>
      <path id="Caminho_8351" data-name="Caminho 8351" d="M143.24,189a4.09,4.09,0,0,0,.67-3.66,11,11,0,0,0-.65-1.64,16.16,16.16,0,0,1-1.52-3.06c-.21-.83,1.09-1.07,1.3-.25.46,1.81,1.84,3.27,2.31,5.13.39,1.57-.25,2.89-1,4.23C143.91,190.53,142.82,189.78,143.24,189Z" fill="#dfbe9c"/>
      <path id="Caminho_8352" data-name="Caminho 8352" d="M205.82,146.4a1.06,1.06,0,0,0-1.18-.53c.67-.52,1.32-1.05,2-1.59a1.21,1.21,0,0,1,1.41-.16,1.508,1.508,0,0,0,0,.3,1.328,1.328,0,0,1,0,.2.92.92,0,0,0-.56.59,2.172,2.172,0,0,0-.07.24,1,1,0,0,0-1,.66,2.67,2.67,0,0,0-.3.86A4.287,4.287,0,0,0,205.82,146.4Z" fill="#dfbe9c"/>
      <path id="Caminho_8353" data-name="Caminho 8353" d="M172.94,162.09A90.94,90.94,0,0,0,204,146.35a1,1,0,0,0,0,1l.1.17a.84.84,0,0,0-.24.4v.15a.34.34,0,0,0,0,.14c-.12.62-.2,1.24-.26,1.87a94.42,94.42,0,0,1-30.1,14.66C171.79,165.15,171.31,162.55,172.94,162.09Z" fill="#dfbe9c"/>
      <path id="Caminho_8354" data-name="Caminho 8354" d="M115.56,46.68a90,90,0,0,1,16.31,5.53,1.27,1.27,0,0,1,1.94-.64,40.5,40.5,0,0,0,6.09,3,41,41,0,0,1,5.38,3.46,85.621,85.621,0,0,1,10.58,8.48c.56.55,1.13,1.09,1.7,1.63a1.27,1.27,0,0,1,1.24.37A53.19,53.19,0,0,1,164.48,75c.38.44.74.87,1.1,1.32a41.291,41.291,0,0,1,6,11.19,1.48,1.48,0,0,1,.09.53l.14.25c2.11,3.44,4.64,6.57,6.64,10.09A69.857,69.857,0,0,1,183.68,110c.55,1.59-1.83,2.77-2.38,1.16-2.67-7.71-6.84-14-11.22-20.74a72.715,72.715,0,0,1-3.78-6.94,89,89,0,0,0-51.63-34.34C113,48.79,113.92,46.29,115.56,46.68Z" fill="#dfbe9c"/>
      <path id="Caminho_8355" data-name="Caminho 8355" d="M135.27,82a32,32,0,0,1,.27-11.62c.29-1.24,2.16-.57,1.87.67-1.59,6.73,0,15,1.73,21.57a37.5,37.5,0,0,0,2.86,7.2.83.83,0,0,1,.76.55c1.67,4,4.66,7.45,7.19,10.94a1,1,0,0,1,.1,1l.1-.06c.43-.29.87-.57,1.31-.83a29.9,29.9,0,0,1,2.75-1.43,1.35,1.35,0,0,1,2.49,1c1,2.87,1,6.64-.54,9.07-.69,1.08-2.33-.05-1.64-1.12,1.16-1.82,1.05-4.83.36-7.08a32.68,32.68,0,0,0-4.5,2.61c-.76.53-2.05,1.72-3,.91s.16-2.48,1.12-1.64a.22.22,0,0,1,0-.31c-2-.64-3.71-4.63-4.62-6.14A62.67,62.67,0,0,1,138,95.53,70.06,70.06,0,0,1,135.27,82Z" fill="#dfbe9c"/>
      <path id="Caminho_8356" data-name="Caminho 8356" d="M56,154.31a.82.82,0,0,1-.78-1c.85-4.67,5.74-7.87,9.92-9.4a19.33,19.33,0,0,1,7.76-1.14c.65,0,1.3-.09,1.94-.09a.79.79,0,0,1,.77.43,22.271,22.271,0,0,1,5,1.62c1.15.53.5,2.41-.67,1.87a20.28,20.28,0,0,0-7.11-1.85c-5.21.44-11.16,2.59-13.8,7.18-3,5.21-1.29,13.46,2.38,17.94.81,1-.69,2.3-1.5,1.31A20.78,20.78,0,0,1,56,154.31Z" fill="#dfbe9c"/>
      <path id="Caminho_8357" data-name="Caminho 8357" d="M48.09,189.92c-1-1.27.63-3.45,2-2.24l.29.26h0l.46.43a1.44,1.44,0,0,1,1.56.74,20.56,20.56,0,0,1,1.7,3.42,1.67,1.67,0,0,1,.08.3.81.81,0,0,1,.3.23c1.61,2.1,3.14,4.07,4.58,6.21a17.731,17.731,0,0,1,1.45,2.26c.88,1.67-1.66,2.84-2.6,1.27-.2-.33-.39-.67-.58-1-2-3.19-5-5.66-6.66-9A21.749,21.749,0,0,1,48.09,189.92Z" fill="#f6921e"/>
      <path id="Caminho_8358" data-name="Caminho 8358" d="M52.3,189.53a40.09,40.09,0,0,0,4.44,6.29,36.2,36.2,0,0,1,4.19,4.82c.47.73-.73,1.52-1.26.84-1.55-2-3.41-3.68-4.89-5.71a33.25,33.25,0,0,1-3.27-5.86.44.44,0,0,1,.79-.38Z" fill="#faaf40"/>
      <path id="Caminho_8359" data-name="Caminho 8359" d="M48.38,189.28a.61.61,0,0,1,.24-.39v-.3a.62.62,0,0,1,.58-.65h0a.57.57,0,0,1,.85-.06l.42.42.44.33.13.08a.32.32,0,0,1,.15.06,1.6,1.6,0,0,1,.43.39.33.33,0,0,1,.07.16.45.45,0,0,1-.18.62,1.15,1.15,0,0,1-.09.33,1.91,1.91,0,0,0,.24.41.43.43,0,0,1,.06.48.14.14,0,0,0,0,.06.46.46,0,0,1-.78.41.59.59,0,0,1-.27.27.47.47,0,0,1-.47,0h-.08a.47.47,0,0,1-.43-.17,5.074,5.074,0,0,1-.36-.51A1.72,1.72,0,0,1,48.38,189.28Z" fill="#f6ceba"/>
      <path id="Caminho_8360" data-name="Caminho 8360" d="M49.44,189c.23.39.39.83.6,1.23a4.3,4.3,0,0,1,.58,1.25.77.77,0,0,1-1.17.77,3.27,3.27,0,0,1-.9-1.29,6.6,6.6,0,0,1-.55-1.48.77.77,0,0,1,1.44-.48Z" fill="#e9b49f"/>
      <path id="Caminho_8361" data-name="Caminho 8361" d="M59.81,193.52a14.35,14.35,0,0,1-.61-2.1.73.73,0,0,1,1.26-.61c2.39,2.54,3.8,6.5,4.79,9.79a1.16,1.16,0,0,1-.91,1.34c-.64.13-1.28.29-1.91.45a1.11,1.11,0,0,1-1.21-.61c-.82-2.21-1.23-4.55-2.07-6.76a1.18,1.18,0,0,1,.66-1.5Z" fill="#8d2636"/>
      <path id="Caminho_8362" data-name="Caminho 8362" d="M66,209.52a3.709,3.709,0,0,1,.73.18,1,1,0,0,1,1.83.13,86,86,0,0,1,1.72,9.83c.15,1.09-1.55,1.82-2,.65-1.11-3.17-2.73-6.23-3.48-9.51a1.09,1.09,0,0,1,1.2-1.28Z" fill="#8d2636"/>
      <path id="Caminho_8363" data-name="Caminho 8363" d="M59.63,191.1a1.85,1.85,0,0,0-.12-.4.76.76,0,0,1,1,.11c2.39,2.54,3.8,6.5,4.79,9.79a1.16,1.16,0,0,1-.91,1.34c-.45.09-.89.2-1.33.31a41,41,0,0,1-3.43-11.15Z" fill="#ba3a54"/>
      <path id="Caminho_8364" data-name="Caminho 8364" d="M70,220.46c-.68-1.73-1.38-3.46-2-5.23-.48-1.37-.81-2.78-1.17-4.18a13.528,13.528,0,0,0,1.79-.79,90.492,90.492,0,0,1,1.62,9.4A1,1,0,0,1,70,220.46Z" fill="#ba3a54"/>
      <path id="Caminho_8365" data-name="Caminho 8365" d="M61.43,191.87a10.109,10.109,0,0,1,.86,2.13c.06.24.09.47.13.7h.15a1.58,1.58,0,0,1,.16,2.87,2.84,2.84,0,0,1-1.1.35,1.59,1.59,0,0,1-1.48-.51,4.87,4.87,0,0,1-.85-2.2,6.75,6.75,0,0,0-.73-2C57.62,191.44,60.5,190,61.43,191.87Z" fill="#6d6e70"/>
      <path id="Caminho_8366" data-name="Caminho 8366" d="M60.2,195.91c.4,0,.81.07,1.22.05h.26c-.16-.48-.43-1-.54-1.27a26.731,26.731,0,0,1-1.35-2.93l-.21-.38a.32.32,0,0,1,.53-.36,13.92,13.92,0,0,1,3.35,6c.14.55-.54.78-.89.49a2.56,2.56,0,0,1-1.9.52.447.447,0,0,1-.16-.84,4.05,4.05,0,0,0,1.16-.38,2.84,2.84,0,0,1-1.66,0A.468.468,0,0,1,60.2,195.91Z" fill="#d0d2d3"/>
      <path id="Caminho_8367" data-name="Caminho 8367" d="M53.58,184c-.54-3,2.46-3.82,3.17-6.38a.51.51,0,0,1,.19-.27c0-.05,0-.12,0-.17a4.5,4.5,0,0,1-.39-.95c-.12-.42.4-.66.72-.48a.31.31,0,0,1,.41.1h0a.53.53,0,0,1,.44.17c1.29,1.3,2.94,2.54,3.35,4.41a10.37,10.37,0,0,1-.16,4.89A6.9,6.9,0,0,1,60,188a3.25,3.25,0,0,1-.25.59.54.54,0,0,1-.84,0h0a.55.55,0,0,1-.38,0h-.11a10,10,0,0,1-3.45-1.65.51.51,0,0,1-.22-.64,4.66,4.66,0,0,1-1.17-2.3Z" fill="#6d6e70"/>
      <path id="Caminho_8368" data-name="Caminho 8368" d="M59.25,187.71a18.791,18.791,0,0,1,1.12-1.89c.38-.54.78-1,1.12-1.52a8.727,8.727,0,0,1-.22,1A6.9,6.9,0,0,1,60,188a3.25,3.25,0,0,1-.25.59.43.43,0,0,1-.27.21.74.74,0,0,0-.23-1.09Z" fill="#bbbdbf"/>
      <path id="Caminho_8369" data-name="Caminho 8369" d="M54.56,182.65A21.279,21.279,0,0,0,56,179.08a4.5,4.5,0,0,0,.73-1.45.51.51,0,0,1,.19-.27c0-.05,0-.12,0-.17a4.5,4.5,0,0,1-.39-.95c-.12-.42.4-.66.72-.48a.31.31,0,0,1,.41.1h0a.53.53,0,0,1,.44.17,21.069,21.069,0,0,1,2.59,2.75,5.53,5.53,0,0,1-.54,5.18c-.74,1.06-1.39,2.14-2,3.23C56.05,186.3,53.62,185.2,54.56,182.65Z" fill="#bbbdbf"/>
      <path id="Caminho_8370" data-name="Caminho 8370" d="M57.27,178.27h0a9.42,9.42,0,0,0-.7-2.46h0a.09.09,0,0,1,0-.07.16.16,0,0,1,.3,0,.186.186,0,0,0,.07.14,13.4,13.4,0,0,1,2.87,4.63,7.53,7.53,0,0,1,.69,2.17,13.9,13.9,0,0,1-.44,2.63.29.29,0,0,1-.57,0,9.5,9.5,0,0,1,.34-1.75,6,6,0,0,0-.67-3.32,18.42,18.42,0,0,0-1.74-3,10.13,10.13,0,0,1,.3,3.46,21.42,21.42,0,0,0,.81,7.17.106.106,0,0,1-.2.06,8.75,8.75,0,0,1-1.05-5.1,23.51,23.51,0,0,0,0-4.1,21.55,21.55,0,0,0-1.23,4.11,7,7,0,0,0,1.47,4.91.14.14,0,0,1-.21.18C54.48,185.07,56.13,181.37,57.27,178.27Z" fill="#6d6e70"/>
      <path id="Caminho_8371" data-name="Caminho 8371" d="M55.28,181.18c.09-.14.28,0,.21.14a6.38,6.38,0,0,0-.66,3.1c0,1.63.92,2.34,2.2,3.06.06,0,0,.13-.06.11a3.4,3.4,0,0,1-2.48-2.52,6.09,6.09,0,0,1,.79-3.89Z" fill="#6d6e70"/>
      <path id="Caminho_8372" data-name="Caminho 8372" d="M48.9,198.24a1.58,1.58,0,0,1,.26-1.14,4.431,4.431,0,0,1,.14-.44.52.52,0,0,1,.44-.35h0a.69.69,0,0,1,.12-.19.93.93,0,0,1,.79-.91.94.94,0,0,1,1.12.76.47.47,0,0,1,.37.2,5.39,5.39,0,0,1,2,2.82.65.65,0,0,1-.06.55c1.3,1.36,2.6,2.72,3.95,4,.41.41-.19,1-.63.72l-.18-.11a.5.5,0,0,1-.61.07l-1.15-.79a.56.56,0,0,1-.3.07,5.15,5.15,0,0,1-3-1.77,19.451,19.451,0,0,1-1.77-1.37C49.82,199.89,48.73,199.14,48.9,198.24Z" fill="#bbbdbf"/>
      <path id="Caminho_8373" data-name="Caminho 8373" d="M51.14,201l-.73-.61c-.59-.49-1.68-1.24-1.51-2.14a1.58,1.58,0,0,1,.26-1.14,4.43,4.43,0,0,1,.14-.44.52.52,0,0,1,.44-.35h0a.69.69,0,0,1,.12-.19.92.92,0,0,1,.53-.81,22.69,22.69,0,0,0,4.44,6.82C53.61,201.71,52.37,201.35,51.14,201Z" fill="#f1f1f2"/>
      <path id="Caminho_8374" data-name="Caminho 8374" d="M122.31,124.64A121.149,121.149,0,0,0,141.48,127c6.21.29,12.81.49,18.35-2.75.63-.37,1.32.65.71,1.08-11.17,7.93-25.92,5.7-38.54,3C119.66,127.9,119.93,124.15,122.31,124.64Z" fill="#8d2636" opacity="0.39"/>
      <path id="Caminho_8375" data-name="Caminho 8375" d="M17.12,53.69c3.27-3.34,7.72-5.58,11.88-7.61.95-.47,1.91-.91,2.88-1.33,4.06-2.56,8.37-4.62,13.13-4.69l2.11-.74a28.531,28.531,0,0,1,6-1.36c3.37-2.51,9.92-1.58,13.82-1.21A84.21,84.21,0,0,1,79.7,38.69,2.69,2.69,0,0,1,83.46,40a.9.9,0,0,1,.18.44,3.34,3.34,0,0,1-1.38,4c-.93.58-1.12,3-1.36,4q-.59,2.37-1.3,4.71c-.95,3.13-2.07,6.2-3.27,9.23-2.28,5.79-5,11.41-7.09,17.28-1,2.82-1.5,5.77-2.47,8.58s-2.2,5.24-2.91,8.06-.94,10-3.58,12.62a2.94,2.94,0,0,1-3.4,2.83c-10-1.25-20.68-2-29.56-7.36C18.66,99.2,15,90.23,12.24,81,9.53,71.9,10.12,60.86,17.12,53.69Z" fill="#bbbdbf"/>
      <path id="Caminho_8376" data-name="Caminho 8376" d="M61.19,89.28c-1.22,4.27-4.63,7.61-6.62,11.36-3.63-12.12,1.32-25.18-3.61-37-7.67,12.89-8.88,27.94-8.26,42-21.39-5.3-33.23-29.52-27.32-49.82a21.08,21.08,0,0,1,1.74-2.06c3.27-3.34,7.72-5.58,11.88-7.61.95-.47,1.91-.91,2.88-1.33,4.06-2.56,8.37-4.62,13.13-4.69l2.11-.74a28.53,28.53,0,0,1,6-1.36c3.37-2.51,9.92-1.58,13.82-1.21A84.208,84.208,0,0,1,79.7,38.69,2.69,2.69,0,0,1,83.46,40a.9.9,0,0,1,.18.44,3.34,3.34,0,0,1-1.38,4c-.93.58-1.12,3-1.36,4q-.59,2.37-1.3,4.71c-.74,2.46-1.6,4.85-2.48,7.22A97.09,97.09,0,0,0,61.19,89.28Z" fill="#f1f1f2"/>
      <path id="Caminho_8377" data-name="Caminho 8377" d="M140.1,198.52a4.325,4.325,0,0,1-.1,1.14l-.4-.28a5.522,5.522,0,0,0-1.26-.58.25.25,0,0,0-.33.22v1a4,4,0,0,1-.8-.41.24.24,0,0,0-.13,0l-.12-.25a.16.16,0,1,0-.29.13c.11.29.19.78.34,1.2a.49.49,0,0,0,0,.12.485.485,0,0,0,.05.25.93.93,0,0,0,0,.33v.12a.18.18,0,0,0,.32.12.68.68,0,0,0,.4-.15h0a4.55,4.55,0,0,0,1.57-.44c.55-.21,1.09-.43,1.63-.66a.27.27,0,0,0,.12-.37c-.24-.5-.3-1-.52-1.55a.25.25,0,0,0-.48.06Z" fill="#d57227"/>
      <path id="Caminho_8378" data-name="Caminho 8378" d="M139.27,200.55c.63-.15,1.22-.4,1.83-.59h0c-.25-.51-.3-1.06-.53-1.57a.25.25,0,0,0-.47.14,4.325,4.325,0,0,1-.1,1.14l-.4-.28a5.521,5.521,0,0,0-1.26-.58.25.25,0,0,0-.33.22v1a4,4,0,0,1-.8-.41.24.24,0,0,0-.13,0l-.12-.25a.2.2,0,0,0-.08-.08c.23.57.43,1.15.62,1.74A12.544,12.544,0,0,1,139.27,200.55Z" fill="#f69220"/>
      <path id="Caminho_8379" data-name="Caminho 8379" d="M141.39,200.1v-.08c0-.08.19,0-.12-.24.12,0,0-.18-.05-.33l-.62-1.65a.2.2,0,0,0-.39.06c-.05.23-.1,1.24-.35,1.3s-1.05-.59-1.31-.77a.2.2,0,1,0-.23.33l.06.05h-.18a.07.07,0,0,0-.06,0,.14.14,0,0,0,0,.25l.3.1a9.252,9.252,0,0,0,1,.48h.09a2.493,2.493,0,0,0,.29.11h.1l.18.12a.14.14,0,0,0,.19-.2l.12-.53c.19.38.39.76.59,1.14a.18.18,0,0,0,.1.08h0a.121.121,0,1,0,.22-.1C141.22,200.19,141.48,200.27,141.39,200.1Z" fill="#faaf3a"/>
      <path id="Caminho_8380" data-name="Caminho 8380" d="M142,200.44a.24.24,0,0,0,0-.12v-.06h0c-.26-.83-.61-1.63-.85-2.47-.12-.45-.15-1.23-.68-1.38a.22.22,0,0,0-.22.05,3.73,3.73,0,0,0-.69,1.88,7,7,0,0,0-.81-.52c-.22-.12-.56-.37-.82-.33s-.3.37-.34.6-.07.64-.09,1a4.75,4.75,0,0,0-1.51-.68.22.22,0,0,0-.28.21,9.72,9.72,0,0,0,.78,3.14,4,4,0,0,1-1.85-.14.23.23,0,0,0-.28.15.61.61,0,0,0,.06.58c.05.31.29.48.64.56a11.21,11.21,0,0,0,3.14-.78,31.492,31.492,0,0,0,3.67-1.33h0l.11-.1a.24.24,0,0,0,.02-.26Zm-.81-.29a19.169,19.169,0,0,1-3.21,1.1h0l1.92-.67v-.06l-1.7.51c-.22.06-.44.12-.66.2l-.42.16a8.61,8.61,0,0,0-.42-2,4,4,0,0,0,1.41.72.11.11,0,0,0,.12-.11v-1.47c.19.12.48.21.6.29.29.17.57.36.86.54l.06.06a.12.12,0,0,0,.09,0l.14.08a.12.12,0,0,0,.19-.06,9.221,9.221,0,0,0,.25-1.67,1.175,1.175,0,0,0,.1.3c.07.32.19.65.27,1a11.294,11.294,0,0,0,.42,1.08Z" fill="#051b21"/>
      <path id="Caminho_8381" data-name="Caminho 8381" d="M157.94,184l-.54-.2a5.6,5.6,0,0,1,2.75.53h0a.35.35,0,0,0,.14.06h.1a13.3,13.3,0,0,1,3.58,3,.34.34,0,0,0,.38.08.33.33,0,0,0,.14-.44.25.25,0,0,0,0-.07,15.34,15.34,0,0,0-3.32-2.87,2.85,2.85,0,0,1,1.46.31,5,5,0,0,0,2.07,1.42,20.513,20.513,0,0,0,1.28,1.91.314.314,0,0,0,.54-.32h0c-.32-.44-.64-.89-.93-1.35a6.369,6.369,0,0,0,1.07,0,4.9,4.9,0,0,0,.85,1.2.32.32,0,0,0,.37.08.31.31,0,0,0,.15-.43.18.18,0,0,0,0-.07,4.66,4.66,0,0,1-.64-.86l.53-.08.52-.08.26.38a.32.32,0,0,0,.55-.31h0l-.08-.12.51-.05a3.281,3.281,0,0,0,.18.61c-.14.17-.27.33-.39.5a6.56,6.56,0,0,1-1.17,1.28,4.82,4.82,0,0,1-3,1.21,6.79,6.79,0,0,1-2.78-1.05,6.88,6.88,0,0,0-3.19-1.11,16,16,0,0,0-5.23-2.53c.15.23.29.46.43.71a1.739,1.739,0,0,1,.1.19l.2.24a21.68,21.68,0,0,1,5.94,3.54c1.88,1.43,3.73,2.68,5.85,2.35a5,5,0,0,0,2.48-1.3s0,.1,0,.15a3.7,3.7,0,0,0,.95,1.95,4.63,4.63,0,0,1,1.45-.43h0a1.78,1.78,0,0,1-.49-1.72,1.45,1.45,0,0,1,1.33-1h.07a.86.86,0,0,0,.62-.14.92.92,0,0,0,.3-.75,9.7,9.7,0,0,0-.44-2.59c.33.05.66.12,1,.19h.08l.15.33a4.81,4.81,0,0,0,1.13,1.73,3.25,3.25,0,0,0,2,.87,6.22,6.22,0,0,1-2.24,2.53A2.4,2.4,0,0,0,173,192a6.36,6.36,0,0,0,3.65-.83,9.671,9.671,0,0,0,1.31-1.85,7,7,0,0,0,1.16-3.12,5.59,5.59,0,0,0-.33-2.11,9.36,9.36,0,0,0-.66-1.56,9.85,9.85,0,0,0-2.3-2.84c-.35-.3-.74-.58-1.1-.84a13.017,13.017,0,0,1-1.25-1l-.29-.28a3.68,3.68,0,0,1-.73-1v-.11a2.315,2.315,0,0,1,.07-.69,26.5,26.5,0,0,0,.12-6.17,10.83,10.83,0,0,0-1.13-3.61,8.93,8.93,0,0,0-.78-1.18c-.38.4-.78.78-1.19,1.15a18.262,18.262,0,0,1,.48,2.3,15.559,15.559,0,0,1,.28,3.32,5.71,5.71,0,0,1-.71,2.47,15.46,15.46,0,0,0-3.42-3.43,15.637,15.637,0,0,0-1.31-1l-.77.54c.52.38,1,.78,1.52,1.19a12.91,12.91,0,0,1,3.55,3.77h0a.43.43,0,0,0,.35.23.41.41,0,0,0,.38-.16,6,6,0,0,0,1.29-3.51,15.37,15.37,0,0,0-.28-3.52c-.12-.74-.24-1.44-.41-2.11a9.55,9.55,0,0,1,1.27,3.71,25.39,25.39,0,0,1-.13,6,2.315,2.315,0,0,1-.07.69,1.53,1.53,0,0,0,.25,1,9.6,9.6,0,0,0,.26,1.59,1.45,1.45,0,0,0-1,.18l-.11-.09a1.35,1.35,0,0,0-1.62.06.659.659,0,0,0,0-.14,18.15,18.15,0,0,0-5.44-8.73l-.17.12-.58.39a17.24,17.24,0,0,1,5.24,8.15,1.52,1.52,0,0,0-.6.15,2.07,2.07,0,0,0-1.11-.2,2.48,2.48,0,0,0-1.21-.71,3.541,3.541,0,0,0-.16-.34l-.1-.18a3,3,0,0,0-2.07-1.48v-.07a6.341,6.341,0,0,0-.72-1.08,4.19,4.19,0,0,0-2.72-1.54l-.28-.27c-.26.16-.53.3-.8.45a7.408,7.408,0,0,1,.62.63,18.649,18.649,0,0,1,3.07,5.5.44.44,0,0,0,.67.19.46.46,0,0,0,.14-.55,21.67,21.67,0,0,0-2.72-5.13,3.79,3.79,0,0,1,1.53,1.12,8.17,8.17,0,0,1,1.38,2.79c.09.28.18.57.26.85a18.939,18.939,0,0,0,.79,2.26.31.31,0,0,0,.5.11.32.32,0,0,0,.07-.38,17.926,17.926,0,0,1-.75-2.17c-.09-.28-.17-.57-.27-.86s-.24-.73-.39-1.1a2.55,2.55,0,0,1,1.17,1,6.37,6.37,0,0,1,.7,2.24l.06.4a10.261,10.261,0,0,0,.46,2.07.317.317,0,1,0,.59-.23,10.129,10.129,0,0,1-.42-1.94,2.926,2.926,0,0,0-.07-.41,10,10,0,0,0-.24-1.16,2,2,0,0,1,.66.59,5.33,5.33,0,0,1,.81,2.33c.05.32.05.65.07,1a.32.32,0,0,0,.42.27.33.33,0,0,0,.22-.33,9.848,9.848,0,0,0-.29-2,5.11,5.11,0,0,0-.45-1.19v-.05a1.63,1.63,0,0,1,.69.33,2.68,2.68,0,0,1,.78,1.17,2.43,2.43,0,0,1,.15.66,4.15,4.15,0,0,1,0,.49,2.87,2.87,0,0,0,0,.83.31.31,0,0,0,.47.21.3.3,0,0,0,.15-.34,2.261,2.261,0,0,1,0-.63,3.691,3.691,0,0,0,0-.58,2.68,2.68,0,0,0-.19-.86,2.731,2.731,0,0,0-.23-.52,3,3,0,0,0-.52-.72,1,1,0,0,1,.56.16,2.21,2.21,0,0,1,.79.95,4.86,4.86,0,0,1,.52,2.45.316.316,0,1,0,.63.03,5.54,5.54,0,0,0-.58-2.77.31.31,0,0,1-.05-.1,3.69,3.69,0,0,0-.5-.71.72.72,0,0,1,.76,0,1.5,1.5,0,0,1,.31.35,2.84,2.84,0,0,1,.48,1,3.12,3.12,0,0,1,0,.69v1.58a.32.32,0,1,0,.64,0v-1.56a3.93,3.93,0,0,0-.07-.83,2.31,2.31,0,0,0-.25-.65,3.5,3.5,0,0,0-.26-.43.83.83,0,0,1,.56-.05.81.81,0,0,1,.54.58,1.79,1.79,0,0,1,0,.61l-.14,1.42a.32.32,0,0,0,.39.34.31.31,0,0,0,.24-.29l.15-1.4a2.83,2.83,0,0,0,0-.82,2,2,0,0,0-.1-.26c.15-.13.22-.17.34-.16a.75.75,0,0,1,.59.3.51.51,0,0,1,.09.16.35.35,0,0,0,0,.18,1.5,1.5,0,0,1,0,.37,3.249,3.249,0,0,1-.28.83,5.269,5.269,0,0,0-.19.51,3.889,3.889,0,0,1-.23.58.316.316,0,1,0,.56.29,3.91,3.91,0,0,0,.27-.67,2.519,2.519,0,0,1,.17-.44,3.819,3.819,0,0,0,.33-1,1.851,1.851,0,0,0,0-.23.94.94,0,0,1,.59.36,1.55,1.55,0,0,1,0,1.57,3.449,3.449,0,0,1-.42.44l-.38.38a1.83,1.83,0,0,0-.53,1.27.32.32,0,0,0,.45.28.33.33,0,0,0,.19-.32,1.2,1.2,0,0,1,.37-.8c.1-.12.22-.23.34-.35a5.716,5.716,0,0,0,.48-.5,2,2,0,0,0,.27-1.59,9,9,0,0,1,1.77,3.08,7.189,7.189,0,0,1,.21.79L178,185a.33.33,0,0,0-.37-.08.31.31,0,0,0-.11.5l.71.76v.35l-1.28-1.39a.33.33,0,0,0-.37-.08.32.32,0,0,0-.11.51l1.57,1.69a2,2,0,0,1-.08.22l-2-2.19a.319.319,0,1,0-.48.42l2.23,2.4-.05.15a2.38,2.38,0,0,1-2-.71,4.46,4.46,0,0,1-1-1.51c-.08-.18-.17-.37-.26-.54a.34.34,0,0,0-.05-.17.44.44,0,0,0-.29-.22H174a6.77,6.77,0,0,0-3.19-1,21.223,21.223,0,0,0-2.38-.13h-1.24a5.749,5.749,0,0,1-1.54-.24,5.56,5.56,0,0,1-1.68-1.06,20.192,20.192,0,0,1-3-3.1,32,32,0,0,0-3.19-5.45,8.751,8.751,0,0,1-.83.37,31.59,31.59,0,0,1,3.39,5.85c.1.22.19.44.28.66a16.85,16.85,0,0,0,1.3,2.58,3.41,3.41,0,0,0-1,0,1.37,1.37,0,0,0-.6.19,5.73,5.73,0,0,0-4.3-.24,9.26,9.26,0,0,0-2.83,0c.21.26.42.53.62.83a8.26,8.26,0,0,1,3.8.53,17.09,17.09,0,0,1,3.8,2.36.45.45,0,1,0,.51-.73,17.939,17.939,0,0,0-3.98-2.53Zm15.56-4.91h-.11a1,1,0,0,0-.65.22q-.13-.57-.21-1h0a8.589,8.589,0,0,0,.97.77Zm-3.57,11.28a2.94,2.94,0,0,1,1.21-2.78.46.46,0,0,0,.2-.32.49.49,0,0,0-.13-.36,2.54,2.54,0,0,1-.75-1.25,13.21,13.21,0,0,1,1.68.06,8.9,8.9,0,0,1,.49,2.67.46.46,0,0,1,0,.25h-.3a2.08,2.08,0,0,0-1.95,1.49,2.32,2.32,0,0,0,.06,1.4,2.79,2.79,0,0,1-.51-1.17Zm.14-3.45a1.44,1.44,0,0,0,.18.25,3.74,3.74,0,0,0-.94,1.35,4.29,4.29,0,0,1-2.9,2.25c-1.77.28-3.45-.87-5.17-2.18l-.78-.58a13.581,13.581,0,0,1,1.69.81,7.18,7.18,0,0,0,3.06,1.12,5.35,5.35,0,0,0,3.35-1.34,6.84,6.84,0,0,0,1.29-1.4Zm-8.22-5.39a18.156,18.156,0,0,0,1.69,1.59,6.19,6.19,0,0,0,1.87,1.18,6,6,0,0,0,1.72.27h1.26a19.873,19.873,0,0,1,2.31.13h.23a18.712,18.712,0,0,0-2.7.19l-.55.08a6.71,6.71,0,0,1-2.35.1,4.42,4.42,0,0,1-2.59-2,10.34,10.34,0,0,1-.89-1.55Z" fill="#772d16"/>
      <path id="Caminho_8382" data-name="Caminho 8382" d="M172.37,190.36a.47.47,0,1,1-.2.79.48.48,0,0,1,.2-.79Z" fill="#772d16"/>
      <path id="Caminho_8383" data-name="Caminho 8383" d="M168.85,176.94l-.53-1.21a.3.3,0,0,1,.05-.34.31.31,0,0,1,.52.06h0l.52,1.21a.313.313,0,1,1-.56.28Z" fill="#772d16"/>
      <path id="Caminho_8384" data-name="Caminho 8384" d="M169.4,178.41l-.2-.57a.33.33,0,0,1,.11-.38.32.32,0,0,1,.46.11s0,0,0,.05l.2.56a.32.32,0,1,1-.59.23Z" fill="#772d16"/>
      <path id="Caminho_8385" data-name="Caminho 8385" d="M190.86,181.16a.45.45,0,0,0,.1-.38.581.581,0,0,0-.05-.14,12.79,12.79,0,0,0-1.7-2.6,12.62,12.62,0,0,0-2.31-2.13.477.477,0,0,0-.7.38,12.521,12.521,0,0,1-.24,1.84,13.319,13.319,0,0,0-1.73.87.45.45,0,0,0-.21.36.47.47,0,0,0,.19.38,8,8,0,0,1,1.33,1.2h-.33a3.94,3.94,0,0,0-1.22.16.43.43,0,0,0-.25.23.44.44,0,0,0,0,.34c.2.57.42,1.13.65,1.69a5.25,5.25,0,0,0-2.7,3.39,4.84,4.84,0,0,0-.15,1.46l.89-.52a4.506,4.506,0,0,1,.12-.72,4.38,4.38,0,0,1,2.2-2.8c.28.61.58,1.21.89,1.8l.78-.4a32.709,32.709,0,0,1-1.67-3.72,3.616,3.616,0,0,1,.47,0l1,2.3a.32.32,0,1,0,.58-.26l-.93-2.08a1.91,1.91,0,0,0,.33-.06l.48,1a.32.32,0,0,0,.57-.28l-.46-.9a3.17,3.17,0,0,0,.36-.23l.34.65a.31.31,0,0,0,.42.14.32.32,0,0,0,.14-.43l-.38-.74.29-.2a26.3,26.3,0,0,0,1.49,3.29c.09-.06.19-.1.29-.16.53-.28,1.07-.6,1.6-.94h-1.47l-.27-.55,1.21-1.1h0Zm-1.89-.38.71.25-.45.4a3.867,3.867,0,0,1-.23-.65Zm.61-.72-1.22-.43h-.29a3.74,3.74,0,0,0-1.07.65c-.18.13-.35.26-.52.36a8.48,8.48,0,0,0-1.22-1.25,11.475,11.475,0,0,1,1.24-.56.42.42,0,0,0,.27-.31,13,13,0,0,0,.25-1.41A11.861,11.861,0,0,1,189.58,180.06Z" fill="#772d16"/>
      <path id="Caminho_8386" data-name="Caminho 8386" d="M193.74,153a2,2,0,0,0,.5.26,2.74,2.74,0,0,0,2.66-.3.32.32,0,0,1,.45,0,.33.33,0,0,1,0,.45,3.35,3.35,0,0,1-3.3.41,3.2,3.2,0,0,1-.79-.43C193.39,153.28,193.57,153.15,193.74,153Z" fill="#772d16"/>
      <path id="Caminho_8387" data-name="Caminho 8387" d="M189.05,155.93a1.23,1.23,0,0,0,.9-.33.91.91,0,0,0,.18-.21c.37-.19.73-.39,1.09-.61a2.09,2.09,0,0,1-2.24,2,2,2,0,0,1-1.07-.38A11.363,11.363,0,0,0,189.05,155.93Z" fill="#772d16"/>
      <path id="Caminho_8388" data-name="Caminho 8388" d="M179.78,159c.59-.14,1.17-.3,1.76-.45l-.49.41a1.8,1.8,0,0,1-2.08.17,4.7,4.7,0,0,0,.81-.13Z" fill="#772d16"/>
      <path id="Caminho_8389" data-name="Caminho 8389" d="M191.85,154.39a5,5,0,0,0,3.66,1.15,5.23,5.23,0,0,0,3.74-2.06,19.389,19.389,0,0,0,1.7,1,.5.5,0,0,0,.34,0,.49.49,0,0,0,.27-.22,4.131,4.131,0,0,0,.36-1.18l.06-.32a8.34,8.34,0,0,1,1,1.52.42.42,0,0,0,.34.25.43.43,0,0,0,.39-.15,11.15,11.15,0,0,0,1.14-1.56,12.862,12.862,0,0,1,1.86.07.41.41,0,0,0,.41-.63,12.44,12.44,0,0,0-4-4.74.57.57,0,0,0-.13-.08.45.45,0,0,0-.39,0h0l-1.28,1-.63-.45.07-.44-.61.37-.57.34a27.69,27.69,0,0,0,3.05,2.07c-.11.12-.24.24-.38.37a4.11,4.11,0,0,0-.82.94A4,4,0,0,0,201,153a2.112,2.112,0,0,1-.1.5,30.521,30.521,0,0,1-4.33-3l-.68.57c.83.69,1.68,1.36,2.57,2a4.37,4.37,0,0,1-3.07,1.67,4,4,0,0,1-2.81-.8Zm10.69-5.65.13.74-.59-.37Zm-.15,3.2a6.076,6.076,0,0,1,.44-.44,4,4,0,0,0,.8-.89.45.45,0,0,0,.08-.34l-.22-1.27a11.52,11.52,0,0,1,2.47,3,13.447,13.447,0,0,0-1.42,0,.42.42,0,0,0-.35.22c-.24.39-.49.76-.76,1.12A9.078,9.078,0,0,0,202.39,151.94Z" fill="#772d16"/>
      <path id="Caminho_8390" data-name="Caminho 8390" d="M173.48,162.43l2.65,2.5a1.8,1.8,0,0,0,2.48-2.62l-2.21-2.09c-.46.41-.94.79-1.42,1.16l-.25,1-.5-.46Q173.87,162.19,173.48,162.43Zm3.46,2,.5-2,.56.53a.92.92,0,0,1,0,1.3.9.9,0,0,1-1.06.16Zm-1.69-1.54.52-2,1.14,1.08-.51,2Z" fill="#772d16"/>
      <path id="Caminho_8391" data-name="Caminho 8391" d="M187.38,172.49a.44.44,0,0,0,.09-.46.34.34,0,0,0-.06-.12l-5.51-7.08a.45.45,0,0,0-.56-.12l-6.71,3.62a.45.45,0,0,0-.23.47.44.44,0,0,0,.37.36l3.52.51-.49,3.63a.46.46,0,0,0,.09.32.4.4,0,0,0,.3.17l3.66.49-.57,3.58a.44.44,0,0,0,.76.38Zm-.91-.33-4.08,4.4.41-2.59a.42.42,0,0,0-.08-.33.45.45,0,0,0-.3-.18l-3.68-.49.48-3.62a.42.42,0,0,0-.37-.49l-2.62-.38,1.94-1,1.05,1.35a.315.315,0,0,0,.54-.31.2.2,0,0,0,0-.08l-1-1.26.2-.11.56.72a.33.33,0,0,0,.45.06.32.32,0,0,0,.1-.36.41.41,0,0,0-.05-.09l-.49-.64.25-.14.2.26a.344.344,0,0,0,.55-.36.22.22,0,0,0,0-.08l-.13-.17,1.1-.6Z" fill="#772d16"/>
      <path id="Caminho_8392" data-name="Caminho 8392" d="M173.86,176.58a.44.44,0,0,1,.08-.62l3-2.34a.44.44,0,0,1,.62.08.751.751,0,0,1,.07.12.45.45,0,0,1-.15.5l-3,2.34a.44.44,0,0,1-.62-.08Z" fill="#772d16"/>
      <path id="Caminho_8393" data-name="Caminho 8393" d="M175.87,171.54a.4.4,0,0,1,0,.15.44.44,0,0,1-.43.45l-1.82.05a.44.44,0,0,1,0-.88l1.82-.06a.46.46,0,0,1,.43.29Z" fill="#772d16"/>
      <path id="Caminho_8394" data-name="Caminho 8394" d="M179.11,175.82a.425.425,0,0,1,.29.55l-.5,1.75a.43.43,0,0,1-.54.3.44.44,0,0,1-.31-.55l.5-1.75a.44.44,0,0,1,.56-.3Z" fill="#772d16"/>
      <path id="Caminho_8395" data-name="Caminho 8395" d="M181,166.28a.32.32,0,0,1,.45.06l3.2,4.12a.2.2,0,0,1,0,.08.315.315,0,0,1-.54.31L181,166.73a.33.33,0,0,1,0-.45Z" fill="#772d16"/>
      <path id="Caminho_8396" data-name="Caminho 8396" d="M192.14,176.9a3.36,3.36,0,0,0,4.89-4.5c.12-.15.25-.3.37-.46a22.411,22.411,0,0,0,3,1.82.37.37,0,0,0,.46-.11l.84-1.07a.36.36,0,0,0,0-.47,23.169,23.169,0,0,0-2.45-2.5c3.21-4,5.16-6.42,5.65-6.94a2,2,0,0,1,1.38-.79,2.7,2.7,0,0,1,1.78,1,2.931,2.931,0,0,1,.51.75l.48-.67a3.371,3.371,0,0,0-.46-.61,3.28,3.28,0,0,0-2.32-1.24,2.67,2.67,0,0,0-1.92,1c-.51.54-2.42,2.88-5.68,7l-.17-.13-.12-.1-.23-.18c3.2-4.13,5-6.53,5.44-7.15a2.64,2.64,0,0,0,.55-2.1,3.29,3.29,0,0,0-1.75-2,5.61,5.61,0,0,0-4.26-.16.6.6,0,0,0-.41.46.57.57,0,0,0,.22.57l.14.12a27.058,27.058,0,0,0-2.85,1.2,10,10,0,0,1,1.76-2.8.55.55,0,0,0,.19.29.6.6,0,0,0,.58.1,12.15,12.15,0,0,1,4.56-.87,18.234,18.234,0,0,1,2.78.55c1,.26,1.6.42,2,.24l.83-.32-.11.89c-.09.41.21,1,.69,1.87a18.06,18.06,0,0,1,1.18,2.56v.06a4.85,4.85,0,0,1,.61-.51,19.144,19.144,0,0,0-1.15-2.47,5.819,5.819,0,0,1-.62-1.37h0l.19-1.52a.37.37,0,0,0-.5-.4l-1.44.54h0a6.2,6.2,0,0,1-1.47-.29,18.468,18.468,0,0,0-2.89-.57,12.3,12.3,0,0,0-4.63.82l.07-.46a.37.37,0,0,0-.59-.36c-2,1.43-3,4.54-3.08,4.67a.38.38,0,0,0,.11.4.39.39,0,0,0,.41.06A26.349,26.349,0,0,1,199,159a.35.35,0,0,0,.3-.27.36.36,0,0,0-.13-.39l-.48-.38a4.67,4.67,0,0,1,3.35.17c.84.5,1.3,1,1.41,1.49a2,2,0,0,1-.44,1.53c-.4.59-2.27,3-5.43,7.11a22.359,22.359,0,0,0-3.06-1.84.37.37,0,0,0-.46.11l-.84,1.07a.38.38,0,0,0,0,.47,23.45,23.45,0,0,0,2.52,2.56l-.36.45a3.37,3.37,0,0,0-3.22,5.82Zm2.86-9.36-.59.76-.43-.48.46-.59C194.63,167.33,194.82,167.43,195,167.54Zm.85.49-.77,1-.3-.31.7-.88Zm4.07,4.61.6-.76.42.48-.46.58c-.19-.09-.38-.2-.56-.3Zm-.85-.49.77-1,.3.31-.69.89Zm-2.59-1.88h0c-.34-.28-.67-.58-1-.88l.84-1.06c.41.27.82.55,1.22.85l.53.41c.48.39.95.79,1.39,1.22l-.83,1.06q-.54-.35-1.05-.72h0Zm.31,1.23-1.86,2.35-.15.18a.3.3,0,0,1-.47-.37l.07-.1,1.92-2.45Zm-2.9,3.17a1.05,1.05,0,0,0,1.15.1v.09a1,1,0,0,1-1.53-1.21.459.459,0,0,1,.07-.07,1,1,0,0,0,.31,1.09ZM192,172.93l.23.18a.26.26,0,0,0,.37-.05.25.25,0,0,0,0-.37l-.24-.19.14-.14.37.29a.286.286,0,0,0,.38-.42l-.27-.21.19-.11.48.38a.28.28,0,0,0,.38,0,.27.27,0,0,0,0-.38l-.21-.17a2.52,2.52,0,0,1,1.22,0l-.63.81a1.72,1.72,0,1,0,1.66,1.31l.63-.81a2.62,2.62,0,1,1-4.57-.1Z" fill="#772d16"/>
      <path id="Caminho_8397" data-name="Caminho 8397" d="M208.36,161.27a.27.27,0,0,1,.11-.36.26.26,0,0,1,.29,0,.16.16,0,0,1,.07.09,9.885,9.885,0,0,1,.55,1.19.272.272,0,1,1-.51.19,8.861,8.861,0,0,0-.51-1.11Z" fill="#772d16"/>
      <path id="Caminho_8398" data-name="Caminho 8398" d="M203,156.82a8.59,8.59,0,0,1,3.68,1.59,7.19,7.19,0,0,1,1.12,1.09.273.273,0,0,1-.42.35,6.2,6.2,0,0,0-1-1,8,8,0,0,0-3.45-1.48.26.26,0,0,1-.21-.31.27.27,0,0,1,.28-.24Z" fill="#772d16"/>
      <path id="Caminho_8399" data-name="Caminho 8399" d="M184.2,163.53l.32,2a.46.46,0,0,0,.51.37l3.07-.51.35,2.11a.4.4,0,0,0,.17.28.44.44,0,0,0,.33.08l2.23-.36a.44.44,0,0,0,.36-.51l-.34-2.1,7.49-1.22a.43.43,0,0,0,.29-.18.41.41,0,0,0,.08-.24v-.09l-.33-2a.43.43,0,0,0-.5-.36l-7.5,1.22-.34-2.1a.45.45,0,0,0-.5-.37l-2.23.37a.43.43,0,0,0-.29.18.45.45,0,0,0-.07.32l.34,2.11-3.08.5a.46.46,0,0,0-.28.17A.44.44,0,0,0,184.2,163.53Zm.94.29,3.07-.5a.46.46,0,0,0,.29-.17.44.44,0,0,0,.08-.33l-.35-2.1,1.36-.23.35,2.11a.43.43,0,0,0,.17.28.44.44,0,0,0,.33.08l7.5-1.22.18,1.11-7.5,1.22a.44.44,0,0,0-.36.51l.34,2.1-1.36.22-.34-2.1a.43.43,0,0,0-.5-.36l-3.08.5Z" fill="#772d16"/>
      <path id="Caminho_8400" data-name="Caminho 8400" d="M188.77,161.62a.314.314,0,1,1,.62-.1l.29,1.82,3.16-.52a.3.3,0,0,1,.36.26.13.13,0,0,1,0,.06.31.31,0,0,1-.26.3l-3.17.52.3,1.81v.07a.312.312,0,0,1-.62.04l-.3-1.82-2,.32a.31.31,0,0,1-.36-.25.32.32,0,0,1,.26-.37l2-.32Z" fill="#772d16"/>
      <path id="Caminho_8401" data-name="Caminho 8401" d="M65.15,150.13a33.778,33.778,0,0,1,5.55,4c.83-1.11,1.67-2.21,2.54-3.29a1.1,1.1,0,1,1,1.82,1.24c-.81,1.24-1.6,2.49-2.4,3.75l.17.14c1.77,1.55,5,3.4,5.12,5.9a1.23,1.23,0,0,1-1.29,1.43c-2.38-.05-4.24-2.69-5.9-4.35-.75,1.4-1.56,2.94-2.88,3.6a1.14,1.14,0,0,1-1.63-1.11c0-1.56,1.3-3.13,2.33-4.46a50.81,50.81,0,0,1-5.1-5C62.49,150.85,63.93,149.48,65.15,150.13Z" fill="#051b21"/>
      <path id="Caminho_8402" data-name="Caminho 8402" d="M69.36,130.12a32.113,32.113,0,0,1,1-3.72c.15-.47.87-.21.72.26a32.051,32.051,0,0,1-1.21,3.58C69.79,130.51,69.29,130.46,69.36,130.12Z" fill="#051b21"/>
      <path id="Caminho_8403" data-name="Caminho 8403" d="M65.43,115.93a.431.431,0,1,1,.86.07,41.36,41.36,0,0,1-.71,7,.32.32,0,0,1-.61,0,41.8,41.8,0,0,1,.46-7.07Z" fill="#051b21"/>
      <path id="Caminho_8404" data-name="Caminho 8404" d="M63,135c.24-.44.78-.64,1.2-.89l1.47-.87c.54-.32,1,.56.43.88l-1.47.88a2.7,2.7,0,0,1-1.35.57A.37.37,0,0,1,63,135Z" fill="#051b21"/>
      <path id="Caminho_8405" data-name="Caminho 8405" d="M67.29,137a3.65,3.65,0,0,1,1.56-.48l1.89-.32a.51.51,0,0,1,.19,1l-1.88.39a3.48,3.48,0,0,1-1.63.12.42.42,0,0,1-.13-.71Z" fill="#051b21"/>
      <path id="Caminho_8406" data-name="Caminho 8406" d="M60.76,140.17a2.13,2.13,0,0,1,.69-.8l.9-.75a.444.444,0,0,1,.58.67L62,140a2.27,2.27,0,0,1-.92.54.31.31,0,0,1-.32-.37Z" fill="#051b21"/>
      <path id="Caminho_8407" data-name="Caminho 8407" d="M66,83.77c-3.09,8.34-6.48,16.9-6.82,25.89-.14.5-.26,1-.4,1.5-11-.4-22.14-1.92-31.27-8.49A37.912,37.912,0,0,1,11.76,76.98c1.3-7,3.52-13.92,7.43-19.63,6.28-9.18,16.61-15,27.3-17.39a71.36,71.36,0,0,1,19-1.47c6,.27,11.81,1.54,17.74,2.08C81,45.85,78.78,51.16,76.61,56.48Q71.09,70,66,83.77Z" fill="none"/>
      <path id="Caminho_8408" data-name="Caminho 8408" d="M214.47,141.61c1.06-.16,1.49.84,1.76,1.66.6,1.82-.63,3.47-2.14,4.41a4.189,4.189,0,0,1-.89.42c-.53-1.46-1-2.92-1.57-4.39a11.853,11.853,0,0,1,1.27-1C213.34,142.42,213.91,141.7,214.47,141.61Z" fill="none"/>
      <path id="Caminho_8409" data-name="Caminho 8409" d="M162.09,70.09c-12.68-12.85-29.18-21.77-47.55-24a.77.77,0,0,0-.85.45.71.71,0,0,0-.23.06c-5,2.44-10.25,3.79-15,6.92A88.889,88.889,0,0,0,86.27,63.69c-1.62,1.55-3.24,3.1-4.82,4.69q1-2.56,2.14-5.11C86,57.79,88.48,52.37,91.09,47a319.784,319.784,0,0,1,18.38-33.16c.49-.77-.67-1.57-1.18-.81A334.5,334.5,0,0,0,88.63,45.75c-2.8,5.42-5.39,10.94-7.84,16.52-1.27,2.92-2.53,5.85-3.7,8.82-.53,1.34-1.14,2.72-1.65,4.13-.15.19-.31.39-.45.59-1.08,1.48-2.09,3-3.06,4.57Q76.32,69.16,81,58q4.88-11.65,10-23.21c3.17-7.08,6.67-14.26,12.1-19.9C114,3.59,131,3.64,145.56,6.26a72.29,72.29,0,0,1,21.64,7.33c6.8,3.71,10.93,10.54,12.45,18,2.95,14.51-4.38,28.88-16.47,36.86A2.47,2.47,0,0,0,162.09,70.09Z" fill="none"/>
      <path id="Caminho_8410" data-name="Caminho 8410" d="M209.44,148.59a.79.79,0,0,0-.3,1.42,3.8,3.8,0,0,0,1.12.42c.22.62.43,1.23.65,1.84s.37,1,.55,1.58c-8.07,19.75-26.34,33-46.64,38.68a1.91,1.91,0,0,0-.74.41c-4.79-4.6-9.55-9.21-12.87-15a64.76,64.76,0,0,0,24.66-15.53c2.54.13,5.36-1.32,7.57-2.27a87.719,87.719,0,0,0,9.56-4.76c2.91-1.67,5.74-3.49,8.51-5.38a43.509,43.509,0,0,0,6.8-5.09l1.29,3.67Z" fill="none"/>
      <path id="Caminho_8411" data-name="Caminho 8411" d="M6.3,80.75c-.47,3.25-.77,6.52-.94,9.75a3.73,3.73,0,0,1-.86-1.2,9.62,9.62,0,0,1-.74-3.67A6.31,6.31,0,0,1,6.3,80.75Z" fill="none"/>
      <path id="Caminho_8412" data-name="Caminho 8412" d="M11.17,80.59a34.54,34.54,0,0,0,3.07,11.28,38.28,38.28,0,0,0,9.68,13.36c9.17,7.87,22,10,33.78,10.28-.18.78-.37,1.55-.53,2.33A116.2,116.2,0,0,0,55,133a64.781,64.781,0,0,0,0,14.33,18.829,18.829,0,0,0-1.7,3.2h0A94.5,94.5,0,0,1,20.89,128c-4.36-4.6-7.93-9.61-9.5-15.83-1.61-6.4-1.63-13.16-1.3-19.7C10.28,88.6,10.6,84.59,11.17,80.59Z" fill="none"/>
      <path id="Caminho_8413" data-name="Caminho 8413" d="M141.88,184.87a1,1,0,0,0,1.74-.57,22.869,22.869,0,0,0-.44-3.47c1.12,2.34,3.5,7.08-.13,8.18-1.81.54-4.43-.22-6.08-1a15.48,15.48,0,0,1-5.13-4.18,14.694,14.694,0,0,1-1.15-1.57,76.286,76.286,0,0,0,9.64-1.29,9,9,0,0,0,1.55,3.9Z" fill="none"/>
      <path id="Caminho_8414" data-name="Caminho 8414" d="M80.75,146.25c.7.57,1.7-.57,1-1.16-5.5-5-12.17-6.79-19.24-3.94a15.76,15.76,0,0,0-4.18,2.51c.08-3.44,0-6.9.3-10.32a117.789,117.789,0,0,1,2-14.12,114.371,114.371,0,0,1,4.82-16.91A17.28,17.28,0,0,0,77.3,117.78c-1.41,2.21-3.09,4.82-3.48,7.37s.74,4.47,2.05,6.41c.37.54.79,1.11,1.24,1.67a5.9,5.9,0,0,0-2,1,.38.38,0,0,0,.31.66,13.082,13.082,0,0,0,2-.65c.13-.05.26-.08.4-.12,2.63,3,6.32,5.86,10.07,5.73.73,0,1.12-1.12.29-1.36A19.2,19.2,0,0,1,80,133.55a.44.44,0,0,0-.23-.84l-.51.06c-.41-.45-.8-.91-1.17-1.4-1.82-2.4-3-4.79-2-7.83.61-1.89,1.45-3.69,2.09-5.57a.83.83,0,0,0,.24-1.61c-7.57-2.65-11.43-8.51-11.92-16.4v-.1q1.83-4.67,4-9.16a91,91,0,0,1,7.83-13.31c3.19-4.38,7.17-8.16,11-11.94a87.8,87.8,0,0,1,11.2-9.63c4.4-3,9.44-4.87,13.83-7.92h0q3,.6,6,1.39a.321.321,0,1,0,.38.11A85.44,85.44,0,0,1,157.8,70.28a88.82,88.82,0,0,1,23.54,40.32,78.709,78.709,0,0,1,3.1,24.35,34.85,34.85,0,0,1-8.12,20.4c-10,12.39-25.94,19.41-41.49,21.38a75,75,0,0,1-23.21-.83c-8.08-1.5-15.42-4.59-23-7.68a2.35,2.35,0,0,0-.75-.16c0-1.52-1.84-3-3.37-2.11-2.76,1.52-5,3.09-8.19,3.76a29.73,29.73,0,0,1-8.93.44c-6.63-.64-10.09-4.52-10.61-11.22C55.83,146.34,70.83,138.17,80.75,146.25Z" fill="none"/>
      <path id="Caminho_8415" data-name="Caminho 8415" d="M209.44,148.59h.16l.66,1.86a3.8,3.8,0,0,1-1.12-.42.79.79,0,0,1,.3-1.44Z" fill="#051b21"/>
      <path id="Caminho_8416" data-name="Caminho 8416" d="M136.22,64.23a.73.73,0,0,1,1.45.12,66.71,66.71,0,0,0,2.84,24.4,61,61,0,0,0,5,11.58c1.75,3.14,4,6,5.81,9.07,2.54-2.51,5.5-4.05,7.24-.68,2.51,4.84.08,12-5.49,13.36a1.05,1.05,0,0,1-.88-1.81,11.2,11.2,0,0,0,3.52-3.5c.84-1.56,1.47-4.34.46-6,0-.72-.33-.9-.85-.55a1.82,1.82,0,0,0-1.17.68,21.759,21.759,0,0,0-1.85,1.61c-1.41,1.25-2.83,2.51-4.21,3.79-.72.66-1.61-.31-1.2-1.06a28.56,28.56,0,0,1,2.69-3.89c-6-5-9.78-13.66-12-20.92A54,54,0,0,1,136.22,64.23Z" fill="#051b21"/>
      <path id="Caminho_8417" data-name="Caminho 8417" d="M114.32,129.25a1.17,1.17,0,0,0,1.75-.57c.61-1.83-.24-3.58,1.1-5.29a5.91,5.91,0,0,1,.6-.63,1.79,1.79,0,0,0,1,1,190.1,190.1,0,0,0,6.77,25.37c1.94,5.75,4.42,12.19,9.82,15.58,5.93,3.74,13.37,1.78,19.55-.23,6.41-2.09,13.08-5.39,16.64-11.38.47-.79-.52-1.8-1.25-1.11s-1.19,1.09-1.79,1.6c-2-4.94-1.53-11.5-1.32-16.68.26-6.12,2.16-11.14,3.89-16.89a.79.79,0,0,0,0-.43q1.86-1.45,3.63-3.1a.49.49,0,0,0-.64-.74c-13.16,10.69-30.87,11.74-46.57,7.3a11,11,0,0,0,2.09-1.28l2.37-1.59c.31-.21-.05-.75-.36-.55l-2.38,1.57a10.22,10.22,0,0,0-2.06,1.49.22.22,0,0,0,0,.25c-1.94-.56-3.85-1.2-5.71-1.92a9,9,0,0,1,1.52-.15.713.713,0,0,0,.12-1.42c-3.14-.45-6-.71-8.25,2C113.16,123.47,112,127.45,114.32,129.25Zm15.41,22.05h.07c8.88-2.22,18.36,2.18,21.72,10.83-5.6,1.52-11.89,2.62-16.41-1.82a24.73,24.73,0,0,1-5.38-9.01Zm-7.2-25.93A57.72,57.72,0,0,0,148.14,129,41.84,41.84,0,0,0,163,124.75c.77,8.55-8.51,11.36-15.44,12.52a90.153,90.153,0,0,1-11.69,1.33c-3.49.11-6.81-.56-10.25-.69C124.47,133.76,123.46,129.58,122.53,125.37Z" fill="#051b21"/>
      <path id="Caminho_8418" data-name="Caminho 8418" d="M95.84,91c3.71-4,9.06-6.9,14.64-6.51,4.51.32,9.84,2.83,11.15,7.48a1.06,1.06,0,0,1-.65,1.34c.32.72.61,1.42.86,2.07A27,27,0,0,1,123,111a.5.5,0,1,1-1-.08,34.85,34.85,0,0,0-1.81-12.53,28.63,28.63,0,0,0-3.85-8,10.79,10.79,0,0,0-6.58-2.4c-4.61-.09-8.86,2.48-11.83,5.84A14.1,14.1,0,0,0,94.52,107a22.79,22.79,0,0,0,7,12.6c.48.41,0,1.23-.57.83a25.2,25.2,0,0,1-9.29-13.44C90,100.85,91.59,95.57,95.84,91Z" fill="#051b21"/>
      <path id="Caminho_8419" data-name="Caminho 8419" d="M147.87,83.93c1.57-2.73,4.74-5.22,8-5.09,2.78.11,6,2.22,6.74,5a.66.66,0,0,1,0,.28l.21.27a17,17,0,0,1,2.92,12.15.472.472,0,0,1-.94-.08c.2-3.71-1.12-8.94-4.05-11.89-1.4-.6-2.48-1.74-4-2.08-3.36-.75-6.58,2.68-7,5.83-.69,5,1.52,11.44,4.6,15.34a.43.43,0,0,1-.64.56c-3-2.72-4.26-6.63-5.58-10.37C147,90.6,146.05,87.08,147.87,83.93Z" fill="#051b21"/>
      <path id="Caminho_8420" data-name="Caminho 8420" d="M90.05,72.66c1.45-3,3.5-6.07,6.85-7.11a9.879,9.879,0,0,1,1.86-.37,2.9,2.9,0,0,1-.65-2.54c.46-2.34,3-3.31,5.12-2.85,2.45.54,4.75,2.59,6.25,5.11a10.32,10.32,0,0,0-1.73-3.44.42.42,0,0,1,.63-.55c2.6,2.49,5.67,9.6,3.17,13a1.22,1.22,0,0,1-.72,1.13c-4.17,1.69-8,2.77-11.57,5.63-3.06,2.43-7.48,7.84-8.59,12.12C86.52,87.43,87.32,78.37,90.05,72.66Z" fill="#051b21"/>
      <path id="Caminho_8421" data-name="Caminho 8421" d="M156.06,68.85a5.31,5.31,0,0,0-4-1.6,3.76,3.76,0,0,0-.78.21,1.49,1.49,0,0,0-.26-1.18,1.71,1.71,0,0,0-2.52-.17,4.78,4.78,0,0,0-1.34,3.36,5,5,0,0,1,0-1.77.182.182,0,1,0-.35-.1c-.49,1.54-.22,5.1,1.41,6a.53.53,0,0,0,.5.32,17.33,17.33,0,0,1,5.52,0,12.55,12.55,0,0,1,5.7,3.34C160.37,74.28,158.24,70.68,156.06,68.85Z" fill="#051b21"/>
      <path id="Caminho_8422" data-name="Caminho 8422" d="M101.84,94.69a8.68,8.68,0,0,1,4.24.28l-.46.06c-5.14,1-3.63,9,1.51,8,3.1-.58,3.78-3.72,2.7-5.91a14.8,14.8,0,0,1,4.67,8.45c1.33,7.06-2.18,13.65-7.84,14.72S95.33,116.47,94,109.41,96.18,95.76,101.84,94.69Z" fill="#051b21"/>
      <path id="Caminho_8423" data-name="Caminho 8423" d="M152.59,86.92a4,4,0,0,1,2.3,0l-.24.06c-2.68.79-1.18,5.86,1.49,5.08,1.62-.48,1.71-2.51.94-3.88a11,11,0,0,1,3.23,5.27c1.32,4.5,0,8.84-2.94,9.71s-6.41-2.08-7.72-6.58S149.65,87.79,152.59,86.92Z" fill="#051b21"/>
      <path id="Caminho_8424" data-name="Caminho 8424" d="M48.89,201.15a22.55,22.55,0,0,0,5.28,3.65,5.2,5.2,0,0,0,1.27,5.33,5,5,0,0,0,1.13.76v.05a4.07,4.07,0,0,0,3,2.7,4.84,4.84,0,0,0,3.22,2.27,1.661,1.661,0,0,0,.44,0,.939.939,0,0,0,.09.12,2.75,2.75,0,0,0,2.41.55,26.24,26.24,0,0,0,4.09,6.9.47.47,0,0,0,.54.12.74.74,0,0,0,1.1-.68,45.46,45.46,0,0,0-1.07-10.2c1.7-.29,4.08-2.64,3-4.26a.65.65,0,0,0-1,.06,6.67,6.67,0,0,1-1.19,1.5,7.18,7.18,0,0,1-1.28.8c-.19-.59-.4-1.18-.63-1.76a7.84,7.84,0,0,0,1.5-1.22.91.91,0,0,0-1.19-1.37c-2.39,1.62-6,3.45-8.56,1-1-.94-1.32-2.37.17-3.07a9.049,9.049,0,0,1,2.06-.35,25.559,25.559,0,0,0,4.23-1c.67-.24.38-1.24-.24-1.29h-.58a1,1,0,0,0-.08-.39,65.941,65.941,0,0,0-6.53-12.09h.05c5.61-5.12,2-13.61-5-14.65a.33.33,0,0,0-.21.59.19.19,0,0,0,.07.11c3.84,4.24-3.68,5.89-2.52,10,.71,2.52,3.3,4,5.71,4.65a23.84,23.84,0,0,0,.22,6.22c-.39-.47-.79-.93-1.17-1.4-1.21-1.51-2.29-3.15-3.63-4.55a8.43,8.43,0,0,0-1.32-2,.43.43,0,0,0-.73.36,2,2,0,0,0,.06.23,32.48,32.48,0,0,0-4.84-3.57.26.26,0,0,0-.38.12c-.52,1.07,0,2.14.38,3.18a12.27,12.27,0,0,0,1.75,3.6.63.63,0,0,0,.13.11.81.81,0,0,0,.1.18c.46.54.9,1.12,1.34,1.71a.61.61,0,0,0-.49.58.46.46,0,0,0-.26.18C47.86,197.25,46.59,199,48.89,201.15Zm12.29-2.34a8.09,8.09,0,0,0,2.06-.75c.55,1.2,1.08,2.41,1.58,3.64-.93.07-1.85.19-2.77.33h-.19C61.67,201,61.42,199.89,61.18,198.81Zm-.54-2.43a1.94,1.94,0,0,0,1-.1c.24-.06.48-.1.73-.14.19.41.38.83.58,1.25a8.87,8.87,0,0,1-1.23.41c-.23.06-.48.1-.72.14C60.86,197.42,60.75,196.9,60.64,196.38Zm-.19-1c-.23-1.37-.37-2.77-.57-4.14.71,1.35,1.39,2.7,2.06,4.06h-.5a1.52,1.52,0,0,0-.94.29,2,2,0,0,1-.05-.2ZM55,182.17a9.24,9.24,0,0,0,1.79-2.79,4.27,4.27,0,0,0-.12-3.51,11.48,11.48,0,0,1,3.54,3.57c2.08,3.31.11,5.68-1,8.68h-.07a14.139,14.139,0,0,1-.89-1.62,10.17,10.17,0,0,1-.56-4.71.3.3,0,1,0-.59,0,11.69,11.69,0,0,0,.28,4.45,10.34,10.34,0,0,0,.91,2C55.55,187.39,52.64,184.94,55,182.17Zm10.14,28.35a10,10,0,0,0,3-.84c.54,3.8,1.27,7.49,1.57,11.32-1.71-3.44-2.84-7.08-4.58-10.48ZM48.7,187.19a.85.85,0,0,0-.16.17c-.09-.08-.17-.17-.26-.24a2.53,2.53,0,0,0-.82-.51l-.19-.45C47.74,186.52,48.22,186.86,48.7,187.19Zm10.46,15.5c-1.55-2-3.28-3.87-4.82-5.89a35.79,35.79,0,0,0-3.55-4.09.89.89,0,0,0,.34-.23,2.31,2.31,0,0,0,1,.31.47.47,0,0,0,.45-.66A9,9,0,0,1,52,190a.27.27,0,0,0-.53.1c.08.5.18,1,.21,1.49a3,3,0,0,1-.5-.34c-.35-.3-.85.12-.78.52,0,.22-.84-.24-.93-.27a10.31,10.31,0,0,0-.87-2.38.47.47,0,0,0,.19-.06,1.44,1.44,0,0,0,.76-1.32c.64.42,1.3.84,2,1.24a.13.13,0,0,0,.2,0,13.86,13.86,0,0,0,.95,2.07,4.63,4.63,0,0,0,1.08,1.67,49,49,0,0,0,4.89,6.45.65.65,0,0,0,.47.22c.27,1,.58,2,.92,3a3.51,3.51,0,0,0-.9.3Zm5.34,12.66a3.081,3.081,0,0,0,.59-.55c.11.3.23.6.34.89h-.08a4.26,4.26,0,0,1-.47-.15,2.25,2.25,0,0,1-.38-.19Zm-2.6-1.89a3.51,3.51,0,0,0,1.89-2.85c.2.8.44,1.62.7,2.45a1.46,1.46,0,0,1-1,1,1.143,1.143,0,0,1-1.26-.32,2.353,2.353,0,0,1-.33-.28Zm-2.92-2a6.38,6.38,0,0,0,3.05-.69.91.91,0,0,0,.39-.36h.27A2.24,2.24,0,0,1,60.16,212a2.79,2.79,0,0,1-1.16-.54Zm-3.65-6.1a21.47,21.47,0,0,0,2.61,1h.1a5.28,5.28,0,0,0,.7,1.58,5.52,5.52,0,0,0,1.51,1.5,3.86,3.86,0,0,1-3.79-.77,4.61,4.61,0,0,1-1.13-3.31Zm-6.2-6.67c-.23-1,.6-2.35,1-3.29a.76.76,0,0,0,.26,0,.62.62,0,0,0,.45-.3c1.81,2.64,3.54,5.55,5.81,7.66v.05c.29.41.57.85.85,1.28a62.407,62.407,0,0,1-5.74-3C50.94,200.55,49.38,199.71,49.13,198.69Z" fill="#051b21"/>
      <path id="Caminho_8425" data-name="Caminho 8425" d="M58.25,179.62c-.14-.34.37-.6.52-.25,1.09,2.49,1.71,5.53.62,8.14a.19.19,0,0,1-.36-.08C59.15,184.7,59.3,182.23,58.25,179.62Z" fill="#051b21"/>
      <path id="Caminho_8426" data-name="Caminho 8426" d="M151.82,167.76a.78.78,0,1,1-.576.9A.78.78,0,0,1,151.82,167.76Z" fill="#051b21"/>
      <path id="Caminho_8427" data-name="Caminho 8427" d="M142.78,171.62l.09-.14a.68.68,0,1,1,.18,1l-.14-.11a.52.52,0,0,1-.13-.75Z" fill="#051b21"/>
      <path id="Caminho_8428" data-name="Caminho 8428" d="M160.38,164.59a.85.85,0,1,1-.646.984.85.85,0,0,1,.646-.984Z" fill="#051b21"/>
      <path id="Caminho_8429" data-name="Caminho 8429" d="M137.22,169.06a1,1,0,1,1-.643,1.123,1,1,0,0,1,.643-1.123Z" fill="#051b21"/>
      <path id="Caminho_8430" data-name="Caminho 8430" d="M133.1,173.47a.82.82,0,1,1-.614.947.82.82,0,0,1,.614-.947Z" fill="#051b21"/>
      <path id="Caminho_8431" data-name="Caminho 8431" d="M214.81,141.54h-.5v-2.05h.49Zm0,4.11h-.49V143.6h.49Zm.05,4.1h-.49V147.7h.5Z" fill="none"/>
      <path id="Caminho_8432" data-name="Caminho 8432" d="M192.21,233.18c-1.24.14-2.49.34-3.73.58h6.66a4,4,0,0,0-2.93-.58Z" fill="#051b21"/>
      <path id="Caminho_8433" data-name="Caminho 8433" d="M81.13,139.63a13,13,0,0,1,3.45.83c1.26.38,2.52.74,3.76,1.17.67.23.3,1.19-.37,1-1.27-.32-2.52-.72-3.78-1.09a12.9,12.9,0,0,1-3.31-1.22.39.39,0,0,1,.25-.69Z" fill="#051b21"/>
      <path id="Caminho_8434" data-name="Caminho 8434" d="M84.57,149a9.78,9.78,0,0,1,1.21-1.73A14,14,0,0,0,87,145.25c.22-.46,1-.2.75.27a15.15,15.15,0,0,1-1.19,2.16A4.76,4.76,0,0,1,85,149.4a.3.3,0,0,1-.43-.4Z" fill="#051b21"/>
      <path id="Caminho_8435" data-name="Caminho 8435" d="M88.61,150.55a17.423,17.423,0,0,1,2.17.09.33.33,0,0,1,0,.65,18.06,18.06,0,0,1-2.09-.24C88.39,151,88.3,150.57,88.61,150.55Z" fill="#051b21"/>
      <path id="Caminho_8436" data-name="Caminho 8436" d="M97.25,154.12a12.05,12.05,0,0,0,3.55-1.68.47.47,0,1,1,.52.78,9.18,9.18,0,0,1-4,1.51.31.31,0,0,1-.07-.61Z" fill="#051b21"/>
      <path id="Caminho_8437" data-name="Caminho 8437" d="M96.87,161.87c1.26-.5,2.55-1,3.82-1.41a.35.35,0,1,1,.22.66c-1.29.4-2.59.81-3.9,1.17A.224.224,0,0,1,96.87,161.87Z" fill="#051b21"/>
      <path id="Caminho_8438" data-name="Caminho 8438" d="M111.58,166.14a8.63,8.63,0,0,1,2.52.32c.45.09.4.8-.06.73a8.82,8.82,0,0,1-2.56-.57.27.27,0,0,1,.1-.48Z" fill="#051b21"/>
      <path id="Caminho_8439" data-name="Caminho 8439" d="M116.43,161.45a29.21,29.21,0,0,1,5.1-2.85c.43-.23.76.45.33.68a29.18,29.18,0,0,1-5.19,2.65A.28.28,0,0,1,116.43,161.45Z" fill="#051b21"/>
      <path id="Caminho_8440" data-name="Caminho 8440" d="M119.21,167.59a40.37,40.37,0,0,0,4.7-1c.5-.18.87.57.36.74a11.3,11.3,0,0,1-5,.85.32.32,0,0,1-.06-.59Z" fill="#fff"/>
      <path id="Caminho_8441" data-name="Caminho 8441" d="M105.57,171.1a19,19,0,0,1,3.45-2.26c.48-.3.86.49.39.79a18.931,18.931,0,0,1-3.48,2,.33.33,0,0,1-.36-.53Z" fill="#051b21"/>
      <path id="Caminho_8442" data-name="Caminho 8442" d="M117.35,174.33a2.12,2.12,0,0,0,.53-2.2c-.2-.46.49-.8.7-.34a2.23,2.23,0,0,1-.87,3C117.48,174.86,117.16,174.55,117.35,174.33Z" fill="#051b21"/>
      <path id="Caminho_8443" data-name="Caminho 8443" d="M100.15,166.37a.6.6,0,0,1,1.12-.22l.07.18a.64.64,0,0,1-.45.89.63.63,0,0,1-.74-.67Z" fill="#051b21"/>
      <path id="Caminho_8444" data-name="Caminho 8444" d="M107.85,158.87a.6.6,0,1,1-.48.7.6.6,0,0,1,.48-.7Z" fill="#051b21"/>
      <path id="Caminho_8445" data-name="Caminho 8445" d="M84.42,160.59a10.429,10.429,0,0,1,1.71-.75c.49-.23,1-.77,1.59-.67a.34.34,0,0,1,.3.36c0,.67-.84,1.1-1.36,1.37a3,3,0,0,1-2.11.4.42.42,0,0,1-.13-.71Z" fill="#051b21"/>
      <path id="Caminho_8446" data-name="Caminho 8446" d="M96.62,151.47c.46-.53,1.11-.86,1.62-1.35A8.67,8.67,0,0,0,99.78,148v-.24a.123.123,0,0,1,.24-.05l.06.23a.12.12,0,0,1,0,.13,6.48,6.48,0,0,1-1.3,2.26,3.88,3.88,0,0,1-2,1.41C96.66,151.77,96.51,151.59,96.62,151.47Z" fill="#fff"/>
      <path id="Caminho_8447" data-name="Caminho 8447" d="M109.26,151.75a34.54,34.54,0,0,1,1.94-4.83c.18-.43.87-.19.69.24a34.391,34.391,0,0,1-2.12,4.85C109.59,152.31,109.19,152.05,109.26,151.75Z" fill="#051b21"/>
      <path id="Caminho_8448" data-name="Caminho 8448" d="M116.83,145a34.221,34.221,0,0,1,2.31,5.28c.08.29-.37.53-.54.27a33.538,33.538,0,0,1-2.46-5.21C115.94,144.92,116.62,144.58,116.83,145Z" fill="#fff"/>
      <path id="Caminho_8449" data-name="Caminho 8449" d="M113.57,140.27c.26-.5,1-.77,1.36-1.15a5.31,5.31,0,0,0,1.17-1.71c.21-.48,1-.21.77.28a6,6,0,0,1-1.26,1.93c-.42.44-1.17,1.18-1.84,1.07a.28.28,0,0,1-.2-.42Z" fill="#051b21"/>
      <path id="Caminho_8450" data-name="Caminho 8450" d="M164.76,115.18a17.35,17.35,0,0,1,4.22.72c.46.1.42.84-.06.75a18.09,18.09,0,0,1-4.26-1,.25.25,0,0,1,.1-.47Z" fill="#051b21"/>
      <path id="Caminho_8451" data-name="Caminho 8451" d="M162.36,118.59a5.751,5.751,0,0,1,1.24.08,5.06,5.06,0,0,0,1.4-.1.43.43,0,0,1,.16.84c-.89.21-2.25.36-3-.31C162,118.94,162.15,118.63,162.36,118.59Z" fill="#051b21"/>
      <path id="Caminho_8452" data-name="Caminho 8452" d="M159.1,120.07a.331.331,0,1,1-.26.39.331.331,0,0,1,.26-.39Z" fill="#051b21"/>
      <path id="Caminho_8453" data-name="Caminho 8453" d="M144.54,122.85a5.23,5.23,0,0,1,1.88-.54l2.15-.37a.442.442,0,0,1,.16.87c-.71.15-1.42.3-2.13.43a5,5,0,0,1-1.95.18.3.3,0,0,1-.11-.57Z" fill="#051b21"/>
      <path id="Caminho_8454" data-name="Caminho 8454" d="M136,121.23a22.369,22.369,0,0,1,4.27-1.2c.48-.12.62.63.14.75a22.131,22.131,0,0,1-4.22,1C135.87,121.8,135.67,121.38,136,121.23Z" fill="#051b21"/>
      <path id="Caminho_8455" data-name="Caminho 8455" d="M172.64,123.66c.52-.33,1.12-.52,1.65-.86a5.91,5.91,0,0,0,1.51-1.44.465.465,0,0,1,.77.52c-.84,1.14-2.3,2.46-3.82,2.4C172.4,124.26,172.39,123.82,172.64,123.66Z" fill="#fff"/>
      <path id="Caminho_8456" data-name="Caminho 8456" d="M175.41,129.5c1.08.32,2.15.67,3.22,1,.48.16.2.93-.26.73-1-.43-2.08-.86-3.11-1.32a.22.22,0,0,1,.15-.41Z" fill="#051b21"/>
      <path id="Caminho_8457" data-name="Caminho 8457" d="M179,140.78a13.163,13.163,0,0,1,1.54.15.44.44,0,1,1-.18.86,12.073,12.073,0,0,1-1.48-.45.29.29,0,0,1,.12-.56Z" fill="#051b21"/>
      <path id="Caminho_8458" data-name="Caminho 8458" d="M173.17,146.34a50.458,50.458,0,0,1,5.64-.23c.41,0,.35.63-.06.64a51.446,51.446,0,0,1-5.55.1.26.26,0,0,1-.03-.51Z" fill="#fff"/>
      <path id="Caminho_8459" data-name="Caminho 8459" d="M171,136.68a30.683,30.683,0,0,1,3.49,1.95c.57.34,0,1.2-.59.85a30.232,30.232,0,0,1-3.24-2.14A.372.372,0,0,1,171,136.68Z" fill="#051b21"/>
      <path id="Caminho_8460" data-name="Caminho 8460" d="M179.48,125.13a4.05,4.05,0,0,1,1.61.19c.45.1.41.82-.07.74a4.18,4.18,0,0,1-1.64-.45.27.27,0,0,1,.1-.48Z" fill="#051b21"/>
      <path id="Caminho_8461" data-name="Caminho 8461" d="M178.29,115.48a6.78,6.78,0,0,1,1-1.24,10.14,10.14,0,0,0,1-1.42c.3-.51,1.07,0,.76.52a10.782,10.782,0,0,1-1.11,1.48,3.34,3.34,0,0,1-1.36,1.06.31.31,0,0,1-.29-.4Z" fill="#051b21"/>
      <path id="Caminho_8462" data-name="Caminho 8462" d="M176.51,109.87a2.9,2.9,0,0,1,1.46,0,.12.12,0,0,1,.1,0,.19.19,0,0,1,.23.11l.35.06c.54.09.48.93-.07.86l-1.12-.15a2.24,2.24,0,0,1-1-.29A.357.357,0,0,1,176.51,109.87Z" fill="#051b21"/>
      <path id="Caminho_8463" data-name="Caminho 8463" d="M107.25,136.87a8.25,8.25,0,0,1,1.08-3c.23-.54,1.1-.25.87.31a8.27,8.27,0,0,1-1.45,3,.31.31,0,0,1-.5-.31Z" fill="#051b21"/>
      <path id="Caminho_8464" data-name="Caminho 8464" d="M97.54,142.59c.67-.64,1.54-1,2.22-1.65a7.11,7.11,0,0,0,1.73-2.59.5.5,0,0,1,.93.34c-.68,1.87-2.46,4.45-4.67,4.54C97.41,143.25,97.34,142.78,97.54,142.59Z" fill="#051b21"/>
      <path id="Caminho_8465" data-name="Caminho 8465" d="M106.49,143.84a.3.3,0,1,1-.24.35.3.3,0,0,1,.24-.35Z" fill="#051b21"/>
      <path id="Caminho_8466" data-name="Caminho 8466" d="M113.62,157.71c.17-.71.57-1.37.8-2.05a15.779,15.779,0,0,0,.59-2.32c.08-.41.73-.37.65,0a15.91,15.91,0,0,1-.57,2.36,6.731,6.731,0,0,1-1,2.2.27.27,0,0,1-.47-.19Z" fill="#051b21"/>
      <path id="Caminho_8467" data-name="Caminho 8467" d="M123.35,153.13a.6.6,0,1,1-.406.682.6.6,0,0,1,.406-.682Z" fill="#051b21"/>
      <path id="Caminho_8468" data-name="Caminho 8468" d="M127.91,163.76a.62.62,0,1,1-.424.707.62.62,0,0,1,.424-.707Z" fill="#051b21"/>
      <path id="Caminho_8469" data-name="Caminho 8469" d="M126.48,173.14a.463.463,0,1,1-.37.54.463.463,0,0,1,.37-.54Z" fill="#051b21"/>
      <path id="Caminho_8470" data-name="Caminho 8470" d="M174.57,152.36a1.39,1.39,0,0,1,.9,0c.81.14.48,1.36-.23,1.06-.33-.13-.67-.21-.85-.53A.41.41,0,0,1,174.57,152.36Z" fill="#051b21"/>
      <path id="Caminho_8471" data-name="Caminho 8471" d="M169.14,145a.464.464,0,1,1-.365.545A.464.464,0,0,1,169.14,145Z" fill="#051b21"/>
      <path id="Caminho_8472" data-name="Caminho 8472" d="M180.85,135.68a.741.741,0,0,1,.22-.1.57.57,0,0,1,.66.45.71.71,0,0,1-1.23.57.57.57,0,0,1,.35-.92Z" fill="#051b21"/>
      <path id="Caminho_8473" data-name="Caminho 8473" d="M171.58,129a.59.59,0,1,1-.47.69.59.59,0,0,1,.47-.69Z" fill="#051b21"/>
      <path id="Caminho_8474" data-name="Caminho 8474" d="M136.19,123.22A27.45,27.45,0,0,1,141.8,122a.39.39,0,0,1,.15.76l-.81.17a.11.11,0,0,1-.1.09.14.14,0,0,1-.13,0,19.559,19.559,0,0,1-4.62.72.28.28,0,0,1-.1-.52Z" fill="#051b21"/>
      <path id="Caminho_8475" data-name="Caminho 8475" d="M125.65,120.13a8.49,8.49,0,0,1,1.19-.64c.37-.17.64.4.28.56a8.579,8.579,0,0,1-1.27.5.24.24,0,0,1-.2-.42Z" fill="#051b21"/>
      <path id="Caminho_8476" data-name="Caminho 8476" d="M157.57,120.48a3.5,3.5,0,0,1,1.21.35l1.27.47a.3.3,0,0,1-.21.56l-1.28-.42a3.19,3.19,0,0,1-1.16-.47.27.27,0,0,1,.17-.49Z" fill="#051b21"/>
      <path id="Caminho_8477" data-name="Caminho 8477" d="M170.51,113.49a12.11,12.11,0,0,1,4.29-.16c.56,0,.46.82-.07.85a12,12,0,0,1-4.19-.15A.3.3,0,0,1,170.51,113.49Z" fill="#051b21"/>
      <path id="Caminho_8478" data-name="Caminho 8478" d="M116.2,133.49a5.51,5.51,0,0,1,2.31-2.2c.39-.24.7.4.31.63a6.851,6.851,0,0,0-1.2.88c-.35.31-.64.68-1,1C116.42,133.91,116.1,133.74,116.2,133.49Z" fill="#051b21"/>
      <path id="Caminho_8479" data-name="Caminho 8479" d="M112.55,134.8c.22-.05.29.31.06.35a.18.18,0,0,1-.06-.35Z" fill="#051b21"/>
      <path id="Caminho_8480" data-name="Caminho 8480" d="M103.33,134.46a2.31,2.31,0,0,1,.6-.37.61.61,0,1,1,.22,1.15,2.63,2.63,0,0,1-.69-.13.4.4,0,0,1-.13-.65Z" fill="#051b21"/>
      <path id="Caminho_8481" data-name="Caminho 8481" d="M95.8,140.45l.13-.13a.76.76,0,1,1,.24,1.29l-.17-.07a.65.65,0,0,1-.2-1.09Z" fill="#051b21"/>
      <path id="Caminho_8482" data-name="Caminho 8482" d="M93.69,146.75a.41.41,0,1,1-.279.466.41.41,0,0,1,.279-.466Z" fill="#051b21"/>
      <path id="Caminho_8483" data-name="Caminho 8483" d="M92.09,161.54a7,7,0,0,1,.86-1.87l1.14-2.07c.29-.53,1.07,0,.78.53l-1.08,2a7.19,7.19,0,0,1-1.12,1.74C92.46,162,92,161.84,92.09,161.54Z" fill="#051b21"/>
      <path id="Caminho_8484" data-name="Caminho 8484" d="M94.42,165.27a.55.55,0,0,1,1,.37,6.14,6.14,0,0,1-1.1,2.5.38.38,0,0,1-.61-.22,6,6,0,0,1,.71-2.65Z" fill="#051b21"/>
      <path id="Caminho_8485" data-name="Caminho 8485" d="M107,164.73a.391.391,0,1,1-.315.455A.391.391,0,0,1,107,164.73Z" fill="#051b21"/>
      <path id="Caminho_8486" data-name="Caminho 8486" d="M104.29,152.12a24.821,24.821,0,0,0,.32-4.13c0-.62.91-.8,1-.18a9,9,0,0,1-.57,4.46.382.382,0,1,1-.75-.15Z" fill="#051b21"/>
      <path id="Caminho_8487" data-name="Caminho 8487" d="M121,140.51a20.619,20.619,0,0,1,2.57,3.82c.12.3-.23.72-.53.46a20.78,20.78,0,0,1-2.76-3.66C120,140.64,120.69,140,121,140.51Z" fill="#051b21"/>
      <path id="Caminho_8488" data-name="Caminho 8488" d="M170,140l2.9,2.73c.31.3-.19.73-.5.44l-2.9-2.74C169.21,140.11,169.71,139.68,170,140Z" fill="#fff"/>
      <path id="Caminho_8489" data-name="Caminho 8489" d="M177.39,133.6a22.761,22.761,0,0,1,4.82-1.92c.41-.11.53.54.12.65a21.719,21.719,0,0,0-4.65,1.86A.329.329,0,0,1,177.39,133.6Z" fill="#fff"/>
      <path id="Caminho_8490" data-name="Caminho 8490" d="M130.28,172.1a6.79,6.79,0,0,0,2.33-3.47c.12-.41.75-.19.63.22a7.35,7.35,0,0,1-2.53,3.75C130.38,172.86,129.94,172.36,130.28,172.1Z" fill="#fff"/>
      <path id="Caminho_8491" data-name="Caminho 8491" d="M139.92,178.35a39.161,39.161,0,0,0,1.47-5.63c.08-.42.74-.37.66.05a41.154,41.154,0,0,1-1.5,5.8.334.334,0,0,1-.63-.22Z" fill="#fff"/>
      <path id="Caminho_8492" data-name="Caminho 8492" d="M150.78,170.45a12.59,12.59,0,0,0,1.94,4c.25.35-.25.78-.5.44a13.74,13.74,0,0,1-2.09-4.3C150,170.17,150.67,170.05,150.78,170.45Z" fill="#fff"/>
      <path id="Caminho_8493" data-name="Caminho 8493" d="M159.74,170.82a.33.33,0,1,1-.265.385A.33.33,0,0,1,159.74,170.82Z" fill="#fff"/>
      <path id="Caminho_8494" data-name="Caminho 8494" d="M160.48,170.34l3.37,3c.32.27,0,.82-.37.54l-3.38-3C159.79,170.6,160.16,170.05,160.48,170.34Z" fill="#fff"/>
      <path id="Caminho_8495" data-name="Caminho 8495" d="M146.8,177.17c.46,1.75.85,3.52,1.15,5.31a.33.33,0,1,1-.65.12c-.3-1.79-.69-3.55-1.15-5.31C146,176.88,146.69,176.76,146.8,177.17Z" fill="#fff"/>
      <path id="Caminho_8496" data-name="Caminho 8496" d="M133.76,182.39a33.629,33.629,0,0,0,.3-4.26c0-.42.67-.37.66.06a33.762,33.762,0,0,1-.3,4.26C134.36,182.87,133.7,182.82,133.76,182.39Z" fill="#fff"/>
      <path id="Caminho_8497" data-name="Caminho 8497" d="M169.2,159.37l3.43,3.07c.32.28-.19.71-.5.43l-3.43-3.07C168.38,159.52,168.89,159.09,169.2,159.37Z" fill="#fff"/>
      <path id="Caminho_8498" data-name="Caminho 8498" d="M125.21,160.8a26.291,26.291,0,0,0,1.41-3.43c.13-.4.76-.18.62.23a26.739,26.739,0,0,1-1.41,3.42C125.65,161.39,125,161.18,125.21,160.8Z" fill="#fff"/>
      <path id="Caminho_8499" data-name="Caminho 8499" d="M117.8,137.93a15.689,15.689,0,0,0,1.5-2.36c.2-.38.74,0,.55.37a15.748,15.748,0,0,1-1.51,2.36C118.08,138.64,117.54,138.27,117.8,137.93Z" fill="#fff"/>
      <path id="Caminho_8500" data-name="Caminho 8500" d="M130.78,123.24l3.69-2.52c.35-.24.78.26.43.5l-3.68,2.52C130.87,124,130.43,123.48,130.78,123.24Z" fill="#fff"/>
      <path id="Caminho_8501" data-name="Caminho 8501" d="M161.22,120.49l2.82.59c.41.09.36.75,0,.66l-2.83-.59C160.75,121.06,160.8,120.4,161.22,120.49Z" fill="#fff"/>
      <path id="Caminho_8502" data-name="Caminho 8502" d="M154.13,122.69q1.89.87,3.69,1.92c.37.21,0,.76-.37.54a39.661,39.661,0,0,0-3.55-1.83C153.52,123.14,153.74,122.52,154.13,122.69Z" fill="#fff"/>
      <path id="Caminho_8503" data-name="Caminho 8503" d="M147.61,125.43a8.44,8.44,0,0,0,1.46-2c.2-.38.74,0,.55.37a9.36,9.36,0,0,1-1.58,2.17C147.75,126.24,147.31,125.74,147.61,125.43Z" fill="#fff"/>
      <path id="Caminho_8504" data-name="Caminho 8504" d="M175.26,127.56c.05,0,.06.06,0,.07S175.22,127.57,175.26,127.56Z" fill="#051b21"/>
      <path id="Caminho_8505" data-name="Caminho 8505" d="M213,102.58a67.17,67.17,0,0,1-11.39,25v-.06c2-3.78,3.92-7.66,5.93-11.46a35.34,35.34,0,0,0,3.89-10.17,54.243,54.243,0,0,0,1.95-5.44A16.636,16.636,0,0,1,213,102.58Z" fill="#b26e42"/>
      <path id="Caminho_8506" data-name="Caminho 8506" d="M213,102.58a67.17,67.17,0,0,1-11.39,25v-.06c2-3.78,3.92-7.66,5.93-11.46a35.34,35.34,0,0,0,3.89-10.17,54.243,54.243,0,0,0,1.95-5.44A16.636,16.636,0,0,1,213,102.58Z" fill="#ca936a"/>
      <path id="Caminho_8507" data-name="Caminho 8507" d="M186.46,148.06c-2.32.21-2.31-3.42,0-3.63" fill="#dfbe9c"/>
      <path id="Caminho_8508" data-name="Caminho 8508" d="M156.57,146.72a1.07,1.07,0,1,1-.967,1.065A1.07,1.07,0,0,1,156.57,146.72Z" fill="#051b21"/>
      <path id="Caminho_8509" data-name="Caminho 8509" d="M168.9,144.61a1.17,1.17,0,1,1-1.17,1.17,1.17,1.17,0,0,1,1.17-1.17Z" fill="#051b21"/>
      <path id="Caminho_8510" data-name="Caminho 8510" d="M187.35,79.15a23.56,23.56,0,0,1,5.5,2c.59.25.35,1.22-.27,1a24.28,24.28,0,0,1-5.49-2.41.34.34,0,0,1,.26-.59Z" fill="#051b21"/>
      <path id="Caminho_8511" data-name="Caminho 8511" d="M183.24,83.14a6.9,6.9,0,0,1,1.65.42,7.311,7.311,0,0,0,1.92.22.59.59,0,0,1,0,1.18c-1.25.05-3.13-.09-3.94-1.18a.43.43,0,0,1,.37-.64Z" fill="#051b21"/>
      <path id="Caminho_8512" data-name="Caminho 8512" d="M178.48,84.31a.45.45,0,1,1-.383.445A.45.45,0,0,1,178.48,84.31Z" fill="#051b21"/>
      <path id="Caminho_8513" data-name="Caminho 8513" d="M195.81,92.57c.78-.31,1.65-.41,2.44-.73a8,8,0,0,0,2.4-1.57c.6-.56,1.5.34.9.91-1.41,1.32-3.72,2.73-5.74,2.26C195.33,93.33,195.43,92.72,195.81,92.57Z" fill="#fff"/>
      <path id="Caminho_8514" data-name="Caminho 8514" d="M198.06,101.15c1.38.7,2.73,1.45,4.08,2.18.61.33,0,1.3-.53.92-1.29-.85-2.59-1.69-3.85-2.57a.3.3,0,0,1,.3-.53Z" fill="#051b21"/>
      <path id="Caminho_8515" data-name="Caminho 8515" d="M200,117.25a15.92,15.92,0,0,1,2,.6.61.61,0,1,1-.47,1.11,15.81,15.81,0,0,1-1.87-1,.4.4,0,0,1,.34-.71Z" fill="#051b21"/>
      <path id="Caminho_8516" data-name="Caminho 8516" d="M190.77,123.27a70.5,70.5,0,0,1,7.65,1.12c.56.09.32.94-.23.85a70.085,70.085,0,0,1-7.51-1.28.35.35,0,0,1,.09-.69Z" fill="#fff"/>
      <path id="Caminho_8517" data-name="Caminho 8517" d="M190.24,109.69a44,44,0,0,1,4.21,3.51c.68.61-.33,1.62-1,1a44.685,44.685,0,0,1-3.83-3.71C189.26,110.08,189.72,109.33,190.24,109.69Z" fill="#051b21"/>
      <path id="Caminho_8518" data-name="Caminho 8518" d="M204.65,96.29a5.59,5.59,0,0,1,2.12.67c.58.24.34,1.21-.27,1a5.63,5.63,0,0,1-2.1-1,.37.37,0,0,1,.25-.67Z" fill="#051b21"/>
      <path id="Caminho_8519" data-name="Caminho 8519" d="M205.5,83a9.369,9.369,0,0,1,1.72-1.41,14.9,14.9,0,0,0,1.72-1.65c.53-.61,1.44.29.89.89a14.508,14.508,0,0,1-1.83,1.7,4.42,4.42,0,0,1-2.09,1.08.41.41,0,0,1-.41-.61Z" fill="#051b21"/>
      <path id="Caminho_8520" data-name="Caminho 8520" d="M204.52,75a4,4,0,0,1,2,.39.24.24,0,0,1,.15,0,.28.28,0,0,1,.29.21l.45.17c.71.25.42,1.38-.31,1.14l-1.48-.49a3,3,0,0,1-1.26-.64.44.44,0,0,1,.16-.78Z" fill="#051b21"/>
      <path id="Caminho_8521" data-name="Caminho 8521" d="M191.13,131.74a1.86,1.86,0,0,1,1.21.24c1,.4.3,2-.58,1.38-.41-.27-.85-.46-1-.94A.56.56,0,0,1,191.13,131.74Z" fill="#051b21"/>
      <path id="Caminho_8522" data-name="Caminho 8522" d="M185.7,120.39a.64.64,0,1,1-.56.635.64.64,0,0,1,.56-.635Z" fill="#051b21"/>
      <path id="Caminho_8523" data-name="Caminho 8523" d="M203.83,110.86a.66.66,0,0,1,.32-.08.79.79,0,0,1,.77.78,1,1,0,0,1-1.8.44.77.77,0,0,1,.71-1.14Z" fill="#051b21"/>
      <path id="Caminho_8524" data-name="Caminho 8524" d="M193,99.52a.82.82,0,1,1-.82.82A.82.82,0,0,1,193,99.52Z" fill="#051b21"/>
      <path id="Caminho_8525" data-name="Caminho 8525" d="M176.31,84.47a4.77,4.77,0,0,1,1.54.78l1.59,1a.412.412,0,0,1-.42.71L177.4,86a4.82,4.82,0,0,1-1.44-.93.37.37,0,0,1,.35-.6Z" fill="#051b21"/>
      <path id="Caminho_8526" data-name="Caminho 8526" d="M195.51,78.33c1.85-.28,4.05.46,5.83.88.75.17.41,1.22-.31,1.12-1.76-.25-4.05-.35-5.61-1.26C195.14,78.91,195.16,78.38,195.51,78.33Z" fill="#051b21"/>
      <path id="Caminho_8527" data-name="Caminho 8527" d="M188.14,113.89l3.22,4.42c.34.47-.45.93-.79.46l-3.21-4.43C187,113.87,187.8,113.42,188.14,113.89Z" fill="#fff"/>
      <path id="Caminho_8528" data-name="Caminho 8528" d="M199.69,107.17a31.359,31.359,0,0,1,7-1.36.455.455,0,0,1,0,.91,29.81,29.81,0,0,0-6.74,1.33A.459.459,0,0,1,199.69,107.17Z" fill="#fff"/>
      <path id="Caminho_8529" data-name="Caminho 8529" d="M166.46,152.85a.46.46,0,1,1-.392.455.46.46,0,0,1,.392-.455Z" fill="#fff"/>
      <path id="Caminho_8530" data-name="Caminho 8530" d="M182.11,139.82l3.85,5c.36.47-.43.92-.78.46l-3.85-5C181,139.81,181.76,139.36,182.11,139.82Z" fill="#fff"/>
      <path id="Caminho_8531" data-name="Caminho 8531" d="M181.22,85.41l3.66,1.51c.53.22.3,1.1-.24.88L181,86.28C180.45,86.06,180.68,85.18,181.22,85.41Z" fill="#fff"/>
      <path id="Caminho_8532" data-name="Caminho 8532" d="M198.36,98.5v0Z" fill="#051b21"/>
      <path id="Caminho_8533" data-name="Caminho 8533" d="M178.11,155.94c1.94,1.91,4.77,1.34,2.94-1.65" fill="none"/>
      <path id="Caminho_8534" data-name="Caminho 8534" d="M158.2,164.38a1.53,1.53,0,0,0,2.7,0" fill="none"/>
      <path id="Caminho_8535" data-name="Caminho 8535" d="M167.58,152.38l3.79,4.85c.36.46-.28,1.1-.64.64-1.27-1.61-2.53-3.23-3.79-4.84C166.58,152.57,167.22,151.92,167.58,152.38Z" fill="#fff"/>
      <path id="Caminho_8536" data-name="Caminho 8536" d="M239.45,17.05a32.13,32.13,0,0,0-9.27,11.75c7.25-4.6,15.18-8.13,23.56-8.92" fill="#561f12"/>
      <path id="Caminho_8537" data-name="Caminho 8537" d="M239.45,17.05a32.13,32.13,0,0,0-9.27,11.75c7.25-4.6,15.18-8.13,23.56-8.92" fill="#6a3320"/>
      <path id="Caminho_8538" data-name="Caminho 8538" d="M176.68,96.33a28.919,28.919,0,0,0-2.15,3.49,104.75,104.75,0,0,0-4.9,10.05,3.29,3.29,0,0,0,.15,3C171.83,107.29,174.14,101.75,176.68,96.33Z" fill="#3c150e"/>
      <path id="Caminho_8539" data-name="Caminho 8539" d="M188.32,60.44c-.52,2-1,4.09-1.5,6.14-.77,3.19,4.17,4.55,4.93,1.36.52-2.18,1.07-4.35,1.55-6.54.41-1.88.69-3.63-.53-5.21a1.54,1.54,0,0,0-1.84-.23" fill="#3c150e"/>
      <path id="Caminho_8540" data-name="Caminho 8540" d="M238.85,18.79A55.77,55.77,0,0,0,225,28.34a3.68,3.68,0,0,0-.82,4.62c9.12-6.75,19.56-12.47,30.78-13.17a3.66,3.66,0,0,0-1.73-3.87" fill="#955f3d"/>
      <path id="Caminho_8541" data-name="Caminho 8541" d="M176.68,96.33a28.919,28.919,0,0,0-2.15,3.49,104.75,104.75,0,0,0-4.9,10.05,3.29,3.29,0,0,0,.15,3C171.83,107.29,174.14,101.75,176.68,96.33Z" fill="#3c150e"/>
      <path id="Caminho_8542" data-name="Caminho 8542" d="M238.85,18.79A55.77,55.77,0,0,0,225,28.34a3.68,3.68,0,0,0-.82,4.62c9.12-6.75,19.56-12.47,30.78-13.17a3.66,3.66,0,0,0-1.73-3.87" fill="#955f3d"/>
      <path id="Caminho_8543" data-name="Caminho 8543" d="M350.16,221.62l-.56-.14a36.489,36.489,0,0,0-7.29-.73c-2.73-.15-5.48-.12-8.21-.19-6.73-.16-13.45-.22-20.19-.24-12.5,0-25-.08-37.5,0-10.36,0-21.39-.15-32,1.16-7.41-3.64-16.09-3.18-24.6-2.34-10.44,1-20.86,2.69-31.19,4.47a281.314,281.314,0,0,0-34.26,8c-2,.47-4,1-5.93,1.55a26.579,26.579,0,0,0-6.47.54c-6.59,1.38-10.7,4.8-15.3,9.39a16.34,16.34,0,0,0-4.3,14.62c-.09.52-.2,1-.27,1.56-1.63,12.61,1.36,25.65,4,37.88,2.89,13.27,18.78,15.1,27.68,7.59a22.78,22.78,0,0,0,6.13.67,27.85,27.85,0,0,0,6.76-1.1,15.2,15.2,0,0,0,7.06,1.64c28.87-.07,57.76.12,86.64.21,14.44,0,28.89.4,43.34.36,11.83,0,26.49,2.15,38.47-1.14a13.45,13.45,0,0,0,5.61.54l.57-.08c9.36-1.17,16.81-5.58,19.72-15,1.41-4.54,1.1-9.56,1.53-14.27a60.068,60.068,0,0,0-.18-15.21c-.82-5.56,1.82-13.66,3-20.26C375.08,226.9,363,217.32,350.16,221.62Z" fill="#a87c51"/>
      <path id="Caminho_8544" data-name="Caminho 8544" d="M423.83,80.27c-.39-14.91-3.79-32.5-15.9-42.46-12.8-10.53-31.95-12.29-47.82-13.7a166.76,166.76,0,0,0-36.21.27C297.94,22,271,22,245.5,25.69c-27.23,3.92-43.69,27.18-55.28,50.07a396.721,396.721,0,0,0-34.13,98.05c-1,4.61,1.3,9.75,6.22,10.95,16.51,4.06,32.49,9.88,49.1,13.67a299.222,299.222,0,0,0,38.34,6.41,13.616,13.616,0,0,0-.82,1.46,18.257,18.257,0,0,1-1.1,1.69l-1.38.29c-3.36.65-6.7,1.38-10,2.14a97.516,97.516,0,0,0-14.3,3.41c-6.16,1.9-3.55,10.59,2.62,9.51,7.6-1.4,16.07-.21,23.45-2.23a11.7,11.7,0,0,0,2.26-.87c3.69-.19,7.41-.27,11.19-.17,5.85.15,11.26-.82,14.75-4.11,3.79-2,6.36-6.35,4-10.49,6-.3,11.94-.8,17.89-1.42a7.14,7.14,0,0,0,5,1.52c18.41-1.3,37.92.48,55.36-6.62a48.731,48.731,0,0,0,6.82-3.52,36.34,36.34,0,0,0,6.77-4.49c10.65-4.23,19.94-10.82,26.68-20.65,8.38-12.2,12.47-27.58,16.75-41.58C420.36,113.1,424.26,96.7,423.83,80.27Z" fill="#808184"/>
      <path id="Caminho_8545" data-name="Caminho 8545" d="M195.32,69a3.72,3.72,0,0,1,.32-2.59c.74-1.51,1.56-3,2.42-4.43h-.12c-2.81,4.51-5.37,9.18-7.72,13.83-.7,1.37-1.37,2.75-2.05,4.12Q191.7,74.41,195.32,69Z" fill="#d1d2d3"/>
      <path id="Caminho_8546" data-name="Caminho 8546" d="M423.83,80.27c-.39-14.91-3.79-32.5-15.9-42.46-12.8-10.53-31.95-12.29-47.82-13.7a166.76,166.76,0,0,0-36.21.27C297.94,22,271,22,245.5,25.69a53.28,53.28,0,0,0-12,3.19,3,3,0,0,1-.5,2.42c-5.79,8.3-12.53,15.83-18.87,23.68a92.25,92.25,0,0,1-8.43,11.26c-7.86,11.49-15.41,23.19-22.4,35.23-14.15,24.4-21.09,54.9-21.35,83.18l.38.11c16.51,4.06,32.49,9.88,49.1,13.67a299.223,299.223,0,0,0,38.34,6.41,13.613,13.613,0,0,0-.82,1.46,18.261,18.261,0,0,1-1.1,1.69l-1.38.29c-3.36.65-6.7,1.38-10,2.14a97.518,97.518,0,0,0-14.3,3.41c-6.16,1.9-3.55,10.59,2.62,9.51,7.6-1.4,16.07-.21,23.45-2.23a11.7,11.7,0,0,0,2.26-.87c3.69-.19,7.41-.27,11.19-.17,5.85.15,11.26-.82,14.75-4.11,3.79-2,6.36-6.35,4-10.49,6-.3,11.94-.8,17.89-1.42a7.14,7.14,0,0,0,5,1.52c18.41-1.3,37.92.48,55.36-6.62a48.731,48.731,0,0,0,6.82-3.52,36.339,36.339,0,0,0,6.77-4.49c10.65-4.23,19.94-10.82,26.68-20.65,8.38-12.2,12.47-27.58,16.75-41.58C420.36,113.1,424.26,96.7,423.83,80.27Zm-61.06,50.85c-3,3.69-5.84,7.44-10.26,9.45a31,31,0,0,1-13.25,2.52,39.889,39.889,0,0,1-6.53,1.13c1.06,1.53.86,3.85-1.44,4.16-13.48,1.85-23.25-8.62-24.19-21.71-1.12-15.39,11.45-28.06,25-32.84a3,3,0,0,1,1-.16c2.91-7.6,9.95-14,18.35-10,2.95,1.41,1,5.44-1.8,5.22a5.85,5.85,0,0,1-.78,7.26c-.45.48-.89,1-1.32,1.52,1.45.67,2.62,2.27,4.07,3.39a2.19,2.19,0,0,1,.33,2.59,6.611,6.611,0,0,0-.53,2.23l.12.07a4.928,4.928,0,0,1,.54,0c2.57.3,2.71,4.19.36,4.27a10.3,10.3,0,0,1-.14,1.35,13.29,13.29,0,0,1,.73,4.88h.63a7,7,0,0,1,3.42-1.07,2.16,2.16,0,0,1,3.32-.4c2.28,2,4,3.47,3.51,6.53a9.68,9.68,0,0,1-.85,7.31,2.19,2.19,0,0,1-.29,2.3Z" fill="#d1d2d3"/>
      <path id="Caminho_8547" data-name="Caminho 8547" d="M319.68,122c.93-4.12,5.92-6.88,5.47-11.11a2.79,2.79,0,0,0-2-2.59c-6.24-1.3-10.5,7.7-11.15,12.83-.51,4.31.85,12.91,6.21,13.72a1.11,1.11,0,0,0,1.37-1C320,129.9,318.8,125.89,319.68,122Z" fill="#d1d2d3"/>
      <path id="Caminho_8548" data-name="Caminho 8548" d="M329.26,104.86h-.13a2.25,2.25,0,0,0-1.62,2.13,2.33,2.33,0,0,0,1.62,2.13h.13a2.25,2.25,0,1,0,0-4.34Z" fill="#d1d2d3"/>
      <path id="Caminho_8549" data-name="Caminho 8549" d="M333.84,101.31a2.31,2.31,0,1,0,2.31,2.31,2.31,2.31,0,0,0-2.31-2.31Z" fill="#d1d2d3"/>
      <path id="Caminho_8550" data-name="Caminho 8550" d="M196.53,214.09c-14.42-1.06-28.81,1.66-42.65,5.88-6.53-.24-13,3.15-18.46,6.48-2.26,1.39-.8,5.5,1.89,4.48,19.17-7.3,39-8.26,59.22-9.18C201.48,221.52,201.42,214.45,196.53,214.09Z" fill="#808184"/>
      <path id="Caminho_8551" data-name="Caminho 8551" d="M279,203.5c-11.19,1.27-21.94.15-33.09.2a1.53,1.53,0,0,0-.77,2.83c3.2,2.44,7.82,2.73,11.88,3.05-.64,2.07-1.11,4.17-1.63,6.29a2.34,2.34,0,0,0,3.6,2.49,3.25,3.25,0,0,0,4.29-.82l.22-.36a4.311,4.311,0,0,0,1.15.46c2.78.65,5.31-1.67,7.25-4.09.2.17.41.33.62.49l-.29.18c-.16.11-.3.23-.45.34a1.791,1.791,0,0,0-.45.19,1.86,1.86,0,0,0-.14,3,3.27,3.27,0,0,0,2.81.31,10.129,10.129,0,0,0,2.8-1l.2-.06a2.63,2.63,0,0,0,3-2.67,24.76,24.76,0,0,0-.7-5C282.71,208.61,282.65,203.09,279,203.5Z" fill="#808184"/>
      <path id="Caminho_8552" data-name="Caminho 8552" d="M239.58,215.32c-1.26-1.28-2.54-1.13-4.38-.88a26,26,0,0,0-6.31,1.68c-1.67.67-1.07,3.24.76,2.76a32.731,32.731,0,0,1,6.08-1.24c.35,1.66,3.19,2.52,4,.65l.15-.34a2.29,2.29,0,0,0-.3-2.63Z" fill="#808184"/>
      <path id="Caminho_8553" data-name="Caminho 8553" d="M331,190.32c-4.2-5.86-14.71-4.62-20.89-4.59-13,.07-34.18.56-40.61,14.44-.75,1.62,1.59,3.06,2.44,1.42,2.83-5.39,9.8-7.51,16.68-8.5A2,2,0,0,0,289,193c4.09-.56,8.13-.74,11.23-1a128.8,128.8,0,0,1,14.17-.34c2.17.07,7.66-.2,9.48.72,2.84,1.41,2.63,4.14,2.76,6.66a2.05,2.05,0,0,0,3.06,1.76C333.44,198.53,333.53,193.82,331,190.32Z" fill="#808184"/>
      <path id="Caminho_8554" data-name="Caminho 8554" d="M367.57,115.76c-.14-.52-.29-1-.46-1.54a3.41,3.41,0,0,1-5,1.3,3.68,3.68,0,0,1-1.81-3c0-.54-.85-.87-1.11-.3a3,3,0,0,1-1.78,2q-2.58,2.33-3.78-3.08c.27-1.47,2.31-2.75,3.48-3.19a1,1,0,0,0,.67-1,.92.92,0,0,0-.68-.84,1.829,1.829,0,0,0-.25-.06c-.59,0-1.19-.06-1.78-.05-1.93.19-2.43-1-1.55-3.42a17,17,0,0,1,.86-2,3.1,3.1,0,0,1,.93-.39l-1-.58c-1.53-.81-3.14-1.55-4.82-2.28,3.73-2.13,6.89-5.34,7.29-9.86a8.64,8.64,0,0,0-2-6.59c3.46-3.61,7.48-6,11.73-8.53a2.06,2.06,0,0,0,.93-2.28,1.74,1.74,0,0,0-.2-.49,2.06,2.06,0,0,0-2.28-.92,22.41,22.41,0,0,0-7.74,4.8,1.11,1.11,0,0,0-.23-1.1,4.36,4.36,0,0,0-1.17-1A22.93,22.93,0,0,0,351.64,58c-2.86-3.89-6.16-.77-7.56,2.46-1.62,3.76-2.1,8.12,1.49,10.89,2.28,1.76,7.39,5,10.41,3.29A34.912,34.912,0,0,0,352.33,79a9,9,0,0,0-2.34-.84c-9.29-1.84-18.13,6.83-16.9,15.59a2.48,2.48,0,0,0-.83,0c-14.49,1.4-29,13.4-29.95,28.44-1.07,16.44,11.14,27,26.86,27.12,14.69.15,33.47-3.77,38.3-19.85a24.82,24.82,0,0,0,.1-13.7ZM351,69.42c-1.06-.56-2.91-1.36-3.49-2.46s-.21-2.49.12-3.6c.12-.42.89-3,1.23-3-.66-.06,1.14,3.23,1.26,3.47A25.631,25.631,0,0,1,352.39,70a10,10,0,0,1-1.39-.58Zm9.3,61.53c-6,9.63-19.76,11-30,11.08-12.11.06-21.85-6.77-20.62-19.87s12.57-19,23.24-23.47a2.88,2.88,0,0,0,1.58-1.86c.69.18,1.51-.16,1.42-1.07-.35-4,2.71-7.69,6.08-9.39q6.71-4.14,7.34,5.25-1.89,2.46-3.82,4.88a1.29,1.29,0,0,0,.57,2.13,20.78,20.78,0,0,1,5.63,2.63,4.741,4.741,0,0,0-.61,1c-1.5,3.23.64,4.56,3.11,5.24-2.26,1.86-3.79,4.93-1.78,7.55s5.27,1.33,7-.82a4.81,4.81,0,0,0,3.1,3.06A18.69,18.69,0,0,1,360.29,131Z" fill="#59595c"/>
      <path id="Caminho_8555" data-name="Caminho 8555" d="M428.69,49.91C418.82,27.66,392,20.77,370.18,17.69L283.25,13c-23.48.82-51.54-.76-69.18,16.06-13,12.42-21.16,23.73-25.2,30.34A277.293,277.293,0,0,0,174.59,86a91,91,0,0,0-9.81-13.09,2.09,2.09,0,0,0,.46-.25A45,45,0,0,0,181.92,53c0,.13,0,.27,0,.4.13-.35.26-.71.38-1.06a19.688,19.688,0,0,1,.79-2.23,1.18,1.18,0,0,1,0-.37,5.782,5.782,0,0,1,.24-.7h0a36.79,36.79,0,0,0,.43-20.41c-2-7.44-6.29-14.44-13-18.44-7-4.18-15.18-6.75-23.15-8.36-15.51-3.13-34.44-3.26-46.57,8.35C95,16,90.93,23.46,87.45,31.05q-1.5,3.36-3,6.76c-7.06-2.58-15.37-3.38-22.79-3.53A65.74,65.74,0,0,0,40,37.18c-11.22,3.61-21.58,11-27.1,21.57A65.38,65.38,0,0,0,6.91,77h0C2.93,79-.3,81.8,0,86.65c.17,2.51,1.81,8.53,5.19,7.94V98c0,6.84.56,13.8,3.15,20.19,2.48,6.12,7,11.12,11.61,15.7,9,8.92,19.72,16.93,31.84,21.09a2.372,2.372,0,0,0,.34.08,18.68,18.68,0,0,0-.19,3.17c.29,8.53,4.54,15.07,13.18,16.56,6.3,1.09,15.09.62,20.45-3.65a2,2,0,0,0,1,1.26c.75.46,1.52.9,2.3,1.33a10.569,10.569,0,0,0-.75,1.31c-.23.51.41,1,.87.77a4.15,4.15,0,0,0,1.44-1.27q2.53,1.31,5.21,2.4a13.241,13.241,0,0,1-1.22.89,1,1,0,0,0-.31.88.72.72,0,0,0,.22.43,1,1,0,0,0,1.11.23,5.77,5.77,0,0,0,2.28-1.63c1.28.46,2.57.9,3.87,1.3a4.509,4.509,0,0,0-.77.8c-2.23,3-.79,7.25.9,10.14a2.7,2.7,0,0,0,.25.34l-2.31.63c-5.46,1.52-10.93,3-16.38,4.59s-11.64,2.57-16.44,5.5c-.63.38-.59,1.55.29,1.56,5.19.06,10.56-2,15.53-3.28,5.27-1.39,10.53-2.83,15.79-4.25,4.65-1.27,9.35-2.44,13.93-4a58.377,58.377,0,0,0,7-2.73,16.149,16.149,0,0,0,1.4-.81v.07a31.31,31.31,0,0,1,9.76,18.68,2,2,0,0,0-1.26.42,34.28,34.28,0,0,1-15.19,6.8,115.537,115.537,0,0,1-15.31,1.51,82.772,82.772,0,0,1-14.08-.42c-5.21-.66-10-2.34-15-3.85a1.026,1.026,0,0,0-.93,1.83c8.22,6.72,21,6.79,31,6.28,3.38-.17,7-.36,10.55-.78a2,2,0,0,0,0,.7c.88,5.34,1.82,10.68,2.75,16,.75,4.29,1.12,8.92,2.35,13.15-1.86,8.58-.06,18.73,1.69,26.83.46,2.1,1,4.25,1.65,6.42-1.16,0-2.33.06-3.48.16-1.76.15-4.42.06-5.59,1.66a3.8,3.8,0,0,0-.19,3.56,15.28,15.28,0,0,0,1.64,5.15c-4.4-1-9.18.45-10.79,5.36-2.3,7,4.49,10.17,10.27,10.83,5.5.62,13.57-3.13,10.69-10a9.39,9.39,0,0,0-5.21-5,2,2,0,0,0,0-.56c-.11-1-.22-1.93-.32-2.9-.06-.49-.11-1-.17-1.45-.27.06-.23,0,.12-.14a6,6,0,0,1,2.11-.95c.41-.14.83-.26,1.25-.37a3.543,3.543,0,0,0,.48-.05,2.069,2.069,0,0,0,.73.12h.14a83,83,0,0,0,10.28,20.52,3,3,0,0,0,3.86,1.07c37.38,1.59,74.82,1.35,112.22,1.7q29.31.28,58.6.51c18,.13,38.1,2.71,55.43-3.07a4.15,4.15,0,0,0,2.32-1.82,1.4,1.4,0,0,0,1.42-.83c5.6-11.46,6.73-25.71,7.93-38.28,1.28-13.34,2.62-27.57.86-40.92,2.25-1.19,1.6-5.24-.93-5.95-13-3.65-28.25-2.62-41.7-3.1q-21.9-.79-43.81-.83h-3.07a29.489,29.489,0,0,0-1.34-6.91l2.55-.05c12.22.54,24.43.74,36.56.22,23-1,53-1.15,68.62-20.82,15.29-19.29,26-43.36,33.17-66.76a229.829,229.829,0,0,0,8.08-37.23C433,72.61,433.51,60.78,428.69,49.91ZM5.36,90.5a3.73,3.73,0,0,1-.86-1.2,9.62,9.62,0,0,1-.74-3.67A6.31,6.31,0,0,1,6.3,80.75C5.83,84,5.53,87.27,5.36,90.5Zm199.38-35c6.31-9.29,13.71-16.93,24-21.59-6,6.17-11.37,13.47-16,19.5-9.91,12.88-18,27-25.91,41.2-14.92,26.82-29.17,57.35-25.29,88.77l-5.58-1.53c6.81-44.39,23.54-89.2,48.78-126.37ZM166.47,190.67a9,9,0,0,1,1.1.63l.27.15a2.342,2.342,0,0,1,0-.26l.6.21c-1.21.41-2.43.79-3.66,1.13a1.91,1.91,0,0,0-.74.41c-1.86-1.79-3.72-3.59-5.5-5.45Q162.5,189.15,166.47,190.67ZM91,34.82c3.17-7.08,6.67-14.26,12.1-19.9C114,3.59,131,3.64,145.56,6.26a72.29,72.29,0,0,1,21.64,7.33c6.8,3.71,10.93,10.54,12.45,18,2.95,14.51-4.38,28.88-16.47,36.86a2.47,2.47,0,0,0-1.09,1.62c-12.68-12.85-29.18-21.77-47.55-24a.77.77,0,0,0-.85.45.71.71,0,0,0-.23.06c-5,2.44-10.25,3.79-15,6.92A88.891,88.891,0,0,0,86.27,63.69c-1.62,1.55-3.24,3.1-4.82,4.69q1-2.56,2.14-5.11C86,57.79,88.48,52.37,91.09,47a319.784,319.784,0,0,1,18.38-33.16c.49-.77-.67-1.57-1.18-.81A334.5,334.5,0,0,0,88.63,45.75c-2.8,5.42-5.39,10.94-7.84,16.52-1.27,2.92-2.53,5.85-3.7,8.82-.53,1.34-1.14,2.72-1.65,4.13-.15.19-.31.39-.45.59-1.08,1.48-2.09,3-3.06,4.57Q76.32,69.16,81,58,85.83,46.38,91,34.82ZM19.19,57.35c6.28-9.18,16.6-15,27.3-17.39a71.36,71.36,0,0,1,19-1.47c6,.27,11.81,1.54,17.74,2.08C81,45.85,78.78,51.16,76.61,56.48Q71.09,70,66,83.77c-3.09,8.34-6.48,16.9-6.82,25.89-.14.5-.26,1-.4,1.5-11-.4-22.14-1.92-31.27-8.49A37.912,37.912,0,0,1,11.76,76.98C13.06,69.93,15.28,63.06,19.19,57.35Zm35.86,90a18.83,18.83,0,0,0-1.7,3.2h0A94.5,94.5,0,0,1,20.89,128c-4.36-4.6-7.93-9.61-9.5-15.83-1.61-6.4-1.63-13.16-1.3-19.7.19-3.83.51-7.84,1.08-11.84a34.54,34.54,0,0,0,3.07,11.28,38.28,38.28,0,0,0,9.68,13.36c9.17,7.87,22,10,33.78,10.28-.18.78-.37,1.55-.53,2.33A116.2,116.2,0,0,0,55,133a64.779,64.779,0,0,0,.05,14.36Zm56.58,28.49h-.28a6.26,6.26,0,0,0,.92-2.58c.12-.64-.91-.73-1-.08a25.253,25.253,0,0,1-.76,2.47c-7.64-1.57-14.65-4.49-21.85-7.44a2.35,2.35,0,0,0-.75-.16c0-1.52-1.84-3-3.37-2.11-2.76,1.52-5,3.09-8.19,3.76a29.73,29.73,0,0,1-8.93.44c-6.63-.64-10.09-4.52-10.61-11.22-1-12.54,14-20.71,24-12.63.7.57,1.7-.57,1-1.16-5.5-5-12.17-6.79-19.24-3.94a15.76,15.76,0,0,0-4.18,2.51c.08-3.44,0-6.9.3-10.32a117.787,117.787,0,0,1,2-14.12,114.366,114.366,0,0,1,4.82-16.91,17.27,17.27,0,0,0,11.85,15.47c-1.42,2.21-3.1,4.82-3.49,7.37s.74,4.47,2.05,6.41c.37.54.79,1.11,1.24,1.67a5.9,5.9,0,0,0-2,1,.38.38,0,0,0,.31.66,13.079,13.079,0,0,0,2-.65c.13-.05.26-.08.4-.12,2.63,3,6.32,5.86,10.07,5.73.73,0,1.12-1.12.29-1.36A19.2,19.2,0,0,1,80,133.55a.44.44,0,0,0-.23-.84l-.51.06c-.41-.45-.8-.91-1.17-1.4-1.82-2.4-3-4.79-2-7.83.61-1.89,1.45-3.69,2.09-5.57a.83.83,0,0,0,.24-1.61c-7.57-2.65-11.43-8.51-11.92-16.4v-.1q1.83-4.67,4-9.16a91,91,0,0,1,7.83-13.31c3.19-4.38,7.17-8.16,11-11.94a87.8,87.8,0,0,1,11.2-9.63c4.4-3,9.44-4.87,13.83-7.92h0q3,.6,6,1.39a.321.321,0,1,0,.38.11A85.44,85.44,0,0,1,157.8,70.28a86.78,86.78,0,0,1,15,19.58c-1.2,2.64-2.37,5.29-3.49,8-7.55,18-16.52,62.54-16.52,62.54-.53,4-1,8.1-1.33,12.18a73.05,73.05,0,0,1-16.66,4.18,75,75,0,0,1-23.17-.91Zm31.55,5c1.12,2.34,3.5,7.08-.13,8.18-1.81.54-4.43-.22-6.08-1a15.48,15.48,0,0,1-5.13-4.18,14.694,14.694,0,0,1-1.15-1.57,76.286,76.286,0,0,0,9.64-1.29,9,9,0,0,0,1.55,3.88,1,1,0,0,0,1.74-.57,22.869,22.869,0,0,0-.44-3.46Zm-13.41,30.5c.15.11.3.22.44.34a.76.76,0,0,0,.66.13.53.53,0,0,0,.82-.36c.12-.7.21-1.41.28-2.1a1.83,1.83,0,0,0,.13-2,27,27,0,0,0-9-21.3,5.91,5.91,0,0,1,2.83-1,1.73,1.73,0,0,0,1.49-.73c2.35,4.61,9.24,7.7,13.76,7.72,2.35,0,5.45-.41,6.24-3,.9-2.88-1.29-6.86-3-9q2.66-.69,5.29-1.59a26.407,26.407,0,0,0,1.14,2.61v.32a1.65,1.65,0,0,0,.3,2.71l2.07,1c4.51,6.56,11.11,11.68,16.28,17.72,1.42,1.65,2.75,3.37,4,5.13a159.363,159.363,0,0,0-22.46,4.9c-3.46,1-12.18,3.55-17.82,7.42.19-1.84-1-3.74-1.91-5.28a17.421,17.421,0,0,0-2.27-3.07Zm108.58,4.78c-5.68-.35-11.46-.83-17.1-.61,4.78-3.33,12.09-4.38,17.39-4.16a16.91,16.91,0,0,0-.68,3.19,2.23,2.23,0,0,0,.39,1.57Zm-11.24-6.81c-5.16,1.46-8.7,5.08-13.46,7.18a2,2,0,0,0-1.15,1.29q-5.31.3-10.6.65v-2.8c.18-.76.37-1.52.55-2.3a2.87,2.87,0,0,0-1.94-3.4,41,41,0,0,0-12.39-2.61,5,5,0,0,1-1.18.47,33.34,33.34,0,0,0-5-.14c-.73,0-1.46-.11-2.19-.14a16.277,16.277,0,0,0-2,.05,30.26,30.26,0,0,0-1.25-7.32c-.58-1.87-1.28-4.24-3.28-5.06a2.86,2.86,0,0,0-.92-.2c1-.35,2-.74,3-1.18q3.84,1.28,7.74,2.41c.18.09.37.15.56.25,4.81,1.43,9.69,2.63,14.6,3.67,10.35,2.36,20.84,4.16,31.37,5.56,3.6.49,7.21.9,10.82,1.27-.26.58-.54,1.15-.78,1.73a31.37,31.37,0,0,0-12.5.61ZM197,218.74c-13.56.91-28.24,1.42-42.08,4.36a98.672,98.672,0,0,0-16.25,3.41c-.92.28-1.84.6-2.76.94,4.26-4.88,14.4-6.33,19.61-7.56a143.919,143.919,0,0,1,22-3.62,71.12,71.12,0,0,1,7.58-.14,3.341,3.341,0,0,0,1,0l1.74.09c1.07.06,8.13-.5,9,0C196.48,216,196.5,217.36,197,218.74Zm-40.05,38.05c.71,15.29,1.58,30.64,4.58,45.66q-12.25.18-24.49.59a2.461,2.461,0,0,0-.31-.48c-.26-6.43-5.41-13.79-7.1-19.38-2.87-9.54-4.87-19.88-4.36-29.89a16.83,16.83,0,0,1,6-12.6c.58-.39,1.18-.78,1.82-1.17a56.149,56.149,0,0,1,8.71-4.26c6.21-2,13.34-3,19.88-4.2-4.62,7.32-5.15,17.34-4.76,25.73Zm138.77-32.88q19,.15,38,.89c10.41.4,21.49,2,32.08,1.64-.81,12.83.14,25.77-.83,38.65-.85,11.28-3.42,23-3.56,34.4a4.11,4.11,0,0,0-2.74-.16c-18.46,4.86-38.66,2.85-57.59,2.85s-38.09,0-57.13.08c-26.86.05-53.72-.2-80.57.17a265.887,265.887,0,0,1-1.39-37.54c.38-13.38.13-25.49,9.43-35.93.68-.19,1.34-.4,2-.62,15.45-1.79,31.32-2,46.43-2.8q37.86-1.95,75.84-1.63Zm-52.82-7.58c2.26-2.16,3.67-5,5.11-7.78a3.381,3.381,0,0,0,.33-.86q9.93.81,19.9,1.07c2.73.06,5.47.07,8.21.07a46.169,46.169,0,0,1,.65,6.5c-.78.17-1.58.3-2.39.4q-15.42.14-30.84.63ZM417.59,105.26a225.729,225.729,0,0,1-26.66,64.31c-5.89,9.66-11.88,19.92-23.18,23.63-11.86,3.88-25.33,5.75-37.71,6.9h-.49a1.109,1.109,0,0,0,.23-.28c1.68-3.23,4-9.24,1.17-12.49-1.09-1.25-8.24-1.56-7.91-1.52a142.369,142.369,0,0,0-15.58-.93c-11.75-.06-31.51-.3-37.5,12.42-.48,1,1,1.92,1.55.9,5.83-10.08,20-9.76,30.27-10.5a126.884,126.884,0,0,1,15.6-.1c2.15.11,10.25,0,11,1.06,2,2.93.62,7.47-.44,10.39a.9.9,0,0,0,.54,1.14c-8.1.71-16.22,1.08-24.36,1.25-4.34-.64-8.8-.16-13.2.1-14.47-.08-28.95-.73-43.34-1.51q-7.12-.39-14.25-.92c-1.53-.2-3.06-.36-4.59-.58-19.38-2.7-38.33-7.4-57.19-12.47-1.79-.76-3.59-1.55-5.36-2.39a3,3,0,0,0-1.73-.28c.59-32.27,12.08-61,27.63-88.82C199.17,82,206.39,69.35,215,57.7a215.149,215.149,0,0,1,15.17-18.25c2.9-3.11,6.16-6.08,9.07-9.3a131.142,131.142,0,0,1,22.52-3.72A461.283,461.283,0,0,1,337,26.29c22.46,1.68,50.66,2.26,69.65,16,9.41,6.8,15.87,16.62,16.08,28.4C422.88,82.23,420.3,94.07,417.59,105.26Z" fill="#051b21"/>
      <path id="Caminho_8556" data-name="Caminho 8556" d="M113.49,297a6.19,6.19,0,0,0-4.53-.75,2.85,2.85,0,0,0-1.08.3,3.33,3.33,0,0,0-1.42,4.19c1.16,3.13,6.51,4.06,8.3,1A3.64,3.64,0,0,0,113.49,297Z" fill="#f1f1f2"/>
      <path id="Caminho_8557" data-name="Caminho 8557" d="M97.31,171.19a1.92,1.92,0,0,0-1.41,1.25.58.58,0,0,0,.15.56c.07.06.19.19.3.18.56,0,.76-.59,1.31-.73A.654.654,0,0,0,97.31,171.19Z" fill="#f1f1f2"/>
      <path id="Caminho_8558" data-name="Caminho 8558" d="M104.26,175.41a4.21,4.21,0,0,0-1.43,2.62.186.186,0,0,0,.34.09,15.53,15.53,0,0,1,1.59-2.22C105.08,175.59,104.58,175.08,104.26,175.41Z" fill="#f1f1f2"/>
      <path id="Caminho_8559" data-name="Caminho 8559" d="M113.24,178.2a27.082,27.082,0,0,0-.52,2.83.22.22,0,0,0,.41.11,28.292,28.292,0,0,0,1.13-2.66C114.51,177.85,113.38,177.52,113.24,178.2Z" fill="#f1f1f2"/>
      <path id="Caminho_8560" data-name="Caminho 8560" d="M126.45,174.76a6.38,6.38,0,0,0,0,2.75.32.32,0,0,0,.58.08,6.79,6.79,0,0,0,.61-2.83C127.7,174,126.53,174,126.45,174.76Z" fill="#f1f1f2"/>
      <path id="Caminho_8561" data-name="Caminho 8561" d="M125.43,180.87a3.35,3.35,0,0,0-.14,1.4.33.33,0,0,0,.54.15,3.18,3.18,0,0,0,.53-1.29.483.483,0,1,0-.93-.26Z" fill="#f1f1f2"/>
      <path id="Caminho_8562" data-name="Caminho 8562" d="M143.26,175.06a4.38,4.38,0,0,0,.16,1,.29.29,0,0,0,.55,0,4.371,4.371,0,0,0,.15-1C144.16,174.5,143.23,174.5,143.26,175.06Z" fill="#f1f1f2"/>
    </g>
  </g>
</svg>
