<svg xmlns="http://www.w3.org/2000/svg" width="271.12" height="344.123" viewBox="0 0 271.12 344.123">
  <g id="personagem" transform="translate(-0.004 0.001)">
    <path id="Caminho_8169" data-name="Caminho 8169" d="M64.7,167.12,6.59,173.63a6.44,6.44,0,0,0-5.7,7.13L9.7,259.41a6.45,6.45,0,0,0,7.13,5.7L66,259.61a1.121,1.121,0,0,0,.31-.1,1,1,0,0,0,.25-.2l13-15.34a.91.91,0,0,0,.14-.28.89.89,0,0,0,0-.33v-.14l-7.88-70.4a6.45,6.45,0,0,0-7.12-5.7Z" fill="#fff"/>
    <rect id="Retângulo_24" data-name="Retângulo 24" width="54.83" height="27.45" transform="translate(10.873 202.948) rotate(-6.39)" fill="#be1e2d"/>
    <path id="Caminho_8170" data-name="Caminho 8170" d="M80.57,243.3v-.07l-7.9-70.51a7.31,7.31,0,0,0-8.07-6.45L6.49,172.78a7.31,7.31,0,0,0-6.44,8.08l8.8,78.65A7.31,7.31,0,0,0,16.93,266l49.16-5.51a1.67,1.67,0,0,0,.61-.19,1.61,1.61,0,0,0,.5-.4l13-15.35a1.83,1.83,0,0,0,.29-.53,1.24,1.24,0,0,0,0-.16,1.8,1.8,0,0,0,.08-.56ZM12.23,259.13,3.42,180.48a3.91,3.91,0,0,1,3.45-4.32L65,169.65a3.92,3.92,0,0,1,4.32,3.45L77,241.72H67a3.63,3.63,0,0,0-2.61,1.12,3.57,3.57,0,0,0-1,2.66l.67,11.75L16.5,262.58a3.91,3.91,0,0,1-4.27-3.45Zm55.12-4.71-.52-9.12.17-.18h8.22Z" fill="#051b21"/>
    <path id="Caminho_8171" data-name="Caminho 8171" d="M47.94,244.94l-1.33-11.88-7.79.87,1.33,11.88-6.59.74,11.66,9.31,9.31-11.66Z" fill="#be1e2d"/>
    <path id="Caminho_8172" data-name="Caminho 8172" d="M23.46,205.54a27.679,27.679,0,0,0-4.47.86l-.89.25,2.16,19.28,4.42-.5-.77-6.86c2.89-.2,5.3-1.26,6.61-3a6.29,6.29,0,0,0,1.15-4.68,5.83,5.83,0,0,0-2.39-4.25,8.3,8.3,0,0,0-5.82-1.1Zm3.8,6c.2,1.76-.82,2.78-3,3l-.79.06-.55-4.94c.28,0,.63-.11,1-.15,3.08-.36,3.27,1.4,3.34,1.98Z" fill="#fff"/>
    <path id="Caminho_8173" data-name="Caminho 8173" d="M37.74,203.94a34.4,34.4,0,0,0-4.92.93l-.91.25,2.14,19.09h1a39.679,39.679,0,0,0,4.25-.26c3.7-.42,6.53-1.73,8.17-3.78a10.39,10.39,0,0,0,2-7.89,9.16,9.16,0,0,0-3.6-6.75C43.86,204.07,41.21,203.55,37.74,203.94Zm7.18,8.94c.46,4.14-1.49,6.58-5.66,7.05-.46,0-.86.09-1.2.11l-1.33-11.9c.39-.09.91-.18,1.55-.26a6.34,6.34,0,0,1,4.77,1,5.62,5.62,0,0,1,1.87,4Z" fill="#fff"/>
    <path id="Caminho_8174" data-name="Caminho 8174" d="M58.81,209.52l-4.37.48-.41-3.64,7.16-.8-.45-4.06-11.58,1.29,2.2,19.65,4.42-.49-.89-7.91,4.37-.49Z" fill="#fff"/>
    <path id="Caminho_8175" data-name="Caminho 8175" d="M267.36,186.79c-2.34-.22-4.69-.49-7-.67A4.8,4.8,0,0,0,258.5,184a7.739,7.739,0,0,1,3.22-1.65c1.63-.23,1.42-2.71,0-3.09-2.44-.66-4.46.41-6.65,1.38l-1.58.69A2.631,2.631,0,0,0,253,181a5.58,5.58,0,0,0-2-.53,19.13,19.13,0,0,0,3.63-5.4,2,2,0,0,0-2.38-2.38c-3.05,1.15-5.48,3.94-7.44,6.46a33.212,33.212,0,0,0-2,2.77,4.29,4.29,0,0,0-1.11-1.31c-.79-1-1.58-2.06-2.4-3.07-1.59-2-4.57-.62-5.25,1.39a5.61,5.61,0,0,0,0,4.54c.55,1.11,1.62,1.68,2.24,2.73.79,1.35,1,3,1.91,4.37a17.24,17.24,0,0,0,1.06,1.44,4.14,4.14,0,0,0-1.89.59c-6,3.64-13.47,2.88-18.06,8.39-5,1.55-10.19,1.32-14.55-2.21,2.74-3.65,4.65-7.73,7.16-11.55,2.89-4.41,6-7.95,7.27-13.24.63-2.55,1-5.18,1.45-7.77.4-1.18.74-2.37,1.09-3.56a12.67,12.67,0,0,0,5-1.52c6.52-3.34,3.18-13.21-3.6-13.31-.91,0-1.79-.09-2.67-.17A108.1,108.1,0,0,0,218.94,123c-1.45-8.49-4-16.68-8.89-23.85a105.1,105.1,0,0,0-15-17.52c-10.09-9.4-32.44-26.12-43.66-9.92-1.81,2.62-2.66,5.9-4.56,8.42s-4.54,3.17-7.34,4.12c-7.78,2.64-17,4.75-23.88,9.42a26.34,26.34,0,0,0-11.14,21.23,24.55,24.55,0,0,0,.83,6.81,6.17,6.17,0,0,0-.63,3.38c.31,3.51,1.41,5.09,3.41,7.83a12.29,12.29,0,0,1,2.3,4.27s.06.54.1.79h0v-.02l-.46-.11c-4.86-1.09-9.4-1.71-14,.81a11.57,11.57,0,0,0-5.73,12.8c1.18,4.6,4.87,8.14,9,10.29,3.19,1.68,6.51,2.34,9.3,4.19,2.28,1.51,3.44,5,4.53,7.89a46.651,46.651,0,0,1,2.41,7.71c-1.48-.82-2.93-1.69-4.33-2.62a23.28,23.28,0,0,0-1.67-6.13c-2.14-5.09-7.13-11.16-13.37-9.62a14.74,14.74,0,0,0-6.52-1.51,10.5,10.5,0,0,0-6,0c-4,1.27-6,4.12-7.6,7.81-2.55,6.05-3.73,12.39-.69,18.51,2.83,5.69,9.19,9.25,15.51,8a13.72,13.72,0,0,0,6.16-3,13,13,0,0,0,6,0,81.83,81.83,0,0,0,15.15,7.5c5.63,2.24,11.53,3.79,17.09,6.21a61.45,61.45,0,0,0,7.18,2.77l.68.46c-.2.33-.39.66-.61,1-1.46,2.12-3.37,3.86-4.85,6a33.1,33.1,0,0,0-2,3.35c-4.08-.23-8.77.8-12.66,1.22-3.6.38-7.19.87-10.77,1.42l-.18-.05c-6.54-1.08-13.93.31-20.55.72-6.79.42-13.76.44-20.43,1.85A2,2,0,0,0,70,226a1.53,1.53,0,0,1,.23.8,6.42,6.42,0,0,1-.72,3.07,1.421,1.421,0,0,1-.2.28.34.34,0,0,1,0,.1,1.32,1.32,0,0,1,.56,0,11.061,11.061,0,0,1,2.37.81c1.43.48,2.63.4,4,.79a4.28,4.28,0,0,1,1.06.48,2.791,2.791,0,0,0,.59-.43,4.55,4.55,0,0,0,.3,1.18,4.59,4.59,0,0,1,.78,1.3,4.88,4.88,0,0,0,1.23,1.1c3,1.88,5,4.86,8.37,6.41a47.561,47.561,0,0,0,11.44,3.2,122.7,122.7,0,0,0,24.19,2.07,96.691,96.691,0,0,0,12.74-.71c2.71-.39,6.71-1,8.25-3.62,1.66-2.84-.15-7.69-1.11-10.47-.13-.38-.27-.76-.41-1.13.21-3.46-.81-7.12-3-9.2a33.34,33.34,0,0,1,1.88-3.79c.83-1.39,1.63-2.74,2.38-4.09.06,6.13,2.95,11.89,6.5,17a6.38,6.38,0,0,0,8.62,2.2,8.191,8.191,0,0,0,1.43.57,7,7,0,0,0,2.67.24c4.46,3.21,11.18,1.13,11.58-5,.35-5.43-3.85-8.1-7.22-11.52a11.742,11.742,0,0,1-1.52-1.93c2.6-.27,5.2-.67,7.79-1.18a5.52,5.52,0,0,0,.13,5.56c.89,1.23.81,3,1.3,4.42a12.88,12.88,0,0,0,3.07,4.88c2.39,2.51,5.42,5.79,8.9,6.51,3.88.81,8.84-.71,12.68-1.4,4.26-.76,8.75-1.41,12.68-3.33a45.594,45.594,0,0,0,4.84-3.21,46.487,46.487,0,0,1,5.24-2.61c3.26-1.64,5.63-4.56,8.11-7.16,2.75-2.88,5.73-5.57,8.11-8.78s3.63-6.87,6.38-9.6a3.74,3.74,0,0,0,.88-1.31,2.68,2.68,0,0,0,.59-.67,42,42,0,0,0,6.81-2.54c3.13,1.06,6.29,2,9.4,3.15,2.13.76,3.32-2.45,1.49-3.54s-4-2.35-6-3.45c2.67-.07,5.35-.28,8-.43a2.115,2.115,0,0,0-.03-4.23Z" fill="#ca8069"/>
    <path id="Caminho_8176" data-name="Caminho 8176" d="M119,289.77a2.49,2.49,0,0,1,.92,1.21,6.35,6.35,0,0,1,.79,3,2.82,2.82,0,0,1-.26.84c.17.62.33,1.24.48,1.87a2.08,2.08,0,0,1,1.9,1.23,16.2,16.2,0,0,1,.88,2.26,3.27,3.27,0,0,1,1.06-.5l.2-.12a3.21,3.21,0,0,1,1-1,3.36,3.36,0,0,1,1.18-.36c.09-.33.18-.66.29-1a1.86,1.86,0,0,1,.79-1,2,2,0,0,1,1.74-.93c2.19,0,2.65,2.67,1.39,3.8.41,2.42.41,5.4,1.7,7,1.58,2,.2,5.55-2.7,4.65a22,22,0,0,0-3.23-.74,2.33,2.33,0,0,1-2,.93h-.38a2.38,2.38,0,0,1-2.86.84,14,14,0,0,0-3-.8,2.9,2.9,0,0,1-2.13-2.79c-.27-5.73-1.89-11.09-3.15-16.63C112.69,287.7,118.2,287,119,289.77Z" fill="#ca8069"/>
    <path id="Caminho_8177" data-name="Caminho 8177" d="M167.79,330a12.89,12.89,0,0,1,1.24-6,3.414,3.414,0,0,1,.1-.54,1.82,1.82,0,0,1,1-1.38c2.74-4.15,7.43-7.22,11.65-9.6a3.27,3.27,0,0,1,4.86,2.79c.47,5.11-1.52,9.59-3,14.34a32.675,32.675,0,0,0-.94,3.39,11.318,11.318,0,0,0-.24,1.93c2.12,1.47,4.63,1.39,5.87,4.13v.08a1.849,1.849,0,0,1,.45.11,1.29,1.29,0,0,1,.72.18l.89.53a8.73,8.73,0,0,0,2.39.46c1.19.06,1.59,1.92.3,2.19-3.3.68-6.31,0-9.59-.32-3.74-.41-7.71.52-11.4-.28a6.26,6.26,0,0,1-5.05-4.77c-.48-2.21.35-4.11,1.11-6.05A2.35,2.35,0,0,1,167.79,330Z" fill="#ca8069"/>
    <path id="Caminho_8178" data-name="Caminho 8178" d="M105.83,171.85c-1.32-.43-2.61-1-3.91-1.46a38.608,38.608,0,0,0-7.17-2.29,19.9,19.9,0,0,0-11.28,1.55,29.12,29.12,0,0,0-4.45.75c-.74-.1-1.48-.2-2.22-.28l-1-.11.2-.5c1.55-3.69,3.56-6.54,7.6-7.81a10.5,10.5,0,0,1,6,0,14.74,14.74,0,0,1,6.52,1.51c3.2-.79,6.07.42,8.39,2.47q.73,3.15,1.62,6.29Z" fill="#e8a693"/>
    <path id="Caminho_8179" data-name="Caminho 8179" d="M90.91,152.78a8.37,8.37,0,0,0,7.14,1.76c.19.11.38.22.57.31a7.74,7.74,0,0,0,3.87.85c.38,2.34.82,4.67,1.3,7,.08.38.17.76.25,1.13a43.366,43.366,0,0,1-4.85-2c-3.82-2-7.27-5.19-8.68-9.32A1.344,1.344,0,0,1,90.91,152.78Z" fill="#e8a693"/>
    <path id="Caminho_8180" data-name="Caminho 8180" d="M241.74,206.27a3.53,3.53,0,0,0-1.44.71c-8.53,6.88-18.81,11-29.2,14.11-8,2.42-17.14,5.65-25.78,5.09-2.77-1.68-4.26-4.36-6-7,4.22-1.45,8.39-4.28,11.85-5.88,4.66-2.15,9.67-3.59,14-6.44a56.458,56.458,0,0,0,6.35-5.2,17.84,17.84,0,0,0,7.82-.76c4.59-5.51,12.06-4.75,18.06-8.39a4.14,4.14,0,0,1,1.89-.59,17.241,17.241,0,0,1-1.06-1.44c-.87-1.37-1.12-3-1.91-4.37-.62-1-1.69-1.62-2.24-2.73a5.61,5.61,0,0,1,0-4.54c.68-2,3.66-3.37,5.25-1.39.82,1,1.61,2,2.4,3.07a4.29,4.29,0,0,1,1.11,1.31c.67-1,1.41-2,2-2.77,2-2.52,4.39-5.31,7.44-6.46a2,2,0,0,1,2.38,2.38,19.13,19.13,0,0,1-3.63,5.4,5.58,5.58,0,0,1,2,.53,2.63,2.63,0,0,1,.52.35l1.58-.69c2.19-1,4.21-2,6.65-1.38,1.42.38,1.63,2.86,0,3.09A7.74,7.74,0,0,0,258.5,184a4.8,4.8,0,0,1,1.82,2.14c2.35.18,4.7.45,7,.67a2.09,2.09,0,0,1,0,4.18c-2.67.15-5.35.36-8,.43,2,1.1,4,2.28,6,3.45s.64,4.3-1.49,3.54c-3.11-1.11-6.27-2.09-9.4-3.15a42,42,0,0,1-6.81,2.54,2.68,2.68,0,0,1-.59.67,3.74,3.74,0,0,1-.88,1.31,29.41,29.41,0,0,0-4.41,6.49Z" fill="#e8a693"/>
    <path id="Caminho_8181" data-name="Caminho 8181" d="M199.51,231.39c4.6-1,9.11-2.47,13.39-3.77a130.28,130.28,0,0,0,15-5.49,18,18,0,0,1-4.3,3.17,46.487,46.487,0,0,0-5.24,2.61,45.592,45.592,0,0,1-4.84,3.21c-3.93,1.92-8.42,2.57-12.68,3.33l-.36.07A4,4,0,0,0,199.51,231.39Z" fill="#e8a693"/>
    <path id="Caminho_8182" data-name="Caminho 8182" d="M191.2,235.84l.69.17h0a13.68,13.68,0,0,1-3.81-.17,11,11,0,0,1-4.43-2.25C186.18,234.42,188.67,235.2,191.2,235.84Z" fill="#e8a693"/>
    <path id="Caminho_8183" data-name="Caminho 8183" d="M173.31,213.18a3,3,0,0,0-4,2.19c-.75.1-1.5.2-2.25.28,0-2.09-1.62-4.07-4-3.08-6.1,2.51-12.6-.57-18.63-2.45a8.51,8.51,0,0,0-3.39-5.21c-7.56-5.65-12.68-14.78-16.49-23.33-7.2-16.15-11.69-36.35-8.45-53.89,1.71-9.28,5.52-17.59,10.26-25.62a42,42,0,0,1,4.77-2.44c6.54-2.83,13.72-3.45,19.68-7.67,9.15-6.48,11.9-16.59,12.47-27,11.17-.43,24.59,10,31.78,16.68a105.1,105.1,0,0,1,15,17.52c4.89,7.17,7.44,15.36,8.89,23.85a108.1,108.1,0,0,1,1.53,24.63c.88.08,1.76.16,2.67.17,6.78.1,10.12,10,3.6,13.31a12.67,12.67,0,0,1-5,1.52c-.35,1.19-.69,2.38-1.09,3.56-.45,2.59-.82,5.22-1.45,7.77-1.3,5.29-4.38,8.83-7.27,13.24-2.51,3.82-4.41,7.9-7.16,11.54-.69.58-1.39,1.15-2.12,1.69-3.71,2.74-8.18,4.28-12.4,6-3,1.23-5.8,2.81-8.71,4.23C179.41,211.71,175.77,214,173.31,213.18Z" fill="#e8a693"/>
    <path id="Caminho_8184" data-name="Caminho 8184" d="M145.17,217.43l2.83.89a23.67,23.67,0,0,0,.89,8.85A29.84,29.84,0,0,1,145.17,217.43Z" fill="#e8a693"/>
    <path id="Caminho_8185" data-name="Caminho 8185" d="M159.66,233.45l-.08-.13c-3-4.31-4.91-8.27-4.89-13.33a18.3,18.3,0,0,0,10.14-.89,3.57,3.57,0,0,0,2.24-3.24,12.619,12.619,0,0,0,1.38,1.73c1.47,1.49,3.1,2.84,4.44,4.34a27.449,27.449,0,0,0,2.48,4.22,8.76,8.76,0,0,1,.3,3c-.4,6.11-7.12,8.19-11.58,5a7,7,0,0,1-2.67-.24,8.191,8.191,0,0,1-1.43-.57Z" fill="#e8a693"/>
    <path id="Caminho_8186" data-name="Caminho 8186" d="M136.91,218.26v-.11h-.14c-.4.67-.77,1.36-1.14,2-4.08-.23-8.77.8-12.66,1.22-3.6.38-7.19.87-10.77,1.42l-.18-.05c-6.54-1.08-13.93.31-20.55.72-6.79.42-13.76.44-20.43,1.85A2,2,0,0,0,70,226a1.53,1.53,0,0,1,.23.8,6.42,6.42,0,0,1-.72,3.07,1.421,1.421,0,0,1-.2.28.34.34,0,0,1,0,.1,1.32,1.32,0,0,1,.56,0,11.061,11.061,0,0,1,2.37.81c1.43.48,2.63.4,4,.79a4.28,4.28,0,0,1,1.06.48,2.791,2.791,0,0,0,.59-.43c0,.4-1.22.64-1.07,1,.32.38.34,2.31.54,2.79s2.33-.54,2.84-.23l.16.11a3.55,3.55,0,0,1,2.48.19c9.94,4.42,20.71,5.24,31.46,5.41,8.72.14,17.5-.86,24.56-6C138.15,229.59,136.49,223.84,136.91,218.26Z" fill="#e8a693"/>
    <path id="Caminho_8187" data-name="Caminho 8187" d="M83.11,195.25a23.629,23.629,0,0,0,5.87,1,13.61,13.61,0,0,1-5.87-1Z" fill="#e8a693"/>
    <path id="Caminho_8188" data-name="Caminho 8188" d="M129.09,305.27c-3.75,1.77-7.44,3.66-11.29,5.16a3.34,3.34,0,0,1-1.09-2.29c-.27-5.73-1.89-11.09-3.15-16.63-.87-3.81,4.64-4.52,5.43-1.74a2.49,2.49,0,0,1,.92,1.21,6.35,6.35,0,0,1,.79,3,2.82,2.82,0,0,1-.26.84c.17.62.33,1.24.48,1.87a2.08,2.08,0,0,1,1.9,1.23,16.2,16.2,0,0,1,.88,2.26,3.27,3.27,0,0,1,1.06-.5l.2-.12a3.21,3.21,0,0,1,1-1,3.36,3.36,0,0,1,1.18-.36c.09-.33.18-.66.29-1a1.86,1.86,0,0,1,.79-1,1.89,1.89,0,0,1,1-.79C129.22,298.65,129.07,302,129.09,305.27Z" fill="#e8a693"/>
    <path id="Caminho_8189" data-name="Caminho 8189" d="M173.1,318.59a44.35,44.35,0,0,1,8.67-6.1,3.09,3.09,0,0,1,2.59-.27c-2.13,3.25-5.77,5.88-9.34,7.74A3.37,3.37,0,0,0,173.1,318.59Z" fill="#e8a693"/>
    <path id="Caminho_8190" data-name="Caminho 8190" d="M171.66,341.9c-.71-4.72.4-9.39,1.86-14a25.891,25.891,0,0,0,4-1.7,45.341,45.341,0,0,0,8.89-6,70.66,70.66,0,0,1-2.81,9.45,32.679,32.679,0,0,0-.94,3.39,11.32,11.32,0,0,0-.24,1.93c2.12,1.47,4.63,1.39,5.87,4.13v.08a1.849,1.849,0,0,1,.45.11,1.29,1.29,0,0,1,.72.18l.89.53a8.732,8.732,0,0,0,2.39.46c1.19.06,1.59,1.92.3,2.19-3.3.68-6.31,0-9.59-.32-3.74-.41-7.71.52-11.4-.28Z" fill="#e8a693"/>
    <path id="Caminho_8191" data-name="Caminho 8191" d="M127.53,129.52c2.76-10,15.15-17.44,24.5-11.42,8.86,5.71,10.15,21.72,2.74,28.82-3.6,3.45-8,6.09-13.13,5.74-6.76-.45-10.82-6.78-12.92-12.6a7.27,7.27,0,0,1-.35-4,8.56,8.56,0,0,1-.84-6.54Z" fill="#fff"/>
    <path id="Caminho_8192" data-name="Caminho 8192" d="M189.5,121.65c3.16-5.78,12-5.75,15.33-.14,2.1,3.55,2.39,8.93,1.08,12.8a9,9,0,0,1-5.79,5.84,9.49,9.49,0,0,1-7-.78c-2.82-1.28-3.65-5.19-2.56-7.79l.15-.31a9,9,0,0,1-.77-1.08,8.49,8.49,0,0,1-.44-8.54Z" fill="#fff"/>
    <path id="Caminho_8193" data-name="Caminho 8193" d="M161.5,162.31c.62-4.16,6.95-4.54,8.78-1.15a14,14,0,0,1,1.25,3.3,6.131,6.131,0,0,0,.23.69,4.514,4.514,0,0,1,.53.36c.79.33,1.67.8,2.57,1.2,1.48.27,2.95.68,4.48,1,5.57,1.14,4,9.28-1.29,9.53a9.63,9.63,0,0,1-2.3-.17,5.461,5.461,0,0,1-1,.75,8.94,8.94,0,0,1-11.59-3C160.93,171.18,160.9,166.38,161.5,162.31Z" fill="#fff"/>
    <path id="Caminho_8194" data-name="Caminho 8194" d="M167.9,183.7a5.56,5.56,0,0,1,5.3,4.12l.22.13a9.611,9.611,0,0,1,2.27.29,5.5,5.5,0,0,1,3,1.33,5.78,5.78,0,0,1,1.38,1.22h-.06a4.77,4.77,0,0,1,.82,5.79A5.12,5.12,0,0,1,176,199c-2.53.44-5.16-.53-7.53-1.41-4-1.47-5.72-4.19-6.13-8.28C162,186.37,165.08,183.57,167.9,183.7Z" fill="#c0272d"/>
    <path id="Caminho_8195" data-name="Caminho 8195" d="M80.68,173.89c2.29-3.61,7.48-4.42,11-2.29,3.11,1.86,5.76,5.82,5.79,9.52a7.779,7.779,0,0,1,0,1,6,6,0,0,1-4.34,5.64.38.38,0,0,1-.1,0,7.31,7.31,0,0,1-5.06.12,8.9,8.9,0,0,1-1.66-.77A12.59,12.59,0,0,1,82,184.25a8.53,8.53,0,0,1-1.32-10.36Z" fill="#af523c"/>
    <path id="Caminho_8196" data-name="Caminho 8196" d="M127.51,290.65h0c1.15-2.26,3-2.34,5.14-3.2a17.28,17.28,0,0,0,5.44-4.05,35.45,35.45,0,0,0,7.39-11.4,53,53,0,0,0,3.16-12.67c-1.21-4.14-2.36-8.1-1.41-12.55a4.58,4.58,0,0,1,1-2.06c-.56-1.28-1.12-2.57-1.64-3.86a99.339,99.339,0,0,1-6.24-21.92c-.43-2.64,3.33-4.85,4.72-2,2.69,5.54,5.14,11.12,7.57,16.75,4.43-.14,8.86-.2,13.29-.46,1.4-.08,3.52-.58,5.29-.66a11.548,11.548,0,0,1,0-2.65c.46-4.37,5.78-6.16,8.35-2.26,6.69,10.14,13,20.28,17.19,31.74a133.509,133.509,0,0,1,7.57,35.38,5.24,5.24,0,0,1-.18,1.9c3.1,1.76,6.34,3.77,7.55,7,1.57,4.24-2.87,6.58-6.13,7.81a29.05,29.05,0,0,1-13.17,1.5,33.575,33.575,0,0,1-6.47-1.58,38.58,38.58,0,0,1-5,3.19,53.88,53.88,0,0,1-21.14,6.65,24.16,24.16,0,0,1-20.25-7.82c-4-4.21-7.78-10.32-8.73-16.38a4.75,4.75,0,0,1-3.52-3.27l-.12-.36a3.22,3.22,0,0,1,.34-2.77Z" fill="#f2bc19"/>
    <path id="Caminho_8197" data-name="Caminho 8197" d="M130.81,289.44a3.851,3.851,0,0,1,.94.45,6.58,6.58,0,0,1,2.79.92,4.07,4.07,0,0,1,.37-.55,3.61,3.61,0,0,1-.11-4.88c7.87-9.13,12.67-19.69,13.6-31.79a51.9,51.9,0,0,0-1.92-17.88c-.82-3-1.88-5.85-2.95-8.73s-2.64-6-2.89-9.18a1.71,1.71,0,0,1,2.89-1.2c2.22,2.45,3.35,5.75,4.61,8.78a78.622,78.622,0,0,1,3.47,10.28,59.92,59.92,0,0,1,1.85,13.22,18.941,18.941,0,0,0,3.8,1.21,35.519,35.519,0,0,0,6.91.52c4.57,0,9.37-.46,13.18-3.21.17-.12.33.16.17.28-4,2.95-8.83,3.63-13.64,3.69-3.23,0-7.19-.08-10.39-1.43,0,1.78,0,3.56-.09,5.35a62.21,62.21,0,0,1-9.51,29.41c.3,7.38,1.15,14.91,5.27,21.25,4,6.18,11.25,10.42,18.74,8.71,3.72-.85,6.29-3.38,9.23-5.62a27,27,0,0,1,8.38-4.31A24.78,24.78,0,0,1,204.15,306a3.1,3.1,0,0,1,0,5.33c-3.31,1.62-10.44,5.11-13.35,1.37a1.92,1.92,0,0,1-.22-2.31,23.23,23.23,0,0,0-10.48,4.51c-3.15,2.35-6.08,4.66-10,5.6a22.13,22.13,0,0,1-9,.24,2.12,2.12,0,0,1-2.05,1.28c-4.41-.1-8.31.07-12.48-1.69a22,22,0,0,1-8.88-6.76c-4.17-5.32-5.28-11.52-4.35-17.85l-.12-.09a2.21,2.21,0,0,0-.87-.58,5.4,5.4,0,0,1-.91.87,2.74,2.74,0,0,1-3.32-.43,3.58,3.58,0,0,1-1-1.86,3,3,0,0,1-.13-.39C126.56,291.05,128.44,288.69,130.81,289.44Z" fill="#d5a129"/>
    <path id="Caminho_8198" data-name="Caminho 8198" d="M160.22,254.75c3-.44,6.22-.12,9.25-.11a.28.28,0,0,1,0,.55c-3,0-6.25.33-9.25-.11a.17.17,0,0,1,0-.33Z" fill="#d5a129"/>
    <path id="Caminho_8199" data-name="Caminho 8199" d="M145.37,256.62a13.912,13.912,0,0,1,1.95,1.43,12.67,12.67,0,0,1,2.52,3.16,9.872,9.872,0,0,0-.2-1.06,15.73,15.73,0,0,0-2.88-5.75c-.25-.33.19-.8.47-.47a16,16,0,0,1,3,5.17,13.179,13.179,0,0,0,0-1.89,37.23,37.23,0,0,0-1.27-6.93.27.27,0,0,1,.52-.14,32.28,32.28,0,0,1,1.65,7.28l.12-.29c1.6-3.37,5.35-7.32,9-3.87,2.61,2.46,3.1,7.72,1.28,10.71a15,15,0,0,1-4.85,4.74c4.92,1.3,10.5,5.4,7.62,9.8-2.05,3.14-5.08,4-8.19,1.75a25.75,25.75,0,0,1-4.66-4.33,8.57,8.57,0,0,1-2,3.47,6.32,6.32,0,0,1-9.11-.57l-.18-.25C144.59,272.86,145.39,263.79,145.37,256.62Z" fill="#28aae1"/>
    <path id="Caminho_8200" data-name="Caminho 8200" d="M138.82,217.06a8.67,8.67,0,0,1,.81-1.56,1.857,1.857,0,0,0,.19-.22h0c.29-.45.59-.9.86-1.33A14.531,14.531,0,0,1,143,215.6a12.539,12.539,0,0,1,2.52,3.17,7.938,7.938,0,0,0-.18-1,5.14,5.14,0,0,0,1.65.87c.17.18.34.36.52.53,1.23,5.85,2.92,12,9.3,13.61h.14a6.18,6.18,0,0,0,3.69-.2,4.23,4.23,0,0,1-.66,3.4c-2.05,3.13-5.08,4-8.19,1.74a25.4,25.4,0,0,1-4.66-4.33,8.57,8.57,0,0,1-2,3.47c-.13.13-.28.25-.42.37A40,40,0,0,0,138.82,217.06Z" fill="#28aae1"/>
    <path id="Caminho_8201" data-name="Caminho 8201" d="M182.86,288a8.45,8.45,0,0,1,.14-2.87c.52-2.26,2.55-5.51,5.09-5.8,2.83-.31,3.88,3.66,4,5.79a10.48,10.48,0,0,1-.33,3.22,6.757,6.757,0,0,0,.48-.72,12.72,12.72,0,0,0,1.58-4.9c0-.33.55-.35.53,0a13.25,13.25,0,0,1-1.19,4.63,10.689,10.689,0,0,0,1.07-1.06,31,31,0,0,0,3.16-4.68.22.22,0,0,1,.38.21,26.11,26.11,0,0,1-3.15,5.09l.24-.1c2.8-1,7.17-1.19,7.33,2.85.11,2.86-2.56,6.15-5.28,6.84a12,12,0,0,1-5.43,0c2.08,3.5,3,9-1.14,9.87-2.93.65-5.13-.57-5.66-3.59a20.7,20.7,0,0,1-.24-5.09,6.85,6.85,0,0,1-3.07.88,5,5,0,0,1-4.89-5.43c.23-2.55,2.66-4.48,5-5A5.289,5.289,0,0,1,182.86,288Z" fill="#28aae1"/>
    <path id="Caminho_8202" data-name="Caminho 8202" d="M172.6,243.05a7.36,7.36,0,0,1-.88-2.39c-.36-2,.15-5.36,2.13-6.47,2.19-1.24,4.42,1.63,5.28,3.3a9.22,9.22,0,0,1,.85,2.74,6.363,6.363,0,0,0,.14-.76,11.21,11.21,0,0,0-.42-4.53c-.08-.28.33-.48.43-.19a11.43,11.43,0,0,1,.64,4.18,9.17,9.17,0,0,0,.5-1.24,27,27,0,0,0,.95-4.9.19.19,0,1,1,.38,0,22.8,22.8,0,0,1-.79,5.23c.05-.05.1-.11.16-.16,1.92-1.81,5.41-3.45,6.94-.23,1.09,2.29.06,5.89-1.91,7.4a10.77,10.77,0,0,1-4.42,1.88c2.91,2.12,5.53,6.26,2.5,8.42-2.16,1.54-4.37,1.32-5.85-1a18.421,18.421,0,0,1-2-4.06,6,6,0,0,1-2.19,1.78,4.46,4.46,0,0,1-5.86-2.72c-.7-2.15.61-4.56,2.36-5.82A4.58,4.58,0,0,1,172.6,243.05Z" fill="#ec1e79"/>
    <path id="Caminho_8203" data-name="Caminho 8203" d="M143.9,316.09a5.419,5.419,0,0,1-1.92-.35c-1.47-.54-3.48-2.2-3.45-3.94,0-1.93,2.81-2.28,4.26-2.19a6.621,6.621,0,0,1,2.14.51,4.189,4.189,0,0,0-.45-.39,8.41,8.41,0,0,0-3.15-1.5c-.23-.06-.19-.41,0-.36a9.07,9.07,0,0,1,3,1.21,7.9,7.9,0,0,0-.62-.81,20.38,20.38,0,0,0-2.87-2.54.15.15,0,1,1,.18-.24,17.27,17.27,0,0,1,3.14,2.57v-.17c-.44-2-.16-4.93,2.57-4.68a5.18,5.18,0,0,1,4.13,4.16,8.12,8.12,0,0,1-.48,3.66c2.54-1.09,6.3-1.21,6.54,1.64.18,2-.84,3.41-2.92,3.49a13.379,13.379,0,0,1-3.45-.29,4.69,4.69,0,0,1,.32,2.15,3.43,3.43,0,0,1-4.09,2.81,4.27,4.27,0,0,1-2.92-3.85,3.79,3.79,0,0,1,.04-.89Z" fill="#ec1e79"/>
    <path id="Caminho_8204" data-name="Caminho 8204" d="M183.74,265.38a3.646,3.646,0,0,1,.36-.31.49.49,0,0,1-.08-.92,8.6,8.6,0,0,1,7.09-.21c1.38.69,4.19,2.88,4.1,4.6-.12,2.19-3.51,1.8-4.89,1.56a12.32,12.32,0,0,1-6.3-3A1.24,1.24,0,0,1,183.74,265.38Z" fill="#39b44a"/>
    <path id="Caminho_8205" data-name="Caminho 8205" d="M185.75,261.24a1.28,1.28,0,0,1,1.06-1.1,1.51,1.51,0,0,1,1.74,1.27,1.25,1.25,0,0,1-1.66,1.34,1.859,1.859,0,0,1-.62-.37h0a1.2,1.2,0,0,1-.52-1.14Z" fill="#39b44a"/>
    <path id="Caminho_8206" data-name="Caminho 8206" d="M190.28,262a.41.41,0,0,1,.51.63C190.39,262.91,189.88,262.28,190.28,262Z" fill="#39b44a"/>
    <path id="Caminho_8207" data-name="Caminho 8207" d="M190.53,270.91a1.081,1.081,0,1,1-.16,1.52A1.081,1.081,0,0,1,190.53,270.91Z" fill="#39b44a"/>
    <path id="Caminho_8208" data-name="Caminho 8208" d="M165.07,317.49c-.14-.08-.26-.18-.39-.27a.49.49,0,0,1-.88.28,8.65,8.65,0,0,1-1.79-6.87c.37-1.5,1.87-4.72,3.57-5,2.16-.38,2.54,3,2.62,4.42a12.44,12.44,0,0,1-1.53,6.81C166.38,317.35,165.69,317.85,165.07,317.49Z" fill="#39b44a"/>
    <path id="Caminho_8209" data-name="Caminho 8209" d="M160.58,316.46a1.28,1.28,0,0,1-1.31-.78,1.51,1.51,0,0,1,.85-2A1.25,1.25,0,0,1,161.8,315a1.86,1.86,0,0,1-.22.69h0a1.24,1.24,0,0,1-1,.77Z" fill="#39b44a"/>
    <path id="Caminho_8210" data-name="Caminho 8210" d="M160.26,311.88a.4.4,0,1,1,.565-.065.4.4,0,0,1-.565.065Z" fill="#39b44a"/>
    <path id="Caminho_8211" data-name="Caminho 8211" d="M168.93,309.64a1.082,1.082,0,1,1,1.52-.18A1.082,1.082,0,0,1,168.93,309.64Z" fill="#39b44a"/>
    <path id="Caminho_8212" data-name="Caminho 8212" d="M145.33,295.55a2.7,2.7,0,0,1-.39-.27.49.49,0,0,1-.88.28,8.65,8.65,0,0,1-1.79-6.87c.37-1.49,1.87-4.72,3.57-5,2.16-.37,2.54,3,2.62,4.42a12.42,12.42,0,0,1-1.53,6.81,1.23,1.23,0,0,1-1.6.63Z" fill="#39b44a"/>
    <path id="Caminho_8213" data-name="Caminho 8213" d="M140.84,294.52a1.28,1.28,0,0,1-1.31-.78,1.52,1.52,0,0,1,.85-2,1.26,1.26,0,0,1,1.68,1.32,1.91,1.91,0,0,1-.22.7h0A1.19,1.19,0,0,1,140.84,294.52Z" fill="#39b44a"/>
    <path id="Caminho_8214" data-name="Caminho 8214" d="M140.52,290a.41.41,0,1,1,.528-.1.41.41,0,0,1-.528.1Z" fill="#39b44a"/>
    <path id="Caminho_8215" data-name="Caminho 8215" d="M149.19,287.7a1.08,1.08,0,1,1,1.47-.211A1.08,1.08,0,0,1,149.19,287.7Z" fill="#39b44a"/>
    <path id="Caminho_8216" data-name="Caminho 8216" d="M161,248.38a3.479,3.479,0,0,1-.39-.28.49.49,0,0,1-.88.28,8.57,8.57,0,0,1-1.78-6.86c.36-1.5,1.86-4.72,3.57-5,2.15-.38,2.53,3,2.61,4.41a12.46,12.46,0,0,1-1.53,6.82C162.27,248.24,161.58,248.74,161,248.38Z" fill="#39b44a"/>
    <path id="Caminho_8217" data-name="Caminho 8217" d="M156.47,247.35a1.3,1.3,0,0,1-1.31-.79,1.5,1.5,0,0,1,.85-2,1.25,1.25,0,0,1,1.68,1.32,1.86,1.86,0,0,1-.22.69h0a1.21,1.21,0,0,1-1,.78Z" fill="#39b44a"/>
    <path id="Caminho_8218" data-name="Caminho 8218" d="M156.15,242.77a.4.4,0,1,1,.565-.065.4.4,0,0,1-.565.065Z" fill="#39b44a"/>
    <path id="Caminho_8219" data-name="Caminho 8219" d="M164.82,240.53a1.082,1.082,0,1,1,1.52-.18,1.082,1.082,0,0,1-1.52.18Z" fill="#39b44a"/>
    <path id="Caminho_8220" data-name="Caminho 8220" d="M171.24,285.17a3.834,3.834,0,0,1-.39-.27.49.49,0,0,1-.88.27,8.58,8.58,0,0,1-1.79-6.86c.36-1.5,1.87-4.72,3.57-5,2.16-.38,2.53,3,2.62,4.41a12.38,12.38,0,0,1-1.54,6.82C172.55,285,171.86,285.53,171.24,285.17Z" fill="#39b44a"/>
    <path id="Caminho_8221" data-name="Caminho 8221" d="M166.75,284.14a1.28,1.28,0,0,1-1.31-.78,1.51,1.51,0,0,1,.85-2,1.24,1.24,0,0,1,1.67,1.32,1.68,1.68,0,0,1-.21.69h0a1.21,1.21,0,0,1-1,.77Z" fill="#39b44a"/>
    <path id="Caminho_8222" data-name="Caminho 8222" d="M166.43,279.56a.4.4,0,1,1,.565-.065A.4.4,0,0,1,166.43,279.56Z" fill="#39b44a"/>
    <path id="Caminho_8223" data-name="Caminho 8223" d="M175.1,277.32a1.082,1.082,0,1,1,1.52-.18A1.082,1.082,0,0,1,175.1,277.32Z" fill="#39b44a"/>
    <path id="Caminho_8224" data-name="Caminho 8224" d="M153.09,260a10.49,10.49,0,0,1,1.21-4.45,3.14,3.14,0,0,1,5.31.22c1.59,2.68,1.68,8.4-2.14,9.28a.865.865,0,0,1-.17,0,2.73,2.73,0,0,1-3.15-.65C153.11,263.32,153,261.37,153.09,260Z" fill="#0f8bb5"/>
    <path id="Caminho_8225" data-name="Caminho 8225" d="M154,271.94a3.66,3.66,0,0,1,4.61-.92,3.771,3.771,0,0,1,1.39,1.3,5.07,5.07,0,0,1,1.76,1.92c.85,1.64.67,3.74-1.1,4.71a4.55,4.55,0,0,1-4.3-.13C154.15,277.61,152.28,274.21,154,271.94Z" fill="#0f8bb5"/>
    <path id="Caminho_8226" data-name="Caminho 8226" d="M143.85,273.67a2,2,0,0,1,1.8-1.49.71.71,0,0,1,1.14-.07c1.05,1.32,2.49,4.5.35,5.56a1.941,1.941,0,0,1-.54.19,1.9,1.9,0,0,1-2.77-1,1.3,1.3,0,0,1,.15-1.06A3.63,3.63,0,0,1,143.85,273.67Z" fill="#0f8bb5"/>
    <path id="Caminho_8227" data-name="Caminho 8227" d="M186.13,282.16a2,2,0,0,1,3.18.41c.9,2.05,1.54,5.4.44,7.5a2.57,2.57,0,0,1-3,1.39,3.27,3.27,0,0,1-2.13-3C183.63,286.45,184.75,283.67,186.13,282.16Z" fill="#0f8bb5"/>
    <path id="Caminho_8228" data-name="Caminho 8228" d="M192.17,290.1a6.759,6.759,0,0,1,2.38-1l.53-.16a3.08,3.08,0,0,1,3.43.92,3.79,3.79,0,0,1,.13,4c-.8,1.24-2.33,1.44-3.68,1.4s-3-.19-3.84-1.12C189.72,292.71,190.79,291,192.17,290.1Z" fill="#0f8bb5"/>
    <path id="Caminho_8229" data-name="Caminho 8229" d="M187.25,297.47a1.91,1.91,0,0,1,2.6-.68,3.13,3.13,0,0,1,1.49,2.83,6.59,6.59,0,0,1,.27,2.25c-.08,1.42-.73,3-2.46,2.8-1.38-.18-2.2-1.89-2.45-3.11A6.36,6.36,0,0,1,187.25,297.47Z" fill="#0f8bb5"/>
    <path id="Caminho_8230" data-name="Caminho 8230" d="M179.24,292.67a3.89,3.89,0,0,1,2.47-1.53c1.95-.51,4.71.1,4.71,2.61a2.91,2.91,0,0,1-2.15,2.74,3.36,3.36,0,0,1-2.86-.47,2.749,2.749,0,0,1-.94-.35C179.46,295.08,178.62,293.83,179.24,292.67Z" fill="#0f8bb5"/>
    <path id="Caminho_8231" data-name="Caminho 8231" d="M184.43,239.25a2.53,2.53,0,0,1,2.43,2.89,3,3,0,0,1-2.07,2.65h-.08a2.34,2.34,0,0,1-3-.37C179.92,242.49,182,239.18,184.43,239.25Z" fill="#b71f5f"/>
    <path id="Caminho_8232" data-name="Caminho 8232" d="M179.48,249a2,2,0,0,1,2.36-1.25c1.66.38,2.6,2.57,2.13,4.1a1.58,1.58,0,0,1-.35.61,1.41,1.41,0,0,1-.79,1.54c-1.64.88-3-1.41-3.36-2.71a3.66,3.66,0,0,1,.01-2.29Z" fill="#b71f5f"/>
    <path id="Caminho_8233" data-name="Caminho 8233" d="M171.8,245.35c1.59-.93,3.45.07,4.23,1.57.52,1,.15,2.66-1.17,2.87h-.32a3,3,0,0,1-3.29-.44,2.49,2.49,0,0,1,.55-4Z" fill="#b71f5f"/>
    <path id="Caminho_8234" data-name="Caminho 8234" d="M176,236.48c2.29.08,3.55,3.56,2,5.16a1.32,1.32,0,0,1-.3.24,1.82,1.82,0,0,1-.69.75c-1.77,1.1-3.45-.42-3.83-2.15C172.72,238.56,173.77,236.4,176,236.48Z" fill="#b71f5f"/>
    <path id="Caminho_8235" data-name="Caminho 8235" d="M146.89,305.09a1.83,1.83,0,0,1,1.8.47c.85,1.09,1.61,2.82.71,4.12h0v.25a1.8,1.8,0,0,1-3,1.26C145,309.81,144.31,305.66,146.89,305.09Z" fill="#b71f5f"/>
    <path id="Caminho_8236" data-name="Caminho 8236" d="M149.71,314.05a1.72,1.72,0,0,1,.2-.59,1,1,0,0,1,.73-.73h.07a1.5,1.5,0,0,1,.47-.14,5.471,5.471,0,0,1,1.13-.2c.52,0,1,.05,1.55.07a1.73,1.73,0,0,1,1.6,1.21,2,2,0,0,1-1.59,2.52,4.3,4.3,0,0,1-1.34,0A6,6,0,0,1,151,316,1.75,1.75,0,0,1,149.71,314.05Z" fill="#b71f5f"/>
    <path id="Caminho_8237" data-name="Caminho 8237" d="M145.8,316.34a1.56,1.56,0,0,1,1.53-1.53,2.5,2.5,0,0,1,2.23,3.58,1.68,1.68,0,0,1-2.94,0,2.519,2.519,0,0,1-.33-.39,2.9,2.9,0,0,1-.49-1.66Z" fill="#b71f5f"/>
    <path id="Caminho_8238" data-name="Caminho 8238" d="M140.68,311.42a3.13,3.13,0,0,1,2.37-.21,1.37,1.37,0,0,1,1.46.91,1.53,1.53,0,0,1,.35.64,1.81,1.81,0,0,1-2.66,2h0a1.64,1.64,0,0,1-.74-.88h0l-.13-.06-.27-.08h0a1.26,1.26,0,0,1-.38-2.32Z" fill="#b71f5f"/>
    <path id="Caminho_8239" data-name="Caminho 8239" d="M143.72,289.16a.33.33,0,0,1,.32,0,1.72,1.72,0,0,0,.84.26l.09-1.15c.07-.87-.05-2.37.57-3.06a.28.28,0,0,1,.48.12.19.19,0,0,1,0,.18,6.88,6.88,0,0,0-.35,2.92,1.571,1.571,0,0,0,.23-.2,6.472,6.472,0,0,0,.92-1.1c.18-.26.59,0,.42.24a7,7,0,0,1-.91,1.2,3.669,3.669,0,0,1-.66.64,1.769,1.769,0,0,1,0,.24v1.08l.79-.42c.32-.16.6.31.28.48l-1.08.59c0,.71,0,1.42-.07,2.13a.35.35,0,1,1-.7,0v-1.75a.36.36,0,0,1-.22-.05.17.17,0,0,1-.09-.14.59.59,0,0,1,.31-.42v-.93a2.13,2.13,0,0,1-1.13-.3.3.3,0,0,1-.16-.28.31.31,0,0,1,.12-.28Z" fill="#1f803f"/>
    <path id="Caminho_8240" data-name="Caminho 8240" d="M162.93,310.78a.19.19,0,0,1,.23-.18c.33.07.51.43.71.68l.47.57a27,27,0,0,1,1.25-4.6c.13-.36.71-.21.58.16a24.069,24.069,0,0,0-.86,3.34c.12-.13.25-.24.36-.35.34-.34.69-.67,1-1s.67.14.41.4-.67.7-1,1-.53.61-.91.66c0,.24-.07.47-.09.71-.07.76-.06,1.52-.07,2.28h0a4.629,4.629,0,0,0,.9-.68.251.251,0,0,1,.36.35,4.93,4.93,0,0,1-.92.79,4.222,4.222,0,0,1-.38.23,8.516,8.516,0,0,1-.08.87c0,.29-.49.26-.55,0a9.69,9.69,0,0,1-.12-3.58c-.27-.29-.53-.58-.79-.88S163,311.12,162.93,310.78Z" fill="#1f803f"/>
    <path id="Caminho_8241" data-name="Caminho 8241" d="M169.76,278.8c.28-.07.45.11.68.26l.61.42a11.245,11.245,0,0,1,.16-1.64,3.75,3.75,0,0,1-1.45-1.84c-.11-.34.42-.57.58-.25a5.789,5.789,0,0,0,1,1.41c.12-.73.26-1.44.41-2.12.09-.39.69-.22.61.17a19.138,19.138,0,0,0-.35,3.05,2.84,2.84,0,0,1,1.07-.28c.26,0,.32.41.07.46a2,2,0,0,0-1.15.67h0v1.69l.91-.46c.23-.12.43.22.21.34l-.91.52-.22.14v1.85a.28.28,0,0,1-.55.07,11.34,11.34,0,0,1-.33-3.21h0l-.85-.55c-.22-.15-.48-.24-.53-.52A.16.16,0,0,1,169.76,278.8Z" fill="#1f803f"/>
    <path id="Caminho_8242" data-name="Caminho 8242" d="M185.18,265.07a10.532,10.532,0,0,1,2.4.15l-.54-.43c-.25-.21-.6-.38-.62-.73a.19.19,0,0,1,.14-.18c.36-.05.57.24.83.46l1,.86a.19.19,0,0,1,.08.21,13.19,13.19,0,0,1,3.33,1.28,4,4,0,0,0-.6-.57c-.28-.21-.78-.37-.91-.71a.18.18,0,0,1,.13-.22c.39-.13.89.34,1.16.59a4.52,4.52,0,0,1,1,1.17.24.24,0,0,1,0,.2,7.411,7.411,0,0,1,1.83,1.68c.17.22-.2.51-.38.3l-.39-.4a2.929,2.929,0,0,1-.8.65c-.32.18-.86.45-1.2.23a.18.18,0,0,1,0-.27c.24-.25.67-.23,1-.36a2.65,2.65,0,0,0,.75-.52,9.35,9.35,0,0,0-3.45-1.73h0l-1.41.71a2.37,2.37,0,0,1-1.2.46.18.18,0,0,1-.16-.27c.23-.37.7-.49,1.08-.68l.93-.45c-1.32-.34-2.69-.56-4-.87a.3.3,0,0,1,0-.56Z" fill="#1f803f"/>
    <path id="Caminho_8243" data-name="Caminho 8243" d="M159.37,241.43c.37-.05.71.29,1,.48l.23.14a15.36,15.36,0,0,1,1.16-4.28c.1-.25.55-.07.44.19a15.11,15.11,0,0,0-.73,2.56l.18-.13,1.14-.89c.22-.17.53.14.31.32l-1.18,1c-.18.14-.36.32-.56.46-.06.4-.1.82-.12,1.23l.26.17a.242.242,0,0,1-.24.42h0v1a5.581,5.581,0,0,0,1.12-1.05c.2-.25.63.08.45.34a6.11,6.11,0,0,1-1.09,1.18c-.1.08-.26.23-.44.36v.44c0,.36-.59.45-.64.09v-.32a.35.35,0,0,1-.13-.08c-.17-.18-.09-.35.07-.49a14.585,14.585,0,0,1,0-1.87l-.5-.31c-.3-.18-.71-.32-.83-.68a.16.16,0,0,1,.1-.28Z" fill="#1f803f"/>
    <path id="Caminho_8244" data-name="Caminho 8244" d="M25.4,32.12c4.48-8.63,13.11-15.36,22-18.94h.14C52.1,1.05,73.19,3.83,82,10.88c5.44,4.37,6.83,12.21,7.79,18.75.87,5.9.87,11.92-1.21,17.41.71-.31,1.42-.6,2.14-.85l.61-.18a7,7,0,0,1,5.5-2.76,235.169,235.169,0,0,1,23.75,0c.08-.11.15-.23.25-.35,5.49-6.45,18.2-3.45,25.05-1.06a52.6,52.6,0,0,1,12.39,6.19,46.36,46.36,0,0,1,5.49,4,83.421,83.421,0,0,1,17.67,13c4.7,4.48-1.28,11.66-6.76,8.75a117.691,117.691,0,0,0-17.3-7.24,29.4,29.4,0,0,1-1.51,4.88,25.35,25.35,0,0,1-3.62,5.81,32.879,32.879,0,0,1-3.41,4.44c-7.68,7.29-18.54,5.15-27.92,8.35a29.83,29.83,0,0,0-17.79,16.49c-1.27,3.08-2.17,6.9-1.69,10.12.67,4.46,4.75,6.65,6.85,10.44,2.83,5.14-1.89,12.18-7.9,10.28a12.1,12.1,0,0,0-4.15-.59c-.31,0-1.12.12-1.73.13-.82,2.49-2.56,7.49-2.82,8.25a9.23,9.23,0,0,1-1.11,2.22c3.94.7,7.37,5.12,10.11,7.66a97.379,97.379,0,0,1,9.81,10c4.09,5.06,10.19,15.87,2,20.53a2.61,2.61,0,0,1-3.79-1.54c-.65-3.18.74-6.19-.9-9.23-1.73-3.22-4.69-5.64-7.42-8s-5.54-4.8-8.29-7.22l-1.61-1.37a20.38,20.38,0,0,0-11.68,2.35,32.09,32.09,0,0,0-5.64,3.81l-.48.41a8.75,8.75,0,0,1-5,9.62c-2.47,1.13-5.3.69-6.81-1.79-.12-.2-.22-.4-.32-.59a15.53,15.53,0,0,1-3.3-2.08c-4.23-3.45-6.66-9-8.83-13.84-5.16-11.56-7.68-23.71-9-36.25s-2.25-25.54.5-38a91,91,0,0,1,2.6-9.37c-6.83-.69-13.94-4.68-17.09-10.4-2.38-4.32-2.72-9.54-3-14.37A29.32,29.32,0,0,1,25.4,32.12Z" fill="#051b21"/>
    <path id="Caminho_8245" data-name="Caminho 8245" d="M106.94,161.21c1.22,1.26,2.39,2.56,3.5,3.93,2.25,2.78,5.1,7.3,5.86,11.59-2.51-5.37-6.12-10.46-8.78-14.61C107.33,161.81,107.14,161.51,106.94,161.21Z" fill="#280f0c"/>
    <path id="Caminho_8246" data-name="Caminho 8246" d="M75.4,162.78c-1.86-2.11-3.67-4.27-5.35-6.54-4-5.46-8.24-12.31-7.06-19.42a19.41,19.41,0,0,1,5.67-10.44c2.43-2.26,5.81-2.87,8.87-3.87,6.79-2.2,12.67-6.37,13.94-13.82,1.07-6.25-1.3-12.18-3.61-17.86a46.739,46.739,0,0,1-3-8.81,7,7,0,0,1-.12-2.22A7.19,7.19,0,0,0,85,78.72c.11-.16.31-.47.32-.5,2.94-3.84,10.62-3.35,15.19-3.1,6.28.35,12.48,1.63,18.78,1.89a44.87,44.87,0,0,0,21.36-3.9c7.4-3.55,12.17-10,15.19-17.43,1.23-3-1.35-6.6-4.19-7.38-3.38-.93-6.15,1.19-7.37,4.19-6.57,16.14-25.5,12.41-39.21,11-12.42-1.27-32,0-32.39,16.69-.12,6.23,2.93,11.94,5.08,17.6,1.73,4.55,3.85,9.39-.6,12-3.22,1.91-7.35,2.37-10.79,3.91-4.06,1.8-6.95,4.71-9.57,8.22a29.23,29.23,0,0,0-5.94,17.16C46.66,128.18,43.84,117,45.42,105a127.149,127.149,0,0,1,4.72-20.16c1.85-6.08,4.27-12.26,8.24-17.3,8.67-11,22.29-12.33,35.31-12.37,7.6,0,15.34-.38,22.76-2.18a35.83,35.83,0,0,0,10-4.16c2.81-1.67,5.47-3.67,8.62-4.65a5.65,5.65,0,0,0,4-4.23,57.751,57.751,0,0,1,6.76,1.91,52.6,52.6,0,0,1,12.39,6.19,46.361,46.361,0,0,1,5.49,4,83.42,83.42,0,0,1,17.67,13c4.7,4.48-1.28,11.66-6.76,8.75a105.561,105.561,0,0,0-11.78-5.26c-.76-5.87-10.19-7.73-11.67-1-3.5,16-22.86,14.41-35.29,18.62-7,2.39-13.64,6.3-16.31,13.63a19.47,19.47,0,0,0,.27,13.5,22.08,22.08,0,0,0,1.51,3c0,.12,0,.24,0,.35a10.46,10.46,0,0,0,2.81,5.37,9.87,9.87,0,0,1,.33,1.58,7.89,7.89,0,0,1,0,1l-.32.07a27.82,27.82,0,0,0-8.34,2.56c-4.67,2.34-8.51,6.43-9.49,11.68-1.31,7,1.57,13.95,5.22,20.28l-1.11-.95a20.38,20.38,0,0,0-11.68,2.35,32.409,32.409,0,0,0-3.37,2.2Z" fill="#280f0c"/>
    <path id="Caminho_8247" data-name="Caminho 8247" d="M72.28,13.63A29,29,0,0,0,56.71,5.57c8.23-2.15,19.44.64,25.24,5.31,5.44,4.37,6.83,12.21,7.79,18.75a38.81,38.81,0,0,1-.11,13.6c-2.48.05-5,.15-7.43.38-1.75.17-3.47.41-5.17.72C80.66,33.83,80.6,22.17,72.28,13.63Z" fill="#280f0c"/>
    <path id="Caminho_8248" data-name="Caminho 8248" d="M44.89,66.34a6.939,6.939,0,0,0-.91-.41c-6.87-2.48-12.75-6.5-16.48-12.88a51.78,51.78,0,0,1-4.87-12.11,27,27,0,0,1,2.77-8.82,33.631,33.631,0,0,1,3.76-5.7C33.64,38.06,44.37,48.22,55.26,54A42.22,42.22,0,0,0,45,66.18Z" fill="#280f0c"/>
    <path id="Caminho_8249" data-name="Caminho 8249" d="M64.42,45.21,64,45c-9.79-4.56-23.4-15.26-25-27.1a6.74,6.74,0,0,0,1-.14C47.72,16.05,57.36,16,63.28,21.6c5.57,5.27,5,13.61,1.84,20.65a7.86,7.86,0,0,0-.7,2.96Z" fill="#280f0c"/>
    <path id="Caminho_8250" data-name="Caminho 8250" d="M106,136.6a6.15,6.15,0,0,1-4.22,1.16l.17-.08A15.271,15.271,0,0,1,106,136.6Z" fill="#280f0c"/>
    <path id="Caminho_8251" data-name="Caminho 8251" d="M193.07,76.25c5.45,2,8.92,6.89,11.45,11.81A2.039,2.039,0,1,1,201,90.12c-2.74-3.63-6.84-5.35-10.49-7.83C187.6,80.32,189.32,74.9,193.07,76.25Z" fill="#6a3220"/>
    <path id="Caminho_8252" data-name="Caminho 8252" d="M80.44,132.08c1.7-4.24,6.65-3.92,10.37-3.42,4,.54,7.45-.16,9.55-3.86,1.83-3.23,1.55-7.13.43-10.55-1.93-5.88-6-10.75-8.21-16.52-1.29-3.36-3.54-8.91-.21-11.65,8.44-6.94,21.85-5.27,31.94-6.08,6.59-.52,13.71-1.87,18.9-6.28,5.61-4.76,6.94-11.69,9-18.35.13-.4.82-.36.78.11-.82,9.07-5,18.13-13.36,22.42-9.08,4.64-19.63,3.77-29.48,4.58A47.679,47.679,0,0,0,101,84a28.541,28.541,0,0,0-4.2,1.54C94.12,86.8,92.71,88,92.69,91.4c0,2.74,2,6.65,3.21,9,1.38,2.75,3.09,5.33,4.52,8,3.57,6.8,5.72,17.92-3.1,21.88-2.29,1-4.67.78-7.09.46-1.82-.23-4.89-.88-6.42.48-2.23,2-1.54,5.31-.77,7.74,2.14,6.82,6.9,12.48,11.42,17.85.78.93-.53,2.28-1.34,1.35-3.64-4.19-7.36-8.45-10-13.4C81.35,141.34,78.86,136,80.44,132.08Z" fill="#c49a6c"/>
    <path id="Caminho_8253" data-name="Caminho 8253" d="M60,125.65c2.7-5.3,7.26-7.43,12.9-8.38,4.25-.72,10-1.7,9.84-7.21-.1-4.39-2.34-8.86-4.61-12.55C75,92.44,70.67,88,71.64,81.58c2.13-14,18-14.92,29.1-13.84,9.2.91,18.57,2.92,27.8,1.22,8.84-1.63,17.46-7.6,18.7-17.09.08-.6,1-.63,1,0-1.08,11.6-12.05,17.91-22.69,19-7.61.78-15.17-.55-22.71-1.41-7.26-.83-16.28-1.92-22.79,2.21a15.29,15.29,0,0,0-6.44,8.26c-1.3,4.3.06,8.1,2.44,11.72,3.54,5.37,7.65,11,8.41,17.58.53,4.56-2.76,7.5-6.84,8.73-3.57,1.08-7.42.92-10.72,2.87a14.48,14.48,0,0,0-5.9,7.86c-5,14.39,6.85,29.69,20.74,32.73,1.07.23.62,1.84-.45,1.63-11.21-2.23-20.63-11-23.08-22.27A22.84,22.84,0,0,1,60,125.65Z" fill="#c49a6c"/>
    <path id="Caminho_8254" data-name="Caminho 8254" d="M43.09,122.84a43.11,43.11,0,0,1,3.42-15.47c2.29-5.31,5.15-7.37,10.17-9.79,7.95-3.83,4.24-12.47,2.78-19-1.3-5.75-.13-11.28,2.19-16.62,2.11-4.83,5.15-6.92,10.16-8.32a70.91,70.91,0,0,1,18.64-2.2c7.41,0,14.81.54,22.22.27a91.33,91.33,0,0,0,24.43-4.69c.43-.14.6.52.18.68-11.57,4.4-22.76,5.57-35.07,5.2-6.07-.17-12.16-.48-18.23-.13-5.82.33-15.57,1.06-19.3,6.27-3.85,5.4-5.07,13.44-3.57,19.73,1.09,4.58,3.08,9.12,1.9,13.91-1.11,4.51-4.42,5.8-8.2,7.71-5.5,2.78-7.31,9.41-8.35,15.07a45.47,45.47,0,0,0,.62,19c1.54,6.19,4.6,11.16,7.51,16.7a.76.76,0,0,1-1.19.92C45.78,145.31,42.75,132.69,43.09,122.84Z" fill="#c49a6c"/>
    <path id="Caminho_8255" data-name="Caminho 8255" d="M60.9,14c-.28-.21-.13-.71.26-.6,8.29,2.4,13.38,13.81,12.63,21.81-.39,4.2-1.09,9.33-3.8,12.73-1.66,2.08-4.94,4.19-7.07,1.55a.132.132,0,0,1,.16-.21c4,1.75,7-5.3,7.68-7.83,1-3.58,1.76-7.49,1.21-11.18C70.94,23.39,66.29,18,60.9,14Z" fill="#c49a6c"/>
    <path id="Caminho_8256" data-name="Caminho 8256" d="M36.53,20.21c.09-.69,1.17-.73,1.11,0C36.53,33.61,42.43,47.38,57,49.3c.92.12,1,1.49,0,1.49-6.32,0-12.25-3.91-15.88-8.91C36.56,35.6,35.57,27.74,36.53,20.21Z" fill="#c49a6c"/>
    <path id="Caminho_8257" data-name="Caminho 8257" d="M30.2,26.33c.42,0,.56.69.1.78-3.62.67-.66,9.15.23,11a27.36,27.36,0,0,0,6,8c4.23,4,10.15,9.25,16,10.69.69.17.4,1.23-.3,1.07-4.22-1-7.68-3.73-11.11-6.26a43.72,43.72,0,0,1-9.82-9.23C29.62,40.11,23,26.05,30.2,26.33Z" fill="#c49a6c"/>
    <path id="Caminho_8258" data-name="Caminho 8258" d="M25.12,54.16a.182.182,0,1,1,.36.05c-.08,1.39-.46.43-.78,1.61-.74,2.72,1.77,4.56,3.65,6.3,2.77,2.58,5.84,3.48,9.12,4.09-.55-.6-1.08-1.23-1.59-1.84.55.62,1.11,1.25,1.68,1.86,1.72.31,3.49.55,5.32.91.51.11.37.88-.12.89h-3.3a7.14,7.14,0,0,0,2.91.92h0a15.419,15.419,0,0,1-1.55-.13,3,3,0,0,1-1.43-.79c-4.68-.1-8.75-.93-12.54-4.46-1.36-1.27-4.22-3.77-4.45-5.79C22.15,55.21,24.67,56.35,25.12,54.16Z" fill="#c49a6c"/>
    <path id="Caminho_8259" data-name="Caminho 8259" d="M35,63.27l.93,1.1-1-1.08S34.94,63.26,35,63.27Z" fill="#c49a6c"/>
    <path id="Caminho_8260" data-name="Caminho 8260" d="M42.4,69a1.7,1.7,0,0,1,.54.17A2.65,2.65,0,0,0,42.4,69Z" fill="#c49a6c"/>
    <path id="Caminho_8261" data-name="Caminho 8261" d="M43.46,69.64a1.28,1.28,0,0,0-.52-.49,1.82,1.82,0,0,1,.58.44S43.49,69.68,43.46,69.64Z" fill="#c49a6c"/>
    <path id="Caminho_8262" data-name="Caminho 8262" d="M26.84,58.44v0Z" fill="#c49a6c"/>
    <path id="Caminho_8263" data-name="Caminho 8263" d="M168.53,157c2.2,1.07,3.89,2.83,6,4a24.28,24.28,0,0,0,7.06,2.31c4.25.85,8.4,1.5,12.38,3.29,1.64.73.57,2.84-.81,3a30.07,30.07,0,0,1-11.49-.8c-2.95-.81-6.75-2-8.45-4.66a1.1,1.1,0,0,1,.18-1.26c-2.05-1.34-3.92-2.92-6-4.51C166.62,157.76,167.68,156.62,168.53,157Z" fill="#ec1e79"/>
    <path id="Caminho_8264" data-name="Caminho 8264" d="M162.78,190.51c1.83,3.9,3.82,7.71,7.66,9.85a1.38,1.38,0,0,1,.75-.14c2.39.17,4.32.75,6.65-.25a20.9,20.9,0,0,0,5.6-4.12c2-1.81,4.92,1.08,3,3-4.5,4.35-8.31,8.3-15,5.56-5.24-2.15-10-7.21-11-12.89C160.24,190.19,162.13,189.11,162.78,190.51Z" fill="#ec1e79"/>
    <path id="Caminho_8265" data-name="Caminho 8265" d="M162.68,208.08c13.22-.24,25.66-6.78,36.85-13.31,12-7,15.23-23.12,16.38-36,2.18-24.29-3.08-51-21.51-68.25a101.75,101.75,0,0,0-16.56-12.23c-5.67-3.45-12.43-6-17.58-10.15-.79-.64.09-1.77.93-1.59,6.23,1.32,12.45,5.2,18,8.28A97.139,97.139,0,0,1,195.5,86.07a72.87,72.87,0,0,1,21.23,32.09c4.29,12.76,5.41,26.61,4.34,40a87.26,87.26,0,0,1-4.37,21.93c-2.14,6.13-4.61,12.7-9.77,17-5.88,4.84-13.62,8.35-20.6,11.25-7.55,3.14-15.43,5.21-23.65,5.1C159.27,213.33,159.27,208.14,162.68,208.08Z" fill="#f3c3ba"/>
    <path id="Caminho_8266" data-name="Caminho 8266" d="M177.85,99.35a44,44,0,0,1,3-8.24c.49-1,2-.13,1.52.89-7.36,16.2-.88,34.72,5.15,50.3a1.58,1.58,0,0,1-1.51,2.19,1.47,1.47,0,0,1-2.48-.18,64.34,64.34,0,0,1-7.25-22.84C175.4,114.61,175.26,106,177.85,99.35Z" fill="#f3c3ba"/>
    <path id="Caminho_8267" data-name="Caminho 8267" d="M201.06,206.13c2.52-1.91,5.7-.82,8.41-2.3a47.611,47.611,0,0,1,8.08-3.79c6.89-2.27,13.5-5.11,20.23-7.8.91-.37,1.67,1,1,1.64-5.37,4.67-11.67,7.69-18.34,10a59.32,59.32,0,0,0-9,4.32c-2.8,1.51-5.75,1-8.74,1.75C200.23,210.56,199.22,207.53,201.06,206.13Z" fill="#f3c3ba"/>
    <path id="Caminho_8268" data-name="Caminho 8268" d="M234.1,178.53c.42-5.55,7-1,8.77,1.06,1.29-1.6,2.21-3.52,3.65-5s3.9-3.55,6.14-2.91a1.41,1.41,0,0,1,.84,2.06,7,7,0,0,1-2.62,1.93,14.35,14.35,0,0,0-2.67,2.25,22.2,22.2,0,0,1-4.92,4,.94.94,0,0,1-1.34-.5h0c-1.27-.38-2.28-1.48-3.49-1.82-.93-.26-1.15-.74-1.18.59a10.271,10.271,0,0,0,.8,2.48c.43,1.35.95,2.71,1.28,4.09.24,1-.26,3.59.32,4.25a.643.643,0,1,1-.91.91c-1.54-1.47-1-4.09-2-5.91C235.59,183.92,233.91,181,234.1,178.53Z" fill="#f3c3ba"/>
    <path id="Caminho_8269" data-name="Caminho 8269" d="M71.33,224.17c22.11,1.26,45.45,0,66.92-5.68a.85.85,0,0,1,.65,1.55c-4,2.91-10,3.33-14.72,4.21-5.58,1-11.21,1.91-16.85,2.5a223.072,223.072,0,0,1-36,.64C69.28,227.27,69.26,224.05,71.33,224.17Z" fill="#f3c3ba"/>
    <path id="Caminho_8270" data-name="Caminho 8270" d="M180,328.38c.83-4.23,1.76-8.53,3-12.67a1.25,1.25,0,0,1,2.4.66c-1.44,7.26-4.18,14-4.05,21.46a.35.35,0,0,1,.07.23v.66a.59.59,0,0,1-1.16.16C178.87,335.51,179.33,331.86,180,328.38Z" fill="#f3c3ba"/>
    <path id="Caminho_8271" data-name="Caminho 8271" d="M126.15,298.53c1.08-.59,2.51-.76,3.34-1.69a1.1,1.1,0,0,1,1.72.18v.07a1.17,1.17,0,0,1-.18,1.38,6.14,6.14,0,0,1-3,1.55,21.571,21.571,0,0,0-3.25,1.56c-.25.12-.65,0-.61-.35a3.3,3.3,0,0,1,1.98-2.7Z" fill="#f3c3ba"/>
    <path id="Caminho_8272" data-name="Caminho 8272" d="M118.73,289.37c1.43,1,1.63,2.84,1.94,4.47.44,2.23.78,4.93,2.44,6.61.46.47-.23,1.14-.71.72a9,9,0,0,1-2.91-4.75c-.29-1.07-.47-2.16-.73-3.23a13.85,13.85,0,0,1-.8-3.38.51.51,0,0,1,.77-.44Z" fill="#f3c3ba"/>
    <path id="Caminho_8273" data-name="Caminho 8273" d="M110,293a2.78,2.78,0,0,1,.28-1.08,2,2,0,0,1,2.09-1.76,3,3,0,0,1,2.65.31,2.58,2.58,0,0,1,.82.74,20.82,20.82,0,0,1,3.33,8.59c.54,3.17,1.1,6.71-.23,9.7a3,3,0,0,1-3.34,1.36C109.34,308.72,109.68,298.34,110,293Z" fill="#ec1e79"/>
    <path id="Caminho_8274" data-name="Caminho 8274" d="M83.58,169.5c3-2,7.94,2.09,10.06,4.1,3,2.83,4.41,6.47,5.19,10.44a1.344,1.344,0,1,1-2.59.72,16.44,16.44,0,0,0-3.76-5.8h0a5.47,5.47,0,0,0-2.8,2.33c-.41.68-.76,1.25-1.47,1.31a1,1,0,0,1-1-.38,1.37,1.37,0,0,1-.35-1.31,8,8,0,0,1,3.55-4l-.06-.05a16.39,16.39,0,0,0-3.9-2.47c-1.43-.67-2.84-.8-3.53-2.37A1.94,1.94,0,0,1,83.58,169.5Z" fill="#051b21"/>
    <path id="Caminho_8275" data-name="Caminho 8275" d="M182.55,90.82a73.35,73.35,0,0,0-1.88,26.8,67.252,67.252,0,0,0,3,13.44c1.25,3.74,3.08,7.24,4.42,10.93,3.24-2.18,6.73-3.24,7.92.73,1.71,5.71-2.35,13-8.61,13.25a1.15,1.15,0,0,1-.58-2.12,12.21,12.21,0,0,0,4.49-3c1.22-1.51,2.46-4.37,1.72-6.38.1-.78-.17-1-.81-.76a2,2,0,0,0-1.4.49,24.4,24.4,0,0,0-2.31,1.35c-1.77,1.06-3.55,2.13-5.29,3.22-.91.57-1.67-.65-1.07-1.38a30,30,0,0,1,3.68-3.64c-5.44-6.61-7.75-16.65-8.64-24.91A59.18,59.18,0,0,1,181,90.4C181.38,89.46,182.82,89.81,182.55,90.82Z" fill="#051b21"/>
    <path id="Caminho_8276" data-name="Caminho 8276" d="M132.79,118.52c4.8-3.57,11.13-5.58,17.05-4,4.78,1.26,10,5,10.46,10.3a1.15,1.15,0,0,1-1,1.31c.2.83.37,1.64.51,2.39a29.58,29.58,0,0,1-2,17.06.54.54,0,0,1-1-.28,38.35,38.35,0,0,0,.58-13.84,31.11,31.11,0,0,0-2.51-9.42,11.76,11.76,0,0,0-6.59-3.91c-4.93-1-10,.88-13.89,3.88a15.22,15.22,0,0,0-5.93,9.09c2-4.36,5.68-7.32,10-7.32a9.48,9.48,0,0,1,4.5,1.16,4.069,4.069,0,0,0-.5,0c-5.73,0-5.72,8.89,0,8.89,3.46,0,4.82-3.24,4.1-5.81a16.16,16.16,0,0,1,3.31,10c0,7.86-5.11,14.24-11.41,14.24a9.53,9.53,0,0,1-5.21-1.59c.13.5-.47,1-.89.56a27.59,27.59,0,0,1-7.27-16.33C124.47,128,127.29,122.62,132.79,118.52Z" fill="#051b21"/>
    <path id="Caminho_8277" data-name="Caminho 8277" d="M189.78,118.89c2.25-2.62,6.15-4.65,9.64-3.85,3,.68,6,3.61,6.23,6.7a.73.73,0,0,1-.05.3c.06.12.12.23.17.35a18.59,18.59,0,0,1,.68,13.64.52.52,0,0,1-1-.28c1-3.94.61-9.83-1.94-13.6-1.38-.92-2.32-2.36-3.92-3.05-3.45-1.48-7.61,1.56-8.71,4.85a14.933,14.933,0,0,0-.53,2.07,5.21,5.21,0,0,1,3.91-3,4.38,4.38,0,0,1,2.46.52,1.22,1.22,0,0,0-.27,0c-3,.3-2.46,6.06.57,5.76,1.84-.19,2.35-2.36,1.8-4a12.16,12.16,0,0,1,2.41,6.32c.5,5.1-1.79,9.5-5.14,9.83a5,5,0,0,1-4.13-1.81c.24.58.49,1.13.76,1.66a.464.464,0,1,1-.8.47c-2.71-3.53-3.23-8-3.89-12.28C187.46,125.88,187.2,121.92,189.78,118.89Z" fill="#051b21"/>
    <path id="Caminho_8278" data-name="Caminho 8278" d="M153.39,156a.89.89,0,0,0,.64.84c2.21.37,3.85-1.51,5.84-2.3a13.59,13.59,0,0,1,4.14-1c-4.07,3.79-6,11.23-6.79,16.18a46.42,46.42,0,0,0,1.91,20.66c1.93,6,6,10.57,12.41,11.53,6.67,1,13-2.16,18.18-6,1-.73.46-2.61-.91-2.15l-2.43.88c-.64-4.33-2.56-8-.64-12.63,1.61-3.83,4-7.26,5.47-11.15A16.39,16.39,0,0,0,198.3,168a.43.43,0,0,0-.33-.79c-6,1.45-14.07,1.81-19.64-1.3a22.09,22.09,0,0,1-6.24-5.35,44.14,44.14,0,0,1-3.54-5.66c.8.76,1.82-.22,1.43-1.12-1.37-3.18-4.78-3.72-7.93-3.26C159.34,150.89,153.38,152.44,153.39,156Zm35,15.13-.45.59a2.53,2.53,0,0,0-.44-.58Zm-24.55,18.64c6.6-.2,12.64.84,16.39,7a18.34,18.34,0,0,1-7.79.76c-4.73-.76-7.17-3.91-8.6-7.81Zm1.08-28.91c.3-.62.65-1.22,1-1.81a25.58,25.58,0,0,0,11.26,10.3,22.73,22.73,0,0,0,5.1,1.44c-3.75,9.19-14.39,3.2-20.25-.58h-.11c.12-.7.25-1.4.42-2.1a33.62,33.62,0,0,1,2.58-7.3Z" fill="#051b21"/>
    <path id="Caminho_8279" data-name="Caminho 8279" d="M187.78,99.68c1.07-2.54,3.67-3,6-2a15.31,15.31,0,0,1,5.83,4.07,30.75,30.75,0,0,1,3.33,5.67c1.59,3-2.51,5.22-4.46,2.61-.91-1.21-2.55-1.91-3.85-2.61a26,26,0,0,0-4.11-2,4.24,4.24,0,0,1-2.74-5.74Z" fill="#051b21"/>
    <path id="Caminho_8280" data-name="Caminho 8280" d="M131.32,291.57c2.87.86,3.82,7.13,4.47,9.46,1.32,4.68,2.46,9.74,5.72,13.51a20.3,20.3,0,0,0,11.78,6.35c11.15,2.09,19.83-3.26,28.28-9.76,5.9-4.53,17.69-12,24.73-5.51a2,2,0,0,1-1.37,3.31c-2.48.06-4.78-.62-7.3-.21a18.52,18.52,0,0,0-4.39,1.33,2.649,2.649,0,0,1-.21.41c-5.16,7.75-6.48,17.63-10.28,26.06a1.12,1.12,0,0,1-2.08-.57,95.4,95.4,0,0,1,3.11-15.39c.47-1.83.91-3.71,1.47-5.55-1.67,1.28-3.31,2.62-5,3.87-7.25,5.43-15.8,8.57-24.94,7.64-7.32-.75-14.59-3.92-18.81-10.16a31.34,31.34,0,0,1-4.22-10.85c-.45-2-.83-4.07-1.31-6.09a45.341,45.341,0,0,0-1.27-5.57.82.82,0,0,1-.22-.2C128.59,292.34,129.89,291.14,131.32,291.57Z" fill="#051b21"/>
    <path id="Caminho_8281" data-name="Caminho 8281" d="M15.29,53.14c.59,1.4,1.28,3,2.09,4.54a42.22,42.22,0,0,0,2.35,6.67C22.94,71.5,29.46,78,37.57,78.43c-6.21,15.88-6,34-3.24,50.78,1.81,11,4.17,22.55,9.75,32.3a44.45,44.45,0,0,0,9.92,12c1.67,1.4,3.45,2.83,5.32,4.14-.39-.05-.79-.1-1.18-.18a30.25,30.25,0,0,1-12.41-5.51c-.82-.64-2,.43-1.18,1.17a28.26,28.26,0,0,0,12.24,7.1,34.391,34.391,0,0,0,7.46,1.36v.07c-.85,2.56-5.51,2.39-7.72,2.48a1.71,1.71,0,0,0,0,3.41c3.66.12,12,.2,11.64-5.36v-.16h0c1.15,8.86,7.73,15.39,17,16.88a29.3,29.3,0,0,0,16.13-1.93,20,20,0,0,0,2.73-1.47c6.79,4.43,13.73,9.19,21,12.7A87,87,0,0,0,137.49,213c.88.27,1.82.59,2.78.91a6.208,6.208,0,0,0-.48.43c-1.76,1.82-1.45,4.37-.77,6.6,2.36,7.78,4.66,15,5.11,23.25A79.63,79.63,0,0,1,142,268.54c-1,3.76-2.19,7.63-4.67,10.7-2.07,2.57-5.34,3.55-7.41,5.94a4.1,4.1,0,0,0-2.93,0c-1.85.87-2.32,3.56-2.77,5.34-.5,2-1.26,4.62.34,6.24A1.21,1.21,0,0,0,126,297c1.28-.79,1.49-1.87,1.84-3.3.19-.8.36-1.6.57-2.39.1-.4.2-.8.32-1.19q.51-.61.21-.81h.05c.45.13.9.28,1.34.45a19.738,19.738,0,0,1,2.09,1,17.39,17.39,0,0,0,3.57,1.62,1.46,1.46,0,0,0,1.62-2.12,7,7,0,0,0-2.14-2.35c3.62-1.63,6.8-5.79,8.36-8.66,3.22-5.92,4.31-12.82,4.92-19.44a77.12,77.12,0,0,0-1.08-21.92,89.48,89.48,0,0,0-2.75-10.68c-.54-1.65-1.15-3.27-1.79-4.88-.37-.91-.81-1.82-1.09-2.77-.12-.59-.25-1.19-.37-1.79l1.32-1.51c.25,2.93,2,5.66,3.3,8.27a41.7,41.7,0,0,0,4.62,8.08c3.3,4.06,9.4,3.67,14.14,3.23,3.58-.34,9.59-1.26,9.76-5.89a11.89,11.89,0,0,0-.93-4.71c6.17,8.8,13.2,17,18.22,26.6,6.65,12.73,9.25,26.92,10.85,41.09a9.68,9.68,0,0,0-3.57-1.23c-1.15-.13-1.56,1.23-1.19,2.07,2.05,4.53,8.6,6.51,11.84,10.21a3.46,3.46,0,0,1,1.12,3.95l-1.15.5c-1,.76-3,1.09-4.23,1.5a52.183,52.183,0,0,1-7.89,2.36c-1.18.2-.85,2,.28,2a40,40,0,0,0,12.91-2c2.78-.94,5.16-2.54,4.89-5.84-.29-3.53-3.41-6.29-6-8.31-1.37-1-2.85-2.38-4.43-3.55-.14-7.85,0-15.57-1.36-23.35a75.591,75.591,0,0,0-6.77-20.39,118.881,118.881,0,0,0-23.09-32.24,63.54,63.54,0,0,0,28.86-12c12.43-9.35,19.48-23.54,22.3-38.86a20.6,20.6,0,0,0,4.83-4.12,12.48,12.48,0,0,0,3.78-7.46c.43-4.6-2.85-9.63-7.35-10.4q-.27-4.41-.92-8.73a8,8,0,0,0,6.29,2.08.83.83,0,0,0,0-1.65,9.13,9.13,0,0,1-6.87-5,8.17,8.17,0,0,1-.39-.84c-.17-.83-.35-1.65-.55-2.47a8.59,8.59,0,0,0,5-.21c5.06-1.82,6.17-7.33,2.93-11.33-.5-.61-1.54.21-1.09.84,2.37,3.31-.57,7.65-4.3,7.79a5,5,0,0,1-3.7-1.38c-.24-.86-.5-1.71-.77-2.55A86.32,86.32,0,0,0,210.3,98.49a1.33,1.33,0,0,0,.23-1.37,95.781,95.781,0,0,0-8.68-18.3,8.43,8.43,0,0,0-5.64-4.23c-2.79-.54-6.58,1.07-8.5-1.69-1.81-2.6-1.11-6.51-1.94-9.48a15.86,15.86,0,0,0-4.93-7.32,105,105,0,0,0-15.49-11.79c-12-7.46-25.69-8.17-39.5-8.38a205,205,0,0,0-22,.81c-4.06.38-8.85.54-13.23,1.51,2.65-3.92,2.88-11.3,2.71-15.76a26,26,0,0,0-4.6-14.35,1,1,0,0,0-1.64,1,26.71,26.71,0,0,1,3.12,12.71c-1.92-7.78-6.7-14.62-14.53-18C69.48,1.05,62-.81,55.21.35,50.7,1.13,42.13,5,42.78,10.71a2,2,0,0,0,1.59,1.83l-.61.17A56.77,56.77,0,0,0,31.31,17.8,32.14,32.14,0,0,0,18,34.82c.68-7.52,4-17.53,11.5-20.4a.94.94,0,0,0-.5-1.81c-8.18,1.26-12.39,13.54-13.47,20.46a46.62,46.62,0,0,0,.52,16.65,52.8,52.8,0,0,1-2.66-12c-.09-.85-1.38-.89-1.36,0a41.32,41.32,0,0,0,3.26,15.42Zm211.17,107c.27-2.87.4-5.76.4-8.65a4.21,4.21,0,0,1,2.11,2.62c.6,2.06-.57,4-1.93,5.47a7.672,7.672,0,0,1-.58.58Zm-23.15-70c-.83-.86-1.67-1.7-2.53-2.52a83.189,83.189,0,0,0-10.26-8.1c2.7,0,5.14-.8,7.26,1.7a45.46,45.46,0,0,1,5.53,8.91ZM40.48,107.6a51,51,0,0,1,2.64-12.07c2.72-8,7-15.39,11.1-22.75a.58.58,0,0,0-1-.58c-4.53,7.29-8.93,14.72-11.76,22.87-.18.53-.36,1.08-.54,1.63a66.57,66.57,0,0,1,6.56-22A52,52,0,0,1,58.41,60.26c2.2-2,4.54-3.94,6.81-5.91,2.86-2.49,5.67-5.46,9.75-5.23,2.08.12,2.56-3.31.49-3.66-4-.68-7.72.44-11.15,2.27A48.58,48.58,0,0,0,65,31.37c-.54-4-1.58-6.95-5.11-9.19A76.289,76.289,0,0,0,53,18.51c-.73-.37-1.49-.8-2.28-1.21a34,34,0,0,1,8.58-2.47,2,2,0,0,0,0-3.92,45.82,45.82,0,0,0-12.07.91c1.15-.56,2.22-1.34,3.38-2,.56-.3,1.12-.57,1.69-.82,4.58.84,8.46,1.49,12.64,3.79C68.36,14.72,73,17,75.2,20.35c4.67,7.09.43,16.69-1.43,24a.62.62,0,0,0,1.12.47c3.64-7,6.43-18.72,1.58-25.8-2.64-3.85-7.66-6.43-11.69-8.53a28.25,28.25,0,0,0-7.31-2.83c5-.47,10.76,1.08,15.27,3.06C84,15.63,84.05,27.82,86.47,38.18a1.67,1.67,0,0,0,.72,1,17.59,17.59,0,0,0-3.92,2c-1.94,1.35-2,5,.72,5.5,6.41,1.24,13.39-1.05,19.84-1.69a200.394,200.394,0,0,1,20.64-1c3.69,0,7.4,0,11.08.23-13.67,5.86-29.44.91-43.89,2.65a54,54,0,0,0-18.37,5.69c-4.88,2.52-11.88,6.47-14.56,11.49a.52.52,0,0,0,.7.7c3-1.86,5.41-4.81,8.32-6.9A52.79,52.79,0,0,1,76.15,53a53.59,53.59,0,0,1,22.11-4.91c13.41-.16,27.7,3,40-3.62,8.12.61,16.05,2.21,23.26,6.48a90.659,90.659,0,0,1,15.21,11c3.72,3.46,3.77,8.57,6.11,12.74l-.9-.53a.48.48,0,0,0,0-.49c-1.4-2.73-3.7-5-5.64-7.35s-3.74-4.72-5.81-6.89c-3.16-3.31-6.92-5.43-11.58-4.67-.77.12-.58,1.45.18,1.35,9.54-1.22,14.37,10.44,20.31,16.58-5.27-3-10.64-5.8-16.7-7a1.131,1.131,0,0,0-.6,2.18c7.58,2.41,14.51,7.34,21.12,11.65a84.53,84.53,0,0,1,16.94,14.4c18.46,20.48,24.4,49.42,17.4,75.86-3.63,13.75-10.44,25-22.77,32.53a54.54,54.54,0,0,1-17.35,6.79c-6,1.24-11.91.88-18,.86-4.55,0-5.51,6.83-1.08,7.93a36.422,36.422,0,0,0,4.29.8c-.69,1.78-1.66,4.37-.6,6a1.18,1.18,0,0,0,1.54.4c1.7-.8,2.36-3.52,3.12-5.13l.24-.47c1.87,2.84,4.16,6.06,4.43,9.08.22,2.45-1.75,2.55-3.87,2.95a35.557,35.557,0,0,1-6.09.48c-2,0-4.48.28-6.24-.89-2-1.34-2.46-3.75-3.31-5.89-1.21-3-2.48-7.12-4.68-9.79a9.27,9.27,0,0,0,2.74-.32,2.58,2.58,0,0,0,1.13-4.27c-3-3-8.39-3.45-12.34-4.7A84.631,84.631,0,0,1,126,201.18c-6.06-3.05-11.82-7.31-18.37-9.12a17.911,17.911,0,0,0,2.16-3.86,1.18,1.18,0,0,0,.08-.68c5.65-1.4,8.83-7.62,8.75-13.33-.1-7.49-5-13.72-10.42-18.41-2.84-2.47-14.83-9.5-8.88-13.61,4.35-3,10.36,0,14.24-4.53s.7-12.93-2.2-17.35c-2-3-4.58-4.5-3.17-8.39a24.39,24.39,0,0,1,5.29-8.19c4.56-4.87,10.66-9.88,17-12,1.13-.37,2.25-.67,3.37-.93-.29.35-.58.7-.85,1a28,28,0,0,0-3.07,5,19.879,19.879,0,0,0-1.09,2.56c-.36,1.14-.23,2.31-.59,3.44-.94,3,3.14,4.25,4.72,2,.71-1,2.48-2.09,3.46-3a25.058,25.058,0,0,1,3.31-2.39c2.77-1.73,5.95-2.8,8.68-4.55a6,6,0,0,0,.78-9.66c8.28-6.33,13-16.73,11.09-27.12-.27-1.45-2.56-1.08-2.53.34a25.12,25.12,0,0,1-7.07,18.17c-5.06,5.17-11.14,6.23-18,7.13-11.62,1.53-24,10.94-29.8,21-2.9,5-4.77,11.12-.92,16.13,2.19,2.86,4.27,5.38,5.15,9,.22.9.78,2.33.13,2.89s-2.11.33-2.83.38c-5.23.37-10.48,1.71-13.33,6.61-3,5.22-.46,10.77,3.52,14.57,4.77,4.55,10.87,7.87,14.36,13.64l.36.61a1.87,1.87,0,0,1,.68.71c3.35,6.07,2.88,14.81-3.7,17.9a3,3,0,0,0,.67.39c-2.1,2.57-6.34,3-9.35,3.54-4,.66-7.91,1.37-11.93.55-7.1-1.45-11-6.65-10.51-13.83a1.11,1.11,0,0,0,0-.19l.33-.12c.72-.31.42-1.18-.14-1.45,1-6,5-10.9,11.16-12.24a15.24,15.24,0,0,1,9.56,1.41c2.77,1.26,4.66,3.75,7.35,5a1.74,1.74,0,0,0,2.59-1.49c.21-4.28-4.36-8.27-7.79-10.18a20,20,0,0,0-14.16-1.67,21,21,0,0,0-2.68.86c-5.46-4.31-11.32-8.94-13.8-15.64-2.2-5.95-1.08-14.28,5.29-17.14,5.78-2.6,12.45.13,18.34-2.34,3.73-1.57,6.82-4.82,6-9.13-.57-3.07-2.75-5.84-4.32-8.45l-5.73-9.53c-1.22-2-3.73-5-3.72-7.49,0-2.16,1.76-4.09,3.25-5.48a22.48,22.48,0,0,1,9-4.93c13.47-4.06,27.78,1.73,41.32-2.18,9.55-2.74,18.17-12.17,14.95-22.61a.67.67,0,0,0-1.29.35c2.71,9.17-4.31,16.95-12.57,19.67-8,2.63-16.39,1.65-24.61,1.17-6.71-.39-13.6-.46-20,1.86-4.57,1.65-10.24,4.92-12,9.8-.88,2.49-.08,4.71,1.17,6.91,1.92,3.4,4.06,6.69,6.1,10s4.92,6.92,6,10.75c1.24,4.54-3,7.18-7,8-5.9,1.16-12.26-1.13-17.64,2.46-3.55,2.36-5.44,6.47-6,10.6C63,145.11,71,153,78.83,159.08A22,22,0,0,0,68.73,173c-.86-.77-1.7-1.62-2.6-2.49-2.11-2.06-7.7-5.58-7.73-8.84a.67.67,0,0,0-1.34,0c-.18,3.65,4,7.3,7,10a43.52,43.52,0,0,1-7.9-6.31A45,45,0,0,1,47.44,150a128.23,128.23,0,0,1-6.89-34.17C40.52,113.11,40.24,110.33,40.48,107.6ZM25.39,55.89A13.18,13.18,0,0,0,28.27,59a23.22,23.22,0,0,0,17.5,4.79h0a57.522,57.522,0,0,0-4.66,7.11,4.65,4.65,0,0,0-1.78-.54C31.66,69.58,27.27,63.28,25.39,55.89Zm-.15-9.35c0-2.69.64-5.59.12-8.25.14-.54.3-1.07.47-1.58a25,25,0,0,1,12-13.89,102.142,102.142,0,0,1,10.35-4.51h.07c3.13,1.13,6.43,3.55,8.66,4.76s4.46,2.52,5.3,5.16a29.74,29.74,0,0,1,1,6.64A67.23,67.23,0,0,1,62.9,48.1a.55.55,0,0,0,.13.42c-1.25.74-2.46,1.56-3.64,2.41A64.75,64.75,0,0,0,47.21,62a21.85,21.85,0,0,1-17.89-4.53C25.9,54.68,25.18,50.74,25.24,46.54Z" fill="#051b21"/>
    <path id="Caminho_8282" data-name="Caminho 8282" d="M44.27,122.42a27.19,27.19,0,0,1,6.48-13.85c3.66-4,8-5.14,12.88-6.94C73.39,98,66.86,88.28,64.4,82a13.7,13.7,0,0,1,1.94-14.33c3.46-4.33,9-6.46,14.38-7.66,6.69-1.49,13.84-2.6,20.69-1.74,8.48,1.07,16.32,5,25,4.6,8.88-.36,17.27-5,19.65-14,.2-.74,1.28-.42,1.14.32-2.2,11.65-14.6,16.53-25.3,15.6-6.57-.57-12.68-3.12-19.14-4.25-7.77-1.36-16.23-.12-23.78,2-7,1.93-15.14,7.2-13.59,15.63,1,5.73,5.51,10.22,5.65,16.24.11,4.69-2.57,7.78-6.84,9.32-2.76,1-5.6,1.54-8.08,3.2a19.84,19.84,0,0,0-6.27,7.1c-8,14.61.36,29.91,6.72,43.3.59,1.24-1.16,2.31-1.88,1.09C48.41,147.83,42.16,135.06,44.27,122.42Z" fill="#051b21"/>
    <path id="Caminho_8283" data-name="Caminho 8283" d="M36,25.25c2.83,5,3.4,11,6.45,16s7.9,9.04,13.89,9.75c1.08.13,1.13,1.83,0,1.74-5.77-.46-10.56-3.57-14.06-8.09C38.45,39.73,35,31.83,35,25.52a.54.54,0,0,1,1-.27Z" fill="#051b21"/>
    <path id="Caminho_8284" data-name="Caminho 8284" d="M171.2,335.46c.51-.36,1.12.44.67.87a1.55,1.55,0,0,0-.52,1.31c.06.52.53.81.43,1.35a.51.51,0,0,1-.49.37c-.84.11-1.16-1.24-1.15-1.86a2.43,2.43,0,0,1,1.06-2.04Z" fill="#051b21"/>
    <path id="Caminho_8285" data-name="Caminho 8285" d="M121.52,310.86c5-1.44,11.3-1.42,16.82-1.37q.87,2.11,1.84,4.22a66.944,66.944,0,0,1-8.84-.24c-1.76-.08-3.55-.1-5.3-.32a31.138,31.138,0,0,1-4.52-.47C120.57,312.51,120.68,311.1,121.52,310.86Z" fill="#051b21"/>
    <path id="Caminho_8286" data-name="Caminho 8286" d="M109.36,305.76c1.29,4.41,4.65,9,9.7,6.54a1.06,1.06,0,0,0,.27-.18.69.69,0,0,0,.68-.5,29.75,29.75,0,0,0,.7-12.76,1.3,1.3,0,0,0,.37-.37l.34-.51c.32,1.11.71,2.2,1.11,3.3s2.34,1.06,2.23-.3q-.06-.62-.18-1.23c2-.64,3.83-2.13,5.64-3.12,1.05-.56,2.11-1.09,3.18-1.61-.31-.9-.63-1.81-.94-2.72-1.23.61-2.44,1.26-3.63,2a24.169,24.169,0,0,0-4.86,3.26h0a7.52,7.52,0,0,0-1.08-2.29,8.92,8.92,0,0,0,.65-3.75,1.29,1.29,0,0,0-2.1-.89,4.87,4.87,0,0,0,0-.54,3.3,3.3,0,0,0-1.17-2.06,5.06,5.06,0,0,0-5.07-.77,2,2,0,0,0-.25.14,3.57,3.57,0,0,0-4.83.5c-1.77,1.69-1.86,4.55-2,6.82a34,34,0,0,0,1.24,11.04ZM119,292.67a14.78,14.78,0,0,0-2-3.39,2.49,2.49,0,0,1,2,.52,2.22,2.22,0,0,1,.51,1.6c.06.56.17,1.1.27,1.65a.59.59,0,0,0,.27.4c-.16.24-.31.48-.46.72C119.37,293.66,119.19,293.16,119,292.67ZM118,310a31,31,0,0,0-2.85-18.86.41.41,0,0,0-.74.32c.36,1.42.69,2.81,1,4.19a9.23,9.23,0,0,0-2.61-.3,4,4,0,0,0-2.05.38,13.705,13.705,0,0,1,.08-1.81,12.9,12.9,0,0,1,.39-2.9c2.12-1.61,3.57-1.43,4.38.54,3.49,5.52,3,12.08,3,18.31a1,1,0,0,0-.48.09Zm-7.26-13.28a5,5,0,0,0,2.06-.13,13.342,13.342,0,0,1,2.68,0,.33.33,0,0,0,.14,0c.21,1,.39,2,.57,2.93a15.937,15.937,0,0,1-2.18.12c-.67,0-1.39-.21-2,.22a.54.54,0,0,0-.1.83c.56.61,1.45.47,2.23.41a13.762,13.762,0,0,0,2.21-.36c.08.45.14.9.2,1.35A19.1,19.1,0,0,0,114,302a2.86,2.86,0,0,0-2.05.43.61.61,0,0,0,.13.95,3.3,3.3,0,0,0,2.09.16c.81,0,1.62-.05,2.44-.08h.08a67.7,67.7,0,0,1,.5,6.81c-4.88,1.08-6.1-7.55-6.39-10.87-.04-.87-.09-1.75-.1-2.64Z" fill="#051b21"/>
    <path id="Caminho_8287" data-name="Caminho 8287" d="M163.24,322.63a1.93,1.93,0,0,0,1.74.85,2,2,0,0,0,1.09.45l.88.09c-1,1.66-.45,4.26-.46,6.21,0,3.58-.46,7.61.43,11.12a1.21,1.21,0,0,0,.77,1.72c5.46,1.14,11.35,1,16.9.81a1.07,1.07,0,0,0,.69-.25,8,8,0,0,0,3.35.36c1.58.06,3.38.34,4.9-.16a.82.82,0,0,0,.51-.56c1.11-.23,1.39-2,.9-2.84-.79-1.4-2.33-1.38-3.73-1.5a.58.58,0,0,0-.37.09,3.29,3.29,0,0,0-2.69-1.17,2.81,2.81,0,0,0-.83-1.32,2.77,2.77,0,0,0-2-.51,1.3,1.3,0,0,0-1.74-.7,11.278,11.278,0,0,0-1.1.55c1-2.3,1.23-4.93,2-7.35a16.54,16.54,0,0,1-3.17,1.3,26.149,26.149,0,0,0-1,7.15.81.81,0,0,0,.17.47l-.22.2c-.45.48-.81,1-1.21,1.51a10.23,10.23,0,0,1-1.51,1.28,1,1,0,0,0-.37.92c-2.77-.2-5.53-.48-8.32-.66,1.23-5.27-.23-11.1.71-16.42h0l.72.06a12,12,0,0,1-.46-4.12l-.43.27A18,18,0,0,1,163.24,322.63Zm28.13,19.21a3,3,0,0,0,.08-1.51,5.34,5.34,0,0,1,1.63.67c.51.37.27.54,0,.89a1.279,1.279,0,0,0-.15.25,8.52,8.52,0,0,0-1.56-.3Zm-3-.25a6.21,6.21,0,0,0,.08-2,1.8,1.8,0,0,1,1.09,1.25,1.74,1.74,0,0,1-.29.89h-.28Zm-7.07,0c.42-.49.79-1,1.2-1.51s.89-1.08,1.36-1.6a3.45,3.45,0,0,1,1.77-.25c.28.08.21,0,.33.31a3.21,3.21,0,0,1,.15.82,8.173,8.173,0,0,1,.06,1.11,4.677,4.677,0,0,1,0,.53.26.26,0,0,0,0,.16,1.569,1.569,0,0,0-.18.31,2.6,2.6,0,0,0-.86.26,1.17,1.17,0,0,0-.52-.11c-1.13.02-2.23,0-3.33-.03Z" fill="#051b21"/>
    <path id="Caminho_8288" data-name="Caminho 8288" d="M115.59,306.86a.47.47,0,1,1-.4.465.47.47,0,0,1,.4-.465Z" fill="#051b21"/>
    <path id="Caminho_8289" data-name="Caminho 8289" d="M115.14,308.8a.5.5,0,1,1-.5.5A.5.5,0,0,1,115.14,308.8Z" fill="#051b21"/>
    <path id="Caminho_8290" data-name="Caminho 8290" d="M147.82,210.92l-.81-.16a14.459,14.459,0,0,1-3,1c-2.32.5-4.67,1.12-7,1.6q2.5.72,5,1.29h-.13a61.6,61.6,0,0,1-8.41,2.52,153.77,153.77,0,0,1-17.52,2c-6.19.53-12.37,1-18.55,1.62-4.66.44-9.86.45-14.62,1.42-1.88,0-3.77.3-5.65.41h-.91v-.05a24.344,24.344,0,0,1-2.7.07H73.3a18.61,18.61,0,0,0-2.81.17c-3.56.57-4.42,3.32-3.64,6.6.82,3.48,2.9,5,6.44,5.1a12,12,0,0,0,1.77,0v.07h.63a2.53,2.53,0,0,1,1,.23h0a2.09,2.09,0,0,1,.94.5,2,2,0,0,1,.47.52l.09.06h0l.27.34a1.221,1.221,0,0,1,.17.15l.43.55.14.28a1.561,1.561,0,0,1,.06.15h0c7.65,8,20.65,10.53,31.08,11.95,9.36,1.28,20.11,2.74,29.4-.23a6,6,0,0,1,.77-.34,9.775,9.775,0,0,1,1.41-.38,7.489,7.489,0,0,1,1-.46l.36-.14h0l.91-.46.13.15a4.9,4.9,0,0,1,2.08-.13c.2-.57.39-1.14.55-1.72a1.93,1.93,0,0,0,.61-1.91,16.24,16.24,0,0,1-1.55-3.23v1.6a2.22,2.22,0,0,0-1.44.2,37.51,37.51,0,0,1-17.7,4.23,127.233,127.233,0,0,1-16.76-1.47,91,91,0,0,1-15-3.3c-5.34-1.72-10-4.4-15-7a1.31,1.31,0,0,0-2.29,0l-.15.26-.1-.84a5.75,5.75,0,0,0,3.69-2.38l.31-.19a1,1,0,0,0-1-1.72c-2.9,1.27-7.17,2.51-9.4-.66-.86-1.21-.94-2.81.8-3.26a9.779,9.779,0,0,1,2.29,0,27.069,27.069,0,0,0,4.76-.23c.11,0,.17-.1.25-.16l1-.1c5.11.63,10.62-.28,15.67-.64,5.94-.42,11.88-.9,17.83-1.37,5.25-.42,10.54-.73,15.77-1.44a64.553,64.553,0,0,0,8-1.52,14.908,14.908,0,0,0,1.67-.59.56.56,0,0,1,0,.08,35.249,35.249,0,0,1,5.26,10.44,4.3,4.3,0,0,1,.41-1.14c-1.83-3.32-3.55-6.49-4.09-10.52-.42-3.17,2.88-5.17,5.48-5.48a9.07,9.07,0,0,1,3.85.1h.16a14.312,14.312,0,0,1,.87-1.8Q149.56,211.25,147.82,210.92Z" fill="#051b21"/>
    <path id="Caminho_8291" data-name="Caminho 8291" d="M222.41,195.52c3.33-1,6.58-2.29,9.85-3.48,1.22-.45,2.47-.94,3.74-1.4,1.39.72,2.86,1.31,4.26,2l.2.09a72.574,72.574,0,0,1-6.62,3.06c-3.36,1.47-6.77,2.85-10.23,4.06A97.4,97.4,0,0,1,212.36,203c-2.56.56-5.89,1.55-8.59.9a49.624,49.624,0,0,1-4.73,3,12.889,12.889,0,0,0-1.49-2.61,40.88,40.88,0,0,0,11-10.61,36.284,36.284,0,0,0,2.66-3,15.65,15.65,0,0,0,5.24.22,41,41,0,0,1-3.27,4.39,46.315,46.315,0,0,1-3.2,3.37c.39-.06.76-.14,1.13-.22A114.233,114.233,0,0,0,222.41,195.52Z" fill="#051b21"/>
    <path id="Caminho_8292" data-name="Caminho 8292" d="M179.8,229.43a7.189,7.189,0,0,0,.15-.91q.21-.37.39-.75c1.46,2.23,3,4.42,4.58,6.6a2.12,2.12,0,0,1,.87-.28c19.44-1.69,38.41-9.52,51.46-23.76,1.37-2.33,2.9-4.6,4.25-6.91,1.53-2.62,2.69-5.52,4.22-8.13a45.075,45.075,0,0,0,4.21,1.69c-1.12,1.69-2,3.51-3,5.31a6.379,6.379,0,0,1-.34.86,19.128,19.128,0,0,1-1.64,2.46c-.1.14-.19.29-.29.42-1.42,1.94-2.89,3.94-4.45,5.82a.34.34,0,0,0,0,.1,58,58,0,0,1-15.43,14.64c-5.65,3.67-11.93,6-18.32,8.1-5.92,1.91-12.3,4.17-18.62,3.83,1.14,1.63,2.24,3.28,3.29,5-2.26-1.47-4.52-3.08-6.9-4.4-1.7-2.48-3.44-4.94-5.06-7.46C179.41,230.89,179.62,230.16,179.8,229.43Z" fill="#051b21"/>
    <path id="Caminho_8293" data-name="Caminho 8293" d="M236.39,188.78a4.61,4.61,0,0,0,.76,3.73,3.9,3.9,0,0,0,3.11,1.83c1,.14,1.8-1.2.75-1.79A4.53,4.53,0,0,1,239.7,191a4.09,4.09,0,0,1-.4-1.85,1.57,1.57,0,0,0-.75-1.21c-1.1-2.44-2.57-4.64-3.26-7.29-.36-1.36-.79-2.09.41-3s1.42-.21,2.35.72,2.06,2.2,3.12,3.26a1.6,1.6,0,0,0,1.83.39,1.17,1.17,0,0,0,.92-.52,23,23,0,0,1,3.39-4.36c1.19-1.24,2.91-3.49,4.59-4.12,3-1.14,0,3.36-.46,4.06a5.5,5.5,0,0,0-1.13,2.94,4.7,4.7,0,0,0-1.13-.21,1.34,1.34,0,0,0-.94,2.27c1.56,1.3,3.07,2.07,4.31,3.78a18.74,18.74,0,0,1,3.16,6,.87.87,0,0,0,1.62.11c1.85,1.65,5.75,2.26,7.25,4.46a19.071,19.071,0,0,1-3.62-.85,35.349,35.349,0,0,1-4.19-1.82,1.65,1.65,0,0,0-1.88.26c-1.6.3-3.08,1.17-4.8,1.1s-3.74-1.88-5.49-1.17a1.43,1.43,0,0,0-1,1.31c-.26,2.86,4.37,3.83,6.49,3.83,1.9,0,4.45-.59,5.84-2.11a24,24,0,0,0,7,2.33c1.7.23,4.45.43,5.12-1.63s-1.51-3.87-2.92-4.83c-.39-.26-.81-.5-1.24-.74,1-.17,2-.38,3-.58,1.67-.36,4.52-.73,4.21-3.09-.28-2.08-3.16-3.11-4.88-3.53a17.35,17.35,0,0,0-5-.45c.35-.24.7-.48,1.06-.7a11.531,11.531,0,0,0,2.89-2,3.35,3.35,0,0,0-.3-4.87c-1.73-1.27-4.52-.87-6.49-.52a9.941,9.941,0,0,0-2.62.83,9,9,0,0,0,1.1-3.12,4.09,4.09,0,0,0-3.88-4.75c-3.08-.12-5.49,2.75-7.4,4.8a18,18,0,0,0-3,3.79c-2.85-2.95-7.76-7.23-10.14-1.92-1.63,3.65,1.1,9.6,4.13,12.59Zm21.49.87a1.37,1.37,0,0,0-.35.15,9.11,9.11,0,0,0-.82-2.79,1.37,1.37,0,0,0,.9-.18h0a.828.828,0,0,0,.16.09c2.17.71,7.08-.07,9.43,1.44l-1.2.29c-.94.2-1.9.37-2.85.49A38.531,38.531,0,0,0,257.88,189.65ZM254.36,181a14.14,14.14,0,0,1,5.13-1.71c.3,0,2.16-.31,2.41,0,1,1.09-1.08,1.77-1.67,2.14a21.629,21.629,0,0,0-4.32,3.27,1.461,1.461,0,0,0-.28.42c-.2-.32-.41-.63-.62-.93a13.88,13.88,0,0,0-2.34-2.67,3.83,3.83,0,0,0,1.69-.52Z" fill="#051b21"/>
    <path id="Caminho_8294" data-name="Caminho 8294" d="M79,237H62.79V212.58h13.5l-4.45-39.76a6.45,6.45,0,0,0-7.14-5.7L6.59,173.63a6.44,6.44,0,0,0-5.7,7.13L9.7,259.41a6.45,6.45,0,0,0,7.13,5.7L66,259.61a1.121,1.121,0,0,0,.31-.1,1,1,0,0,0,.25-.2l13-15.34a.91.91,0,0,0,.14-.28.89.89,0,0,0,0-.33v-.14Z" fill="#fff"/>
    <path id="Caminho_8295" data-name="Caminho 8295" d="M62.79,212.58h4.33l-1.76-15.73-54.49,6.1,3.06,27.27,48.86-5.47Z" fill="#be1e2d"/>
    <path id="Caminho_8296" data-name="Caminho 8296" d="M76.46,237l.53,4.71H67a3.63,3.63,0,0,0-2.61,1.12,3.57,3.57,0,0,0-1,2.66l.67,11.75L16.5,262.57a3.91,3.91,0,0,1-4.32-3.45L3.42,180.48a3.91,3.91,0,0,1,3.45-4.32L65,169.65a3.92,3.92,0,0,1,4.32,3.45l4.42,39.48h3.42l-4.47-39.86a7.31,7.31,0,0,0-8.07-6.45L6.49,172.78a7.31,7.31,0,0,0-6.44,8.08l8.8,78.65A7.31,7.31,0,0,0,16.93,266l49.16-5.51a1.67,1.67,0,0,0,.61-.19,1.61,1.61,0,0,0,.5-.4l13-15.35a1.83,1.83,0,0,0,.29-.53,1.24,1.24,0,0,0,0-.16,1.8,1.8,0,0,0,0-.52v-.07l-.7-6.22Zm-9.11,17.41-.52-9.12.17-.18h8.22Z" fill="#051b21"/>
    <path id="Caminho_8297" data-name="Caminho 8297" d="M47.94,244.94l-1.33-11.88-7.79.87,1.33,11.88-6.59.74,11.66,9.31,9.31-11.66Z" fill="#be1e2d"/>
    <path id="Caminho_8298" data-name="Caminho 8298" d="M23.46,205.54a27.679,27.679,0,0,0-4.47.86l-.89.25,2.16,19.28,4.42-.5-.77-6.86c2.89-.2,5.3-1.26,6.61-3a6.29,6.29,0,0,0,1.15-4.68,5.83,5.83,0,0,0-2.39-4.25,8.3,8.3,0,0,0-5.82-1.1Zm3.8,6c.2,1.76-.82,2.78-3,3l-.79.06-.55-4.94c.28,0,.63-.11,1-.15,3.08-.36,3.27,1.4,3.34,1.98Z" fill="#fff"/>
    <path id="Caminho_8299" data-name="Caminho 8299" d="M37.74,203.94a34.4,34.4,0,0,0-4.92.93l-.91.25,2.14,19.09h1a39.679,39.679,0,0,0,4.25-.26c3.7-.42,6.53-1.73,8.17-3.78a10.39,10.39,0,0,0,2-7.89,9.16,9.16,0,0,0-3.6-6.75C43.86,204.07,41.21,203.55,37.74,203.94Zm7.18,8.94c.46,4.14-1.49,6.58-5.66,7.05-.46,0-.86.09-1.2.11l-1.33-11.9c.39-.09.91-.18,1.55-.26a6.34,6.34,0,0,1,4.77,1,5.62,5.62,0,0,1,1.87,4Z" fill="#fff"/>
    <path id="Caminho_8300" data-name="Caminho 8300" d="M58.81,209.52l-4.37.48-.41-3.64,7.16-.8-.45-4.06-11.58,1.29,2.2,19.65,4.42-.49-.89-7.91,4.37-.49Z" fill="#fff"/>
    <path id="Caminho_8301" data-name="Caminho 8301" d="M79.39,234.77a2,2,0,0,0-.09-.26h0a1.27,1.27,0,0,0-.2-.71,1.4,1.4,0,0,0-.42-.42,1,1,0,0,0-.34-.15h-.15l-.16-.06a.71.71,0,0,0-.38,0,.45.45,0,0,0-.25.07.67.67,0,0,0-.31.19,1.43,1.43,0,0,0-.25.43.74.74,0,0,0,0,.39.609.609,0,0,0,0,.11,1.33,1.33,0,0,0-.09.21,1.639,1.639,0,0,0,0,.32,1,1,0,0,0,0,.17.28.28,0,0,1,0,.09h0v.25a1,1,0,0,0,0,.25.49.49,0,0,0,0,.12,1.08,1.08,0,0,0,.27.46.72.72,0,0,0,.33.21.7.7,0,0,0,.4.09,1.1,1.1,0,0,0,.53-.14,1.47,1.47,0,0,0,.46-.47h0a.76.76,0,0,0,.32-.17.44.44,0,0,0,.16-.17.37.37,0,0,0,.12-.2.46.46,0,0,0,.06-.23.66.66,0,0,0-.01-.38Z" fill="#051b21"/>
  </g>
</svg>
