<svg xmlns="http://www.w3.org/2000/svg" width="276" height="81.588" viewBox="0 0 276 81.588">
  <g id="Camada_2" data-name="Camada 2" transform="translate(0 -0.05)">
    <g id="Camada_1" data-name="Camada 1" transform="translate(0 0.05)">
      <path id="Caminho_6551" data-name="Caminho 6551" d="M272.707,38.981a11.015,11.015,0,0,0,1.634-4.838c.679-7.169.56-12.741-.441-17.441C271.394,6.7,262.986.72,251.4.72h-.918c-7.243.643-13.255,2.5-17.845,5.223L225.57,3.676a11.015,11.015,0,0,0-7.077.1c-.11-.119-.22-.239-.34-.349a10.768,10.768,0,0,0-8.115-3.02l-12.08.514a10.951,10.951,0,0,0-5.425,1.753,26.4,26.4,0,0,0-3.791-1.111A36.021,36.021,0,0,0,169.712,3.4a24.3,24.3,0,0,0-9.785,6.426l-.083-.266a11.016,11.016,0,0,0-8.812-7.72l-7.169-1.2a11.015,11.015,0,0,0-10.9,4.755C128.376,2.492,121.547.8,112.551.4H98.221A11.015,11.015,0,0,0,87.206,11.8l.422,12.934A10.905,10.905,0,0,0,83.2,20.989,11.015,11.015,0,0,0,77.338,5.512L64.964.83a11.015,11.015,0,0,0-13.889,5.6L49.157,10.45a22.536,22.536,0,0,0-11.2-8.491A36.911,36.911,0,0,0,23.913.123C17.753.39,9.069,1.656,4.783,9.064A35.617,35.617,0,0,0,.138,27.423,45.044,45.044,0,0,0,4.59,44.855,26.869,26.869,0,0,0,0,59.267v9.409A11.015,11.015,0,0,0,11.015,79.692l31.348.064h0a11.016,11.016,0,0,0,10.97-9.473l.652-4.507h2.286v4.672A11.015,11.015,0,0,0,67.286,81.464a11.5,11.5,0,0,0,1.68-.129L80.7,79.5a11.015,11.015,0,0,0,8.831-7.674,11.016,11.016,0,0,0,8.739,7.821l10.244,1.707a10.3,10.3,0,0,0,1.836.156,11.015,11.015,0,0,0,7.151-2.561,11.244,11.244,0,0,0,1.836-2.093,11.016,11.016,0,0,0,1.955.615l10.511,2.1a11.015,11.015,0,0,0,11.933-5.636,11.016,11.016,0,0,0,10.483,7.7,11.255,11.255,0,0,0,2.469-.275l11.41-2.616a10.632,10.632,0,0,0,1.184-.413,24.151,24.151,0,0,0,3.672,1.267,23.527,23.527,0,0,0,7.344,1.065,41.211,41.211,0,0,0,5.4-.386,21.93,21.93,0,0,0,7.775-2.846,11.062,11.062,0,0,0,5.875,2.534l9.923,1.065c.386,0,.78.064,1.175.064a11.015,11.015,0,0,0,6.784-2.341,11.015,11.015,0,0,0,6.839.487l8-1.992c4.305,2.754,9.9,3.452,15,3.672A44.806,44.806,0,0,0,259.91,79.4a18.066,18.066,0,0,0,12.062-10.1c4.59-10.5,5.278-19.819,1.955-27.7A26.557,26.557,0,0,0,272.707,38.981Z" transform="translate(0 -0.05)" fill="#071c21"/>
      <path id="Caminho_6552" data-name="Caminho 6552" d="M25.691,57.3l19.653-1L43.407,69.687,12.05,69.623V60.214q.266-10.887,16.808-19.754,5.563-2.423,5.076-11.144a3.3,3.3,0,0,0-2-2.625c-.67-.514-2.295-.78-4.884-.78q-3.525,0-4.425,1.974-2.111,4.4,1.707,11.7L16.071,42.1a34.945,34.945,0,0,1-3.91-14.026,24.785,24.785,0,0,1,3.3-12.732q1.652-2.836,10.1-3.3a30.9,30.9,0,0,1,9.822,1.258,11.263,11.263,0,0,1,7.408,7.435q5.811,22.4-11.8,31.835Q23.332,57.4,25.691,57.3Z" transform="translate(-0.989 -1.033)" fill="#ed7f82"/>
      <path id="Caminho_6553" data-name="Caminho 6553" d="M71.413,71.439V55.733H51.31L50.08,43.643,65.144,12.13l12.4,4.718L63.528,43h7.885V30.425L82.7,32l.45,37.636Z" transform="translate(-4.109 -1.041)" fill="#ed7f82"/>
      <path id="Caminho_6554" data-name="Caminho 6554" d="M130.408,46.965l-11.272,4.011V71.53l-10.244-1.717L107,12.45h14.348q16.367.771,16.863,6.931.33,14.752-1.974,21.333A7.964,7.964,0,0,1,130.408,46.965ZM119.2,23.97V41.21l5.425-1.744q3.332-.872,3.91-8.785.551-4.241-1.68-5.2Q124.441,24.108,119.2,23.97Z" transform="translate(-8.779 -1.067)" fill="#fff"/>
      <path id="Caminho_6555" data-name="Caminho 6555" d="M165.257,71.641,162.962,60.7H147.668l-2.607,9.06-10.5-2.1L153.176,12.58l7.178,1.166,16.386,55.3Zm-14.293-21.59,9.308-.367L156.3,33.335Z" transform="translate(-11.04 -1.078)" fill="#fff"/>
      <path id="Caminho_6556" data-name="Caminho 6556" d="M211.111,60.5q-6.426,9.024-12.383,9.96c-3.424.45-6.068.321-7.949-.395q-7.821-1.707-9.758-10.758-3.351-20.59-1.671-33.643a12.736,12.736,0,0,1,8.812-10.814,25.005,25.005,0,0,1,13.219-1.4q8.069,1.744,8.262,9.859.092,3.718-.064,8.262l-9.565,1.092c-.092-1.294-.22-2.57-.386-3.846q-.523-3.121-3.268-3.3a6.306,6.306,0,0,0-4.232.744q-2.1.918-2.653,5.2-.918,9.473,1.193,24.335.973,4.388,5.627,3.231,3-.744,8.05-6.618Z" transform="translate(-14.668 -1.122)" fill="#fff"/>
      <path id="Caminho_6557" data-name="Caminho 6557" d="M239.21,69.555l-10.9-17.221h-.064V71.079l-9.923-1.074L216.16,12.954l12.089-.514v20.6L239.88,15.221l9.014,2.91L235.813,41.888,249.454,67Z" transform="translate(-17.734 -1.067)" fill="#fff"/>
      <path id="Caminho_6558" data-name="Caminho 6558" d="M272.445,36.684q19.938,7.463,10.373,29.219a7.1,7.1,0,0,1-4.975,3.938,35.021,35.021,0,0,1-9.831,1.1q-8.4-.386-10.1-2.846a19.1,19.1,0,0,1-3.3-11.015,22.746,22.746,0,0,1,2.231-9.547l9.014,1.129c-1.909,3.194-2.176,6.059-.771,8.6.606,1.138,2.075,1.7,4.425,1.68q3.883,0,4.884-.652a2.91,2.91,0,0,0,2-2.295q.918-5.93-5.067-8.142-16.523-7.582-16.845-17.028-.083-11.282,2.855-13.255,5.3-3.938,14.935-4.783,9.886,0,11.8,7.628,1,4.746.165,13.769l-8.408.386c-.064-1.836-.184-3.452-.349-4.746-.395-2.974-1.919-4.663-4.59-5.076q-5.306.073-6.27,4.434Q263.651,32.517,272.445,36.684Z" transform="translate(-20.879 -1.095)" fill="#fff"/>
    </g>
  </g>
</svg>
