<svg id="Camada_2" data-name="Camada 2" xmlns="http://www.w3.org/2000/svg" width="195.228" height="50.13" viewBox="0 0 195.228 50.13">
  <g id="personagem" transform="translate(0 0)">
    <path id="Caminho_9554" data-name="Caminho 9554" d="M71.862.878l-.22-.053C68.153,0,63.6.3,57.727,1.757a9.529,9.529,0,0,0-2.567.967,4.4,4.4,0,0,0-3.015-.967l-8.791.483a4.448,4.448,0,0,0-3.789,2.567l-.888-2.171A4.448,4.448,0,0,0,33.747.078l-7.235,1.4a4.439,4.439,0,0,0-2.154,1.081A30.613,30.613,0,0,0,14.478.8H4.448A4.448,4.448,0,0,0,0,5.388l1.31,39.259a4.448,4.448,0,0,0,3.71,4.237l7.032,1.169a5.274,5.274,0,0,0,.738.062,4.448,4.448,0,0,0,4.413-4.4V34.739L21.835,33.1a9.81,9.81,0,0,0,2.11-.879l.448,11.551a4.448,4.448,0,0,0,4.738,4.263l6.347-.422A4.4,4.4,0,0,0,39.5,44.216l1.354,3.121a4.448,4.448,0,0,0,4.079,2.637H51.09A4.448,4.448,0,0,0,55.53,45.71V45.6a13.019,13.019,0,0,0,5.907,3.569,14.8,14.8,0,0,0,5.4.879,21.615,21.615,0,0,0,2.637-.114c6.628-.554,10.689-4.949,11.164-12.069a.879.879,0,0,1,0-.149l.51-15.278a4.6,4.6,0,0,0-.29-1.758,4.492,4.492,0,0,0,.571-2.075c.062-2.189.053-4.237,0-6.065C81.154,6.759,77.778,2.636,71.862.878Z" transform="translate(0.003 0.007)" fill="#fefefd"/>
    <path id="Caminho_9555" data-name="Caminho 9555" d="M126.3,35.837a4.448,4.448,0,0,0-3.516-4.035,4.273,4.273,0,0,0,.141-1.116V23.653a4.448,4.448,0,0,0-1.811-3.587h.659a4.448,4.448,0,0,0,4.448-4.571l-.2-7.032a4.448,4.448,0,0,0-4.132-4.316L103.05,2.828a4.4,4.4,0,0,0-4.729,4.281L97.239,43.775a4.4,4.4,0,0,0,4.439,4.58h.185l20.675-.879a4.448,4.448,0,0,0,4.255-4.756Z" transform="translate(-11.758 -0.334)" fill="#fefefd"/>
    <path id="Caminho_9556" data-name="Caminho 9556" d="M210.463,27.213A14.759,14.759,0,0,0,208.52,23.9a4.448,4.448,0,0,0,1.96-3.288A37.183,37.183,0,0,0,210.3,9.887a.931.931,0,0,1,0-.167c-.809-3.2-3.516-8.58-12.386-8.58a2.786,2.786,0,0,0-.387,0,25.677,25.677,0,0,0-11.331,3.376C182.421,1.4,175.855,1.088,173.182,1h-10.03a4.463,4.463,0,0,0-4.167,2.892l-17.414-1.3a4.4,4.4,0,0,0-4.721,4.3L135.77,43.555a4.448,4.448,0,0,0,4.439,4.58h.158l20.552-.879a4.439,4.439,0,0,0,2.813,1.758l7.032,1.169a5,5,0,0,0,.73.062,4.448,4.448,0,0,0,4.422-4.413V34.861l4.624-1.644a11.35,11.35,0,0,0,1.125-.4,23.951,23.951,0,0,0-.29,2.918,17.52,17.52,0,0,0,2.945,10.1l.062.1c2.11,3.138,6.646,3.736,10.364,3.9h.211a28.13,28.13,0,0,0,7.973-.932,9.151,9.151,0,0,0,6.232-5.2C211.957,37.323,212.4,31.767,210.463,27.213Z" transform="translate(-16.418 -0.115)" fill="#fefefd"/>
    <path id="Caminho_9557" data-name="Caminho 9557" d="M21.094,29.585l-7.718,2.787V46.436L6.343,45.267,5.06,6h9.819q11.226.51,11.542,4.7Q26.65,20.777,25.067,25.3a5.45,5.45,0,0,1-3.973,4.29ZM13.42,13.815V25.647l3.71-1.187c1.521-.4,2.409-2.4,2.681-6.013.246-1.934-.132-3.121-1.152-3.516a12.069,12.069,0,0,0-5.239-1.116Z" transform="translate(-0.61 -0.719)" fill="#ed8218"/>
    <path id="Caminho_9558" data-name="Caminho 9558" d="M38.355,5.06,47.9,26.984,47.4,7.293l8.755-.527-1.31,39.4H48.692l-9.415-21.73-.325,19.339-6.347.422L31.12,6.449Z" transform="translate(-3.762 -0.606)" fill="#ed8218"/>
    <path id="Caminho_9559" data-name="Caminho 9559" d="M72.545,22.928h11.63l-.51,15.278q-.492,7.384-7.094,7.911c-2.831.229-4.888.053-6.153-.5q-5.38-1.459-6.8-7.911A96.266,96.266,0,0,1,62.41,11.21q.527-3.78,3.824-4.492,7.718-1.9,11.876-.905,6.1,1.758,6.32,7.542.123,2.637,0,5.775l-6.8.615c-.07-1-.176-1.978-.308-2.918-.29-1.89-1.064-2.9-2.294-3.033a6.848,6.848,0,0,0-4.272.114q-1.406.7-1.758,3.648a84.794,84.794,0,0,0,.932,17.915q.818,3.165,4.8,2.435,2.426-.378,2.479-3.34l.176-4.536-5.134.308Z" transform="translate(-7.493 -0.655)" fill="#ed8218"/>
    <path id="Caminho_9560" data-name="Caminho 9560" d="M122.253,9.179l.193,7.032H110.008v7.744l9.116.29v7.032l-9.116.571v4.263l12.474.615.483,6.918-20.675.879L103.371,7.86Z" transform="translate(-12.369 -0.944)" fill="#ed8218"/>
    <path id="Caminho_9561" data-name="Caminho 9561" d="M160.708,9.177l.193,7.032H148.5v7.744l9.116.29v7.032l-9.116.571v4.263l12.474.615.483,6.918-20.675.879L141.852,7.85Z" transform="translate(-17.025 -0.943)" fill="#ed8218"/>
    <path id="Caminho_9562" data-name="Caminho 9562" d="M182.954,29.585l-7.718,2.787V46.436L168.2,45.267,166.92,6h9.819q11.208.545,11.542,4.738.22,10.074-1.345,14.592A5.468,5.468,0,0,1,182.954,29.585Zm-7.674-15.77V25.647L179,24.46c1.512-.4,2.409-2.4,2.637-6.013q.387-2.9-1.152-3.516A12.069,12.069,0,0,0,175.28,13.815Z" transform="translate(-20.186 -0.719)" fill="#ed8218"/>
    <path id="Caminho_9563" data-name="Caminho 9563" d="M204.852,22.56q13.652,5.107,7.1,19.99a4.887,4.887,0,0,1-3.411,2.7,23.937,23.937,0,0,1-6.716.747q-5.749-.264-6.883-1.943a13.063,13.063,0,0,1-2.25-7.533,15.674,15.674,0,0,1,1.521-6.531l6.153.774q-1.969,3.27-.527,5.881c.413.782,1.424,1.169,3.024,1.152a7.674,7.674,0,0,0,3.34-.44,2,2,0,0,0,1.371-1.574q.651-4.079-3.472-5.573-11.313-5.2-11.516-11.656-.1-7.709,1.916-9.063,3.631-2.7,10.223-3.279,6.769,0,8.07,5.222a33.659,33.659,0,0,1,.114,9.4l-5.758.273c-.044-1.283-.123-2.373-.237-3.253a3.563,3.563,0,0,0-3.138-3.472c-2.426,0-3.85,1.037-4.3,3.024Q198.839,19.712,204.852,22.56Z" transform="translate(-23.29 -0.745)" fill="#ed8218"/>
  </g>
</svg>
