<svg xmlns="http://www.w3.org/2000/svg" width="621.173" height="94.283" viewBox="0 0 621.173 94.283">
  <g id="Camada_1" data-name="Camada 1" transform="translate(0 0)">
    <path id="Caminho_9799" data-name="Caminho 9799" d="M80.051,42.968a1.676,1.676,0,0,0-2.524-.552L54.839,60.259,49.3,55.171c-.289.182,2.82,4.159,2.558,4.375-.787.962-.929,1.844-1.8,2.739-.262.357-.861.532-.774,1.084A.727.727,0,0,0,49,63.314a.673.673,0,0,0-.485,1.137h0l2.019,2.019a3.1,3.1,0,0,0,4.24.162l24.9-21.645a1.676,1.676,0,0,0,.37-2.019Z" transform="translate(-15.812 -13.748)" fill="#081c21"/>
    <path id="Caminho_9800" data-name="Caminho 9800" d="M31.714,41.658c-3.237,2.335-1.911,6.831-.72,10.257a10.556,10.556,0,0,0,1,.357,10.555,10.555,0,0,1-1-.357c.054.155.1.3.155.451-.054-.148-.1-.3-.155-.451-1.292-.5-2.6-1.124-3.789-.673-2.255.673-3.547,3.042-3.675,5.478l1.6,1.609A10.358,10.358,0,0,1,28.383,59a18.326,18.326,0,0,0,2.6.8,9.607,9.607,0,0,0,1.164,0,9.245,9.245,0,0,0,.942-.249q.3-.155.606-.323l4.442-4.442a16.423,16.423,0,0,0,1.346-2.14c.276-.983.357-2.019.673-2.988.2-.626.437-1.238.612-1.864a5.546,5.546,0,0,1-.754-2.591,4.395,4.395,0,0,1,.067-.888l-3.365-3.365A5.822,5.822,0,0,0,31.714,41.658Z" transform="translate(-7.702 -13.305)" fill="#cb806a"/>
    <path id="Caminho_9801" data-name="Caminho 9801" d="M9.75,43.65l9.422,9.422c.128-2.436,1.42-4.826,3.668-5.478,1.2-.451,2.5.168,3.8.673-1.238-3.459-2.551-7.955.693-10.3a5.814,5.814,0,0,1,5.041-.673L24.294,29.22A27.863,27.863,0,0,0,9.75,43.65Z" transform="translate(-3.196 -9.549)" fill="#e6ad6f"/>
    <path id="Caminho_9802" data-name="Caminho 9802" d="M9.413,34.27c2.955-3.729,6.057-7.457,10.156-9.752a3.931,3.931,0,0,1-1.413-.552,41.094,41.094,0,0,0-3.567-2.335,4.57,4.57,0,0,1-2.457.572L2.38,31.974A7.814,7.814,0,0,1,3,35.42a6.111,6.111,0,0,1-.2,1.211l3.231,3.217A5.862,5.862,0,0,1,6.7,38.691C7.63,37.184,8.383,35.683,9.413,34.27Z" transform="translate(-0.786 -7.068)" fill="#b3b3b3"/>
    <path id="Caminho_9803" data-name="Caminho 9803" d="M33.924,41.658c-3.056,2.2-2.019,6.326-.929,9.665a5.385,5.385,0,0,1,.572.734,5.647,5.647,0,0,0,.673.215c-.215-.061-.424-.135-.673-.215.3.458.572.942.855,1.427.222.034.444.074.673.128a6.629,6.629,0,0,0-.673-.128c.121.2.242.4.377.6l-.094-.094.094.094c-.135-.2-.256-.4-.377-.6a6.333,6.333,0,0,0-4.132.673A27.931,27.931,0,0,0,37.5,57.67L40.372,54.8a16.422,16.422,0,0,0,1.346-2.14c.276-.983.357-2.019.673-2.988.2-.626.437-1.238.612-1.864a5.546,5.546,0,0,1-.754-2.591,4.395,4.395,0,0,1,.067-.888l-3.365-3.365A5.843,5.843,0,0,0,33.924,41.658Z" transform="translate(-9.912 -13.306)" fill="#e8a793"/>
    <path id="Caminho_9804" data-name="Caminho 9804" d="M13.87,38.743c.236.357.471.707.713,1.057A26.639,26.639,0,0,1,22.1,32.659a28.94,28.94,0,0,0-6.32,8.81,41.533,41.533,0,0,0,6.663,7.067,4.307,4.307,0,0,1,1.716-.976c1.2-.451,2.5.168,3.8.673-.061-.162-.114-.323-.175-.491a4.294,4.294,0,0,0-.606-.606l.188.182-.188-.182a4.294,4.294,0,0,1,.606.606c-1.131-3.365-2.194-7.538.9-9.772a5.814,5.814,0,0,1,5.041-.673L25.641,29.22A27.843,27.843,0,0,0,13.87,38.743Z" transform="translate(-4.543 -9.549)" fill="#efbd89"/>
    <path id="Caminho_9805" data-name="Caminho 9805" d="M19.676,24.172a41.728,41.728,0,0,0-3.567-2.342,4.577,4.577,0,0,1-2.457.579L7.46,28.6c.633,1.346,1.346,2.692,2.053,3.991a25.252,25.252,0,0,1,8.359-5.647,21.537,21.537,0,0,1,3.217-2.221,4.159,4.159,0,0,1-1.413-.552Z" transform="translate(-2.447 -7.133)" fill="#d0d2d3"/>
    <path id="Caminho_9806" data-name="Caminho 9806" d="M20.365,24.172A41.728,41.728,0,0,0,16.8,21.83a4.577,4.577,0,0,1-2.457.579L9.57,27.181a12.115,12.115,0,0,1,4.173-.673,11.166,11.166,0,0,1,3.931.821c.289-.135.586-.269.888-.39a21.537,21.537,0,0,1,3.217-2.221,4.159,4.159,0,0,1-1.413-.545Z" transform="translate(-3.137 -7.133)" fill="#fff"/>
    <path id="Caminho_9807" data-name="Caminho 9807" d="M11.2,36.169c-1.03,1.413-1.784,2.914-2.692,4.422a5.862,5.862,0,0,0-.673,1.158l1.46,1.508A27.85,27.85,0,0,1,23.855,28.839L21.466,26.45h-.114C17.232,28.711,14.15,32.44,11.2,36.169Z" transform="translate(-2.568 -8.644)" fill="#4e4f4f"/>
    <path id="Caminho_9808" data-name="Caminho 9808" d="M9.229,46c-.2.337-.39.673-.6,1.01a3.7,3.7,0,0,0-.289.431c0,.081,0,.168,0,.249a5.548,5.548,0,0,1-.04.821l.128.135C8.67,47.736,8.926,46.848,9.229,46Z" transform="translate(-2.722 -15.036)" fill="#818181"/>
    <path id="Caminho_9809" data-name="Caminho 9809" d="M25.036,26.4A25.171,25.171,0,0,0,19.1,31.179a2.389,2.389,0,0,1,2.887.323,1.6,1.6,0,0,1,.262.3,27.48,27.48,0,0,1,5.29-2.982l-2.389-2.389Z" transform="translate(-6.253 -8.627)" fill="#818181"/>
    <path id="Caminho_9810" data-name="Caminho 9810" d="M36.574,35.339,30.3,29.06l-2.3,2.3,6.279,6.279-.485.485.6.249a6.73,6.73,0,0,1,1.117.458c.047,0,1.952,1.487,1.979,1.514h0a9.14,9.14,0,0,1,2.4,4.186l.3,2.342a9.128,9.128,0,0,1-.216,1.973l.216.214a3.238,3.238,0,0,1-.316.417h0a1.716,1.716,0,0,0-.565-.061.909.909,0,0,0,0,1.81c-.175,0,.067.108.128.175.141.175.256.384.384.565.3.431.6.848.922,1.259.135.175.276.343.417.518a.774.774,0,0,0,.094.114c.491.579,1.016,1.131,1.555,1.662.808.808,2.261-.236,1.629-1.238a5.946,5.946,0,0,0-1.932-2.113c-.283-.316-.552-.673-.821-.976s-.4-.525-.619-.794a4.94,4.94,0,0,0,.72-1.656l.579-.579a3.365,3.365,0,0,1,.188-1.158,8.206,8.206,0,0,0,.33-1.164,14.86,14.86,0,0,0,0-2.322A14.685,14.685,0,0,0,42.3,41.2a18.172,18.172,0,0,0-1.635-2.739q-1.023-1.238-2.154-2.383a5.3,5.3,0,0,1-.673-.814l-.592-.592Z" transform="translate(-9.163 -9.497)" fill="#fff"/>
    <path id="Caminho_9811" data-name="Caminho 9811" d="M29.826,31.891c-.875-.754-1.8-1.454-2.692-2.16s-1.7-1.541-2.618-2.181l-3.695,3.668A14.807,14.807,0,0,1,23.183,29.6a2.241,2.241,0,0,1,2.107,0c.081-.04.162-.087.242-.121.31-.155.673.242.411.5a7,7,0,0,1,.727.612c1.454,1.407,2.82,2.975,4.193,4.462.673.761.034,2.335-1.1,1.911s-2.362-1.01-3.459,0a8.029,8.029,0,0,0-1.864,3.3,5.283,5.283,0,0,0,.209,3.143,15.6,15.6,0,0,1,1.016,2.187,1.185,1.185,0,0,1-.814,1.393c-.673.269-1.144-.168-1.844-.209A5.014,5.014,0,0,0,21.8,46.9l.256.256L17.7,51.51,9.817,43.642l3.177-3.183a19.518,19.518,0,0,1,2.019-2.692,20.926,20.926,0,0,1,1.393-2.093L8.72,43.333,21.434,56.039h0a24.532,24.532,0,0,1,3.056-.269L22.436,53.7l-.821.821-.377-.377a1.245,1.245,0,0,1-1.407-1.077,3.291,3.291,0,0,1-.034-.37l-1.285-1.292,2.019-2.019a3.264,3.264,0,0,1,1.124-1.124L22.921,47l.794.835a10.891,10.891,0,0,1,1.689.175,6.259,6.259,0,0,0,1.656.209,8.4,8.4,0,0,0-.653-2.941,6.811,6.811,0,0,1-.727-1.945,1.1,1.1,0,0,1-.3-.545c-.565-2.443.909-5.142,3.533-5.337a8.446,8.446,0,0,1,3.769.841A4.186,4.186,0,0,1,34.786,41.1a9.2,9.2,0,0,1,.5,4.368c-.155,1.1-.262,2.45-1.393,3.022-.606.31-1.178.061-1.777.222-.969.269-.707,1.2-.848,1.965a1.757,1.757,0,0,1-.673,1.225c-.074.054-1.245.559-1.245.437a1.137,1.137,0,0,1-.861,1.084h-.168a1.474,1.474,0,0,1-.3,0l-2.234,2.228c.337,0,.673-.04,1.016-.074a7.948,7.948,0,0,0,3.029-.808,7.027,7.027,0,0,1,1.71-.9h.067l2.322-2.322-.087-.148a.673.673,0,1,1,.915-.909l.081.081.545-.552c.283-1.871,1.144-3.621,1.111-5.539a17.593,17.593,0,0,0-6.676-12.6ZM33.7,49.457a.645.645,0,1,1-.936.888l-.054-.054a.645.645,0,1,1,.936-.888Z" transform="translate(-2.859 -9.003)" fill="#010101"/>
    <path id="Caminho_9812" data-name="Caminho 9812" d="M9.44,34.269c2.941-3.708,6-7.4,10.1-9.705a3.9,3.9,0,0,1-1.4-.545c-1.185-.774-2.3-1.669-3.547-2.329a4.55,4.55,0,0,1-2.45.572l-9.7,9.732a7.854,7.854,0,0,1,.619,3.365,6.057,6.057,0,0,1-.188,1.232l3.2,3.2a6.131,6.131,0,0,1,.673-1.151C7.663,37.163,8.41,35.669,9.44,34.269Z" transform="translate(-0.806 -7.087)" fill="#d76069"/>
    <path id="Caminho_9813" data-name="Caminho 9813" d="M19.645,24.222A40.63,40.63,0,0,0,16.1,21.9a4.583,4.583,0,0,1-2.443.572L7.49,28.63C8.123,29.976,8.8,31.322,9.509,32.6a25.01,25.01,0,0,1,8.319-5.62,20.932,20.932,0,0,1,3.2-2.208A4.072,4.072,0,0,1,19.645,24.222Z" transform="translate(-2.457 -7.156)" fill="#ee8083"/>
    <path id="Caminho_9814" data-name="Caminho 9814" d="M20.351,24.222A40.63,40.63,0,0,0,16.8,21.9a4.583,4.583,0,0,1-2.443.572L9.65,27.217a11.98,11.98,0,0,1,4.146-.673,11.051,11.051,0,0,1,3.877.808c.289-.135.586-.269.888-.39a20.931,20.931,0,0,1,3.2-2.208,4.072,4.072,0,0,1-1.407-.532Z" transform="translate(-3.164 -7.156)" fill="#fff"/>
    <path id="Caminho_9815" data-name="Caminho 9815" d="M9.081,31.717h0a.783.783,0,0,0,1.077,1.137h0a.787.787,0,0,0,0-1.1.8.8,0,0,0-1.077-.034Z" transform="translate(-2.897 -10.303)" fill="#d76069"/>
    <path id="Caminho_9816" data-name="Caminho 9816" d="M10.524,35.5l.061.067a.316.316,0,0,0,.444-.444l-.061-.067C10.679,34.773,10.235,35.218,10.524,35.5Z" transform="translate(-3.419 -11.428)" fill="#d76069"/>
    <path id="Caminho_9817" data-name="Caminho 9817" d="M13.447,33.044l-.034.034a.633.633,0,0,0,0,.882.673.673,0,0,0,.888,0h0a.628.628,0,0,0-.888-.888Z" transform="translate(-4.335 -10.748)" fill="#d76069"/>
    <path id="Caminho_9818" data-name="Caminho 9818" d="M5.994,22.36,3.14,25.214a10.768,10.768,0,0,0,0,15.177L13.317,50.567a12.788,12.788,0,0,0,15.157,2.16h0l1.938,1.938a3.547,3.547,0,1,0,5.014-5.014l-1.945-1.938a12.788,12.788,0,0,0-2.134-15.177L21.171,22.36a10.769,10.769,0,0,0-15.177,0Zm-.4,5.3L8.444,24.81a7.275,7.275,0,0,1,9.059-.976,36.4,36.4,0,0,0-5.485,4.529,34.271,34.271,0,0,0-6.73,9.268c-.707-.532-3.937-5.943.3-9.968ZM35.136,51.839a.673.673,0,0,1-.956.054L31.764,49.47h0l-.734-.734a.673.673,0,0,1,.909-.909L35.116,51A.673.673,0,0,1,35.136,51.839Zm-5.2-4.186L29.88,47.6a.636.636,0,1,1,.936-.861l.054.054a.637.637,0,1,1-.936.861Zm.962-2.517c-1.346-.734-2.463-.848-3.1-.323s-.673,1.656-.141,3.136c.034.087.067.182.108.269l-.04.061a1.925,1.925,0,0,0-1.7.242,1.864,1.864,0,0,0-.5,1.75,9.3,9.3,0,0,1-7.774-.673,3.8,3.8,0,0,1,.949-3.231c.882-.754,2.423-.787,4.334-.128a13.879,13.879,0,0,1,1.561.673l.256.121a.559.559,0,0,0,.734-.767c-.33-.606-.626-1.211-.888-1.8a20.143,20.143,0,0,1-.861-2.369c-.841-2.807-.673-4.96.431-5.9s3.264-.754,5.9.518l.135.074a9.321,9.321,0,0,1,.606,8.352ZM27.309,33.4a5.5,5.5,0,0,0-4.523,1.05c-1.864,1.582-2.268,4.523-1.144,8.292.087.289.182.586.283.882a5.538,5.538,0,0,0-4.711,1.023,5.115,5.115,0,0,0-1.676,3.231L8.753,41.1a32.305,32.305,0,0,1,6.057-8.272,33.47,33.47,0,0,1,6.73-5.216Zm-7.457-7.457a36.209,36.209,0,0,0-6.643,5.243A35.051,35.051,0,0,0,7.057,39.4l-.034-.034a31.471,31.471,0,0,1,6.6-9.422,34.028,34.028,0,0,1,5.667-4.59Z" transform="translate(-0.012 -6.284)" fill="#081c21"/>
    <path id="Caminho_9819" data-name="Caminho 9819" d="M47.674,73.21a.37.37,0,1,0,.32.367A.37.37,0,0,0,47.674,73.21Z" transform="translate(-15.492 -23.933)" fill="#081c21"/>
    <path id="Caminho_9820" data-name="Caminho 9820" d="M48.714,72.5a.37.37,0,1,0,.32.367A.37.37,0,0,0,48.714,72.5Z" transform="translate(-15.832 -23.701)" fill="#081c21"/>
    <path id="Caminho_9821" data-name="Caminho 9821" d="M655.783,40.427l-9.4-31.68a7.08,7.08,0,0,0-5.647-4.974L636.628,3.1A7.074,7.074,0,0,0,628.8,7.812l-.269.8a10.77,10.77,0,0,0-1.871-2.127c-4.038-3.5-10.573-4.55-21.921-3.506a7.067,7.067,0,0,0-4.953,2.733A7.107,7.107,0,0,0,595.97,3.76l-4.112-.673a7.06,7.06,0,0,0-6.555,2.45,14.061,14.061,0,0,0-1.716-.828,28.9,28.9,0,0,0-9.463-1.73h-8.561a7.053,7.053,0,0,0-5.081,2.154A6.945,6.945,0,0,0,558.906,7.7c-2.47-3.062-6.387-4.785-11.206-4.785h-.619a30.192,30.192,0,0,0-5.593,1,7.08,7.08,0,0,0-2.961-1.844L533.076.327a7.04,7.04,0,0,0-8.352,3.406l-.128-.04-.343-.087c-3.641-.875-8.231-.606-14.013.828a12.114,12.114,0,0,0-1.609.491,6.952,6.952,0,0,0-2.733-.4l-7.928.444a6.811,6.811,0,0,0-2.342.538,7.047,7.047,0,0,0-6.791-2.443L482.3,4.325a7.4,7.4,0,0,0-1.023.283,32.305,32.305,0,0,0-9.422-1.649h-9.221a7.06,7.06,0,0,0-6.73,5,7.027,7.027,0,0,0-4.523-2.086L434.3,4.669a7.06,7.06,0,0,0-7.127,4.617c-2.3-4.072-6.683-6.414-12.3-6.414h-.612a30.165,30.165,0,0,0-5.6,1,7.033,7.033,0,0,0-2.928-1.817L400.253.327a7.033,7.033,0,0,0-8.46,3.614,18.563,18.563,0,0,0-4.038-.431q-.306-.015-.612,0a27.9,27.9,0,0,0-9.712,2.47c-2.813-1.548-6.73-2.457-11.7-2.692H356.6a7.067,7.067,0,0,0-5.075,2.154l-.31.343-13.8-.969a7.06,7.06,0,0,0-5.236,1.81,6.779,6.779,0,0,0-1.158,1.346,7.08,7.08,0,0,0-4.94-2.537l-15.8-1.09a7.006,7.006,0,0,0-3.8.814A19.3,19.3,0,0,0,298.1,3.289h-.054l-8.13-.054a7.148,7.148,0,0,0-5.054,2.08A7.02,7.02,0,0,0,282.944,8.9c-2.389-3.675-6.6-5.781-11.926-5.781H270.4a23.612,23.612,0,0,0-12.054,4.038,8.4,8.4,0,0,0-.875.713,7.08,7.08,0,0,0-5.337-4.146l-4.112-.673A7.08,7.08,0,0,0,240.839,6.4c-.182-.222-.37-.444-.579-.673a7.06,7.06,0,0,0-5.337-2.019l-7.336.4a7.174,7.174,0,0,0-1.985.4,7.094,7.094,0,0,0-6.542-2.154L213,3.524A6.986,6.986,0,0,0,209.637,5.2L198.5,4.453a7.067,7.067,0,0,0-4.711-1.467l-18.764,1.05a7.087,7.087,0,0,0-2.443-.3l-7.336.4a7.175,7.175,0,0,0-2.019.4,7.087,7.087,0,0,0-6.515-2.147l-6.057,1.171a6.986,6.986,0,0,0-3.365,1.676l-12.714-.9a6.986,6.986,0,0,0-3.022.458,14.955,14.955,0,0,0-3.365-1.151h-.168a21.362,21.362,0,0,0-11.3,1.057,14.248,14.248,0,0,0-9.624,11.8v.135c-.734,5.721-.417,12.693.983,21.322a2,2,0,0,0,.061.35,15.042,15.042,0,0,0,5.66,9.2l-.579.121a7.074,7.074,0,0,0-5.431,8.749l8.339,31.74a7.074,7.074,0,0,0,6.831,5.27,7.868,7.868,0,0,0,.888-.054l6.057-.761a7.06,7.06,0,0,0,5.169-3.365,8.224,8.224,0,0,0,.861.612c3.3,2.181,7.827,3.446,13.811,3.863h.5a15.9,15.9,0,0,0,9.665-2.753,14.02,14.02,0,0,0,4.429,1.965,14.315,14.315,0,0,0,4.449.639,22.882,22.882,0,0,0,3.008-.209h.175a13.46,13.46,0,0,0,4.873-1.81,7.074,7.074,0,0,0,3.237.787h.5l15.783-1.11a7.067,7.067,0,0,0,6.569-6.851v-.377a13.891,13.891,0,0,0,9.772,8.9,14.3,14.3,0,0,0,4.442.639,22.783,22.783,0,0,0,3.008-.209h.175a13.151,13.151,0,0,0,4.247-1.454,7.094,7.094,0,0,0,3.453,1.259l5.9.5a7.053,7.053,0,0,0,4.206-.969,7.094,7.094,0,0,0,3.762,1.568,6.574,6.574,0,0,0,.727.04,7.026,7.026,0,0,0,3.412-.888,7.047,7.047,0,0,0,2.847.606,6.892,6.892,0,0,0,1.911-.262l5.277-1.481.121-.034,3.5.673a7.08,7.08,0,0,0,6.831-2.423,7.047,7.047,0,0,0,7.753,3.453l4.994-1.144a7.12,7.12,0,0,0,1.609.337l5.9.5a7.074,7.074,0,0,0,4.213-.969,7.046,7.046,0,0,0,3.756,1.568,6.577,6.577,0,0,0,.727.04,7.074,7.074,0,0,0,4.987-2.059l3.251-3.237a7.261,7.261,0,0,0,1.023,1.292,7.094,7.094,0,0,0,4.974,2.019h.283l17.331-.673a7.053,7.053,0,0,0,4.974-2.342,7.7,7.7,0,0,0,.552-.673,7.074,7.074,0,0,0,6.024,4.59l5.889.5a7.073,7.073,0,0,0,4.213-.969,7.047,7.047,0,0,0,3.756,1.568,6.575,6.575,0,0,0,.727.04,7.08,7.08,0,0,0,4.88-1.965h.229l17.324-.673a6.912,6.912,0,0,0,2.255-.471,14.134,14.134,0,0,0,4.18,1.71,14.3,14.3,0,0,0,4.442.639,22.885,22.885,0,0,0,3.008-.209h.175a13.152,13.152,0,0,0,4.247-1.454,7.093,7.093,0,0,0,3.453,1.259l5.9.5a7.053,7.053,0,0,0,4.206-.969,7.067,7.067,0,0,0,3.762,1.568,6.578,6.578,0,0,0,.727.04,7.026,7.026,0,0,0,3.412-.888,7.046,7.046,0,0,0,2.847.606A6.892,6.892,0,0,0,420.4,93.7l5.277-1.481.121-.034,3.5.673a7.08,7.08,0,0,0,6.831-2.423,7.047,7.047,0,0,0,7.753,3.453l4.994-1.144a7.046,7.046,0,0,0,1.609.337l5.9.5a7.073,7.073,0,0,0,4.213-.969,7.047,7.047,0,0,0,3.756,1.568,6.575,6.575,0,0,0,.727.04,7.047,7.047,0,0,0,4.98-2.059l3.8-3.776a7.067,7.067,0,0,0,1.171-8.48l-2.908-5.162a12.571,12.571,0,0,0,1.346-3.19c1.117-3.331,1.575-7.908,1.434-14.349v-.182a10.393,10.393,0,0,0-1.171-4.328,7.033,7.033,0,0,0,3.486-6.057V38.865l.411-.148.276,6.993a7.067,7.067,0,0,0,7.538,6.784l5.748-.384a7.04,7.04,0,0,0,2.659-.673,7.067,7.067,0,0,0,5.7,2.887h5.566A7.067,7.067,0,0,0,510.347,52a15.826,15.826,0,0,0,2.975,1.245,16.577,16.577,0,0,0,5.876.915,21.849,21.849,0,0,0,2.6-.108c5.721-.478,9.873-3.56,11.771-8.507a.558.558,0,0,1,.054.081c2.6,3.87,7.4,4.57,11.307,4.752h.323a26.645,26.645,0,0,0,7.625-.922,11.219,11.219,0,0,0,6.838-5.216,7.067,7.067,0,0,0,5.775,5.66l5.875.983a6.844,6.844,0,0,0,1.164.094A7.093,7.093,0,0,0,577.1,49.3a7.4,7.4,0,0,0,.849-.876,6.661,6.661,0,0,0,.72.188L584.69,49.8a7.08,7.08,0,0,0,6.831-2.423,7.047,7.047,0,0,0,7.753,3.453l4.994-1.144a7.12,7.12,0,0,0,1.609.337l5.9.5a7.074,7.074,0,0,0,4.213-.969,7.046,7.046,0,0,0,3.769,1.555,6.576,6.576,0,0,0,.727.04,7.047,7.047,0,0,0,4.98-2.059L625.55,49l3.91.8a7.08,7.08,0,0,0,6.831-2.423,6.993,6.993,0,0,0,2.376,2.524,7.087,7.087,0,0,0,3.8,1.11,7,7,0,0,0,1.582-.182l6.542-1.5a7.067,7.067,0,0,0,5.2-8.891Z" transform="translate(-34.899 0.007)" fill="#081c21"/>
    <path id="Caminho_9822" data-name="Caminho 9822" d="M651.535,26.4a10.921,10.921,0,0,0-4.745-.962V36.155l3.365-1.084q2.06-.538,2.423-5.445C652.8,27.876,652.457,26.806,651.535,26.4Z" transform="translate(-211.488 -8.313)" fill="#081c21"/>
    <path id="Caminho_9823" data-name="Caminho 9823" d="M313.15,42.224,318.487,42l-2.282-9.382Z" transform="translate(-102.399 -10.661)" fill="#081c21"/>
    <path id="Caminho_9824" data-name="Caminho 9824" d="M392.776,26.817a6.664,6.664,0,0,0-4.146-.633l-.04,17.862,2.928-1q1.662-.229,2.187-12.915C393.9,28.338,393.577,27.234,392.776,26.817Z" transform="translate(-127.065 -8.54)" fill="#081c21"/>
    <path id="Caminho_9825" data-name="Caminho 9825" d="M170.547,101.414A38.92,38.92,0,0,0,169.1,90.033a2.47,2.47,0,0,0-1.151-1.346,8.008,8.008,0,0,0-1.831-.377,2.195,2.195,0,0,0-2.154.969,32.455,32.455,0,0,0-1.2,5.909q-1.407,10.674-.35,11.711,1.6,1.642,4.913,1.346a3.118,3.118,0,0,0,2.982-2.558A30.122,30.122,0,0,0,170.547,101.414Z" transform="translate(-52.963 -28.87)" fill="#081c21"/>
    <path id="Caminho_9826" data-name="Caminho 9826" d="M301.977,92.064c.222-1.79-.094-2.86-.942-3.224a9.236,9.236,0,0,0-4.375-.761v8.951Q301.741,96.594,301.977,92.064Z" transform="translate(-97.007 -28.795)" fill="#081c21"/>
    <path id="Caminho_9827" data-name="Caminho 9827" d="M341.13,106.224l5.337-.222-2.282-9.382Z" transform="translate(-111.547 -31.587)" fill="#081c21"/>
    <path id="Caminho_9828" data-name="Caminho 9828" d="M379.555,88.79a9.218,9.218,0,0,0-4.375-.761v8.951q5.075-.4,5.324-4.967C380.726,90.224,380.443,89.154,379.555,88.79Z" transform="translate(-122.68 -28.778)" fill="#081c21"/>
    <path id="Caminho_9829" data-name="Caminho 9829" d="M465.7,88.79a9.217,9.217,0,0,0-4.375-.761v8.951q5.081-.4,5.324-4.967C466.876,90.224,466.559,89.154,465.7,88.79Z" transform="translate(-150.849 -28.778)" fill="#081c21"/>
    <path id="Caminho_9830" data-name="Caminho 9830" d="M553.987,92.064c.222-1.79-.094-2.86-.942-3.224a9.236,9.236,0,0,0-4.375-.761v8.951Q553.751,96.594,553.987,92.064Z" transform="translate(-179.406 -28.795)" fill="#081c21"/>
    <path id="Caminho_9831" data-name="Caminho 9831" d="M593.13,106.224l5.337-.222-2.275-9.382Z" transform="translate(-193.943 -31.587)" fill="#081c21"/>
    <path id="Caminho_9832" data-name="Caminho 9832" d="M631.565,88.79a9.217,9.217,0,0,0-4.375-.761v8.951q5.075-.4,5.324-4.967C632.736,90.224,632.446,89.154,631.565,88.79Z" transform="translate(-205.08 -28.778)" fill="#081c21"/>
    <path id="Caminho_9833" data-name="Caminho 9833" d="M192.177,65.1,199,68.808l-1.784,5.384-5.034-4-5.061,3.984-1.777-5.384Zm-59.341,41.728-6.057.761-8.339-31.74,7.316-1.481,4.395,23.273,4.779-24.465,7.895,1.393Zm21.221,1.057q-7.121-.5-10.486-2.759-1.878-1.131-1.8-6.73A90.974,90.974,0,0,1,143.4,83.844q1.292-7.148,2.241-8.319c.875-1.137,2.692-1.676,5.384-1.629a28.9,28.9,0,0,1,4.671.612,5.277,5.277,0,0,1,2.827,2.248q3.655,7.962,3.655,19.417a34.323,34.323,0,0,1-.633,7.343q-1.2,4.375-7.511,4.368Zm20.622-.3a9.651,9.651,0,0,1-4.556-.222q-4.482-.976-5.593-6.172-1.9-11.8-.949-19.289A7.249,7.249,0,0,1,168.6,75.72a14.356,14.356,0,0,1,7.578-.8q4.63,1,4.745,5.653.061,2.127-.034,4.711l-5.485.633c-.054-.74-.128-1.474-.222-2.208a1.945,1.945,0,0,0-1.871-1.891,3.587,3.587,0,0,0-2.43.431c-.8.357-1.346,1.346-1.521,2.982a59.435,59.435,0,0,0,.673,13.952q.552,2.524,3.224,1.858,1.723-.431,4.617-3.8l3.89,4.651Q178.044,107.05,174.678,107.588Zm22.385-20.75v5.889l-7.632.242v6.488h10.392l-.162,5.909-15.789,1.111-.909-30.724,17.324.673-.4,5.795-10.452.525v3.574Zm60.929,19.841-5.283,1.481L251.579,83.7l6.414-.74ZM257.4,81.1l-5.283-.242-.626-8.3,6.407.262Zm-34.325,26.517a9.637,9.637,0,0,1-4.556-.222q-4.489-.976-5.6-6.172-1.9-11.832-.956-19.323a7.242,7.242,0,0,1,5.021-6.185,14.356,14.356,0,0,1,7.578-.8q4.63,1,4.745,5.653c.034,1.42,0,2.988-.04,4.711l-5.458.612c-.047-.74-.121-1.474-.222-2.208a1.941,1.941,0,0,0-1.871-1.891,3.567,3.567,0,0,0-2.423.431q-1.211.538-1.521,2.982a58.953,58.953,0,0,0,.673,13.952c.37,1.683,1.44,2.3,3.224,1.858q1.716-.431,4.61-3.8l3.9,4.651q-3.708,5.182-7.114,5.721Zm15.285-11.441v11.691l-5.889-.5-1.1-32.979q17.586-1.615,17.869,4.28.182,8.447-1.131,12.115a4.173,4.173,0,0,1-3.318,3.365l-.39.094,5.855,10.392-3.8,3.782Zm38.174,12.155-1.346-6.266H266.44l-1.521,5.189-6.024-1.2,10.681-31.6,4.112.673,9.422,31.706Zm22.775.148-8.076-12.3v11.691l-5.9-.5-1.09-32.979q17.586-1.615,17.862,4.28.182,8.447-1.131,12.115a4.173,4.173,0,0,1-3.318,3.365l-.39.094,5.855,10.392Zm14.235-1.965.909-30.724,15.783,1.11.168,5.916H320v6.441l7.632.242v5.9L320,95.878v3.581l10.445.518.411,5.795Zm114.072.2-5.283,1.481L421.2,83.743l6.414-.74Zm-.592-25.575-5.283-.242-.633-8.3,6.414.262Zm-58.446,1.71v6.407l7.632.242v5.9l-7.632.478v3.581l10.452.518.4,5.795-17.324.673.909-30.724,15.789,1.111.162,5.916ZM349.2,96.214V107.9l-5.9-.5-1.09-32.979q17.586-1.615,17.862,4.28.182,8.447-1.131,12.115a4.173,4.173,0,0,1-3.318,3.365l-.384.094,5.855,10.392-3.8,3.782Zm43.491,11.442a9.638,9.638,0,0,1-4.556-.222q-4.5-.976-5.6-6.172-1.9-11.8-.942-19.289a7.242,7.242,0,0,1,5.021-6.185,14.356,14.356,0,0,1,7.578-.8q4.637,1,4.711,5.653.054,2.127-.04,4.711l-5.445.545c-.047-.74-.121-1.474-.222-2.208A1.941,1.941,0,0,0,391.32,81.8a3.567,3.567,0,0,0-2.423.431q-1.211.538-1.521,2.982a59.438,59.438,0,0,0,.673,13.952c.37,1.683,1.44,2.3,3.224,1.858q1.716-.431,4.61-3.8l3.89,4.651q-3.668,5.182-7.1,5.721Zm15.285-11.442V107.9l-5.889-.5-1.1-32.979q17.586-1.615,17.869,4.28.182,8.447-1.131,12.115a4.173,4.173,0,0,1-3.318,3.365l-.39.094,5.855,10.392-3.8,3.782Zm38.174,12.155L444.8,102.1H436.05l-1.521,5.189-6.057-1.2L439.18,74.455l4.112.673,9.422,31.706Zm22.775.148-8.076-12.3V107.9l-5.9-.5-1.09-32.979q17.586-1.615,17.862,4.28.182,8.447-1.131,12.115a4.173,4.173,0,0,1-3.318,3.365l-.39.094,5.855,10.392Z" transform="translate(-38.734 -21.281)" fill="#081c21"/>
    <path id="Caminho_9834" data-name="Caminho 9834" d="M804.24,28.51q.323-2.423-.962-2.982a9.9,9.9,0,0,0-4.388-.888v9.914l3.109-1Q803.911,33.053,804.24,28.51Z" transform="translate(-261.22 -8.052)" fill="#081c21"/>
    <path id="Caminho_9835" data-name="Caminho 9835" d="M824.02,42.224,829.364,42l-2.281-9.382Z" transform="translate(-269.437 -10.661)" fill="#081c21"/>
    <path id="Caminho_9836" data-name="Caminho 9836" d="M862.455,24.79a9.218,9.218,0,0,0-4.375-.761v8.951q5.075-.4,5.324-4.967C863.626,26.224,863.309,25.154,862.455,24.79Z" transform="translate(-280.574 -7.852)" fill="#081c21"/>
    <path id="Caminho_9837" data-name="Caminho 9837" d="M890.54,42.224,895.877,42,893.6,32.62Z" transform="translate(-291.187 -10.661)" fill="#081c21"/>
    <path id="Caminho_9838" data-name="Caminho 9838" d="M150.714,28.578v5.9l-7.639.478v3.581l10.452.518.411,5.795-17.324.673.909-30.724L153.3,15.9l.168,5.916H143.061v6.515ZM124.055,46.44q-4.489-.976-5.6-6.172-1.9-11.8-.942-19.289a7.242,7.242,0,0,1,5.021-6.185,14.349,14.349,0,0,1,7.578-.8q4.63,1,4.745,5.653.054,2.127-.04,4.711l-5.485.633c-.047-.74-.121-1.474-.222-2.208a1.941,1.941,0,0,0-1.871-1.891,3.594,3.594,0,0,0-2.43.431q-1.2.538-1.514,2.982a58.952,58.952,0,0,0,.673,13.952c.37,1.683,1.44,2.3,3.224,1.858q1.716-.437,4.61-3.8l3.89,4.651q-3.681,5.169-7.094,5.707a9.638,9.638,0,0,1-4.543-.229Zm51.251.781h-5.149l-7.895-18.212-.276,16.213-5.324.357-1.238-31.632,6.057-1.171,8.009,18.347-.431-16.469,7.343-.411Zm9.584-.929-.337-25.313h-6.488l-.108-6.394L197.6,13.475l-.222,7.5h-5.963l-.444,24.552Zm14.06-.74.9-30.724,15.789,1.111.168,5.916H205.418v6.481l7.639.242v5.9l-7.639.478v3.581l10.452.518.411,5.795Zm25.669-16.543-.283,16.213-5.317.357-1.238-31.632,6.057-1.171,8.009,18.347-.431-16.469,7.343-.411-1.1,32.979h-5.149Zm32.669,18.367-1.346-6.266h-8.749L245.672,46.3l-6.017-1.2,10.668-31.565,4.112.673,9.422,31.706Zm23.2-3.3a4.038,4.038,0,0,1-2.854,2.255,19.969,19.969,0,0,1-5.633.633c-3.21-.148-5.135-.673-5.761-1.629a10.909,10.909,0,0,1-1.891-6.313,13.03,13.03,0,0,1,1.279-5.472l5.169.673q-1.629,2.712-.444,4.879c.343.673,1.191.976,2.537.962a6.463,6.463,0,0,0,2.8-.37,1.669,1.669,0,0,0,1.151-1.346q.538-3.406-2.914-4.671-9.47-4.3-9.651-9.719-.081-6.461,1.609-7.592,3.035-2.261,8.561-2.746,5.674,0,6.764,4.375a27.81,27.81,0,0,1,.094,7.874l-4.819.222a26.883,26.883,0,0,0-.2-2.726,2.977,2.977,0,0,0-2.632-2.907c-2.019,0-3.224.868-3.594,2.537q-.552,1.932,4.482,4.321,11.455,4.28,5.95,16.752Zm13.158,2.255-.357-32.588,8.137.054q9.133.128,9.173,8.245-.572,14.7-1.837,18.455-1.46,4.624-15.116,5.828Zm18.656-.774.909-30.724L329,15.945l.168,5.916h-10.4v6.475l7.639.242v5.9l-7.639.478v3.581l10.452.518.411,5.795Zm90.375-22.937-3.365-1.245L401.519,10.5l5.445,1.723ZM339.364,48.2l.976-32.918,16.913,1.191.182,6.326H346.3v6.979l8.177.256v6.313l-8.177.518V40.7l11.193.552.444,6.212Zm28.065,1.911-6.293-1.05-1.111-35.247h8.817q10.1.478,10.365,4.254.2,9.046-1.211,13.1a4.906,4.906,0,0,1-3.574,3.85l-6.993,2.463Zm30.179-3.473a4.354,4.354,0,0,1-3.056,2.423,21.739,21.739,0,0,1-6.057.673c-3.446-.162-5.505-.74-6.178-1.75a11.671,11.671,0,0,1-2.019-6.73,14.134,14.134,0,0,1,1.346-5.869l5.546.673q-1.777,2.934-.478,5.283c.37.673,1.279,1.043,2.692,1.03a6.738,6.738,0,0,0,2.995-.4,1.783,1.783,0,0,0,1.232-1.407q.572-3.655-3.116-5Q380.345,30.893,380.17,25.1q-.081-6.932,1.73-8.144,3.251-2.423,9.173-2.934c4.038,0,6.461,1.561,7.249,4.711a30.5,30.5,0,0,1,.094,8.44l-5.162.236c-.04-1.151-.108-2.127-.215-2.921a3.2,3.2,0,0,0-2.82-3.116c-2.174,0-3.453.936-3.85,2.692-.4,1.346,1.2,2.921,4.805,4.63q12.343,4.577,6.461,17.943Zm26.733-2.82a4.085,4.085,0,0,1-2.854,2.261,20.19,20.19,0,0,1-5.633.633c-3.217-.148-5.135-.673-5.768-1.629a10.963,10.963,0,0,1-1.891-6.313,13.165,13.165,0,0,1,1.279-5.478l5.176.673q-1.656,2.746-.451,4.927c.35.673,1.2.976,2.544.962a6.3,6.3,0,0,0,2.793-.37,1.669,1.669,0,0,0,1.151-1.346q.532-3.412-2.908-4.671-9.49-4.355-9.658-9.766-.074-6.468,1.615-7.6,3.035-2.261,8.561-2.739,5.674,0,6.73,4.368a27.911,27.911,0,0,1,.094,7.881l-4.819.222q-.061-1.615-.2-2.692a2.972,2.972,0,0,0-2.632-2.907q-3.035,0-3.6,2.537-.552,1.925,4.489,4.314Q429.82,31.344,424.341,43.815Zm11.913,4.529.976-33.194,17.055,1.2.182,6.38H443.233v7.013l8.251.256v6.367l-8.251.518v3.87l11.294.559.437,6.266Zm99.252-25.723-3.365-1.245L534.348,10.5l5.445,1.723ZM473.587,37.314V50.047l-6.347-1.063-1.185-35.529h8.891q10.143.471,10.452,4.28.2,9.126-1.225,13.212a4.934,4.934,0,0,1-3.6,3.883Zm20.864-6.34-.3,17.5-5.748.377-1.346-34.17,6.542-1.259,8.648,19.814-.458-17.795L509.715,15l-1.178,35.63h-5.566ZM524.636,50.4a12.442,12.442,0,0,1-5.586-.464q-4.866-1.312-6.145-7.161a87.827,87.827,0,0,1-1.077-23.967c.316-2.282,1.474-3.634,3.459-4.038q6.986-1.75,10.769-.841,5.532,1.615,5.727,6.825.1,2.383,0,5.223l-6.145.565q-.1-1.346-.283-2.645-.4-2.564-2.08-2.746a6.156,6.156,0,0,0-3.863.1c-.855.377-1.346,1.474-1.582,3.3a75.716,75.716,0,0,0,.841,16.213q.74,2.867,4.341,2.2,2.2-.33,2.241-3.022l.161-4.1-4.644.276L521,29.4h10.526l-.458,13.831q-.451,6.643-6.434,7.175Zm32.528-6.589a4.038,4.038,0,0,1-2.854,2.261,20.191,20.191,0,0,1-5.633.633q-4.812-.222-5.761-1.629a10.963,10.963,0,0,1-1.891-6.313,13.063,13.063,0,0,1,1.279-5.478l5.169.673q-1.642,2.746-.444,4.927c.35.673,1.191.976,2.537.962a6.336,6.336,0,0,0,2.8-.37,1.669,1.669,0,0,0,1.151-1.346q.532-3.412-2.908-4.671-9.49-4.355-9.658-9.766-.074-6.468,1.615-7.6,3.035-2.261,8.561-2.739,5.66,0,6.73,4.368a28.3,28.3,0,0,1,.121,7.915l-4.792.2a26.854,26.854,0,0,0-.2-2.692,2.977,2.977,0,0,0-2.632-2.907q-3.035,0-3.594,2.537-.552,1.925,4.482,4.314Q562.656,31.344,557.164,43.815Zm12.915,2.51-1.09-32.884h8.224q9.422.444,9.678,3.964.182,8.447-1.131,12.229a4.59,4.59,0,0,1-3.365,3.594l-6.468,2.3V47.308Zm31.04,1.043L599.773,41.1h-8.749l-1.494,5.189-6.057-1.2,10.681-31.558,4.112.673,9.422,31.706Zm14.659-12.155V46.9l-5.9-.5-1.09-32.979q17.586-1.615,17.862,4.28.182,8.453-1.131,12.115a4.173,4.173,0,0,1-3.318,3.365l-.39.094,5.855,10.392-3.8,3.782Zm30.091,12.155L644.523,41.1h-8.749l-1.521,5.189-6.057-1.2,10.728-31.558,4.112.673,9.422,31.706Z" transform="translate(-38.326 -3.428)" fill="#081c21"/>
    <path id="Caminho_9839" data-name="Caminho 9839" d="M494.841,30.043q.337-2.6-1.03-3.2a10.846,10.846,0,0,0-4.711-.956V36.517l3.365-1.077Q494.474,34.905,494.841,30.043Z" transform="translate(-159.929 -8.461)" fill="#081c21"/>
    <path id="Caminho_9840" data-name="Caminho 9840" d="M723.041,30.9H712.515l-.222,6.73,4.644-.276-.161,4.1q-.04,2.692-2.241,3.022-3.6.673-4.341-2.2a75.759,75.759,0,0,1-.841-16.213c.2-1.831.727-2.928,1.582-3.3a6.556,6.556,0,0,1,3.863-.1q1.676.182,2.08,2.746.182,1.279.283,2.645l6.145-.565q.081-2.833,0-5.223-.2-5.209-5.727-6.825-3.755-.909-10.768.841c-1.985.424-3.143,1.777-3.459,4.038a88.175,88.175,0,0,0,1.077,23.967q1.279,5.842,6.145,7.161a12.442,12.442,0,0,0,5.586.464q5.983-.5,6.427-7.188Z" transform="translate(-229.852 -4.939)" fill="#fff"/>
    <path id="Caminho_9841" data-name="Caminho 9841" d="M688.226,52.082l1.178-35.63-7.922.437.458,17.795L673.292,14.87l-6.542,1.259,1.339,34.17,5.748-.377.3-17.519,8.527,19.679Z" transform="translate(-218.015 -4.857)" fill="#fff"/>
    <path id="Caminho_9842" data-name="Caminho 9842" d="M598.239,43.019v-3.87l8.251-.518V32.264l-8.251-.256V25h11.233l-.182-6.38-17.055-1.2L591.26,50.6l18.717-.761-.444-6.266Z" transform="translate(-193.332 -5.688)" fill="#efbd89"/>
    <path id="Caminho_9843" data-name="Caminho 9843" d="M650.057,36.265a4.934,4.934,0,0,0,3.6-3.883q1.427-4.079,1.225-13.212-.3-3.8-10.452-4.28H635.54l1.185,35.529,6.347,1.063V38.749ZM648.9,26.17q-.363,4.906-2.423,5.445L643.112,32.7V21.99a10.891,10.891,0,0,1,4.745.962c.922.4,1.265,1.474,1.043,3.224Z" transform="translate(-207.81 -4.864)" fill="#fff"/>
    <path id="Caminho_9844" data-name="Caminho 9844" d="M135.71,42.555,131.82,37.9q-2.887,3.365-4.61,3.8c-1.784.444-2.854-.175-3.224-1.858a58.477,58.477,0,0,1-.673-13.952q.31-2.443,1.514-2.982a3.594,3.594,0,0,1,2.43-.431,1.926,1.926,0,0,1,1.871,1.891c.1.734.175,1.467.222,2.208l5.485-.633q.088-2.571.04-4.711-.108-4.651-4.745-5.653a14.349,14.349,0,0,0-7.578.8,7.242,7.242,0,0,0-5.021,6.185q-.969,7.491.942,19.289,1.111,5.189,5.6,6.172a9.638,9.638,0,0,0,4.556.222Q132.029,47.731,135.71,42.555Z" transform="translate(-38.331 -5.029)" fill="#efbd89"/>
    <path id="Caminho_9845" data-name="Caminho 9845" d="M162.889,23.956l-.168-5.916L146.939,16.93l-.909,30.724,17.324-.707-.411-5.795-10.452-.518V37.054l7.639-.478v-5.9l-7.639-.242V23.956Z" transform="translate(-47.756 -5.531)" fill="#efbd89"/>
    <path id="Caminho_9846" data-name="Caminho 9846" d="M194.978,15.337l-7.343.411.431,16.469L180.057,13.87,174,15.041l1.238,31.632,5.324-.35.276-16.22,7.895,18.219h5.149Z" transform="translate(-56.901 -4.53)" fill="#efbd89"/>
    <path id="Caminho_9847" data-name="Caminho 9847" d="M226.9,22.424l.222-7.5L207.48,16.031l.114,6.394h6.481l.337,25.313,6.077-.761.444-24.552Z" transform="translate(-67.848 -4.874)" fill="#efbd89"/>
    <path id="Caminho_9848" data-name="Caminho 9848" d="M256,46.947l-.411-5.795-10.452-.518V37.054l7.639-.478v-5.9l-7.639-.242V23.956h10.4l-.168-5.916L239.579,16.93l-.909,30.724Z" transform="translate(-78.046 -5.531)" fill="#efbd89"/>
    <path id="Caminho_9849" data-name="Caminho 9849" d="M281.383,48.322h5.149l1.09-32.985-7.336.411.431,16.469L272.707,13.87l-6.057,1.171,1.238,31.632,5.317-.35.283-16.22Z" transform="translate(-87.195 -4.53)" fill="#efbd89"/>
    <path id="Caminho_9850" data-name="Caminho 9850" d="M323.322,47.339,313.9,15.633,309.814,15,299.14,46.558l6.017,1.2,1.521-5.169h8.749l1.346,6.266ZM308.569,36.463l3.056-9.6,2.282,9.382Z" transform="translate(-97.818 -4.9)" fill="#efbd89"/>
    <path id="Caminho_9851" data-name="Caminho 9851" d="M346.012,28.836q-5.041-2.4-4.482-4.321c.37-1.669,1.568-2.51,3.594-2.537a2.977,2.977,0,0,1,2.632,2.907,26.839,26.839,0,0,1,.2,2.726l4.819-.222a27.864,27.864,0,0,0-.094-7.874q-1.09-4.375-6.764-4.375-5.519.485-8.561,2.746-1.683,1.131-1.609,7.592.161,5.384,9.651,9.766,3.453,1.265,2.914,4.671a1.669,1.669,0,0,1-1.151,1.346,6.549,6.549,0,0,1-2.8.37c-1.346,0-2.194-.31-2.537-.962q-1.2-2.194.444-4.933l-5.169-.673a13.031,13.031,0,0,0-1.279,5.472,10.91,10.91,0,0,0,1.891,6.313c.626.936,2.551,1.481,5.761,1.629a19.969,19.969,0,0,0,5.633-.633,4.038,4.038,0,0,0,2.854-2.255Q357.454,33.11,346.012,28.836Z" transform="translate(-109.787 -4.946)" fill="#efbd89"/>
    <path id="Caminho_9852" data-name="Caminho 9852" d="M394.313,42.063q1.265-3.755,1.837-18.455-.04-8.117-9.173-8.245l-8.137-.054L379.2,47.9Q392.859,46.7,394.313,42.063Zm-5.983-2.558-2.928,1,.04-17.862a6.626,6.626,0,0,1,4.146.633c.821.417,1.124,1.521.929,3.311Q390.006,39.27,388.33,39.505Z" transform="translate(-123.877 -5.001)" fill="#efbd89"/>
    <path id="Caminho_9853" data-name="Caminho 9853" d="M413.558,40.634V37.054l7.639-.478v-5.9l-7.639-.242V23.956h10.4l-.168-5.916L408,16.93l-.909,30.724,17.331-.707-.411-5.795Z" transform="translate(-133.114 -5.531)" fill="#efbd89"/>
    <path id="Caminho_9854" data-name="Caminho 9854" d="M538.618,10.5,536.41,21.376l3.338,1.245,4.314-10.4Z" transform="translate(-175.398 -3.428)" fill="#fff"/>
    <path id="Caminho_9855" data-name="Caminho 9855" d="M559.746,28.443q-5.048-2.383-4.489-4.314.565-2.5,3.6-2.537a2.988,2.988,0,0,1,2.632,2.907q.141,1.11.2,2.692l4.819-.222a28.252,28.252,0,0,0-.094-7.881q-1.09-4.375-6.73-4.368-5.526.478-8.561,2.739-1.683,1.131-1.615,7.6.168,5.384,9.658,9.766,3.446,1.265,2.907,4.671a1.669,1.669,0,0,1-1.151,1.346,6.3,6.3,0,0,1-2.793.37c-1.346,0-2.194-.3-2.544-.962q-1.2-2.181.451-4.927l-5.176-.673a13.164,13.164,0,0,0-1.279,5.478,10.964,10.964,0,0,0,1.891,6.313c.633.936,2.551,1.481,5.768,1.629a20.191,20.191,0,0,0,5.633-.633,4.085,4.085,0,0,0,2.82-2.241Q571.18,32.724,559.746,28.443Z" transform="translate(-179.68 -4.808)" fill="#fff"/>
    <path id="Caminho_9856" data-name="Caminho 9856" d="M735.978,10.5,733.77,21.376l3.338,1.245,4.314-10.4Z" transform="translate(-239.928 -3.428)" fill="#fff"/>
    <path id="Caminho_9857" data-name="Caminho 9857" d="M757.1,28.459q-5.041-2.383-4.482-4.314.559-2.5,3.594-2.537a2.984,2.984,0,0,1,2.632,2.907,26.872,26.872,0,0,1,.2,2.692l4.819-.222a28.307,28.307,0,0,0-.081-7.848q-1.1-4.375-6.73-4.368-5.526.478-8.561,2.739-1.689,1.131-1.615,7.6.168,5.384,9.658,9.766,3.446,1.265,2.907,4.671a1.669,1.669,0,0,1-1.151,1.346,6.336,6.336,0,0,1-2.8.37c-1.346,0-2.187-.3-2.537-.962q-1.2-2.181.444-4.927l-5.169-.673a13.063,13.063,0,0,0-1.279,5.478,10.964,10.964,0,0,0,1.891,6.313q.949,1.407,5.761,1.629a20.191,20.191,0,0,0,5.633-.633,4.039,4.039,0,0,0,2.813-2.275Q768.537,32.74,757.1,28.459Z" transform="translate(-244.213 -4.825)" fill="#fff"/>
    <path id="Caminho_9858" data-name="Caminho 9858" d="M142.824,78.493,134.929,77.1l-4.779,24.465-4.395-23.273-7.316,1.481,8.339,31.74,6.044-.761Z" transform="translate(-38.734 -25.205)" fill="#efbd89"/>
    <path id="Caminho_9859" data-name="Caminho 9859" d="M172.859,107.782a34.326,34.326,0,0,0,.633-7.343q0-11.442-3.655-19.417a5.276,5.276,0,0,0-2.854-2.261,28.9,28.9,0,0,0-4.671-.612c-2.692-.047-4.5.491-5.384,1.629q-.949,1.171-2.241,8.319a89.928,89.928,0,0,0-1.629,14.551q-.081,5.613,1.8,6.73,3.365,2.261,10.486,2.759Q171.654,112.15,172.859,107.782Zm-8.447-2.813q-3.325.316-4.913-1.346-1.057-1.043.35-11.711a35.321,35.321,0,0,1,1.2-5.909,2.159,2.159,0,0,1,2.154-.969,8.01,8.01,0,0,1,1.831.377,2.47,2.47,0,0,1,1.151,1.346,38.923,38.923,0,0,1,1.447,11.381,30.118,30.118,0,0,1-.242,4.294A3.149,3.149,0,0,1,164.412,104.969Z" transform="translate(-50.053 -25.547)" fill="#efbd89"/>
    <path id="Caminho_9860" data-name="Caminho 9860" d="M203.53,106.556l-3.89-4.651q-2.9,3.365-4.617,3.8-2.692.673-3.224-1.858a58.475,58.475,0,0,1-.673-13.952c.209-1.629.72-2.625,1.521-2.982a3.587,3.587,0,0,1,2.43-.431c1.05.067,1.669.673,1.871,1.891.094.734.168,1.467.222,2.208l5.485-.633q.087-2.578.034-4.711-.114-4.651-4.745-5.653a14.356,14.356,0,0,0-7.578.8,7.249,7.249,0,0,0-5.021,6.185q-.956,7.491.949,19.289,1.111,5.189,5.593,6.172a9.651,9.651,0,0,0,4.556.222Q199.815,111.731,203.53,106.556Z" transform="translate(-60.506 -25.955)" fill="#efbd89"/>
    <path id="Caminho_9861" data-name="Caminho 9861" d="M217.81,68.808l1.777,5.371,5.061-3.984,5.034,3.984,1.784-5.371L224.648,65.1Z" transform="translate(-71.225 -21.281)" fill="#efbd89"/>
    <path id="Caminho_9862" data-name="Caminho 9862" d="M231.23,87.431l.4-5.795L214.31,80.93l.909,30.724,15.789-1.111.162-5.916H220.778V98.146l7.632-.242v-5.9l-7.632-.478V87.956Z" transform="translate(-70.081 -26.457)" fill="#efbd89"/>
    <path id="Caminho_9863" data-name="Caminho 9863" d="M275.447,106.556l-3.9-4.651q-2.887,3.365-4.61,3.8c-1.784.444-2.854-.175-3.224-1.858a58.005,58.005,0,0,1-.673-13.952q.316-2.443,1.521-2.982a3.567,3.567,0,0,1,2.423-.431,1.926,1.926,0,0,1,1.871,1.891c.1.734.175,1.467.222,2.208l5.485-.633c.067-1.716.074-3.284.04-4.711q-.114-4.651-4.745-5.653a14.356,14.356,0,0,0-7.578.8,7.242,7.242,0,0,0-5.021,6.185q-.969,7.491.942,19.289,1.111,5.189,5.6,6.172a9.638,9.638,0,0,0,4.556.222Q271.786,111.731,275.447,106.556Z" transform="translate(-84.018 -25.955)" fill="#efbd89"/>
    <path id="Caminho_9864" data-name="Caminho 9864" d="M301.309,112.8l3.8-3.782L299.25,98.626l.39-.094a4.173,4.173,0,0,0,3.318-3.365q1.312-3.688,1.131-12.115-.283-5.9-17.869-4.28l1.1,32.978,5.889.5V100.5ZM293.233,93.84V84.869a9.266,9.266,0,0,1,4.375.761c.848.363,1.164,1.434.942,3.224q-.229,4.583-5.3,4.987Z" transform="translate(-93.593 -25.637)" fill="#efbd89"/>
    <path id="Caminho_9865" data-name="Caminho 9865" d="M316.13,76.14l.626,8.3,5.283.242.5-8.278Z" transform="translate(-103.373 -24.891)" fill="#efbd89"/>
    <path id="Caminho_9866" data-name="Caminho 9866" d="M322.674,91.64l-6.414.74,1.131,24.458,5.283-1.481Z" transform="translate(-103.415 -29.959)" fill="#efbd89"/>
    <path id="Caminho_9867" data-name="Caminho 9867" d="M351.275,111.339l-9.422-31.706L337.814,79,327.14,110.592l6.024,1.2,1.521-5.189h8.749l1.346,6.266Zm-14.746-10.876,3.056-9.6,2.282,9.382Z" transform="translate(-106.973 -25.826)" fill="#efbd89"/>
    <path id="Caminho_9868" data-name="Caminho 9868" d="M378.163,98.531a4.173,4.173,0,0,0,3.318-3.365q1.346-3.688,1.131-12.115-.276-5.9-17.862-4.28l1.09,32.979,5.9.5V100.5l8.076,12.3,3.8-3.782-5.855-10.392Zm-1.07-9.624q-.242,4.563-5.324,4.967V84.869a9.266,9.266,0,0,1,4.375.761C377.033,86.013,377.315,87.083,377.093,88.907Z" transform="translate(-119.27 -25.637)" fill="#efbd89"/>
    <path id="Caminho_9869" data-name="Caminho 9869" d="M414.778,104.627v-3.574l7.632-.478v-5.9l-7.632-.242V87.956h10.392L425,82.041,409.212,80.93l-.9,30.724,17.324-.707-.411-5.795Z" transform="translate(-133.513 -26.457)" fill="#efbd89"/>
    <path id="Caminho_9870" data-name="Caminho 9870" d="M465.983,112.8l3.8-3.782L463.93,98.626l.384-.094a4.173,4.173,0,0,0,3.318-3.365q1.346-3.688,1.131-12.115-.269-5.9-17.862-4.28l1.09,32.978,5.9.5V100.5ZM457.906,93.84V84.869a9.265,9.265,0,0,1,4.375.761c.855.363,1.171,1.434.949,3.224q-.229,4.583-5.31,4.987Z" transform="translate(-147.438 -25.637)" fill="#efbd89"/>
    <path id="Caminho_9871" data-name="Caminho 9871" d="M497.168,82.041,481.379,80.93l-.909,30.724,17.324-.707-.4-5.795-10.452-.525v-3.574l7.632-.478v-5.9l-7.632-.242V87.956h10.392Z" transform="translate(-157.107 -26.457)" fill="#efbd89"/>
    <path id="Caminho_9872" data-name="Caminho 9872" d="M527.466,106.556l-3.89-4.651q-2.887,3.365-4.61,3.8c-1.783.444-2.854-.175-3.224-1.858a58.008,58.008,0,0,1-.673-13.952q.31-2.443,1.521-2.982a3.567,3.567,0,0,1,2.423-.431,1.926,1.926,0,0,1,1.871,1.891c.1.734.175,1.467.222,2.208l5.485-.633q.094-2.578.04-4.711a5.4,5.4,0,0,0-4.711-5.653,14.355,14.355,0,0,0-7.578.8,7.242,7.242,0,0,0-5.021,6.185q-.969,7.491.942,19.289,1.111,5.189,5.6,6.172a9.638,9.638,0,0,0,4.556.222Q523.805,111.731,527.466,106.556Z" transform="translate(-166.434 -25.955)" fill="#efbd89"/>
    <path id="Caminho_9873" data-name="Caminho 9873" d="M553.319,112.8l3.8-3.782L551.26,98.626l.39-.094a4.173,4.173,0,0,0,3.318-3.365q1.312-3.688,1.131-12.115-.283-5.9-17.869-4.28l1.1,32.978,5.889.5V100.5ZM545.243,93.84V84.869a9.265,9.265,0,0,1,4.375.761c.848.363,1.164,1.434.942,3.224q-.229,4.583-5.3,4.987Z" transform="translate(-175.993 -25.637)" fill="#efbd89"/>
    <path id="Caminho_9874" data-name="Caminho 9874" d="M568.13,76.14l.633,8.3,5.283.242.5-8.278Z" transform="translate(-185.769 -24.891)" fill="#efbd89"/>
    <path id="Caminho_9875" data-name="Caminho 9875" d="M574.684,91.64l-6.414.74,1.131,24.458,5.283-1.481Z" transform="translate(-185.815 -29.959)" fill="#efbd89"/>
    <path id="Caminho_9876" data-name="Caminho 9876" d="M603.308,111.339l-9.422-31.706L589.814,79,579.14,110.592l6.057,1.2,1.521-5.189h8.749l1.346,6.266Zm-14.753-10.876,3.062-9.6,2.275,9.382Z" transform="translate(-189.369 -25.826)" fill="#efbd89"/>
    <path id="Caminho_9877" data-name="Caminho 9877" d="M630.173,98.531a4.173,4.173,0,0,0,3.318-3.365q1.312-3.688,1.131-12.115-.283-5.9-17.862-4.28l1.09,32.979,5.9.5V100.5l8.076,12.3,3.8-3.782-5.855-10.392Zm-1.07-9.624q-.242,4.563-5.324,4.967V84.869a9.266,9.266,0,0,1,4.375.761C629.036,86.013,629.325,87.083,629.1,88.907Z" transform="translate(-201.67 -25.637)" fill="#efbd89"/>
    <path id="Caminho_9878" data-name="Caminho 9878" d="M795.446,48.737V36.952l6.468-2.3a4.59,4.59,0,0,0,3.365-3.594q1.346-3.782,1.131-12.229-.283-3.527-9.678-3.964H788.48l1.09,32.884Zm.04-27.291a9.992,9.992,0,0,1,4.388.888q1.279.559.962,2.982-.337,4.543-2.241,5.041l-3.109,1Z" transform="translate(-257.817 -4.857)" fill="#efbd89"/>
    <path id="Caminho_9879" data-name="Caminho 9879" d="M834.189,47.32l-9.382-31.706-4.112-.673L810,46.539l6.057,1.2,1.494-5.169H826.3l1.346,6.266ZM819.422,36.443l3.056-9.6,2.329,9.382Z" transform="translate(-264.853 -4.88)" fill="#efbd89"/>
    <path id="Caminho_9880" data-name="Caminho 9880" d="M862.733,48.8l3.8-3.782-5.855-10.392.391-.094a4.173,4.173,0,0,0,3.318-3.365q1.312-3.688,1.131-12.115-.283-5.9-17.862-4.28l1.09,32.979,5.9.5V36.5ZM854.656,29.84V20.869a9.265,9.265,0,0,1,4.375.761c.855.363,1.171,1.434.949,3.224q-.229,4.583-5.31,4.987Z" transform="translate(-277.163 -4.711)" fill="#efbd89"/>
    <path id="Caminho_9881" data-name="Caminho 9881" d="M887.2,15,876.53,46.558l6.057,1.2,1.487-5.169h8.749l1.346,6.266,6.542-1.5-9.422-31.706Zm-1.245,21.5,3.062-9.6,2.275,9.382Z" transform="translate(-286.606 -4.9)" fill="#efbd89"/>
    <path id="Caminho_9882" data-name="Caminho 9882" d="M465.862,49.8l-.431-6.212-11.2-.552V39.2l8.177-.518V32.366l-8.177-.256V25.164h11.139l-.182-6.333L448.276,17.64,447.3,50.558Z" transform="translate(-146.261 -5.763)" fill="#fff"/>
    <path id="Caminho_9883" data-name="Caminho 9883" d="M492.362,36.627a4.906,4.906,0,0,0,3.574-3.85q1.413-4.038,1.211-13.1-.3-3.776-10.365-4.254H478l1.171,35.247,6.232,1.05V39.09Zm-3.554-4.61-3.365,1.077V22.467a10.846,10.846,0,0,1,4.711.956q1.346.6,1.03,3.2Q490.862,31.485,488.809,32.017Z" transform="translate(-156.299 -5.037)" fill="#fff"/>
    <path id="Caminho_9884" data-name="Caminho 9884" d="M519.073,30.392c-3.6-1.709-5.209-3.251-4.805-4.63.4-1.784,1.676-2.692,3.85-2.692a3.2,3.2,0,0,1,2.82,3.116c.108.794.175,1.77.215,2.921l5.162-.236a30.144,30.144,0,0,0-.094-8.44c-.787-3.123-3.2-4.711-7.249-4.711q-5.916.512-9.173,2.934-1.8,1.211-1.73,8.144.182,5.795,10.345,10.466,3.695,1.346,3.116,5a1.784,1.784,0,0,1-1.232,1.407,6.737,6.737,0,0,1-2.995.4c-1.44,0-2.349-.33-2.692-1.03q-1.292-2.342.478-5.283l-5.546-.673a14.134,14.134,0,0,0-1.346,5.869,11.671,11.671,0,0,0,2.019,6.73c.673,1.01,2.733,1.588,6.178,1.75a21.74,21.74,0,0,0,6.057-.673,4.354,4.354,0,0,0,3.055-2.423Q531.329,34.975,519.073,30.392Z" transform="translate(-166.13 -5.135)" fill="#fff"/>
  </g>
</svg>
