<svg xmlns="http://www.w3.org/2000/svg" width="541.141" height="60.095" viewBox="0 0 541.141 60.095">
  <g id="Camada_1" data-name="Camada 1" transform="translate(0 0)">
    <path id="Caminho_9981" data-name="Caminho 9981" d="M113.779,59.954h.094l9.16-.135c4.826-.249,8.292-1.211,10.769-2.564a15.419,15.419,0,0,0,8.433,2.187h.915a32.486,32.486,0,0,0,6.273-.915c.162-.054.323-.1.478-.162a14.6,14.6,0,0,0,2.443-1.171,7.969,7.969,0,0,0,4.072.868l5.317-.357a7.646,7.646,0,0,0,1.972-.384,7.922,7.922,0,0,0,5.68,2.4h5.149a7.868,7.868,0,0,0,4.5-1.427,36.969,36.969,0,0,0,8.635,1.2,19.275,19.275,0,0,0,3.964-.384l.35-.081a18.34,18.34,0,0,0,3.729-1.44,20.144,20.144,0,0,0,8.292,1.864h.363a27.352,27.352,0,0,0,7.794-.936,12.39,12.39,0,0,0,6.279-4.038,7.566,7.566,0,0,0,1.05,1.285,7.9,7.9,0,0,0,5.559,2.282h.316l16.981-.673,5.855,2.208a7.888,7.888,0,0,0,7.262-.875,7.928,7.928,0,0,0,4.314.337l7.208-1.454a15.2,15.2,0,0,0,2.854,1.063,15.015,15.015,0,0,0,4.644.673,25.077,25.077,0,0,0,3.365-.242,14.012,14.012,0,0,0,3.809-1.2,7.868,7.868,0,0,0,3.836,1h.511l15.937-1.036a8.23,8.23,0,0,0,1.07-.168,12.116,12.116,0,0,0,1.763.586,36.742,36.742,0,0,0,8.749,1.225,19.275,19.275,0,0,0,3.964-.384l.35-.081a18.562,18.562,0,0,0,3.735-1.44,20.091,20.091,0,0,0,8.285,1.864h.363a27.319,27.319,0,0,0,7.794-.936c.168-.047.3-.128.464-.182a7.827,7.827,0,0,0,6.589,1.1l5.283-1.481a7.948,7.948,0,0,0,2.019-.922,7.841,7.841,0,0,0,5.351,2.12,8.218,8.218,0,0,0,.989-.061l6.057-.761a7.868,7.868,0,0,0,5.25-3.069c.081.054.135.121.215.175,3.432,2.255,8.076,3.567,14.208,4H385a18.334,18.334,0,0,0,8.076-1.662,20.514,20.514,0,0,0,7.881,1.649h.363a27.4,27.4,0,0,0,7.8-.936,12.263,12.263,0,0,0,6.73-4.57,7.9,7.9,0,0,0,9.752,5.485l5.095-1.427a7.881,7.881,0,0,0,1.057.04l5.317-.357a7.645,7.645,0,0,0,1.972-.384,7.922,7.922,0,0,0,5.68,2.4h5.149a7.834,7.834,0,0,0,5.048-1.864,15.6,15.6,0,0,0,2.275.781,15.09,15.09,0,0,0,4.651.673,25.076,25.076,0,0,0,3.365-.242,13.965,13.965,0,0,0,3.8-1.2A7.888,7.888,0,0,0,472.9,58.85h.512l15.937-1.036a7.885,7.885,0,0,0,1.07-.168,12.421,12.421,0,0,0,1.763.586,36.787,36.787,0,0,0,8.749,1.225,19.3,19.3,0,0,0,3.971-.384l.343-.081a18.4,18.4,0,0,0,3.7-1.434,20.114,20.114,0,0,0,8.285,1.864h.37a27.352,27.352,0,0,0,7.794-.936,13.212,13.212,0,0,0,3.56-1.669A33.961,33.961,0,0,0,540.535,59.4h.559a18.333,18.333,0,0,0,8.076-1.662,20.515,20.515,0,0,0,7.881,1.649h.363a27.4,27.4,0,0,0,7.8-.936,11.906,11.906,0,0,0,7.948-6.629c2.827-6.427,3.2-12.2,1.124-17.129-.121-.3-.256-.586-.4-.875a7.869,7.869,0,0,0,.72-2.638,35.2,35.2,0,0,0-.289-10.526c-1.629-6.488-7.02-10.365-14.437-10.365h-.673a27.177,27.177,0,0,0-9.833,2.591,14.08,14.08,0,0,0-3.863-2.181c-.215-.074-.431-.148-.673-.209a34.232,34.232,0,0,0-6.165-.875h-.458c-4.132-.054-7.4.909-9.833,2.78a16.382,16.382,0,0,0-8.325-2.113h-.673a27.426,27.426,0,0,0-9.187,2.322,7.922,7.922,0,0,0-3.3-.276l-4.523.612a7.874,7.874,0,0,0-4.26-1.642l-6.434-.485a7.881,7.881,0,0,0-5.384,1.642,7.957,7.957,0,0,0-1.494-1.965,7.868,7.868,0,0,0-6.192-2.066l-7.282.761a7.881,7.881,0,0,0-4.085,1.669,1.5,1.5,0,0,1-.3-.087,22.122,22.122,0,0,0-11.738,1.124c-.081,0-.155.067-.236.1a8,8,0,0,0-4.442-1.111l-7.343.4a7.894,7.894,0,0,0-1.7.283,7.9,7.9,0,0,0-6.932-2.019l-1.535.3A7.861,7.861,0,0,0,428.98,8.5l-6.414-.256a7.969,7.969,0,0,0-6,2.409,7.888,7.888,0,0,0-1.945,3.587,15.12,15.12,0,0,0-10.822-3.984h-.673a27.177,27.177,0,0,0-9.833,2.591,14.079,14.079,0,0,0-3.863-2.181c-.215-.074-.431-.148-.673-.209a34.23,34.23,0,0,0-6.165-.875h-.458a18.535,18.535,0,0,0-6.414.962c-.182-.047-.35-.121-.532-.155L367.29,9a7.881,7.881,0,0,0-6.777,2.019,7.935,7.935,0,0,0-5.337-.794l-1.736.35a7.922,7.922,0,0,0-4.974-2.08l-6.434-.222a7.935,7.935,0,0,0-5.936,2.349,19.256,19.256,0,0,0-3.426-.337H332a27.386,27.386,0,0,0-9.18,2.322,7.935,7.935,0,0,0-3.3-.276l-4.523.612a7.915,7.915,0,0,0-4.267-1.642l-6.38-.458a7.928,7.928,0,0,0-5.384,1.642,7.673,7.673,0,0,0-7.686-4.038l-7.282.761a7.9,7.9,0,0,0-4.085,1.669,1.645,1.645,0,0,1-.3-.087,22,22,0,0,0-11.267.983,8.641,8.641,0,0,0-.909-.337l-7.242-1.79a7.935,7.935,0,0,0-5.956.882,7.894,7.894,0,0,0-3.991-.3l-7.4,1.346a7.665,7.665,0,0,0-2.389.909l-13.932-.976a7.8,7.8,0,0,0-7.565,4.28c-2.591-3.5-6.831-5.505-12.115-5.505h-.673a27.386,27.386,0,0,0-9.18,2.322,7.935,7.935,0,0,0-3.3-.276l-4.529.612a7.875,7.875,0,0,0-4.26-1.642l-6.427-.485a7.976,7.976,0,0,0-1.972.135,7.935,7.935,0,0,0-1.265-.067l-7.336.4a7.9,7.9,0,0,0-1.7.283,7.908,7.908,0,0,0-6.932-2.019l-1.057.2a7.874,7.874,0,0,0-3.944-5.115L147.431.949a7.922,7.922,0,0,0-7.518,0l-6.831,3.688a7.875,7.875,0,0,0-4.038,5.788,36.4,36.4,0,0,0-9.671-.215l-6.636.464a7.908,7.908,0,0,0-7.356,8l.5,33.49a7.915,7.915,0,0,0,7.9,7.787Z" transform="translate(-34.467 -0.001)" fill="#081c21"/>
    <path id="Caminho_9982" data-name="Caminho 9982" d="M134.444,45.032q1.218,3.776,1.036,11.6-.262,3.5-8.985,3.951l-8.877.128-.5-33.483,6.629-.464q9.732-.794,10.6,1.8a22.513,22.513,0,0,1,.316,10.3,5.613,5.613,0,0,1-1.871,3.3A5.068,5.068,0,0,1,134.444,45.032Zm-6.966-5.169q2.019-.262,1.965-4.523c.074-1.386-.33-2.174-1.2-2.376a16.664,16.664,0,0,0-4.5-.236v7.215Zm.962,13.286c.787-.4,1.232-1.588,1.312-3.581q.2-3.8-2.3-3.836H123.77V53.5c2.255.37,3.816.242,4.671-.323Z" transform="translate(-38.306 -8.689)" fill="#efbd89"/>
    <path id="Caminho_9983" data-name="Caminho 9983" d="M156.123,55.372q-4.038.067-5.384-1.629-.942-1.171-2.241-8.325a90.749,90.749,0,0,1-1.629-14.544q-.067-5.613,1.8-6.73,3.365-2.261,10.486-2.739,6.3,0,7.5,4.368a33.712,33.712,0,0,1,.633,7.343q0,11.442-3.648,19.4a5.182,5.182,0,0,1-2.854,2.261,26.921,26.921,0,0,1-4.664.6Zm1.111-38.524-5.061,3.984L150.4,15.448l6.838-3.688,6.818,3.688-1.777,5.384Zm1.615,31.276a2.436,2.436,0,0,0,1.144-1.346,38.982,38.982,0,0,0,1.447-11.394,29.97,29.97,0,0,0-.242-4.28,3.1,3.1,0,0,0-2.982-2.558q-3.318-.316-4.913,1.346-1.05,1.043.357,11.691a33.965,33.965,0,0,0,1.2,5.929,2.142,2.142,0,0,0,2.147.969,8.178,8.178,0,0,0,1.837-.357Z" transform="translate(-48.032 -3.846)" fill="#efbd89"/>
    <path id="Caminho_9984" data-name="Caminho 9984" d="M184.657,25.76l8,18.333-.424-16.476,7.336-.4-1.09,32.979h-5.149l-7.895-18.2-.283,16.234-5.317.357L178.6,26.951Z" transform="translate(-58.408 -8.423)" fill="#efbd89"/>
    <path id="Caminho_9985" data-name="Caminho 9985" d="M230.407,54.347q-.2,4.711-5.653,6.057-3.257.673-9.194-.774c-1.959-.458-3.15-2.113-3.554-4.967q-.969-7.874.545-26.834l6.434.478q-1.474,17.162-.929,22.573.289,2.443,1.555,2.961a3.473,3.473,0,0,0,2.356.168,2.706,2.706,0,0,0,2.073-2.483q.976-6.057-.942-21.382l6.347-.855a171.429,171.429,0,0,1,.962,25.057Z" transform="translate(-69.207 -9.1)" fill="#efbd89"/>
    <path id="Caminho_9986" data-name="Caminho 9986" d="M251.255,40.716Q262.7,45,257.2,57.461a4.038,4.038,0,0,1-2.854,2.261,19.969,19.969,0,0,1-5.633.633c-3.21-.148-5.135-.673-5.761-1.629a10.91,10.91,0,0,1-1.891-6.313,13,13,0,0,1,1.279-5.472l5.169.673c-1.1,1.831-1.252,3.473-.444,4.927.343.673,1.191.976,2.537.969a6.323,6.323,0,0,0,2.8-.377,1.662,1.662,0,0,0,1.144-1.346q.545-3.412-2.908-4.671-9.49-4.341-9.645-9.759-.081-6.461,1.609-7.6Q245.642,27.5,251.161,27q5.674,0,6.73,4.375a27.81,27.81,0,0,1,.094,7.874l-4.819.222a26.865,26.865,0,0,0-.2-2.726,2.972,2.972,0,0,0-2.632-2.907q-3.035,0-3.594,2.537Q246.221,38.327,251.255,40.716Z" transform="translate(-78.809 -8.829)" fill="#efbd89"/>
    <path id="Caminho_9987" data-name="Caminho 9987" d="M299.891,29.9l.168,5.909h-10.4V42.3l7.639.242v5.889l-7.639.485v3.554l10.452.518.411,5.8-17.324.673.9-30.724Z" transform="translate(-92.609 -9.397)" fill="#fff"/>
    <path id="Caminho_9988" data-name="Caminho 9988" d="M326.271,42.781,333,58.18l-7.336,1.481-3.365-7.78-3.836,8.675L311.68,58l6.656-15.217-6.6-15.009,7.4-1.346,3.17,7.282,3.446-7.969,7.2,1.79Z" transform="translate(-101.921 -8.417)" fill="#fff"/>
    <path id="Caminho_9989" data-name="Caminho 9989" d="M361.342,54.452q-3.7,5.169-7.1,5.707a9.819,9.819,0,0,1-4.556-.222q-4.482-.983-5.6-6.172-1.9-11.8-.942-19.262a7.255,7.255,0,0,1,5.021-6.192,14.349,14.349,0,0,1,7.565-.821q4.637,1,4.745,5.653.061,2.134-.034,4.711l-5.485.633c-.054-.747-.128-1.481-.222-2.208-.2-1.2-.828-1.831-1.878-1.891a3.6,3.6,0,0,0-2.423.424c-.808.363-1.312,1.346-1.521,2.988a58.957,58.957,0,0,0,.673,13.952c.37,1.683,1.447,2.3,3.224,1.851q1.73-.424,4.617-3.8Z" transform="translate(-112.103 -8.929)" fill="#fff"/>
    <path id="Caminho_9990" data-name="Caminho 9990" d="M372.673,58.9,372,25.011l7.282-.761-.76,27.11H388.7l-.04,6.5Z" transform="translate(-121.644 -7.929)" fill="#fff"/>
    <path id="Caminho_9991" data-name="Caminho 9991" d="M417.439,54.331q-.2,4.711-5.654,6.057-3.264.673-9.187-.774-2.948-.673-3.56-4.967-.969-7.895.572-26.867l6.434.478q-1.46,17.162-.929,22.573.3,2.443,1.555,2.961a3.473,3.473,0,0,0,2.356.168,2.7,2.7,0,0,0,2.073-2.483q.989-6.057-.942-21.382l6.32-.821A171.433,171.433,0,0,1,417.439,54.331Z" transform="translate(-130.362 -9.084)" fill="#fff"/>
    <path id="Caminho_9992" data-name="Caminho 9992" d="M438.276,40.726q11.442,4.28,5.95,16.745a4.038,4.038,0,0,1-2.854,2.261,19.968,19.968,0,0,1-5.633.633c-3.21-.148-5.135-.673-5.761-1.629a10.91,10.91,0,0,1-1.891-6.313,13,13,0,0,1,1.279-5.472l5.169.673q-1.642,2.746-.444,4.927c.343.673,1.191.976,2.537.969a6.323,6.323,0,0,0,2.8-.377,1.669,1.669,0,0,0,1.151-1.346q.538-3.412-2.914-4.671-9.476-4.341-9.665-9.759-.074-6.461,1.609-7.6,3.035-2.261,8.561-2.739,5.674,0,6.764,4.375a28.152,28.152,0,0,1,.094,7.874l-4.819.222a26.874,26.874,0,0,0-.2-2.726,2.985,2.985,0,0,0-2.632-2.907q-3.035,0-3.594,2.537Q433.241,38.337,438.276,40.726Z" transform="translate(-139.953 -8.838)" fill="#fff"/>
    <path id="Caminho_9993" data-name="Caminho 9993" d="M457.2,32.319,456.57,24l6.414.256-.5,8.285Zm.592,27.352-1.131-24.458,6.407-.74v23.7Z" transform="translate(-149.296 -7.848)" fill="#fff"/>
    <path id="Caminho_9994" data-name="Caminho 9994" d="M475.316,26.178l4.395,23.273L484.489,25l7.895,1.393L482.376,58.652l-6.057.761L468,27.692Z" transform="translate(-153.033 -8.175)" fill="#fff"/>
    <path id="Caminho_9995" data-name="Caminho 9995" d="M516.557,26.684a5.3,5.3,0,0,1,2.854,2.255q3.668,7.942,3.668,19.39a34.272,34.272,0,0,1-.626,7.336q-1.211,4.375-7.5,4.375-7.114-.5-10.492-2.759-1.871-1.131-1.8-6.73A90.617,90.617,0,0,1,504.294,36q1.285-7.161,2.221-8.332,1.346-1.71,5.384-1.629a28.266,28.266,0,0,1,4.657.646Zm-3.782,6.259a2.193,2.193,0,0,0-2.147.962,31.968,31.968,0,0,0-1.2,5.916q-1.413,10.674-.35,11.711,1.6,1.649,4.906,1.346a3.142,3.142,0,0,0,2.988-2.558,31.5,31.5,0,0,0,.236-4.3,38.885,38.885,0,0,0-1.44-11.374,2.51,2.51,0,0,0-1.151-1.346,8.7,8.7,0,0,0-1.837-.39Z" transform="translate(-164.364 -8.513)" fill="#fff"/>
    <path id="Caminho_9996" data-name="Caminho 9996" d="M543.929,40.723q11.442,4.28,5.943,16.745a4.038,4.038,0,0,1-2.854,2.261,19.9,19.9,0,0,1-5.633.633q-4.812-.222-5.761-1.629a10.964,10.964,0,0,1-1.891-6.313,13.109,13.109,0,0,1,1.279-5.472l5.169.673q-1.649,2.746-.444,4.927c.35.673,1.191.976,2.544.969a6.287,6.287,0,0,0,2.793-.377,1.669,1.669,0,0,0,1.151-1.346q.532-3.412-2.907-4.671-9.49-4.348-9.658-9.766-.067-6.461,1.615-7.6,3.042-2.261,8.561-2.739,5.66,0,6.764,4.375a28.152,28.152,0,0,1,.094,7.874l-4.819.222c-.04-1.077-.108-2.019-.209-2.726a2.985,2.985,0,0,0-2.631-2.907q-3.035,0-3.594,2.537Q538.888,38.334,543.929,40.723Z" transform="translate(-174.501 -8.835)" fill="#fff"/>
    <path id="Caminho_9997" data-name="Caminho 9997" d="M576.833,32.319,576.2,24l6.414.256-.491,8.305Zm.579,27.352-1.131-24.458,6.414-.74v23.7Z" transform="translate(-188.411 -7.848)" fill="#efbd89"/>
    <path id="Caminho_9998" data-name="Caminho 9998" d="M593.767,25.76l8.009,18.333-.411-16.462,7.343-.4-1.1,32.979h-5.169l-7.895-18.212-.276,16.234-5.324.357L587.71,26.951Z" transform="translate(-192.174 -8.423)" fill="#efbd89"/>
    <path id="Caminho_9999" data-name="Caminho 9999" d="M639.725,54.448q-3.682,5.169-7.094,5.707a9.853,9.853,0,0,1-4.563-.222q-4.482-.983-5.593-6.172-1.9-11.8-.942-19.289a7.235,7.235,0,0,1,5.021-6.192,14.342,14.342,0,0,1,7.578-.794q4.637,1,4.745,5.653.047,2.133-.04,4.711l-5.485.633c-.047-.747-.121-1.481-.222-2.208a1.936,1.936,0,0,0-1.871-1.891,3.628,3.628,0,0,0-2.43.424c-.8.363-1.306,1.346-1.514,2.988a59.428,59.428,0,0,0,.673,13.952c.377,1.683,1.447,2.3,3.23,1.851q1.716-.424,4.61-3.8Z" transform="translate(-203.128 -8.924)" fill="#efbd89"/>
    <path id="Caminho_10000" data-name="Caminho 10000" d="M651.07,58.9l-.72-33.887,7.282-.761-.787,27.11h10.17v6.5Z" transform="translate(-212.656 -7.929)" fill="#efbd89"/>
    <path id="Caminho_10001" data-name="Caminho 10001" d="M695.878,54.331q-.215,4.711-5.653,6.057-3.257.673-9.194-.774-2.948-.673-3.56-4.967-.962-7.895.579-26.867l6.427.478q-1.467,17.162-.922,22.573.289,2.443,1.555,2.961a3.473,3.473,0,0,0,2.356.168,2.721,2.721,0,0,0,2.073-2.483q.983-6.057-.949-21.382l6.286-.821A171.538,171.538,0,0,1,695.878,54.331Z" transform="translate(-221.402 -9.084)" fill="#efbd89"/>
    <path id="Caminho_10002" data-name="Caminho 10002" d="M716.669,40.723q11.442,4.28,5.95,16.745a4.038,4.038,0,0,1-2.854,2.261,19.969,19.969,0,0,1-5.633.633c-3.217-.148-5.135-.673-5.768-1.629a10.964,10.964,0,0,1-1.891-6.313,13.113,13.113,0,0,1,1.279-5.472l5.176.673q-1.656,2.746-.444,4.927c.343.673,1.191.976,2.537.969a6.266,6.266,0,0,0,2.793-.377,1.669,1.669,0,0,0,1.151-1.346q.532-3.412-2.907-4.671-9.49-4.348-9.658-9.766-.067-6.461,1.615-7.6,3.035-2.261,8.561-2.739,5.674,0,6.764,4.375a28.161,28.161,0,0,1,.094,7.874l-4.819.222q-.06-1.615-.2-2.726a2.972,2.972,0,0,0-2.632-2.907q-3.035,0-3.6,2.537Q711.628,38.334,716.669,40.723Z" transform="translate(-230.981 -8.835)" fill="#efbd89"/>
    <path id="Caminho_10003" data-name="Caminho 10003" d="M748.457,26.707a5.3,5.3,0,0,1,2.854,2.255q3.655,7.975,3.648,19.424a34.264,34.264,0,0,1-.626,7.336q-1.2,4.375-7.5,4.375-7.114-.5-10.493-2.759-1.871-1.131-1.8-6.73a90.611,90.611,0,0,1,1.635-14.551q1.292-7.148,2.241-8.319,1.346-1.71,5.384-1.629a28.268,28.268,0,0,1,4.657.6Zm-3.782,6.259a2.193,2.193,0,0,0-2.147.962,31.974,31.974,0,0,0-1.2,5.916q-1.4,10.674-.35,11.711,1.6,1.649,4.906,1.346a3.142,3.142,0,0,0,2.988-2.558,31.473,31.473,0,0,0,.236-4.3,38.885,38.885,0,0,0-1.467-11.421,2.51,2.51,0,0,0-1.151-1.346,8.6,8.6,0,0,0-1.81-.343Z" transform="translate(-240.182 -8.536)" fill="#efbd89"/>
    <path id="Caminho_10004" data-name="Caminho 10004" d="M775.839,40.723q11.442,4.28,5.943,16.745a4.038,4.038,0,0,1-2.854,2.261,19.9,19.9,0,0,1-5.633.633q-4.812-.222-5.761-1.629a10.963,10.963,0,0,1-1.891-6.313,13.109,13.109,0,0,1,1.279-5.472l5.169.673q-1.642,2.746-.444,4.927c.35.673,1.191.976,2.544.969a6.286,6.286,0,0,0,2.793-.377,1.669,1.669,0,0,0,1.151-1.346q.532-3.412-2.908-4.671-9.49-4.348-9.658-9.766-.074-6.461,1.615-7.6,3.035-2.261,8.561-2.739,5.66,0,6.73,4.375a28.151,28.151,0,0,1,.094,7.874l-4.819.222c-.04-1.077-.108-2.019-.209-2.726a2.977,2.977,0,0,0-2.632-2.907q-3.035,0-3.594,2.537Q770.8,38.334,775.839,40.723Z" transform="translate(-250.328 -8.835)" fill="#efbd89"/>
    <path id="Caminho_10005" data-name="Caminho 10005" d="M80.048,44.554A1.669,1.669,0,0,0,77.524,44L54.836,61.845,49.3,56.75c-.289.182,2.82,4.166,2.558,4.381-.787.956-.929,1.837-1.8,2.733-.262.363-.861.538-.774,1.09A.626.626,0,0,0,49,64.893a.673.673,0,0,0-.485,1.144h0l2.019,2.019a3.1,3.1,0,0,0,4.24.168L79.651,46.573a1.669,1.669,0,0,0,.4-2.019Z" transform="translate(-15.812 -14.268)" fill="#081c21"/>
    <path id="Caminho_10006" data-name="Caminho 10006" d="M31.714,43.24c-3.237,2.342-1.911,6.831-.72,10.3.337.135.673.256,1,.357-.33-.1-.673-.222-1-.357.054.155.1.3.155.451-.054-.148-.1-.3-.155-.451-1.292-.511-2.6-1.124-3.789-.673-2.255.673-3.547,3.042-3.675,5.485l1.6,1.6a10.365,10.365,0,0,1,3.251.673,17.5,17.5,0,0,0,2.6.794,11.209,11.209,0,0,0,1.164,0,9.289,9.289,0,0,0,.942-.256q.3-.148.606-.323L38.135,56.4a16.422,16.422,0,0,0,1.346-2.14c.276-.983.357-2.019.673-2.988.2-.619.437-1.232.612-1.864a5.5,5.5,0,0,1-.734-2.6,4.321,4.321,0,0,1,.067-.888l-3.365-3.365A5.783,5.783,0,0,0,31.714,43.24Z" transform="translate(-7.705 -13.829)" fill="#cb806a"/>
    <path id="Caminho_10007" data-name="Caminho 10007" d="M9.75,45.233l9.422,9.422c.128-2.443,1.42-4.832,3.668-5.485,1.2-.444,2.5.168,3.8.673-1.238-3.426-2.551-7.949.693-10.284a5.792,5.792,0,0,1,5.041-.673L24.294,30.81A27.863,27.863,0,0,0,9.75,45.233Z" transform="translate(-3.2 -10.074)" fill="#e6ad6f"/>
    <path id="Caminho_10008" data-name="Caminho 10008" d="M9.413,35.856C12.368,32.128,15.47,28.4,19.569,26.1a4.038,4.038,0,0,1-1.413-.552,41.168,41.168,0,0,0-3.567-2.342,4.577,4.577,0,0,1-2.457.579L2.38,33.541A7.8,7.8,0,0,1,3,36.98a6.172,6.172,0,0,1-.2,1.238l3.231,3.217A5.721,5.721,0,0,1,6.7,40.271C7.63,38.77,8.383,37.263,9.413,35.856Z" transform="translate(-0.79 -7.589)" fill="#b3b3b3"/>
    <path id="Caminho_10009" data-name="Caminho 10009" d="M33.924,43.24c-3.056,2.208-2.019,6.326-.929,9.665a5.438,5.438,0,0,1,.572.74,5.646,5.646,0,0,0,.673.215c-.215-.061-.424-.135-.673-.215.3.451.572.936.855,1.42a3.059,3.059,0,0,1,.673.135,6.613,6.613,0,0,0-.673-.135c.121.2.242.4.377.606l-.094-.114.094.094c-.135-.2-.256-.4-.377-.606a6.414,6.414,0,0,0-4.132.673A27.5,27.5,0,0,0,37.5,59.252l2.874-2.874a16.423,16.423,0,0,0,1.346-2.14c.276-.983.357-2.019.673-2.988.2-.619.437-1.232.612-1.864a5.5,5.5,0,0,1-.761-2.578,4.321,4.321,0,0,1,.067-.888l-3.365-3.365A5.783,5.783,0,0,0,33.924,43.24Z" transform="translate(-9.915 -13.829)" fill="#e8a793"/>
    <path id="Caminho_10010" data-name="Caminho 10010" d="M13.87,40.357c.236.357.471.713.713,1.063A26.544,26.544,0,0,1,22.1,34.246a28.88,28.88,0,0,0-6.32,8.8,41.283,41.283,0,0,0,6.663,7.067,4.307,4.307,0,0,1,1.716-.976c1.2-.444,2.5.168,3.8.673-.061-.162-.114-.33-.175-.491a4.335,4.335,0,0,0-.606-.612l.188.188-.188-.188a4.335,4.335,0,0,1,.606.612c-1.131-3.365-2.194-7.545.9-9.772a5.792,5.792,0,0,1,5.041-.673L25.641,30.8A27.843,27.843,0,0,0,13.87,40.357Z" transform="translate(-4.547 -10.071)" fill="#efbd89"/>
    <path id="Caminho_10011" data-name="Caminho 10011" d="M19.676,25.755a40.1,40.1,0,0,0-3.567-2.335,4.63,4.63,0,0,1-2.457.572l-6.192,6.2q.949,2.019,2.053,3.991a25.171,25.171,0,0,1,8.359-5.66A22.042,22.042,0,0,1,21.089,26.3,4.038,4.038,0,0,1,19.676,25.755Z" transform="translate(-2.451 -7.658)" fill="#d0d2d3"/>
    <path id="Caminho_10012" data-name="Caminho 10012" d="M20.365,25.755A40.1,40.1,0,0,0,16.8,23.42a4.63,4.63,0,0,1-2.457.572L9.57,28.764a12.115,12.115,0,0,1,4.173-.673,11.011,11.011,0,0,1,3.931.828c.289-.135.586-.269.888-.39a22.042,22.042,0,0,1,3.217-2.221A4.038,4.038,0,0,1,20.365,25.755Z" transform="translate(-3.141 -7.658)" fill="#fff"/>
    <path id="Caminho_10013" data-name="Caminho 10013" d="M11.2,37.745c-1.03,1.407-1.784,2.914-2.692,4.415a5.721,5.721,0,0,0-.673,1.164l1.46,1.5A27.863,27.863,0,0,1,23.828,30.4L21.466,28h-.114C17.232,30.288,14.15,34.017,11.2,37.745Z" transform="translate(-2.572 -9.155)" fill="#4e4f4f"/>
    <path id="Caminho_10014" data-name="Caminho 10014" d="M9.229,47.55c-.2.337-.39.673-.6,1a4.382,4.382,0,0,0-.289.431c0,.087,0,.168,0,.256a5.639,5.639,0,0,1-.04.821l.128.128C8.67,49.307,8.926,48.418,9.229,47.55Z" transform="translate(-2.725 -15.548)" fill="#818181"/>
    <path id="Caminho_10015" data-name="Caminho 10015" d="M25.036,28A25.145,25.145,0,0,0,19.1,32.772a2.4,2.4,0,0,1,2.887.323,1.844,1.844,0,0,1,.262.3,27.844,27.844,0,0,1,5.29-2.988L25.151,28Z" transform="translate(-6.257 -9.155)" fill="#818181"/>
    <path id="Caminho_10016" data-name="Caminho 10016" d="M36.574,36.949,30.3,30.67,28,32.958l6.279,6.279-.485.485.6.242a8.829,8.829,0,0,1,1.117.458c.047,0,1.952,1.487,1.979,1.514h0a9.119,9.119,0,0,1,2.4,4.18l.3,2.342a9.14,9.14,0,0,1-.215,1.979l.215.215a4.537,4.537,0,0,1-.316.417h0a1.555,1.555,0,0,0-.565-.061.9.9,0,1,0,0,1.8c-.175,0,.067.108.128.175.141.175.256.384.384.572.3.424.6.841.922,1.252.135.175.276.35.417.518a.775.775,0,0,0,.094.114c.491.579,1.016,1.131,1.555,1.669.808.808,2.261-.236,1.629-1.245a5.874,5.874,0,0,0-1.932-2.107c-.283-.323-.552-.673-.821-.976s-.4-.532-.619-.794A5.034,5.034,0,0,0,41.8,50.41l.579-.579a3.365,3.365,0,0,1,.188-1.158,7.894,7.894,0,0,0,.323-1.185,14.86,14.86,0,0,0,0-2.322,14.578,14.578,0,0,0-.592-2.329,18.111,18.111,0,0,0-1.635-2.733q-1.023-1.252-2.154-2.389a4.993,4.993,0,0,1-.673-.814l-.606-.626Z" transform="translate(-9.167 -10.029)" fill="#fff"/>
    <path id="Caminho_10017" data-name="Caminho 10017" d="M29.826,33.5c-.875-.754-1.8-1.454-2.692-2.16s-1.7-1.541-2.618-2.187l-3.695,3.668A15.184,15.184,0,0,1,23.183,31.2a2.261,2.261,0,0,1,2.107,0l.242-.135c.31-.148.673.242.411.5a6.253,6.253,0,0,1,.727.612c1.454,1.4,2.82,2.968,4.193,4.462.673.761.034,2.335-1.1,1.9s-2.362-1.01-3.459,0a8.009,8.009,0,0,0-1.864,3.284,5.283,5.283,0,0,0,.209,3.143,15.181,15.181,0,0,1,1.016,2.181,1.178,1.178,0,0,1-.814,1.407c-.673.269-1.144-.168-1.844-.209a4.711,4.711,0,0,0-1.211.135l.256.249L17.7,53.1,9.817,45.2l3.177-3.177a20.009,20.009,0,0,1,2.019-2.692,20.923,20.923,0,0,1,1.393-2.093L8.72,44.919,21.434,57.633h0a24.547,24.547,0,0,1,3.056-.276L22.436,55.3l-.821.821-.377-.377a1.238,1.238,0,0,1-1.407-1.077A3.317,3.317,0,0,1,19.8,54.3l-1.285-1.292,2.019-2.019a3.3,3.3,0,0,1,1.1-1.077l1.265-1.265.821.774A10.9,10.9,0,0,1,25.4,49.6a6,6,0,0,0,1.656.2,8.359,8.359,0,0,0-.653-2.934,6.851,6.851,0,0,1-.74-1.965,1.077,1.077,0,0,1-.3-.545c-.565-2.436.909-5.142,3.533-5.337a8.547,8.547,0,0,1,3.769.848,4.174,4.174,0,0,1,2.107,2.807,9.214,9.214,0,0,1,.5,4.368c-.155,1.1-.262,2.457-1.393,3.029-.606.31-1.178.054-1.777.215-.969.269-.707,1.2-.848,1.965a1.77,1.77,0,0,1-.673,1.232c-.074.054-1.245.559-1.245.437a1.144,1.144,0,0,1-.848,1.1h-.168a1.474,1.474,0,0,1-.3,0l-2.234,2.288c.337,0,.673-.047,1.016-.081a7.935,7.935,0,0,0,3.029-.875,7.027,7.027,0,0,1,1.71-.9h.067l2.322-2.315-.087-.087a.645.645,0,1,1,.915-.909l.081.081.545-.545c.283-1.878,1.144-3.628,1.111-5.546A17.807,17.807,0,0,0,29.826,33.5ZM33.7,51.044a.645.645,0,1,1-.936.888l-.054-.054a.645.645,0,1,1,.936-.888Z" transform="translate(-2.863 -9.532)" fill="#010101"/>
    <path id="Caminho_10018" data-name="Caminho 10018" d="M9.44,35.892c2.941-3.708,6-7.4,10.1-9.7a4.038,4.038,0,0,1-1.4-.552,41.675,41.675,0,0,0-3.547-2.322,4.61,4.61,0,0,1-2.45.572l-9.7,9.671a7.821,7.821,0,0,1,.619,3.426,6.057,6.057,0,0,1-.188,1.225l3.2,3.2a5.976,5.976,0,0,1,.673-1.158C7.663,38.766,8.41,37.272,9.44,35.892Z" transform="translate(-0.809 -7.625)" fill="#d76069"/>
    <path id="Caminho_10019" data-name="Caminho 10019" d="M19.645,25.809A42.315,42.315,0,0,0,16.1,23.48a4.583,4.583,0,0,1-2.443.572L7.49,30.217q.949,2.019,2.019,3.971a25.03,25.03,0,0,1,8.346-5.647,21.416,21.416,0,0,1,3.2-2.208,4.038,4.038,0,0,1-1.407-.525Z" transform="translate(-2.461 -7.678)" fill="#ee8083"/>
    <path id="Caminho_10020" data-name="Caminho 10020" d="M20.351,25.809A42.314,42.314,0,0,0,16.8,23.48a4.583,4.583,0,0,1-2.443.572L9.65,28.8a12.115,12.115,0,0,1,4.146-.673,11.2,11.2,0,0,1,3.91.828c.289-.135.586-.262.888-.39a21.416,21.416,0,0,1,3.2-2.208,4.038,4.038,0,0,1-1.44-.545Z" transform="translate(-3.167 -7.678)" fill="#fff"/>
    <path id="Caminho_10021" data-name="Caminho 10021" d="M9.1,33.311h0a.781.781,0,0,0,1.1,1.1h0a.787.787,0,0,0-1.1-1.1Z" transform="translate(-2.915 -10.839)" fill="#d76069"/>
    <path id="Caminho_10022" data-name="Caminho 10022" d="M10.537,37.1l.061.061a.316.316,0,0,0,.444-.444l-.061-.061a.316.316,0,0,0-.444.444Z" transform="translate(-3.435 -11.964)" fill="#d76069"/>
    <path id="Caminho_10023" data-name="Caminho 10023" d="M13.444,34.626h-.034a.628.628,0,1,0,.888.888h0a.616.616,0,1,0-.855-.888Z" transform="translate(-4.336 -11.272)" fill="#d76069"/>
    <path id="Caminho_10024" data-name="Caminho 10024" d="M6,23.95,3.142,26.8a10.768,10.768,0,0,0,0,15.17L13.318,52.15a12.788,12.788,0,0,0,15.157,2.16h0l1.938,1.938a3.553,3.553,0,0,0,5.028-5.021L33.5,49.283A12.788,12.788,0,0,0,31.349,34.12L21.172,23.95A10.769,10.769,0,0,0,6,23.95Zm-.4,5.3L8.445,26.4a7.275,7.275,0,0,1,9.059-.983,36.815,36.815,0,0,0-5.485,4.529,34.4,34.4,0,0,0-6.73,9.274c-.707-.532-3.937-5.943.3-9.968ZM35.138,53.429a.673.673,0,0,1-.956.047L31.766,51.06h0l-.734-.734a.673.673,0,0,1,.909-.909l3.17,3.157A.673.673,0,0,1,35.138,53.429Zm-5.2-4.186-.054-.034a.645.645,0,1,1,.936-.888l.054.054a.639.639,0,1,1-.936.868Zm.962-2.524c-1.346-.727-2.463-.841-3.1-.316s-.673,1.649-.141,3.136l.108.269-.04.061a1.9,1.9,0,0,0-1.7.236,1.871,1.871,0,0,0-.5,1.75,9.328,9.328,0,0,1-7.774-.673,3.81,3.81,0,0,1,.949-3.237c.882-.747,2.423-.781,4.334-.121a13.784,13.784,0,0,1,1.561.673l.256.128a.565.565,0,0,0,.734-.761c-.33-.612-.626-1.211-.888-1.81a19.713,19.713,0,0,1-.882-2.369c-.841-2.8-.673-4.954.431-5.9s3.264-.754,5.9.525l.135.067A9.321,9.321,0,0,1,30.9,46.719ZM27.311,34.988a5.553,5.553,0,0,0-4.523,1.05c-1.864,1.582-2.268,4.529-1.144,8.292.087.3.182.586.283.882a5.627,5.627,0,0,0-4.711,1.023,5.115,5.115,0,0,0-1.676,3.237L8.755,42.681A32.306,32.306,0,0,1,14.812,34.4a33.261,33.261,0,0,1,6.73-5.209Zm-7.457-7.457a35.967,35.967,0,0,0-6.643,5.27,35.052,35.052,0,0,0-6.151,8.191l-.034-.04a31.356,31.356,0,0,1,6.6-9.389A34.028,34.028,0,0,1,19.295,27Z" transform="translate(-0.017 -6.809)" fill="#081c21"/>
    <path id="Caminho_10025" data-name="Caminho 10025" d="M47.674,74.79a.37.37,0,1,0,.32.367A.37.37,0,0,0,47.674,74.79Z" transform="translate(-15.495 -24.454)" fill="#081c21"/>
    <path id="Caminho_10026" data-name="Caminho 10026" d="M48.693,74.09a.363.363,0,1,0,.363.363A.363.363,0,0,0,48.693,74.09Z" transform="translate(-15.814 -24.226)" fill="#081c21"/>
  </g>
</svg>
