<svg xmlns="http://www.w3.org/2000/svg" width="593.302" height="51.669" viewBox="0 0 593.302 51.669">
  <g id="Camada_1" data-name="Camada 1" transform="translate(0 0)">
    <path id="Caminho_9885" data-name="Caminho 9885" d="M610.3,1.841h-8.608a7.868,7.868,0,0,0-3.843,1.043,34.2,34.2,0,0,0-7.181-1.036h-8.6a7.9,7.9,0,0,0-5.68,2.409V4.29a7.787,7.787,0,0,0-3.567-1.615L568.707,2a7.881,7.881,0,0,0-8.621,4.967c-2.652-3.15-6.7-4.954-11.7-4.954h-.673a30.246,30.246,0,0,0-6.057,1.158,7.827,7.827,0,0,0-4.819-1.346L517.153,3a7.586,7.586,0,0,0-1.077.162,7.819,7.819,0,0,0-1.582-.471l-4.112-.673a7.868,7.868,0,0,0-7.767,3.365,7.861,7.861,0,0,0-5.088-2.356L491.113,2.6a8.015,8.015,0,0,0-1.272,0,7.874,7.874,0,0,0-5.25-1.346l-6.407.633a2.95,2.95,0,0,0-.424.081l-5.983-.962a7.922,7.922,0,0,0-6.1,1.575q-.269.209-.525.444a8.258,8.258,0,0,0-1.568-.175,8.951,8.951,0,0,0-2.733.471,7.861,7.861,0,0,0-5.384-1.2l-7.107.976a7.915,7.915,0,0,0-6.73,8.992l2.975,20.1L437.5,8.214a7.921,7.921,0,0,0-6.32-5.526l-4.112-.673A7.915,7.915,0,0,0,420.681,3.8a7.927,7.927,0,0,0-.673-.909A7.9,7.9,0,0,0,414.448.266L408.055,0a7.861,7.861,0,0,0-4.711,1.346l-3.19-.559A7.874,7.874,0,0,0,393.376,2.8a7.922,7.922,0,0,0-5.33-.787l-7.323,1.46A7.868,7.868,0,0,0,376.086,6.4a7.8,7.8,0,0,0-4.711-2.019L355.76,3.261a8.016,8.016,0,0,0-3.446-.619l-7.336.411a7.9,7.9,0,0,0-1.7.283,7.915,7.915,0,0,0-6.9-1.992l-1.541.3A7.874,7.874,0,0,0,330.8.293L324.35,0a7.821,7.821,0,0,0-5.9,2.315l-.054-.061A7.874,7.874,0,0,0,312.2.192l-7.282.761a7.794,7.794,0,0,0-4.294,1.864l-4.22.236a7.766,7.766,0,0,0-1.7.283,7.928,7.928,0,0,0-6.939-2.019L281.713,2.48a8.278,8.278,0,0,0-1.73.572,13.522,13.522,0,0,0-1.265-.586,6.112,6.112,0,0,0-.673-.209,33.039,33.039,0,0,0-6.172-.875h-.458c-5.384-.094-9.288,1.487-11.664,4.556a11.279,11.279,0,0,0-1.925,3.628,7.881,7.881,0,0,0-6.845-5.182L236.977,3.362a7.827,7.827,0,0,0-5.028-1.487L212.31,3a7.5,7.5,0,0,0-1.615.262c-4.213-1.77-10.143-2.181-18.771-1.393a7.888,7.888,0,0,0-3.21,1.043c-.33-.148-.639-.323-.983-.451a5.658,5.658,0,0,0-.673-.209,33.039,33.039,0,0,0-6.151-.875h-.458c-4.085-.074-7.323.841-9.692,2.632a28.267,28.267,0,0,0-10.351-2.147h-8.595a7.9,7.9,0,0,0-5.687,2.409c0,.04-.061.087-.1.128l-2.443.31a7.948,7.948,0,0,0-4.267-1.642l-6.427-.478a7.72,7.72,0,0,0-3.722.673,17.324,17.324,0,0,0-6.542-1.245h-.673A24.453,24.453,0,0,0,109.478,6.2c-4.435,3.13-4.98,8.884-4.92,14.275a14.282,14.282,0,0,0,1.817,6.576,21.389,21.389,0,0,0-1.736,7.955,18.885,18.885,0,0,0,3.224,11c2.807,4.18,7.868,4.933,11.966,5.122h.363a27.379,27.379,0,0,0,7.794-.929,13.629,13.629,0,0,0,2.867-1.2,12.236,12.236,0,0,0,2.544.942,37.017,37.017,0,0,0,8.749,1.218,19.275,19.275,0,0,0,3.964-.384,2.941,2.941,0,0,0,.35-.081,18.4,18.4,0,0,0,2.934-1.043,7.807,7.807,0,0,0,2.214.74l5.876.983a7.767,7.767,0,0,0,1.306.108A7.9,7.9,0,0,0,166.5,45.3a9.994,9.994,0,0,0,2.093,1.812c3.432,2.261,8.076,3.567,14.208,4h.559a18.966,18.966,0,0,0,7.168-1.265,7.773,7.773,0,0,0,2.558.673l5.889.5a7.848,7.848,0,0,0,4.213-.808,7.874,7.874,0,0,0,3.742,1.4,6.684,6.684,0,0,0,.814.047,7.9,7.9,0,0,0,5.571-2.3l1.038-1.031c.054.047.094.114.148.162a7.908,7.908,0,0,0,6.172,1.884l6.057-.761a7.78,7.78,0,0,0,3.008-1.043,7.881,7.881,0,0,0,4,1.124h.33l17.331-.707a7.881,7.881,0,0,0,5.552-2.551,8.391,8.391,0,0,0,.673-.9,10.1,10.1,0,0,0,1.952,1.622c3.432,2.261,8.076,3.567,14.208,4h.552a18.313,18.313,0,0,0,8.13-1.683,7.908,7.908,0,0,0,2.51.276l5.317-.35a8.076,8.076,0,0,0,1.979-.384,7.908,7.908,0,0,0,5.674,2.4H303.1a7.868,7.868,0,0,0,3.439-.821h.451l13.4-.875c.087.074.155.162.249.229a7.9,7.9,0,0,0,4.624,1.494,8.036,8.036,0,0,0,2.14-.289l5.088-1.427a8.02,8.02,0,0,0,1.063,0l5.317-.35A7.942,7.942,0,0,0,340.846,49a7.915,7.915,0,0,0,5.674,2.4h5.155a7.868,7.868,0,0,0,4.893-1.736l15.17-.619a7.908,7.908,0,0,0,7.572-8.453l-.411-5.8a7.874,7.874,0,0,0-2.813-5.492V24.226c.188-.168.377-.337.552-.518s.377-.471.565-.707l5.781,22.015a7.908,7.908,0,0,0,7.639,5.9,8.126,8.126,0,0,0,.988-.06l6.059-.761a7.827,7.827,0,0,0,4.61-2.369,7.861,7.861,0,0,0,8.8,3.426L416.3,49.68l3.3.673a7.921,7.921,0,0,0,6.872-1.9,7.888,7.888,0,0,0,8.076,2.934l6.535-1.5a7.868,7.868,0,0,0,5.061-3.715,7.735,7.735,0,0,0,.478-1.05,7.9,7.9,0,0,0,6.764,5.519l5.633.559h.781a7.915,7.915,0,0,0,4.334-1.292,8.151,8.151,0,0,0,2.84.189l6.65-.761a7.908,7.908,0,0,0,2.928-.962,8.078,8.078,0,0,0,2.383.673l5.539.626a7.31,7.31,0,0,0,1.434,0,7.935,7.935,0,0,0,4.711,1.541h.626l5.6-.444a7.915,7.915,0,0,0,3.231-.969l2.847.565a7.922,7.922,0,0,0,6.865-1.911,7.875,7.875,0,0,0,8.076,2.934l4.866-1.117a7.828,7.828,0,0,0,1.817.242,8.022,8.022,0,0,0,.956-.04l6.057-.761a7.888,7.888,0,0,0,3.89-1.615c2.874,2.389,6.784,2.941,10.1,3.1h.363a27.392,27.392,0,0,0,7.861-.956,13.5,13.5,0,0,0,2.315-.922l5.169,1.03a7.922,7.922,0,0,0,6.831-1.891,7.732,7.732,0,0,0,2.019,1.891,7.861,7.861,0,0,0,6.017,1.043l4.974-1.137a6.624,6.624,0,0,0,.74.188l5.876.983a7.713,7.713,0,0,0,1.306.108,7.888,7.888,0,0,0,7.155-4.564,7.888,7.888,0,0,0,5.29,3.461l5.876.983a7.686,7.686,0,0,0,1.3.108,7.908,7.908,0,0,0,7.908-7.9V37.41l1-.357a12.444,12.444,0,0,0,8.467-8.83c1.137-3.466,1.608-8.15,1.46-14.692v-.444C627.126,8.308,623.815,2.48,610.3,1.841Z" transform="translate(-34.194 0.011)" fill="#081c21"/>
    <path id="Caminho_9886" data-name="Caminho 9886" d="M126.552,28.446q11.442,4.28,5.95,16.752a4.085,4.085,0,0,1-2.854,2.261,20.258,20.258,0,0,1-5.633.626c-3.217-.148-5.135-.673-5.768-1.629a10.93,10.93,0,0,1-1.884-6.306,13.063,13.063,0,0,1,1.279-5.478l5.169.673q-1.656,2.746-.444,4.933c.343.673,1.191.976,2.537.962a6.357,6.357,0,0,0,2.8-.37,1.669,1.669,0,0,0,1.144-1.346c.363-2.268-.612-3.83-2.908-4.664q-9.49-4.361-9.651-9.766-.081-6.468,1.609-7.6,3.035-2.261,8.561-2.746,5.674,0,6.73,4.375A27.809,27.809,0,0,1,133.282,27l-4.819.222c-.04-1.07-.108-1.979-.2-2.692a2.979,2.979,0,0,0-2.632-2.914q-3.042.04-3.594,2.537Q121.518,26.057,126.552,28.446Z" transform="translate(-38.03 -4.816)" fill="#efbd89"/>
    <path id="Caminho_9887" data-name="Caminho 9887" d="M163.142,42.117c-.135,3.13-2.019,5.155-5.653,6.1q-3.264.673-9.187-.781-2.948-.673-3.56-4.967-.956-7.895.572-26.867l6.434.485q-1.467,17.122-.9,22.533c.2,1.635.72,2.618,1.555,2.968a3.513,3.513,0,0,0,2.356.168,2.7,2.7,0,0,0,2.073-2.483q.989-6.057-.942-21.389l6.32-.848A170.414,170.414,0,0,1,163.142,42.117Z" transform="translate(-47.214 -5.094)" fill="#efbd89"/>
    <path id="Caminho_9888" data-name="Caminho 9888" d="M188.2,34.267l-6.468,2.3V48.354l-5.876-.983L174.77,14.48H183q9.422.444,9.671,3.964.188,8.447-1.131,12.229a4.55,4.55,0,0,1-3.338,3.594ZM181.77,21.056v9.927l3.116-1q1.9-.5,2.241-5.041c.209-1.622-.108-2.618-.962-2.988a9.87,9.87,0,0,0-4.395-.9Z" transform="translate(-57.153 -4.727)" fill="#efbd89"/>
    <path id="Caminho_9889" data-name="Caminho 9889" d="M217.287,14.368a5.337,5.337,0,0,1,2.854,2.241q3.655,7.969,3.648,19.417a34.323,34.323,0,0,1-.626,7.343q-1.211,4.368-7.5,4.368-7.114-.491-10.493-2.759-1.871-1.131-1.8-6.73A90.494,90.494,0,0,1,205,23.7q1.292-7.161,2.241-8.325,1.346-1.7,5.384-1.629a29.014,29.014,0,0,1,4.657.619ZM213.5,20.647a2.193,2.193,0,0,0-2.147.962,31.963,31.963,0,0,0-1.2,5.909q-1.413,10.674-.35,11.711c1.057,1.1,2.692,1.548,4.906,1.346a3.135,3.135,0,0,0,2.988-2.558,31.322,31.322,0,0,0,.236-4.294,38.934,38.934,0,0,0-1.44-11.381,2.47,2.47,0,0,0-1.151-1.312A8.279,8.279,0,0,0,213.5,20.647Z" transform="translate(-66.503 -4.487)" fill="#efbd89"/>
    <path id="Caminho_9890" data-name="Caminho 9890" d="M242.436,36.077V47.768l-5.9-.5-1.09-32.979q17.586-1.615,17.862,4.28.182,8.453-1.131,12.115a4.173,4.173,0,0,1-3.318,3.365l-.39.094,5.855,10.392-3.8,3.782Zm0-15.6v8.945q5.081-.4,5.324-4.96c.222-1.8-.094-2.867-.949-3.224a8.851,8.851,0,0,0-4.341-.761Z" transform="translate(-76.993 -4.552)" fill="#efbd89"/>
    <path id="Caminho_9891" data-name="Caminho 9891" d="M272.252,47.347l-.336-25.313h-6.481l-.114-6.394,19.646-1.11-.222,7.5h-5.97l-.444,24.552Z" transform="translate(-86.76 -4.744)" fill="#efbd89"/>
    <path id="Caminho_9892" data-name="Caminho 9892" d="M313.211,17.637l.168,5.916H302.988v6.481l7.632.242v5.9l-7.632.478v3.581l10.445.518.411,5.8-17.324.673.909-30.724Z" transform="translate(-96.961 -5.388)" fill="#efbd89"/>
    <path id="Caminho_9893" data-name="Caminho 9893" d="M352.49,14.378a5.384,5.384,0,0,1,2.854,2.241q3.641,7.969,3.648,19.417a33.829,33.829,0,0,1-.606,7.363q-1.2,4.368-7.5,4.368-7.107-.491-10.486-2.759-1.871-1.131-1.8-6.73a90.854,90.854,0,0,1,1.629-14.544q1.3-7.161,2.241-8.325,1.346-1.7,5.384-1.629a29.015,29.015,0,0,1,4.637.6Zm-3.782,6.279a2.186,2.186,0,0,0-2.147.962,33.268,33.268,0,0,0-1.2,5.909Q343.943,38.2,345,39.24q1.6,1.656,4.913,1.346a3.126,3.126,0,0,0,2.982-2.558,30.109,30.109,0,0,0,.242-4.294,38.921,38.921,0,0,0-1.447-11.381,2.436,2.436,0,0,0-1.144-1.312A8.277,8.277,0,0,0,348.708,20.657Z" transform="translate(-110.719 -4.497)" fill="#fff"/>
    <path id="Caminho_9894" data-name="Caminho 9894" d="M376.057,13.49l8.009,18.34-.424-16.469,7.336-.411-1.1,32.979h-5.149l-7.895-18.205-.276,16.213-5.317.35L370,14.654Z" transform="translate(-120.987 -4.404)" fill="#fff"/>
    <path id="Caminho_9895" data-name="Caminho 9895" d="M404.207,46.634,403.48,12.74l7.282-.74L410,39.11h10.176l-.04,6.508Z" transform="translate(-131.934 -3.916)" fill="#fff"/>
    <path id="Caminho_9896" data-name="Caminho 9896" d="M431.286,20.055l-.626-8.305,6.407.262-.5,8.278Zm.592,27.332-1.131-24.465,6.414-.74V45.906Z" transform="translate(-140.821 -3.835)" fill="#fff"/>
    <path id="Caminho_9897" data-name="Caminho 9897" d="M448.227,13.49l8,18.34-.424-16.469,7.336-.411-1.09,32.979H456.9l-7.888-18.205-.283,16.213-5.317.35L442.17,14.654Z" transform="translate(-144.584 -4.404)" fill="#fff"/>
    <path id="Caminho_9898" data-name="Caminho 9898" d="M492.054,17.637l.168,5.929H481.858v6.481l7.605.249v5.9l-7.605.458v3.581l10.452.518.411,5.8-17.331.673L476.3,16.5Z" transform="translate(-155.446 -5.388)" fill="#fff"/>
    <path id="Caminho_9899" data-name="Caminho 9899" d="M524.543,13.9l4.388,23.273,4.785-24.458,7.888,1.386-10,32.258-6.057.761-8.325-31.74Z" transform="translate(-169.123 -4.152)" fill="#efbd89"/>
    <path id="Caminho_9900" data-name="Caminho 9900" d="M555.673,20.055,555,11.75l6.414.262-.5,8.278Zm.592,27.332-1.131-24.465,6.414-.74V45.906Z" transform="translate(-181.476 -3.835)" fill="#efbd89"/>
    <path id="Caminho_9901" data-name="Caminho 9901" d="M583.647,48.434,582.3,42.168h-8.749l-1.494,5.189L566,46.152,576.674,14.56l4.112.673,9.422,31.706Zm-8.224-12.377,5.337-.222-2.275-9.375Z" transform="translate(-185.073 -4.754)" fill="#efbd89"/>
    <path id="Caminho_9902" data-name="Caminho 9902" d="M624.06,14.234l1.837,19.4,5.169-18.582,5.129,19.35,1.891-21.295,7.121,1.131L640.273,45.8l-6.649.754-2.652-9.84-3.634,10.9-5.627-.559L617,15.217Z" transform="translate(-201.748 -4.279)" fill="#efbd89"/>
    <path id="Caminho_9903" data-name="Caminho 9903" d="M672.467,47.8V35.8l-5.223.552v9.934l-5.539-.626-.875-31.484,6.414-.633v15.7l5.223.3V14.893l6.414.424-.814,32.043Z" transform="translate(-216.079 -4.42)" fill="#efbd89"/>
    <path id="Caminho_9904" data-name="Caminho 9904" d="M707.417,48.434l-1.346-6.266h-8.749l-1.514,5.189-6.057-1.2L700.424,14.56l4.112.673,9.422,31.706Zm-8.2-12.377,5.337-.222-2.282-9.375Z" transform="translate(-225.535 -4.754)" fill="#efbd89"/>
    <path id="Caminho_9905" data-name="Caminho 9905" d="M725.2,47.347l-.33-25.313h-6.488l-.108-6.394,19.639-1.11-.222,7.5h-5.963l-.451,24.552Z" transform="translate(-234.86 -4.744)" fill="#efbd89"/>
    <path id="Caminho_9906" data-name="Caminho 9906" d="M759.152,28.446q11.442,4.28,5.943,16.752a4.072,4.072,0,0,1-2.854,2.261,20.192,20.192,0,0,1-5.633.626q-4.812-.222-5.761-1.629a10.943,10.943,0,0,1-1.885-6.306,13.166,13.166,0,0,1,1.279-5.478l5.169.673q-1.649,2.746-.444,4.933c.35.673,1.2.976,2.544.962a6.321,6.321,0,0,0,2.793-.37,1.669,1.669,0,0,0,1.151-1.346c.357-2.268-.612-3.83-2.907-4.664q-9.49-4.361-9.658-9.766-.074-6.468,1.615-7.6,3.035-2.261,8.561-2.746,5.674,0,6.73,4.375A27.815,27.815,0,0,1,765.889,27l-4.819.222c-.04-1.07-.108-1.979-.209-2.692a2.988,2.988,0,0,0-2.631-2.914q-3.035.04-3.594,2.537Q754.111,26.057,759.152,28.446Z" transform="translate(-244.87 -4.816)" fill="#efbd89"/>
    <path id="Caminho_9907" data-name="Caminho 9907" d="M794.063,48.434l-1.346-6.266h-8.749l-1.521,5.189-6.017-1.2L787.1,14.56l4.112.673,9.422,31.706Zm-8.211-12.377,5.337-.222-2.261-9.375Z" transform="translate(-253.877 -4.754)" fill="#efbd89"/>
    <path id="Caminho_9908" data-name="Caminho 9908" d="M827.47,34.267,821,36.569V48.354l-5.876-.983-1.1-32.891h8.231q9.422.444,9.671,3.964.182,8.447-1.131,12.229a4.563,4.563,0,0,1-3.332,3.594Zm-6.434-13.212v9.927l3.116-1q1.9-.5,2.241-5.041.316-2.43-.962-2.988a9.76,9.76,0,0,0-4.381-.9Z" transform="translate(-266.171 -4.727)" fill="#efbd89"/>
    <path id="Caminho_9909" data-name="Caminho 9909" d="M856.644,34.267l-6.468,2.3V48.354l-5.869-.983-1.1-32.891h8.231q9.389.444,9.672,3.964.182,8.447-1.131,12.229a4.57,4.57,0,0,1-3.338,3.594Zm-6.427-13.212v9.927l3.109-1q1.908-.5,2.248-5.041.31-2.43-.969-2.988a9.836,9.836,0,0,0-4.388-.9Z" transform="translate(-275.712 -4.727)" fill="#efbd89"/>
    <path id="Caminho_9910" data-name="Caminho 9910" d="M80.048,24a1.676,1.676,0,0,0-2.524-.552L54.836,41.289,49.3,36.2c-.289.182,2.82,4.159,2.558,4.375-.787.962-.929,1.844-1.8,2.739-.262.357-.861.532-.774,1.084A.727.727,0,0,0,49,44.344a.673.673,0,0,0-.485,1.144h0l2.019,2.019a3.1,3.1,0,0,0,4.24.162l24.9-21.645A1.676,1.676,0,0,0,80.048,24Z" transform="translate(-15.809 -7.542)" fill="#081c21"/>
    <path id="Caminho_9911" data-name="Caminho 9911" d="M31.714,22.69c-3.237,2.335-1.911,6.831-.72,10.264.337.128.673.256,1,.35-.33-.094-.673-.222-1-.35.054.148.1.3.155.444-.054-.141-.1-.3-.155-.444-1.292-.512-2.6-1.131-3.789-.673-2.255.673-3.547,3.042-3.675,5.485l1.6,1.6a10.358,10.358,0,0,1,3.251.673,18.326,18.326,0,0,0,2.6.8,9.6,9.6,0,0,0,1.164,0,9.249,9.249,0,0,0,.942-.249q.3-.148.606-.323l4.442-4.442a16.423,16.423,0,0,0,1.346-2.14c.276-.983.357-2.019.673-2.988.2-.626.437-1.238.612-1.864a5.519,5.519,0,0,1-.754-2.584,4.422,4.422,0,0,1,.067-.9L36.715,21.99A5.82,5.82,0,0,0,31.714,22.69Z" transform="translate(-7.702 -7.102)" fill="#cb806a"/>
    <path id="Caminho_9912" data-name="Caminho 9912" d="M9.75,24.683l9.422,9.422c.128-2.436,1.42-4.826,3.668-5.478,1.2-.451,2.5.168,3.8.673-1.238-3.459-2.551-7.955.693-10.291a5.769,5.769,0,0,1,5.041-.673L24.294,10.26A27.863,27.863,0,0,0,9.75,24.683Z" transform="translate(-3.196 -3.348)" fill="#e6ad6f"/>
    <path id="Caminho_9913" data-name="Caminho 9913" d="M9.413,15.306c2.955-3.735,6.057-7.464,10.156-9.759A3.93,3.93,0,0,1,18.156,5c-1.185-.761-2.308-1.676-3.567-2.335a4.637,4.637,0,0,1-2.457.579L2.38,12.984A7.827,7.827,0,0,1,3,16.43,6.111,6.111,0,0,1,2.8,17.7l3.231,3.183A5.862,5.862,0,0,1,6.7,19.721C7.63,18.214,8.383,16.713,9.413,15.306Z" transform="translate(-0.786 -0.863)" fill="#b3b3b3"/>
    <path id="Caminho_9914" data-name="Caminho 9914" d="M33.924,22.69C30.869,24.9,31.905,29.016,33,32.355a5.385,5.385,0,0,1,.572.734,5.645,5.645,0,0,0,.673.215c-.215-.061-.424-.135-.673-.215.3.458.572.942.855,1.427.222.034.444.081.673.135a6.61,6.61,0,0,0-.673-.135c.121.2.242.4.377.6l-.094-.094.094.094c-.135-.2-.256-.4-.377-.6a6.333,6.333,0,0,0-4.132.673A27.931,27.931,0,0,0,37.5,38.7l2.874-2.874a16.422,16.422,0,0,0,1.346-2.14c.276-.983.357-2.019.673-2.988.2-.626.437-1.238.612-1.864a5.519,5.519,0,0,1-.754-2.584,4.422,4.422,0,0,1,.067-.9L38.952,21.99A5.866,5.866,0,0,0,33.924,22.69Z" transform="translate(-9.912 -7.102)" fill="#e8a793"/>
    <path id="Caminho_9915" data-name="Caminho 9915" d="M13.87,19.793c.236.357.471.707.713,1.057A26.639,26.639,0,0,1,22.1,13.709a28.94,28.94,0,0,0-6.32,8.81,41.283,41.283,0,0,0,6.663,7.1,4.307,4.307,0,0,1,1.716-.976c1.2-.451,2.5.168,3.8.673-.061-.162-.114-.323-.175-.491a4.294,4.294,0,0,0-.606-.606l.188.188-.188-.188a4.294,4.294,0,0,1,.606.606c-1.131-3.365-2.194-7.538.9-9.766a5.769,5.769,0,0,1,5.041-.673L25.641,10.31A27.843,27.843,0,0,0,13.87,19.793Z" transform="translate(-4.543 -3.364)" fill="#efbd89"/>
    <path id="Caminho_9916" data-name="Caminho 9916" d="M19.676,5.2A41.729,41.729,0,0,0,16.108,2.86a4.577,4.577,0,0,1-2.457.579L7.46,9.631c.633,1.346,1.346,2.692,2.053,3.991a25.252,25.252,0,0,1,8.359-5.647,21.537,21.537,0,0,1,3.217-2.221A4.159,4.159,0,0,1,19.676,5.2Z" transform="translate(-2.447 -0.928)" fill="#d0d2d3"/>
    <path id="Caminho_9917" data-name="Caminho 9917" d="M20.365,5.2A41.729,41.729,0,0,0,16.8,2.86a4.577,4.577,0,0,1-2.457.579L9.57,8.211a12.115,12.115,0,0,1,4.173-.673,11.166,11.166,0,0,1,3.931.8c.289-.135.586-.269.888-.39a21.537,21.537,0,0,1,3.217-2.221A4.159,4.159,0,0,1,20.365,5.2Z" transform="translate(-3.137 -0.928)" fill="#fff"/>
    <path id="Caminho_9918" data-name="Caminho 9918" d="M11.2,17.2c-1.03,1.407-1.784,2.907-2.692,4.415a5.862,5.862,0,0,0-.673,1.158l1.46,1.508A27.85,27.85,0,0,1,23.855,9.846L21.466,7.47h-.114C17.232,9.738,14.15,13.467,11.2,17.2Z" transform="translate(-2.568 -2.435)" fill="#4e4f4f"/>
    <path id="Caminho_9919" data-name="Caminho 9919" d="M9.229,27c-.2.33-.39.673-.6,1a4.381,4.381,0,0,0-.289.431v.256a5.5,5.5,0,0,1-.04.814l.128.135C8.67,28.757,8.926,27.868,9.229,27Z" transform="translate(-2.722 -8.821)" fill="#818181"/>
    <path id="Caminho_9920" data-name="Caminho 9920" d="M25.036,7.43A25.171,25.171,0,0,0,19.1,12.209a2.389,2.389,0,0,1,2.887.323,1.844,1.844,0,0,1,.262.3,27.48,27.48,0,0,1,5.29-3L25.151,7.457Z" transform="translate(-6.253 -2.422)" fill="#818181"/>
    <path id="Caminho_9921" data-name="Caminho 9921" d="M36.574,16.369,30.3,10.09l-2.3,2.3,6.279,6.279-.485.485.6.249a6.73,6.73,0,0,1,1.117.458c.047,0,1.952,1.487,1.979,1.514h0a9.086,9.086,0,0,1,2.4,4.18l.3,2.342a9.128,9.128,0,0,1-.216,1.973l.216.214a3.238,3.238,0,0,1-.316.417h0a1.555,1.555,0,0,0-.565-.067.909.909,0,0,0,0,1.81c-.175,0,.067.108.128.175.141.175.256.384.384.565.3.431.6.848.922,1.259.135.175.276.343.417.518a.775.775,0,0,0,.094.114c.491.579,1.016,1.131,1.555,1.662.808.814,2.261-.236,1.629-1.238a5.946,5.946,0,0,0-1.932-2.113c-.283-.316-.552-.673-.821-.976s-.4-.525-.619-.787a5.034,5.034,0,0,0,.727-1.609l.579-.579a3.365,3.365,0,0,1,.188-1.158,8.359,8.359,0,0,0,.323-1.185,14.949,14.949,0,0,0,0-2.329,14.685,14.685,0,0,0-.592-2.322,18.172,18.172,0,0,0-1.635-2.739q-1.023-1.238-2.154-2.383a5.3,5.3,0,0,1-.673-.814l-.592-.592Z" transform="translate(-9.163 -3.292)" fill="#fff"/>
    <path id="Caminho_9922" data-name="Caminho 9922" d="M29.826,12.941c-.875-.754-1.8-1.454-2.692-2.16S25.4,9.239,24.489,8.6l-3.668,3.668a14.807,14.807,0,0,1,2.362-1.622,2.261,2.261,0,0,1,2.107,0c.081-.04.162-.087.242-.121.31-.155.673.242.411.5a7.949,7.949,0,0,1,.727.612c1.454,1.407,2.82,2.975,4.193,4.462.673.767.034,2.335-1.1,1.911s-2.362-1.01-3.459,0a8.029,8.029,0,0,0-1.864,3.3,5.283,5.283,0,0,0,.209,3.143,15.6,15.6,0,0,1,1.016,2.187,1.185,1.185,0,0,1-.814,1.393c-.673.269-1.144-.168-1.844-.209a5.014,5.014,0,0,0-1.211.128l.256.256L17.7,32.56,9.817,24.679,12.994,21.5a19.6,19.6,0,0,1,2.019-2.692,20.925,20.925,0,0,1,1.393-2.093L8.72,24.349,21.434,37.076h0a23.321,23.321,0,0,1,3.056-.276l-2.053-2.059-.821.821-.377-.377a1.238,1.238,0,0,1-1.407-1.077,3.291,3.291,0,0,1-.034-.37l-1.285-1.279,2.019-2.019a3.264,3.264,0,0,1,1.124-1.124l1.265-1.265.794.821a11.779,11.779,0,0,1,1.689.175,6.259,6.259,0,0,0,1.656.209,8.4,8.4,0,0,0-.653-2.941,6.811,6.811,0,0,1-.727-1.965,1.1,1.1,0,0,1-.3-.545c-.565-2.443.909-5.142,3.533-5.337a8.541,8.541,0,0,1,3.769.841,4.2,4.2,0,0,1,2.107,2.813,9.2,9.2,0,0,1,.5,4.368c-.155,1.1-.262,2.45-1.393,3.022-.606.31-1.178.061-1.777.222-.969.269-.707,1.2-.848,1.965A1.77,1.77,0,0,1,30.6,32.93c-.074.047-1.245.552-1.245.431a1.137,1.137,0,0,1-.861,1.084h-.168a1.474,1.474,0,0,1-.3,0l-2.234,2.288c.337,0,.673-.04,1.016-.074a7.827,7.827,0,0,0,3.029-.868,7.027,7.027,0,0,1,1.71-.9h.067l2.322-2.322-.087-.081a.673.673,0,1,1,.915-.909l.081.081.545-.552c.283-1.871,1.144-3.621,1.111-5.539a17.746,17.746,0,0,0-6.676-12.633ZM33.7,30.494a.645.645,0,1,1-.936.888l-.054-.054a.634.634,0,1,1,.936-.855Z" transform="translate(-2.859 -2.805)" fill="#010101"/>
    <path id="Caminho_9923" data-name="Caminho 9923" d="M9.44,15.3c2.941-3.708,6-7.4,10.1-9.705a3.9,3.9,0,0,1-1.4-.545A41.2,41.2,0,0,0,14.588,2.72a4.61,4.61,0,0,1-2.45.579L2.44,13a7.807,7.807,0,0,1,.619,3.419,6.057,6.057,0,0,1-.188,1.232l3.2,3.2A6.131,6.131,0,0,1,6.741,19.7C7.663,18.193,8.41,16.7,9.44,15.3Z" transform="translate(-0.806 -0.882)" fill="#d76069"/>
    <path id="Caminho_9924" data-name="Caminho 9924" d="M19.645,5.252A40.63,40.63,0,0,0,16.1,2.93a4.583,4.583,0,0,1-2.443.572L7.49,9.66c.633,1.346,1.312,2.692,2.019,3.971a25.01,25.01,0,0,1,8.319-5.62A20.931,20.931,0,0,1,21.052,5.8a3.944,3.944,0,0,1-1.407-.552Z" transform="translate(-2.457 -0.951)" fill="#ee8083"/>
    <path id="Caminho_9925" data-name="Caminho 9925" d="M20.351,5.252A40.63,40.63,0,0,0,16.8,2.93a4.583,4.583,0,0,1-2.443.572L9.65,8.247A11.98,11.98,0,0,1,13.8,7.574a11.051,11.051,0,0,1,3.91.828c.289-.135.586-.269.888-.39A20.931,20.931,0,0,1,21.758,5.8a3.944,3.944,0,0,1-1.407-.552Z" transform="translate(-3.164 -0.951)" fill="#fff"/>
    <path id="Caminho_9926" data-name="Caminho 9926" d="M9.088,12.735h0a.783.783,0,0,0,1.1,1.111h0a.787.787,0,0,0,0-1.1A.8.8,0,0,0,9.088,12.735Z" transform="translate(-2.904 -4.086)" fill="#d76069"/>
    <path id="Caminho_9927" data-name="Caminho 9927" d="M10.524,16.532l.061.067a.316.316,0,0,0,.444-.444l-.061-.061C10.679,15.8,10.235,16.249,10.524,16.532Z" transform="translate(-3.419 -5.224)" fill="#d76069"/>
    <path id="Caminho_9928" data-name="Caminho 9928" d="M13.445,14.057h-.034a.626.626,0,1,0,.888.882h0a.628.628,0,0,0-.888-.888Z" transform="translate(-4.334 -4.527)" fill="#d76069"/>
    <path id="Caminho_9929" data-name="Caminho 9929" d="M5.994,3.39,3.14,6.244a10.768,10.768,0,0,0,0,15.177L13.317,31.6a12.788,12.788,0,0,0,15.157,2.14h0l1.952,1.952a3.547,3.547,0,0,0,5.014-5.014l-1.945-1.938a12.788,12.788,0,0,0-2.147-15.19L21.171,3.39a10.769,10.769,0,0,0-15.177,0Zm-.4,5.3L8.444,5.84A7.275,7.275,0,0,1,17.5,4.864a36.814,36.814,0,0,0-5.485,4.529,34.271,34.271,0,0,0-6.73,9.268c-.707-.532-3.937-5.943.3-9.968ZM35.136,32.876a.673.673,0,0,1-.956.047L31.764,30.5h0l-.734-.734a.673.673,0,0,1,.909-.909l3.177,3.17a.673.673,0,0,1,.02.848Zm-5.2-4.193-.054-.054a.643.643,0,1,1,.936-.882l.054.054a.643.643,0,1,1-.936.882Zm.962-2.517c-1.346-.727-2.463-.841-3.1-.316s-.673,1.649-.141,3.13c.034.087.067.182.108.269l-.04.061a1.925,1.925,0,0,0-1.7.242,1.864,1.864,0,0,0-.5,1.75,9.328,9.328,0,0,1-7.774-.673,3.8,3.8,0,0,1,.949-3.237c.882-.754,2.423-.787,4.334-.128a13.877,13.877,0,0,1,1.561.673l.256.128a.565.565,0,0,0,.734-.767c-.33-.606-.626-1.211-.888-1.8a20.144,20.144,0,0,1-.882-2.369c-.841-2.807-.673-4.96.431-5.9s3.264-.754,5.9.525l.135.067a9.321,9.321,0,0,1,.626,8.352ZM27.309,14.435a5.5,5.5,0,0,0-4.523,1.05c-1.864,1.582-2.268,4.523-1.144,8.292.087.289.182.586.283.882a5.538,5.538,0,0,0-4.711,1.023,5.115,5.115,0,0,0-1.676,3.231L8.753,22.128a32.42,32.42,0,0,1,6.057-8.272,33.47,33.47,0,0,1,6.73-5.216ZM19.852,6.978a36.209,36.209,0,0,0-6.643,5.263,35.051,35.051,0,0,0-6.151,8.191L7.024,20.4a31.357,31.357,0,0,1,6.6-9.389,33.739,33.739,0,0,1,5.667-4.6Z" transform="translate(-0.012 -0.079)" fill="#081c21"/>
    <path id="Caminho_9930" data-name="Caminho 9930" d="M47.674,54.24a.37.37,0,1,0,.32.367A.37.37,0,0,0,47.674,54.24Z" transform="translate(-15.492 -17.728)" fill="#081c21"/>
    <path id="Caminho_9931" data-name="Caminho 9931" d="M48.714,53.53a.37.37,0,1,0,.32.367A.37.37,0,0,0,48.714,53.53Z" transform="translate(-15.832 -17.496)" fill="#081c21"/>
  </g>
</svg>
