<svg id="Camada_2" data-name="Camada 2" xmlns="http://www.w3.org/2000/svg" width="608.218" height="57.141" viewBox="0 0 608.218 57.141">
  <g id="Camada_1" data-name="Camada 1" transform="translate(0 0)">
    <path id="Caminho_9932" data-name="Caminho 9932" d="M640.642,27.949a7.822,7.822,0,0,0,.72-2.638,34.76,34.76,0,0,0-.289-10.526C639.444,8.3,634.053,4.42,626.636,4.42h-.673A27.042,27.042,0,0,0,616.123,7a14.078,14.078,0,0,0-3.843-2.147c-.215-.074-.431-.148-.673-.209a33.652,33.652,0,0,0-6.165-.868h-.458a18.125,18.125,0,0,0-6.461.942c-.168-.04-.33-.114-.5-.141l-7.895-1.413a7.9,7.9,0,0,0-6.777,2.019,7.935,7.935,0,0,0-5.337-.794l-1.736.33A7.875,7.875,0,0,0,571.313,2.7l-6.421-.262a7.875,7.875,0,0,0-6,2.409A7.808,7.808,0,0,0,557.462,7l-1.023.141a7.875,7.875,0,0,0-4.26-1.676l-6.434-.485a7.793,7.793,0,0,0-2.827.343,18.441,18.441,0,0,0-7.861-1.568h-.532A33.591,33.591,0,0,0,522.6,6.446c-4.267-2.4-10.6-3.069-20.393-2.181a7.841,7.841,0,0,0-4.967,2.423,7.881,7.881,0,0,0-3.587-1.629l-4.119-.673a7.888,7.888,0,0,0-8.749,5.277l-6.515,19.289-.04-.114c-.121-.3-.256-.586-.4-.875a7.82,7.82,0,0,0,.72-2.638,35.2,35.2,0,0,0-.289-10.526c-1.629-6.488-7.02-10.365-14.437-10.365h-.673a27.043,27.043,0,0,0-9.84,2.584,14.08,14.08,0,0,0-3.877-2.16c-.215-.074-.431-.148-.673-.209a33.751,33.751,0,0,0-6.125-.868h-.458c-5.3-.114-9.295,1.487-11.664,4.563a10.133,10.133,0,0,0-.828,1.2A7.861,7.861,0,0,0,419.86,5.06l-4.112-.673A7.881,7.881,0,0,0,407,9.663l-5.566,16.462a49.259,49.259,0,0,0-3.89-14.887,7.5,7.5,0,0,0-.384-.727,13.239,13.239,0,0,0-6.905-5.653c-.215-.074-.437-.148-.673-.209a33.753,33.753,0,0,0-6.131-.868h-.458a18.454,18.454,0,0,0-5.734.767A7.834,7.834,0,0,0,372.546,2.7l-6.414-.262a7.9,7.9,0,0,0-6,2.409.059.059,0,0,1-.047.054,21.968,21.968,0,0,0-10.1.855l-.094-.283a7.908,7.908,0,0,0-11.59-4.3l-8.379,4.994c-.148.094-.276.2-.411.3a7.935,7.935,0,0,0-1.407-1.81A7.854,7.854,0,0,0,321.914,2.6l-7.282.781a7.868,7.868,0,0,0-5.344,2.955,7.753,7.753,0,0,0-3-1.245l-4.112-.673a7.794,7.794,0,0,0-4.314.518,7.861,7.861,0,0,0-3.5-.626l-15.116.835a7.868,7.868,0,0,0-5.384-2.47l-6.414-.262a7.935,7.935,0,0,0-4.711,1.346l-3.2-.565a7.908,7.908,0,0,0-6.777,2.019,7.915,7.915,0,0,0-5.33-.794l-7.336,1.46a7.935,7.935,0,0,0-5.142,3.56,8.565,8.565,0,0,0-.4.828,13.225,13.225,0,0,0-6.73-5.384c-.209-.074-.431-.148-.673-.209A33.652,33.652,0,0,0,220.98,3.8h-.458c-4.132-.087-7.444.9-9.84,2.78A16.335,16.335,0,0,0,202.4,4.42h-.673a27.265,27.265,0,0,0-9.194,2.322,16.106,16.106,0,0,0-8.749-2.356h-.673a27.043,27.043,0,0,0-9.651,2.564,7.3,7.3,0,0,0-1.158-.2L156.517,5.645a7.706,7.706,0,0,0-3.157.424,15.856,15.856,0,0,0-3.311-1.137,22.109,22.109,0,0,0-11.731,1.137,16,16,0,0,0-4.563,2.5,7.935,7.935,0,0,0-5.384-3.513l-4.112-.673a7.888,7.888,0,0,0-8.749,5.277l-10.661,31.6a7.908,7.908,0,0,0,5.943,10.284l6.057,1.2a7.915,7.915,0,0,0,6.811-1.9,7.881,7.881,0,0,0,6.3,3.13,8.292,8.292,0,0,0,1.77-.2l6.542-1.5c.094,0,.188-.074.289-.1a14.336,14.336,0,0,0,1.723.565,15.062,15.062,0,0,0,4.651.673,25.077,25.077,0,0,0,3.365-.242,13.824,13.824,0,0,0,4.3-1.447,7.881,7.881,0,0,0,2.47.437h.323l16.933-.673a19.02,19.02,0,0,0,8.655,2.093h.37a27.352,27.352,0,0,0,7.794-.936,14.079,14.079,0,0,0,2.248-.888,19.649,19.649,0,0,0,8.2,1.81h.363a27.352,27.352,0,0,0,7.794-.936,13.211,13.211,0,0,0,3.56-1.669,33.8,33.8,0,0,0,11.583,2.584h.559c11.125,0,14.282-7.121,15.13-10.183l.081-.33a36.679,36.679,0,0,0,.761-6.811l2.928,11.145a7.908,7.908,0,0,0,7.639,5.9,7.08,7.08,0,0,0,1-.067l6.057-.754a7.841,7.841,0,0,0,4.59-2.369,7.646,7.646,0,0,0,2.053,2.261,7.874,7.874,0,0,0,6.764,1.2l5.283-1.481a7.45,7.45,0,0,0,1.7-.727,7.753,7.753,0,0,0,5.633,1.5l6.057-.761a8,8,0,0,0,1.057-.236l4.5.9a7.922,7.922,0,0,0,6.865-1.9,7.881,7.881,0,0,0,6.3,3.13,8.231,8.231,0,0,0,1.763-.2l4.563-1.05a7.793,7.793,0,0,0,1.972.283h.512l15.062-.976a4.305,4.305,0,0,0,.37.33,7.854,7.854,0,0,0,4.664,1.487,8.076,8.076,0,0,0,2.14-.3l5.277-1.481a7.761,7.761,0,0,0,2.4-1.144,14.847,14.847,0,0,0,4.254,1.817,15.015,15.015,0,0,0,4.644.673,25.078,25.078,0,0,0,3.365-.242,13.838,13.838,0,0,0,3.365-1,2.232,2.232,0,0,0,.188.168,7.861,7.861,0,0,0,4.63,1.5,8,8,0,0,0,2.134-.3l5.277-1.481a7.8,7.8,0,0,0,1.131-.417,36.9,36.9,0,0,0,9.766,1.9h.552c6.057,0,9.772-2.134,12.02-4.563a7.854,7.854,0,0,0,4.375,2.537l6.024,1.2a7.922,7.922,0,0,0,6.865-1.9,7.849,7.849,0,0,0,2.019,1.891,7.928,7.928,0,0,0,4.254,1.238,8.232,8.232,0,0,0,1.763-.2l6.542-1.5a8.375,8.375,0,0,0,1.4-.478,37.494,37.494,0,0,0,9.342,1.75h.559a18.333,18.333,0,0,0,8.076-1.662,20.514,20.514,0,0,0,7.881,1.649h.363a27.366,27.366,0,0,0,7.8-.936,12.377,12.377,0,0,0,6.226-4,7.848,7.848,0,0,0,4.644,2.907l6.024,1.2a7.921,7.921,0,0,0,6.865-1.9,7.881,7.881,0,0,0,6.3,3.13,8.292,8.292,0,0,0,1.77-.2l4.779-1.1a7.982,7.982,0,0,0,1.568.3l5.889.5a7.9,7.9,0,0,0,4.213-.808,7.881,7.881,0,0,0,3.742,1.407c.276,0,.545.04.814.04a7.9,7.9,0,0,0,5.6-2.241l.128-.121a12.936,12.936,0,0,0,3.022,1.265,7.915,7.915,0,0,0,8.568,4.038l5.135-1.057A7.922,7.922,0,0,0,545.65,52.2c.209.067.431.135.606.175a36.787,36.787,0,0,0,8.749,1.225,19.3,19.3,0,0,0,3.971-.384l.343-.081a20.226,20.226,0,0,0,2.019-.673,7.834,7.834,0,0,0,6.582,1.09l5.283-1.481a7.768,7.768,0,0,0,2.059-.909,7.861,7.861,0,0,0,5.344,2.127,6.979,6.979,0,0,0,.989-.067l6.057-.754a7.881,7.881,0,0,0,5.25-3.076c.081.054.135.121.215.175,3.432,2.261,8.076,3.567,14.208,4h.559a18.387,18.387,0,0,0,8.076-1.662,20.534,20.534,0,0,0,7.875,1.649h.37A27.352,27.352,0,0,0,632,52.616a11.872,11.872,0,0,0,7.928-6.683c2.827-6.427,3.21-12.2,1.124-17.129C640.917,28.528,640.783,28.239,640.642,27.949Z" transform="translate(-34.158 -0.037)" fill="#081c21"/>
    <path id="Caminho_9933" data-name="Caminho 9933" d="M133.82,51.977l-1.346-6.259h-8.749L122.2,50.907l-6.024-1.2L126.827,18.11l4.112.673,9.422,31.706Zm-8.211-12.4,5.337-.222-2.275-9.375Z" transform="translate(-37.999 -5.946)" fill="#efbd89"/>
    <path id="Caminho_9934" data-name="Caminho 9934" d="M169.324,45.718q-3.688,5.169-7.094,5.707a9.853,9.853,0,0,1-4.563-.222q-4.482-.976-5.593-6.172-1.9-11.8-.949-19.289a7.262,7.262,0,0,1,5.028-6.192,14.342,14.342,0,0,1,7.572-.794q4.631,1,4.745,5.653.054,2.127-.04,4.711l-5.485.633c-.047-.74-.121-1.481-.222-2.208a1.936,1.936,0,0,0-1.871-1.891,3.594,3.594,0,0,0-2.43.431q-1.2.538-1.521,2.982a58.951,58.951,0,0,0,.673,13.952c.37,1.683,1.447,2.3,3.224,1.851q1.723-.424,4.617-3.8Z" transform="translate(-49.32 -6.094)" fill="#efbd89"/>
    <path id="Caminho_9935" data-name="Caminho 9935" d="M196.338,21.2l.168,5.909h-10.4V33.6l7.639.242v5.889l-7.639.491v3.567l10.452.518.411,5.8-17.331.673.915-30.69Z" transform="translate(-58.748 -6.593)" fill="#efbd89"/>
    <path id="Caminho_9936" data-name="Caminho 9936" d="M217.469,31.986q11.442,4.28,5.95,16.752a4.079,4.079,0,0,1-2.854,2.255,19.969,19.969,0,0,1-5.633.633c-3.217-.148-5.135-.673-5.768-1.629a10.964,10.964,0,0,1-1.891-6.333,13.111,13.111,0,0,1,1.279-5.472l5.176.673q-1.656,2.746-.451,4.927c.35.673,1.2.976,2.544.969a6.4,6.4,0,0,0,2.793-.37,1.676,1.676,0,0,0,1.151-1.346q.538-3.412-2.907-4.671-9.49-4.355-9.658-9.766-.067-6.461,1.615-7.6,3.042-2.261,8.561-2.739,5.674,0,6.764,4.375a28.21,28.21,0,0,1,.094,7.874l-4.819.222q-.061-1.615-.2-2.692a2.972,2.972,0,0,0-2.632-2.907c-2.019,0-3.224.868-3.6,2.537Q212.448,29.6,217.469,31.986Z" transform="translate(-67.758 -5.998)" fill="#efbd89"/>
    <path id="Caminho_9937" data-name="Caminho 9937" d="M245.125,32q11.442,4.28,5.95,16.752A4.038,4.038,0,0,1,248.221,51a19.969,19.969,0,0,1-5.633.633c-3.21-.148-5.135-.673-5.761-1.629a10.91,10.91,0,0,1-1.864-6.333,13,13,0,0,1,1.279-5.472l5.169.673c-1.1,1.831-1.252,3.473-.444,4.927.343.673,1.191.976,2.537.969a6.463,6.463,0,0,0,2.8-.37,1.669,1.669,0,0,0,1.144-1.346q.545-3.412-2.908-4.671-9.49-4.355-9.651-9.766-.081-6.461,1.609-7.6,3.015-2.248,8.561-2.719,5.674,0,6.73,4.375a27.866,27.866,0,0,1,.094,7.874l-4.819.222a26.863,26.863,0,0,0-.2-2.692,2.972,2.972,0,0,0-2.632-2.907c-2.019,0-3.224.868-3.594,2.537Q240.084,29.607,245.125,32Z" transform="translate(-76.812 -6.008)" fill="#efbd89"/>
    <path id="Caminho_9938" data-name="Caminho 9938" d="M276.9,17.927a5.277,5.277,0,0,1,2.854,2.261q3.655,7.969,3.655,19.417a33.769,33.769,0,0,1-.633,7.336q-1.2,4.381-7.5,4.375-7.121-.5-10.486-2.759-1.878-1.131-1.8-6.73a90.975,90.975,0,0,1,1.629-14.551q1.292-7.148,2.241-8.319c.875-1.137,2.692-1.683,5.384-1.629A28.9,28.9,0,0,1,276.9,17.927Zm-3.776,6.259a2.2,2.2,0,0,0-2.154.962,35.251,35.251,0,0,0-1.2,5.916q-1.4,10.668-.35,11.711,1.6,1.649,4.913,1.346a3.134,3.134,0,0,0,2.982-2.558,30.2,30.2,0,0,0,.242-4.3,38.875,38.875,0,0,0-1.447-11.408,2.51,2.51,0,0,0-1.151-1.346A8.514,8.514,0,0,0,273.124,24.186Z" transform="translate(-85.999 -5.689)" fill="#efbd89"/>
    <path id="Caminho_9939" data-name="Caminho 9939" d="M315.653,17.425l4.388,23.28,4.785-24.465,7.895,1.393L322.713,49.905l-6.057.761-8.325-31.74Z" transform="translate(-100.826 -5.335)" fill="#fff"/>
    <path id="Caminho_9940" data-name="Caminho 9940" d="M346.766,23.6l-.626-8.3,6.407.256-.5,8.292Zm.626,27.332-1.164-24.458,6.414-.74V49.423Z" transform="translate(-113.189 -5.027)" fill="#fff"/>
    <path id="Caminho_9941" data-name="Caminho 9941" d="M365.042,50.9l-.337-25.313h-6.481l-.114-6.394,19.646-1.111-.2,7.5h-5.99l-.444,24.552Z" transform="translate(-117.102 -5.936)" fill="#fff"/>
    <path id="Caminho_9942" data-name="Caminho 9942" d="M398.143,51.977,396.8,45.718h-8.749l-1.521,5.189-6.017-1.2L391.184,18.11l4.112.673,9.422,31.706Zm-8.211-12.4,5.337-.222-2.282-9.375Z" transform="translate(-124.426 -5.946)" fill="#fff"/>
    <path id="Caminho_9943" data-name="Caminho 9943" d="M418.673,50.168,418,16.281l7.282-.761L424.5,42.63h10.176l-.04,6.5Z" transform="translate(-136.685 -5.099)" fill="#fff"/>
    <path id="Caminho_9944" data-name="Caminho 9944" d="M445.53,16.771l8.339-5.021,2.019,6.131-8.951,3.365Zm2.739,32.979-1.131-24.438,6.414-.74V48.262Z" transform="translate(-145.686 -3.867)" fill="#fff"/>
    <path id="Caminho_9945" data-name="Caminho 9945" d="M482.1,45.718q-3.7,5.169-7.1,5.707a9.819,9.819,0,0,1-4.556-.222q-4.482-.976-5.6-6.172-1.9-11.8-.942-19.289a7.262,7.262,0,0,1,5.021-6.192,14.349,14.349,0,0,1,7.578-.794q4.637,1,4.745,5.653.061,2.127-.04,4.711l-5.478.633c-.054-.74-.128-1.481-.229-2.208a1.936,1.936,0,0,0-1.871-1.891,3.567,3.567,0,0,0-2.423.431q-1.211.538-1.521,2.982a59.434,59.434,0,0,0,.673,13.952c.37,1.683,1.447,2.3,3.224,1.851q1.723-.437,4.624-3.8Z" transform="translate(-151.588 -6.094)" fill="#fff"/>
    <path id="Caminho_9946" data-name="Caminho 9946" d="M493.376,23.6l-.626-8.3,6.407.256-.5,8.292Zm.6,27.332-1.131-24.458,6.407-.74V49.423Z" transform="translate(-161.125 -5.027)" fill="#fff"/>
    <path id="Caminho_9947" data-name="Caminho 9947" d="M518.24,17.927a5.3,5.3,0,0,1,2.854,2.261q3.641,7.969,3.648,19.417a34.26,34.26,0,0,1-.626,7.336c-.808,2.921-3.3,4.375-7.511,4.375q-7.114-.5-10.479-2.759-1.864-1.131-1.8-6.73a90.973,90.973,0,0,1,1.629-14.551q1.306-7.148,2.241-8.319,1.346-1.7,5.384-1.629a29.016,29.016,0,0,1,4.657.6Zm-3.782,6.259a2.193,2.193,0,0,0-2.147.962,33.3,33.3,0,0,0-1.2,5.916q-1.413,10.668-.357,11.711,1.6,1.649,4.913,1.346a3.134,3.134,0,0,0,2.982-2.558,30.221,30.221,0,0,0,.242-4.3,38.875,38.875,0,0,0-1.433-11.408,2.47,2.47,0,0,0-1.144-1.346,8.7,8.7,0,0,0-1.837-.323Z" transform="translate(-164.911 -5.69)" fill="#fff"/>
    <path id="Caminho_9948" data-name="Caminho 9948" d="M566.893,51.977l-1.346-6.259H556.8l-1.521,5.189-6.017-1.2L559.934,18.11l4.112.673,9.422,31.706Zm-8.211-12.4,5.337-.222L561.738,30Z" transform="translate(-179.603 -5.946)" fill="#efbd89"/>
    <path id="Caminho_9949" data-name="Caminho 9949" d="M600.24,17.927a5.277,5.277,0,0,1,2.854,2.261q3.655,7.969,3.648,19.417a34.268,34.268,0,0,1-.626,7.336q-1.2,4.381-7.5,4.375-7.121-.5-10.486-2.759-1.871-1.131-1.8-6.73a90.611,90.611,0,0,1,1.635-14.551q1.292-7.148,2.241-8.319,1.312-1.7,5.384-1.629a29.014,29.014,0,0,1,4.651.6Zm-3.782,6.259a2.193,2.193,0,0,0-2.147.962,31.96,31.96,0,0,0-1.2,5.916q-1.4,10.668-.35,11.711,1.6,1.649,4.906,1.346a3.142,3.142,0,0,0,2.988-2.558,31.434,31.434,0,0,0,.236-4.3,38.892,38.892,0,0,0-1.434-11.408A2.511,2.511,0,0,0,598.3,24.51a8.6,8.6,0,0,0-1.837-.323Z" transform="translate(-191.722 -5.69)" fill="#efbd89"/>
    <path id="Caminho_9950" data-name="Caminho 9950" d="M627.629,31.986q11.442,4.28,5.943,16.752a4.038,4.038,0,0,1-2.854,2.255,19.9,19.9,0,0,1-5.633.633Q620.273,51.4,619.324,50a10.964,10.964,0,0,1-1.891-6.333,13.109,13.109,0,0,1,1.279-5.472l5.169.673q-1.642,2.746-.444,4.927c.35.673,1.191.976,2.544.969a6.425,6.425,0,0,0,2.793-.37,1.676,1.676,0,0,0,1.151-1.346q.532-3.412-2.908-4.671-9.49-4.355-9.658-9.766-.074-6.461,1.615-7.6,3.035-2.261,8.561-2.739c3.782,0,6.057,1.46,6.73,4.375a27.868,27.868,0,0,1,.094,7.874l-4.819.222c-.04-1.077-.108-1.985-.209-2.692a2.984,2.984,0,0,0-2.631-2.907c-2.019,0-3.224.868-3.594,2.537Q622.588,29.6,627.629,31.986Z" transform="translate(-201.868 -5.998)" fill="#efbd89"/>
    <path id="Caminho_9951" data-name="Caminho 9951" d="M676.5,51.977l-1.346-6.259h-8.749l-1.521,5.189-6.057-1.2L669.5,18.11l4.112.673,9.422,31.706Zm-8.2-12.4,5.337-.222-2.281-9.375Z" transform="translate(-215.429 -5.946)" fill="#efbd89"/>
    <path id="Caminho_9952" data-name="Caminho 9952" d="M703.506,39.626V51.317l-5.9-.5-1.09-32.979q17.586-1.6,17.862,4.28.2,8.453-1.131,12.115a4.173,4.173,0,0,1-3.318,3.365l-.384.087,5.855,10.439L711.6,51.9Zm.067-15.608V32.97q5.075-.4,5.324-4.967.337-2.692-.949-3.224A9.313,9.313,0,0,0,703.573,24.019Z" transform="translate(-227.752 -5.744)" fill="#efbd89"/>
    <path id="Caminho_9953" data-name="Caminho 9953" d="M736.417,51.213l-1.164.114q-4.038.074-5.384-1.629-.935-1.171-2.241-8.319A90.867,90.867,0,0,1,726,26.83q-.081-5.613,1.8-6.73,3.365-2.261,10.486-2.739,6.3,0,7.5,4.375a33.594,33.594,0,0,1,.633,7.336q0,11.442-3.648,19.4a5.108,5.108,0,0,1-1.911,1.851l1.2,3.554-5.135,1.057Zm2.167-7.612a2.447,2.447,0,0,0,.538-.835,38.953,38.953,0,0,0,1.447-11.394,29.957,29.957,0,0,0-.242-4.28,3.1,3.1,0,0,0-2.981-2.558q-3.318-.31-4.913,1.346-1.05,1.043.35,11.691a34.585,34.585,0,0,0,1.2,5.929,1.831,1.831,0,0,0,1.487.929l-.209-1.481,3.022-.2Z" transform="translate(-237.389 -5.701)" fill="#efbd89"/>
    <path id="Caminho_9954" data-name="Caminho 9954" d="M776.632,45.6q-.2,4.711-5.647,6.057-3.264.673-9.194-.774-2.948-.673-3.56-4.967-.956-7.895.579-26.867l6.427.478q-1.467,17.162-.929,22.573.3,2.443,1.562,2.961a3.453,3.453,0,0,0,2.349.168,2.7,2.7,0,0,0,2.08-2.483q.976-6.057-.949-21.382l6.32-.855a170.476,170.476,0,0,1,.963,25.091Z" transform="translate(-247.81 -6.253)" fill="#efbd89"/>
    <path id="Caminho_9955" data-name="Caminho 9955" d="M788.753,23.6l-.633-8.3,6.414.256-.5,8.292Zm.592,27.332-1.131-24.458,6.414-.74V49.423Z" transform="translate(-257.702 -5.027)" fill="#efbd89"/>
    <path id="Caminho_9956" data-name="Caminho 9956" d="M806.866,17.431l4.428,23.294,4.779-24.465,7.895,1.393L813.926,49.912l-6.057.761-8.319-31.74Z" transform="translate(-261.44 -5.341)" fill="#efbd89"/>
    <path id="Caminho_9957" data-name="Caminho 9957" d="M848.1,17.927a5.277,5.277,0,0,1,2.854,2.261q3.654,7.969,3.655,19.417a34.212,34.212,0,0,1-.633,7.336q-1.2,4.381-7.5,4.375-7.121-.5-10.486-2.759-1.878-1.131-1.8-6.73a90.614,90.614,0,0,1,1.636-14.551q1.292-7.148,2.241-8.319,1.313-1.7,5.384-1.629a28.9,28.9,0,0,1,4.657.6Zm-3.776,6.259a2.2,2.2,0,0,0-2.154.962,31.963,31.963,0,0,0-1.2,5.916q-1.407,10.668-.35,11.711,1.6,1.649,4.906,1.346a3.142,3.142,0,0,0,2.988-2.558,30.239,30.239,0,0,0,.242-4.3A38.873,38.873,0,0,0,847.3,25.856a2.51,2.51,0,0,0-1.151-1.346,8.514,8.514,0,0,0-1.831-.323Z" transform="translate(-272.761 -5.69)" fill="#efbd89"/>
    <path id="Caminho_9958" data-name="Caminho 9958" d="M875.479,31.986q11.442,4.28,5.95,16.752a4.078,4.078,0,0,1-2.854,2.255,19.969,19.969,0,0,1-5.633.633c-3.217-.148-5.135-.673-5.768-1.629a10.963,10.963,0,0,1-1.891-6.333,13.113,13.113,0,0,1,1.279-5.472l5.176.673q-1.656,2.746-.444,4.927c.343.673,1.191.976,2.537.969a6.4,6.4,0,0,0,2.793-.37,1.676,1.676,0,0,0,1.151-1.346q.532-3.412-2.907-4.671-9.49-4.355-9.658-9.766-.074-6.461,1.615-7.6,3.036-2.261,8.561-2.739,5.674,0,6.73,4.375a27.865,27.865,0,0,1,.094,7.874l-4.819.222q-.061-1.615-.2-2.692a2.972,2.972,0,0,0-2.632-2.907c-2.019,0-3.224.868-3.6,2.537Q870.451,29.6,875.479,31.986Z" transform="translate(-282.907 -5.998)" fill="#efbd89"/>
    <path id="Caminho_9959" data-name="Caminho 9959" d="M80.048,30.168a1.676,1.676,0,0,0-2.524-.552L54.836,47.459,49.3,42.364c-.289.188,2.82,4.166,2.558,4.381-.787.956-.929,1.844-1.8,2.733-.262.363-.861.538-.774,1.09A.727.727,0,0,0,49,50.507a.673.673,0,0,0-.485,1.144h0l2.019,2.019a3.1,3.1,0,0,0,4.24.162l24.9-21.645a1.676,1.676,0,0,0,.37-2.019Z" transform="translate(-15.812 -9.592)" fill="#081c21"/>
    <path id="Caminho_9960" data-name="Caminho 9960" d="M31.714,28.85c-3.237,2.342-1.911,6.838-.72,10.264a10.553,10.553,0,0,0,1,.357,10.555,10.555,0,0,1-1-.357c.054.155.1.3.155.451-.054-.148-.1-.3-.155-.451-1.292-.5-2.6-1.124-3.789-.673-2.255.673-3.547,3.042-3.675,5.478l1.6,1.6a10.365,10.365,0,0,1,3.251.673,18.327,18.327,0,0,0,2.6.8,11.206,11.206,0,0,0,1.164,0,9.246,9.246,0,0,0,.942-.249c.2-.1.4-.215.606-.33l4.442-4.442a16.826,16.826,0,0,0,1.346-2.134c.276-.989.357-2.019.673-2.988.2-.626.437-1.238.612-1.864a5.546,5.546,0,0,1-.754-2.591,4.321,4.321,0,0,1,.067-.888l-3.365-3.365A5.868,5.868,0,0,0,31.714,28.85Z" transform="translate(-7.705 -9.148)" fill="#cb806a"/>
    <path id="Caminho_9961" data-name="Caminho 9961" d="M9.75,30.85l9.422,9.422c.128-2.436,1.42-4.832,3.668-5.485,1.2-.444,2.5.168,3.8.673C25.4,32,24.086,27.512,27.33,25.169a5.814,5.814,0,0,1,5.041-.673L24.294,16.42A27.9,27.9,0,0,0,9.75,30.85Z" transform="translate(-3.2 -5.393)" fill="#e6ad6f"/>
    <path id="Caminho_9962" data-name="Caminho 9962" d="M9.413,21.47c2.955-3.729,6.057-7.457,10.156-9.752a4.038,4.038,0,0,1-1.413-.552A41.094,41.094,0,0,0,14.589,8.83a4.63,4.63,0,0,1-2.457.572L2.38,19.154A7.8,7.8,0,0,1,3,22.593a6.172,6.172,0,0,1-.2,1.238l3.231,3.217A5.909,5.909,0,0,1,6.7,25.885C7.63,24.384,8.383,22.883,9.413,21.47Z" transform="translate(-0.79 -2.912)" fill="#b3b3b3"/>
    <path id="Caminho_9963" data-name="Caminho 9963" d="M33.924,28.851c-3.056,2.208-2.019,6.333-.929,9.671a5.385,5.385,0,0,1,.572.734,5.648,5.648,0,0,0,.673.215c-.215-.061-.424-.135-.673-.215.3.451.572.942.855,1.427a3.038,3.038,0,0,1,.673.128,6.628,6.628,0,0,0-.673-.128c.121.2.242.4.377.6l-.094-.094.094.094c-.135-.2-.256-.4-.377-.6a6.333,6.333,0,0,0-4.132.673A27.931,27.931,0,0,0,37.5,44.87l2.874-2.881a16.826,16.826,0,0,0,1.346-2.134c.276-.989.357-2.019.673-2.988.2-.626.437-1.238.612-1.864a5.546,5.546,0,0,1-.754-2.591,4.32,4.32,0,0,1,.067-.888l-3.365-3.365A5.864,5.864,0,0,0,33.924,28.851Z" transform="translate(-9.915 -9.15)" fill="#e8a793"/>
    <path id="Caminho_9964" data-name="Caminho 9964" d="M13.87,25.934c.236.357.471.707.713,1.057A26.544,26.544,0,0,1,22.1,19.849a28.88,28.88,0,0,0-6.32,8.8,41.283,41.283,0,0,0,6.663,7.067,4.395,4.395,0,0,1,1.716-.976c1.2-.444,2.5.168,3.8.673-.061-.162-.114-.323-.175-.491a4.711,4.711,0,0,0-.606-.612l.188.188-.188-.2a4.711,4.711,0,0,1,.606.612c-1.131-3.365-2.194-7.545.9-9.772a5.814,5.814,0,0,1,5.041-.673L25.641,16.39A27.9,27.9,0,0,0,13.87,25.934Z" transform="translate(-4.547 -5.384)" fill="#efbd89"/>
    <path id="Caminho_9965" data-name="Caminho 9965" d="M19.676,11.362A40.169,40.169,0,0,0,16.108,9a4.637,4.637,0,0,1-2.457.579L7.46,15.771q.949,2.019,2.053,3.991a25.272,25.272,0,0,1,8.359-5.653,22.042,22.042,0,0,1,3.217-2.221A4.038,4.038,0,0,1,19.676,11.362Z" transform="translate(-2.451 -2.967)" fill="#d0d2d3"/>
    <path id="Caminho_9966" data-name="Caminho 9966" d="M20.365,11.362A40.167,40.167,0,0,0,16.8,9a4.637,4.637,0,0,1-2.457.579L9.57,14.384a12.3,12.3,0,0,1,4.173-.673,11.307,11.307,0,0,1,3.931.828c.289-.135.586-.262.888-.39a22.042,22.042,0,0,1,3.217-2.221A4.038,4.038,0,0,1,20.365,11.362Z" transform="translate(-3.141 -2.967)" fill="#fff"/>
    <path id="Caminho_9967" data-name="Caminho 9967" d="M11.2,23.362c-1.03,1.413-1.784,2.914-2.692,4.415a5.909,5.909,0,0,0-.673,1.164l1.46,1.508A27.823,27.823,0,0,1,23.828,16.026l-2.389-2.4h-.114C17.232,15.9,14.15,19.633,11.2,23.362Z" transform="translate(-2.572 -4.481)" fill="#4e4f4f"/>
    <path id="Caminho_9968" data-name="Caminho 9968" d="M9.229,33.16c-.2.337-.39.673-.6,1-.108.141-.2.289-.289.431s0,.175,0,.256a5.593,5.593,0,0,1-.04.821l.128.135C8.67,34.923,8.926,34.035,9.229,33.16Z" transform="translate(-2.725 -10.867)" fill="#818181"/>
    <path id="Caminho_9969" data-name="Caminho 9969" d="M25.036,13.6A25.313,25.313,0,0,0,19.1,18.372a2.4,2.4,0,0,1,2.887.33,1.42,1.42,0,0,1,.262.3,27.48,27.48,0,0,1,5.29-2.988l-2.389-2.4Z" transform="translate(-6.257 -4.471)" fill="#818181"/>
    <path id="Caminho_9970" data-name="Caminho 9970" d="M36.574,22.539,30.3,16.26l-2.3,2.3,6.273,6.273-.485.485.6.249a6.73,6.73,0,0,1,1.117.458c.047,0,1.952,1.481,1.979,1.508h0a9.14,9.14,0,0,1,2.4,4.186l.3,2.335a9.139,9.139,0,0,1-.215,1.979l.215.215a3.776,3.776,0,0,1-.316.417h0a1.555,1.555,0,0,0-.565-.061.9.9,0,0,0,0,1.8c-.175,0,.067.114.128.182s.256.384.384.565c.3.424.6.848.922,1.252l.417.525a1.4,1.4,0,0,0,.094.114c.491.572,1.016,1.124,1.555,1.662.808.808,2.261-.236,1.629-1.245A5.929,5.929,0,0,0,42.5,39.358c-.283-.323-.552-.673-.821-.976s-.4-.525-.619-.794a5.034,5.034,0,0,0,.72-1.662l.579-.572a3.365,3.365,0,0,1,.2-1.1,8.2,8.2,0,0,0,.323-1.191,14.86,14.86,0,0,0,0-2.322,14.322,14.322,0,0,0-.592-2.322,17.849,17.849,0,0,0-1.635-2.739A31.4,31.4,0,0,0,38.506,23.3a5.3,5.3,0,0,1-.673-.814l-.592-.592Z" transform="translate(-9.167 -5.341)" fill="#fff"/>
    <path id="Caminho_9971" data-name="Caminho 9971" d="M29.826,19.108c-.875-.754-1.8-1.454-2.692-2.16s-1.7-1.541-2.618-2.187l-3.695,3.668a15.183,15.183,0,0,1,2.362-1.615,2.261,2.261,0,0,1,2.107,0l.242-.121c.31-.148.673.249.411.5a6.253,6.253,0,0,1,.727.612c1.454,1.407,2.82,2.975,4.193,4.462.673.761.034,2.335-1.1,1.911s-2.362-1.01-3.459,0a8.076,8.076,0,0,0-1.864,3.3,5.283,5.283,0,0,0,.209,3.143,15.254,15.254,0,0,1,1.016,2.187,1.185,1.185,0,0,1-.814,1.393c-.673.262-1.144-.168-1.844-.209a4.711,4.711,0,0,0-1.211.128l.256.256L17.7,38.74,9.817,30.845l3.177-3.183a20.009,20.009,0,0,1,2.019-2.692,20.864,20.864,0,0,1,1.393-2.086L8.72,30.529,21.434,43.243h0a23.313,23.313,0,0,1,3.056-.269l-2.053-2.066-.821.821-.377-.377a1.245,1.245,0,0,1-1.407-1.077,3.439,3.439,0,0,1-.034-.37l-1.285-1.279,2.019-2.019a3.264,3.264,0,0,1,1.124-1.124l1.265-1.265.794.821a10.1,10.1,0,0,1,1.689.175,6.259,6.259,0,0,0,1.656.209,8.4,8.4,0,0,0-.653-2.941,6.852,6.852,0,0,1-.74-1.965,1.05,1.05,0,0,1-.3-.538c-.565-2.443.909-5.142,3.533-5.337a8.447,8.447,0,0,1,3.769.841,4.189,4.189,0,0,1,2.107,2.807,9.221,9.221,0,0,1,.5,4.368c-.121,1.111-.249,2.457-1.38,3.029-.606.31-1.178.054-1.777.222-.969.262-.707,1.191-.848,1.959A1.757,1.757,0,0,1,30.6,39.1c-.074.054-1.245.559-1.245.437a1.137,1.137,0,0,1-.855,1.1h-.168a1.09,1.09,0,0,1-.3,0L25.8,42.873a8.729,8.729,0,0,0,1.016-.081,7.935,7.935,0,0,0,3.029-.875,7.027,7.027,0,0,1,1.71-.9h.067l2.322-2.315-.087-.081a.673.673,0,0,1,.915-.915l.081.087.545-.552c.283-1.871,1.144-3.621,1.111-5.546a17.572,17.572,0,0,0-6.683-12.592ZM33.7,36.66a.643.643,0,1,1-.936.882l-.054-.054a.645.645,0,1,1,.936-.888Z" transform="translate(-2.863 -4.851)" fill="#010101"/>
    <path id="Caminho_9972" data-name="Caminho 9972" d="M9.44,21.469c2.941-3.715,6-7.4,10.1-9.705a4.038,4.038,0,0,1-1.4-.545A41.727,41.727,0,0,0,14.588,8.89a4.61,4.61,0,0,1-2.45.572l-9.7,9.7a7.841,7.841,0,0,1,.619,3.426,6.057,6.057,0,0,1-.188,1.225l3.2,3.2a6.178,6.178,0,0,1,.673-1.158C7.663,24.363,8.41,22.869,9.44,21.469Z" transform="translate(-0.809 -2.931)" fill="#d76069"/>
    <path id="Caminho_9973" data-name="Caminho 9973" d="M19.645,11.419A42.314,42.314,0,0,0,16.1,9.09a4.59,4.59,0,0,1-2.443.579L7.49,15.827q.949,2.019,2.019,3.971a25.01,25.01,0,0,1,8.319-5.62,21.456,21.456,0,0,1,3.2-2.214A3.937,3.937,0,0,1,19.645,11.419Z" transform="translate(-2.461 -2.997)" fill="#ee8083"/>
    <path id="Caminho_9974" data-name="Caminho 9974" d="M20.351,11.419A42.313,42.313,0,0,0,16.8,9.09a4.59,4.59,0,0,1-2.443.579L9.65,14.38a12.115,12.115,0,0,1,4.146-.673,11.044,11.044,0,0,1,3.91.821q.431-.2.888-.384a21.456,21.456,0,0,1,3.2-2.214A3.937,3.937,0,0,1,20.351,11.419Z" transform="translate(-3.167 -2.997)" fill="#fff"/>
    <path id="Caminho_9975" data-name="Caminho 9975" d="M9.119,18.937v.034A.781.781,0,0,0,10.2,20.081v-.034a.787.787,0,0,0-1.077-1.111Z" transform="translate(-2.939 -6.174)" fill="#d76069"/>
    <path id="Caminho_9976" data-name="Caminho 9976" d="M10.524,22.733l.061.061c.283.289.727-.155.444-.444l-.061-.061C10.679,21.979,10.235,22.424,10.524,22.733Z" transform="translate(-3.422 -7.278)" fill="#d76069"/>
    <path id="Caminho_9977" data-name="Caminho 9977" d="M13.444,20.239h-.034a.628.628,0,1,0,.888.888v-.034a.633.633,0,0,0,0-.882A.673.673,0,0,0,13.444,20.239Z" transform="translate(-4.336 -6.588)" fill="#d76069"/>
    <path id="Caminho_9978" data-name="Caminho 9978" d="M6,9.56,3.142,12.414a10.768,10.768,0,0,0,0,15.17l10.176,10.19a12.788,12.788,0,0,0,15.157,2.154h0l1.938,1.945a3.547,3.547,0,0,0,5.014-5.014l-1.945-1.945a12.788,12.788,0,0,0-2.134-15.177L21.172,9.56A10.768,10.768,0,0,0,6,9.56Zm-.4,5.33,2.854-2.854a7.275,7.275,0,0,1,9.059-1.01,36.815,36.815,0,0,0-5.492,4.536,34.4,34.4,0,0,0-6.73,9.274C4.582,24.313,1.352,18.889,5.592,14.891ZM35.138,39.039a.673.673,0,0,1-.956.047L31.766,36.67h0l-.734-.74a.64.64,0,0,1,.909-.9l3.177,3.17A.673.673,0,0,1,35.138,39.039Zm-5.2-4.186-.054-.054a.643.643,0,1,1,.936-.882l.054.054a.643.643,0,1,1-.936.882Zm.962-2.517c-1.346-.734-2.463-.848-3.1-.323s-.673,1.656-.141,3.136c.034.087.067.182.108.269l-.04.061a1.9,1.9,0,0,0-1.7.242,1.851,1.851,0,0,0-.5,1.743,9.328,9.328,0,0,1-7.774-.673,3.787,3.787,0,0,1,.949-3.231c.882-.754,2.423-.787,4.334-.128a13.783,13.783,0,0,1,1.561.673l.256.128a.565.565,0,0,0,.734-.767c-.33-.606-.626-1.211-.888-1.81a19.627,19.627,0,0,1-.861-2.362c-.841-2.807-.673-4.96.431-5.9s3.264-.761,5.9.518l.135.067a9.335,9.335,0,0,1,.606,8.359ZM27.311,20.6a5.553,5.553,0,0,0-4.523,1.023c-1.864,1.582-2.268,4.529-1.144,8.3.087.289.182.586.283.882a5.559,5.559,0,0,0-4.711,1.016,5.129,5.129,0,0,0-1.676,3.264L8.755,28.291a32.306,32.306,0,0,1,6.057-8.265,33.221,33.221,0,0,1,6.73-5.216Zm-7.457-7.45a35.926,35.926,0,0,0-6.643,5.263A35.051,35.051,0,0,0,7.059,26.6l-.034-.04a31.356,31.356,0,0,1,6.6-9.422,34.029,34.029,0,0,1,5.667-4.59Z" transform="translate(-0.017 -2.128)" fill="#081c21"/>
    <path id="Caminho_9979" data-name="Caminho 9979" d="M47.653,60.41a.363.363,0,1,0,.363.363A.363.363,0,0,0,47.653,60.41Z" transform="translate(-15.474 -19.777)" fill="#081c21"/>
    <path id="Caminho_9980" data-name="Caminho 9980" d="M48.714,59.7a.37.37,0,1,0,.32.367A.37.37,0,0,0,48.714,59.7Z" transform="translate(-15.835 -19.545)" fill="#081c21"/>
  </g>
</svg>
