<svg xmlns="http://www.w3.org/2000/svg" width="272.283" height="165.077" viewBox="0 0 272.283 165.077">
  <g id="Camada_2" data-name="Camada 2" transform="translate(0.007 -0.003)">
    <g id="personagem">
      <path id="Caminho_9519" data-name="Caminho 9519" d="M271.47,108.69a30.45,30.45,0,0,0-.23-9,1.322,1.322,0,0,0-.08-.33,13.68,13.68,0,0,0-5.1-7.69c4.1-7.78,6.18-16.9,6.18-27.18A40.52,40.52,0,0,0,270.63,52a1.493,1.493,0,0,0-.13-.37,15.8,15.8,0,0,0-1.41-2.87,9.33,9.33,0,0,0,2.36-6.19V29a9.31,9.31,0,0,0-9.32-9.31H227.2a9.32,9.32,0,0,0-9.29,10l1.22,15.6a9.36,9.36,0,0,0,3.28,6.39,8.851,8.851,0,0,0,1.05.77,9.24,9.24,0,0,0,1,6.34l.75,1.37a9.31,9.31,0,0,0-6.71,8.62,52.819,52.819,0,0,0,1.61,14v.09c.59,2.35,1.14,4.35,1.7,6.08h-4.46a9.29,9.29,0,0,0-4.59,1.22h-.1c4-10.1,4.49-19,1.33-26.51a25.8,25.8,0,0,0-2.28-4.24,9.23,9.23,0,0,0,2.45-5.47c.72-7.67.61-13.58-.34-18.07a1.942,1.942,0,0,0-.07-.33C212.57,30.81,208.07,20,191.58,20h-.81c-7.18.63-13.23,2.34-18.11,5.07a9.3,9.3,0,0,0-5.83-1.14l-11.66,1.58-.24-.29A9.33,9.33,0,0,0,148.54,22l-12.47-1a8.93,8.93,0,0,0-3.15.31,8.74,8.74,0,0,0-2.34-.18l-14.24.79a9.26,9.26,0,0,0-5.52,2.21l-.12-.27a9.33,9.33,0,0,0-10.3-5.42L90.87,20.3l.3-.91A9.33,9.33,0,0,0,86.75,8.27L73.53,1.12a9.34,9.34,0,0,0-8.86,0L51.41,8.27A9.31,9.31,0,0,0,47,19.39l1.74,5.27-.08.05a20.21,20.21,0,0,0-4.2-2.37c-4-1.7-9.29-2.64-16.14-2.89H10A9.31,9.31,0,0,0,.7,28.93L1.85,93.37v.53A9.34,9.34,0,0,0,0,99.84l.9,24.39a9.3,9.3,0,0,0,8.18,8.91l4.33.53a10.519,10.519,0,0,0,1.12.07,9.32,9.32,0,0,0,5-1.49,9.23,9.23,0,0,0,4.55.46l4.07-.59.24-.05a15.83,15.83,0,0,0,7.54,1.7h.42l.23,21.18a9.31,9.31,0,0,0,9.42,9.2h.82a42.561,42.561,0,0,0,9.46-1.71,9.32,9.32,0,0,0,4.43,1.13H61L74.71,163a9.35,9.35,0,0,0,5.48-2.08,14.49,14.49,0,0,0,5.83,3,14.89,14.89,0,0,0,4.53.66,22.358,22.358,0,0,0,2.87-.2h.23a14.37,14.37,0,0,0,3.67-1.1l3.74.74a9.22,9.22,0,0,0,5.66-.64l.32.21a9.34,9.34,0,0,0,5,1.46,9.211,9.211,0,0,0,2.08-.23l3.06-.7a9.758,9.758,0,0,0,1.44.11h.81a44.76,44.76,0,0,0,8.68-1.46,9.665,9.665,0,0,0,1.2.33l4.75.95a9.25,9.25,0,0,0,5.67-.64l.32.21a9.38,9.38,0,0,0,7.09,1.23l5.16-1.19a9.229,9.229,0,0,0,2.45-1,9.05,9.05,0,0,0,1.35.39l4.75.95a9.25,9.25,0,0,0,5.67-.64l.31.21a9.34,9.34,0,0,0,5,1.46,9.231,9.231,0,0,0,2.09-.23l4.69-1.08a31.85,31.85,0,0,0,7.45,1,18.291,18.291,0,0,0,3.78-.37l.42-.1c.44-.12.87-.24,1.29-.38a9.361,9.361,0,0,0,2.64.38h.61l12.57-.81h.14l2.92.58a9.21,9.21,0,0,0,5.66-.64l.32.21a9.34,9.34,0,0,0,5,1.46,9.08,9.08,0,0,0,2.08-.23l5.16-1.19a9.32,9.32,0,0,0,6.85-11.72L229.36,131l.49-.19a27.69,27.69,0,0,0,11.48,2.93h.65a18.38,18.38,0,0,0,6.37-1.06,20.22,20.22,0,0,0,6.08,1.05h.43a24.74,24.74,0,0,0,7.07-.87,12.41,12.41,0,0,0,8.16-7c2.5-5.7,2.86-10.91,1.06-15.51A8.7,8.7,0,0,0,271.47,108.69Z" fill="#071c21"/>
      <path id="Caminho_9520" data-name="Caminho 9520" d="M45.48,36.16q-.57-6.79-17.5-7.4H10L11.16,93.2l12.22,1.19q18.9,1.32,20.52-3.78a38.74,38.74,0,0,0,.4-18.76,10.64,10.64,0,0,0-3.71-6.32,9.74,9.74,0,0,0,3.13-5.65Q46,52.52,45.48,36.16ZM32,82.24q-2.16.72-8.74.61l-.18-12.76h7.3q3.88.47,3.88,7.51Q34.49,81.63,32,82.24ZM30.2,58.73l-7.2.08-.2-16.29q6.61-1,9.13.58c1.54.74,2.41,3,2.63,6.86q.44,8.63-4.39,8.77Z" fill="#fff"/>
      <path id="Caminho_9521" data-name="Caminho 9521" d="M69.09,19.2l9.78,7.73,3.45-10.46L69.09,9.31,55.83,16.47l3.45,10.46Z" fill="#fff"/>
      <path id="Caminho_9522" data-name="Caminho 9522" d="M72.83,28Q59,28.9,52.49,33.29,48.86,35.51,49,46.41q0,10.06,3.17,28.21,2.51,13.88,4.35,16.14,2.55,3.3,10.42,3.16A53,53,0,0,0,76,92.7a10.07,10.07,0,0,0,5.53-4.39q7.08-15.42,7.08-37.63a66.12,66.12,0,0,0-1.22-14.23Q85.05,28,72.83,28Zm1.62,49.35a4.81,4.81,0,0,1-2.23,2.55,16.6,16.6,0,0,1-3.56.72q-3.15,0-4.17-1.87-.7-1.34-2.33-11.5-2.73-20.67-.68-22.68Q64.57,41.33,71,42c3.31.45,5.24,2.11,5.79,5a59,59,0,0,1,.46,8.3q0,12.96-2.8,22.02Z" fill="#fff"/>
      <path id="Caminho_9523" data-name="Caminho 9523" d="M117.69,63.19,102.16,27.61,90.41,29.87l2.41,61.35,10.31-.68.54-31.45,15.31,35.33h9.99l2.12-63.97-14.23.79Z" fill="#fff"/>
      <path id="Caminho_9524" data-name="Caminho 9524" d="M155.82,34.8q3.74,29.69,1.83,41.47-.72,4.1-4,4.82a6.82,6.82,0,0,1-4.57-.32c-1.63-.68-2.63-2.59-3-5.75q-1-10.5,1.8-43.78l-12.47-.94q-3,36.81-1.11,52.12,1.19,8.3,6.9,9.63,11.49,2.83,17.82,1.51,10.58-2.73,11-11.82a332.9,332.9,0,0,0-1.87-48.6Z" fill="#fff"/>
      <path id="Caminho_9525" data-name="Caminho 9525" d="M191.76,55.82q-9.78-4.64-8.7-8.37,1.08-4.86,7-4.93,4.46.69,5.1,5.65.29,2.16.39,5.28l9.35-.43q.93-10-.18-15.28-2.12-8.47-13.12-8.48-10.71.94-16.6,5.32-3.27,2.19-3.13,14.74.33,10.49,18.73,18.94,6.67,2.44,5.64,9.06A3.27,3.27,0,0,1,194,79.87q-1.11.72-5.43.72-3.92,0-4.92-1.87-2.34-4.25.86-9.56l-10-1.26A25.41,25.41,0,0,0,172,78.52a21.26,21.26,0,0,0,3.67,12.24q1.83,2.73,11.18,3.16a39.11,39.11,0,0,0,10.92-1.22q4.17-1.19,5.54-4.39Q213.93,64.13,191.76,55.82Z" fill="#fff"/>
      <path id="Caminho_9526" data-name="Caminho 9526" d="M261.77,54.92q-1.54-4.12-7.83-5.28l8.19-7V29H227.2l1.22,15.6,16.1-1.43L232.59,54.31l5.1,9.28h0q2.91-1.34,8.48-1.05c3.07.24,4.85,1,5.36,2.3a12.58,12.58,0,0,1,.46,3.81,18.54,18.54,0,0,1-2.62,10.14,3.64,3.64,0,0,1-2,1.19,21,21,0,0,1-3.3.32c-1.95,0-3.23-.26-3.85-.86q-.69-.59-2.19-5.25a23.24,23.24,0,0,1-.65-6l-9.6.93a43.409,43.409,0,0,0,1.37,11.5q2.34,9.34,4,10.86,2.37,2.26,9.66,2.19a61.359,61.359,0,0,0,8.38-.83,9.38,9.38,0,0,0,5.14-3q6.57-10.42,6.57-25.38a31.77,31.77,0,0,0-1.13-9.54Z" fill="#fff"/>
      <path id="Caminho_9527" data-name="Caminho 9527" d="M14.5,112.28l2.87,7.55,2.39-.06,3.01-8.85V123.5l4.07-.6,1.07-25.33-4.13-.54-5.23,14.35L13.49,98.13,9.31,99.5l.9,24.39,4.32.53Z" fill="#faaf40"/>
      <path id="Caminho_9528" data-name="Caminho 9528" d="M38.62,97.63c-3.74.25-6.5,1-8.27,2.16q-1.49.92-1.42,5.34a72.279,72.279,0,0,0,1.28,11.47q1,5.64,1.77,6.56c.69.9,2.11,1.33,4.24,1.29a21,21,0,0,0,3.68-.5,4,4,0,0,0,2.25-1.78A36.52,36.52,0,0,0,45,106.87a26.9,26.9,0,0,0-.49-5.79Q43.58,97.63,38.62,97.63Zm.66,20.07a2,2,0,0,1-.91,1,7.241,7.241,0,0,1-1.45.29,1.71,1.71,0,0,1-1.69-.76,27,27,0,0,1-.95-4.68c-.74-5.6-.84-8.68-.28-9.22a4.51,4.51,0,0,1,3.87-1.05,2.45,2.45,0,0,1,2.36,2,25,25,0,0,1,.19,3.38,30.73,30.73,0,0,1-1.14,9.04Z" fill="#faaf40"/>
      <path id="Caminho_9529" data-name="Caminho 9529" d="M51.29,124a7.72,7.72,0,0,0,3.59.18c1.8-.29,3.66-1.79,5.6-4.51l-3.07-3.66q-2.28,2.65-3.64,3c-1.4.35-2.25-.13-2.54-1.46a46.62,46.62,0,0,1-.54-11c.16-1.29.56-2.07,1.2-2.36a2.82,2.82,0,0,1,1.91-.33c.83,0,1.32.54,1.48,1.49.08.57.13,1.15.17,1.74l4.33-.5c0-1.35.06-2.59,0-3.71a4.27,4.27,0,0,0-3.74-4.46,11.33,11.33,0,0,0-6,.63,5.71,5.71,0,0,0-4,4.88,54.819,54.819,0,0,0,.74,15.21Q47.76,123.27,51.29,124Z" fill="#faaf40"/>
      <path id="Caminho_9530" data-name="Caminho 9530" d="M66.85,124.52v-8.46l.03-.01,4.93,7.79,4.63-1.16-6.17-11.35,5.94-10.75-4.08-1.31-5.28,8.05V98.01l-5.46.24.98,25.79Z" fill="#faaf40"/>
      <path id="Caminho_9531" data-name="Caminho 9531" d="M80.65,123.69a17.28,17.28,0,0,0,7.25.61q4.29-1.11,4.46-4.8a135.151,135.151,0,0,0-.76-19.76l-5,.67q1.53,12.07.75,16.86a2.13,2.13,0,0,1-1.64,2,2.72,2.72,0,0,1-1.85-.13q-1-.41-1.23-2.34-.42-4.26.73-17.8l-5.07-.38q-1.22,15-.46,21.19C78.17,122,79.1,123.33,80.65,123.69Z" fill="#faaf40"/>
      <path id="Caminho_9532" data-name="Caminho 9532" d="M99.18,124.73v-9.3l5.1-1.81a3.61,3.61,0,0,0,2.63-2.84c.69-2,1-5.2.89-9.64q-.21-2.77-7.62-3.13H93.69L94.55,124Zm0-21.53a7.94,7.94,0,0,1,3.46.7c.68.29.93,1.08.76,2.35-.17,2.39-.76,3.72-1.76,4l-2.46.79Z" fill="#faaf40"/>
      <path id="Caminho_9533" data-name="Caminho 9533" d="M116.7,109c-2.65-1.26-3.82-2.39-3.53-3.41a2.534,2.534,0,0,1,2.83-2,2.36,2.36,0,0,1,2.08,2.29c.08.59.13,1.31.16,2.15l3.8-.17a22.35,22.35,0,0,0-.07-6.21q-.87-3.45-5.34-3.45a13.08,13.08,0,0,0-6.75,2.16q-1.34.89-1.27,6,.14,4.27,7.61,7.7a3.1,3.1,0,0,1,2.3,3.69,1.33,1.33,0,0,1-.91,1,5.12,5.12,0,0,1-2.21.29c-1.06,0-1.73-.25-2-.76a3.74,3.74,0,0,1,.35-3.89l-4.08-.51a10.26,10.26,0,0,0-1,4.32,8.6,8.6,0,0,0,1.49,5c.49.74,2,1.17,4.54,1.29a16,16,0,0,0,4.45-.5,3.2,3.2,0,0,0,2.25-1.78Q125.72,112.33,116.7,109Z" fill="#faaf40"/>
      <path id="Caminho_9534" data-name="Caminho 9534" d="M136.39,124.42l-.03-12.14,2.87,7.55,2.39-.06,3.01-8.85V123.5l4.07-.6,1.06-25.33-4.12-.54-5.23,14.35-5.06-13.25-4.18,1.37.89,24.39Z" fill="#faaf40"/>
      <path id="Caminho_9535" data-name="Caminho 9535" d="M152.2,122.27q2.67,1.78,8.28,2.18,5,0,5.92-3.45a27,27,0,0,0,.49-5.79A36.6,36.6,0,0,0,164,99.9a4.14,4.14,0,0,0-2.25-1.79,23.87,23.87,0,0,0-3.68-.48c-2.13,0-3.55.39-4.24,1.29q-.75.92-1.77,6.56A72.282,72.282,0,0,0,150.79,117C150.75,119.9,151.22,121.68,152.2,122.27Zm3.94-13.79a26,26,0,0,1,1-4.67,1.71,1.71,0,0,1,1.69-.76,6.57,6.57,0,0,1,1.45.3,1.91,1.91,0,0,1,.9,1,30.71,30.71,0,0,1,1.14,9,23.521,23.521,0,0,1-.19,3.39,2.45,2.45,0,0,1-2.35,2,4.51,4.51,0,0,1-3.87-1.05c-.61-.52-.51-3.6.23-9.21Z" fill="#faaf40"/>
      <path id="Caminho_9536" data-name="Caminho 9536" d="M172.65,123.08l.22-12.79,6.23,14.36h4.06l.86-26.01-5.79.32.34,12.99-6.31-14.47-4.78.93.98,24.94Z" fill="#faaf40"/>
      <path id="Caminho_9537" data-name="Caminho 9537" d="M200.74,98.04l-15.49.88.09,5.04h5.11l.26,19.96,4.8-.6.35-19.36h4.7Z" fill="#faaf40"/>
      <path id="Caminho_9538" data-name="Caminho 9538" d="M205.55,98.06,197.13,123l4.75,1,1.2-4.09H210l1,4.94,5.16-1.18-7.41-25Zm-1,17,2.41-7.57,1.8,7.39Z" fill="#faaf40"/>
      <path id="Caminho_9539" data-name="Caminho 9539" d="M223.76,98.29h-6.42l.28,25.7q10.77-.95,11.93-4.6,1-3,1.44-14.56Q231,98.4,223.76,98.29Zm2.79,8.86c-.27,6.66-.85,10.06-1.72,10.18l-2.31.79V104.03a5.29,5.29,0,0,1,3.27.5c.67.33.92,1.2.76,2.62Z" fill="#faaf40"/>
      <path id="Caminho_9540" data-name="Caminho 9540" d="M243.27,98.11a23.869,23.869,0,0,0-3.68-.48c-2.14,0-3.55.39-4.24,1.29q-.75.92-1.77,6.56A71.35,71.35,0,0,0,232.29,117c0,3,.44,4.73,1.42,5.32q2.65,1.78,8.27,2.18,5,0,5.92-3.45a26.93,26.93,0,0,0,.5-5.79,36.6,36.6,0,0,0-2.88-15.31A4.22,4.22,0,0,0,243.27,98.11Zm.32,18.64a2.46,2.46,0,0,1-2.35,2,4.52,4.52,0,0,1-3.88-1.05q-.83-.81.28-9.23a28.131,28.131,0,0,1,1-4.67,1.74,1.74,0,0,1,1.7-.76,6.31,6.31,0,0,1,1.44.3,1.93,1.93,0,0,1,.91,1,30.71,30.71,0,0,1,1.14,9,23.518,23.518,0,0,1-.24,3.41Z" fill="#faaf40"/>
      <path id="Caminho_9541" data-name="Caminho 9541" d="M256.86,109c-2.65-1.26-3.83-2.39-3.54-3.41a2.544,2.544,0,0,1,2.84-2,2.36,2.36,0,0,1,2.08,2.29c.07.59.13,1.31.16,2.15l3.8-.17a22.27,22.27,0,0,0-.08-6.21q-.86-3.45-5.33-3.45a13,13,0,0,0-6.75,2.16c-.89.59-1.31,2.59-1.28,6q.13,4.27,7.62,7.7a3.09,3.09,0,0,1,2.29,3.69,1.31,1.31,0,0,1-.9,1,5.12,5.12,0,0,1-2.21.29c-1.06,0-1.73-.25-2-.76a3.72,3.72,0,0,1,.35-3.89l-4.08-.51a10.41,10.41,0,0,0-1,4.32,8.6,8.6,0,0,0,1.49,5c.5.74,2,1.17,4.55,1.29a15.86,15.86,0,0,0,4.44-.5,3.2,3.2,0,0,0,2.25-1.78Q265.89,112.33,256.86,109Z" fill="#faaf40"/>
      <path id="Caminho_9542" data-name="Caminho 9542" d="M52.08,129.18l-6.41-.05L46,154.84q10.77-.94,11.92-4.6,1-3,1.45-14.56Q59.29,129.27,52.08,129.18Zm2.8,8.85c-.28,6.67-.85,10.06-1.73,10.19l-2.31.79V134.92a5.26,5.26,0,0,1,3.28.5c.67.33.88,1.2.76,2.58Z" fill="#faaf40"/>
      <path id="Caminho_9543" data-name="Caminho 9543" d="M65.76,148.69v-2.82l6.03-.38v-4.65l-6.03-.19v-5.12h8.2l-.13-4.66L61.38,130l-.72,24.23,13.67-.56-.32-4.57Z" fill="#faaf40"/>
      <path id="Caminho_9544" data-name="Caminho 9544" d="M91.09,149.93c-1.4.35-2.25-.14-2.54-1.46a46.69,46.69,0,0,1-.54-11c.16-1.28.56-2.07,1.2-2.35a2.88,2.88,0,0,1,1.91-.34,1.54,1.54,0,0,1,1.48,1.49c.08.58.13,1.16.17,1.74l4.33-.49c.05-1.36.06-2.59,0-3.72a4.27,4.27,0,0,0-3.74-4.45,11.32,11.32,0,0,0-6,.63,5.7,5.7,0,0,0-4,4.88,54.841,54.841,0,0,0,.74,15.21q.89,4.09,4.42,4.87a7.6,7.6,0,0,0,3.59.17c1.8-.28,3.66-1.78,5.6-4.5l-3.07-3.67Q92.45,149.6,91.09,149.93Z" fill="#faaf40"/>
      <path id="Caminho_9545" data-name="Caminho 9545" d="M106.55,128.94l-8.41,24.92,4.75.95,1.19-4.09H111l1,4.94,5.16-1.19-7.41-25Zm-1,17,2.41-7.57,1.79,7.39Z" fill="#faaf40"/>
      <path id="Caminho_9546" data-name="Caminho 9546" d="M124.76,129.18l-6.41-.05.28,25.71q10.77-.94,11.92-4.6,1-3,1.45-14.56Q132,129.27,124.76,129.18Zm2.8,8.85c-.28,6.67-.85,10.06-1.73,10.19l-2.31.79V134.92a5.26,5.26,0,0,1,3.28.5c.67.33.91,1.2.76,2.58Z" fill="#faaf40"/>
      <path id="Caminho_9547" data-name="Caminho 9547" d="M139.57,128.94l-8.42,24.92,4.75.95,1.2-4.09H144l1.05,4.94,5.16-1.19-7.41-25Zm-1,17,2.41-7.57,1.8,7.39Z" fill="#faaf40"/>
      <path id="Caminho_9548" data-name="Caminho 9548" d="M166.36,128.94l-8.42,24.92,4.75.95,1.2-4.09h6.91l1,4.94,5.16-1.19-7.41-25Zm-1,17,2.41-7.57,1.8,7.39Z" fill="#faaf40"/>
      <path id="Caminho_9549" data-name="Caminho 9549" d="M186.66,131.3q1.51,12.06.74,16.86a2.14,2.14,0,0,1-1.63,2,2.8,2.8,0,0,1-1.86-.13q-1-.41-1.23-2.34-.42-4.28.73-17.8l-5.07-.38q-1.22,15-.45,21.19.48,3.38,2.81,3.92a17.23,17.23,0,0,0,7.24.61c2.87-.74,4.35-2.34,4.46-4.81a133.81,133.81,0,0,0-.76-19.76Z" fill="#faaf40"/>
      <path id="Caminho_9550" data-name="Caminho 9550" d="M199.39,127.57l-5.75.6.57,26.73,12.57-.82.03-5.13h-8.02Z" fill="#faaf40"/>
      <path id="Caminho_9551" data-name="Caminho 9551" d="M219.19,129.47l-3.24-.53-8.42,24.92,4.75.95,1.2-4.09h6.91l1.05,4.94,5.16-1.19ZM215,145.9l2.41-7.57,1.8,7.39Z" fill="#faaf40"/>
    </g>
  </g>
</svg>
