<svg xmlns="http://www.w3.org/2000/svg" width="270.606" height="159.698" viewBox="0 0 270.606 159.698">
  <g id="personagem" transform="translate(-0.001 -0.003)">
    <path id="Caminho_9484" data-name="Caminho 9484" d="M7.23,128.22l4.79,1.1a9.27,9.27,0,0,0,7.09-1.22h0a9.33,9.33,0,0,0,5.33.5l2.82-.57q.46.15,1,.27a30.059,30.059,0,0,0,7.19,1,17.781,17.781,0,0,0,3.65-.37l.41-.09,1-.31a9.659,9.659,0,0,0,2.46.33h.6l2-.13.22,20.89a9.31,9.31,0,0,0,9.32,9.21,7.628,7.628,0,0,0,.82,0,40.789,40.789,0,0,0,8.68-1.52,9.37,9.37,0,0,0,4.17,1h.38l12.7-.51a9.4,9.4,0,0,0,5-1.75,16.58,16.58,0,0,0,9.64,3.19,20.553,20.553,0,0,0,2.76-.19h.23a13.311,13.311,0,0,0,3.35-1l3.3.66a9.22,9.22,0,0,0,5.32-.5h0a9.34,9.34,0,0,0,5,1.46,9.218,9.218,0,0,0,2.08-.24l2.73-.62a9.362,9.362,0,0,0,1.3.1,7.628,7.628,0,0,0,.82,0,42.1,42.1,0,0,0,8-1.32,8.85,8.85,0,0,0,1,.27l4.41.88a9.21,9.21,0,0,0,5.32-.5h0a9.27,9.27,0,0,0,7.09,1.22l4.79-1.1a8.521,8.521,0,0,0,1.86-.64,9.169,9.169,0,0,0,3.06,1.09l4.31.72a8.778,8.778,0,0,0,1.53.13,9.35,9.35,0,0,0,5.1-1.53l3,.6a9.25,9.25,0,0,0,5.33-.5h0a9.34,9.34,0,0,0,5,1.46,9.219,9.219,0,0,0,2.08-.24l4.06-.93.45.13a14.33,14.33,0,0,0,4.39.63A20.549,20.549,0,0,0,197,159h.23a13.841,13.841,0,0,0,2.36-.6,9.53,9.53,0,0,0,2.14.5l4.17.45c.33,0,.67.05,1,.05a9.308,9.308,0,0,0,3.538-.7,9.29,9.29,0,0,0,3.312-.211l4.31-1.08A9.31,9.31,0,0,0,224,143.86l-3.29-6.07.19-.34H222c7.23,0,10.25-4.33,11.22-6.18.11-.22.21-.44.31-.66a10.99,10.99,0,0,0,.42-1.18,9.12,9.12,0,0,0,3.88-1.39h0a9.31,9.31,0,0,0,5.32.5l3.84-.77a30.931,30.931,0,0,0,7.68,1.41h.66c7.33,0,12.75-3.76,14.48-10a1.865,1.865,0,0,1,.1-.39,33.7,33.7,0,0,0,.69-7.46,44.52,44.52,0,0,0-2.86-16.53,8.932,8.932,0,0,0,.51-1.94L270.4,78.2a9.33,9.33,0,0,0-2.33-7.61,9.43,9.43,0,0,0-4-2.59c5.39-8.7,6.57-19.78,3.26-32.52-.05-.2-.11-.39-.17-.58a21.54,21.54,0,0,0-13.91-14A42.3,42.3,0,0,0,239.39,19h-.5c-6.13.33-14.71,1.54-18.6,8.25l-.11.19a36.37,36.37,0,0,0-4.76,18.75c.18,6,1.94,12.41,5.22,19.19.05.09.09.18.14.26a26.42,26.42,0,0,0-5.51,15.3v6.37l-.8.25a16.28,16.28,0,0,0-2.65,1.18c-.25-.2-.51-.4-.78-.58,3.64-9.58,4-18.06.93-25.25a25.58,25.58,0,0,0-2.21-4.13,9.2,9.2,0,0,0,2.39-5.41c.71-7.58.6-13.43-.34-17.87a2.054,2.054,0,0,0-.07-.34c-1.16-4.64-5.63-15.43-22-15.43a7,7,0,0,0-.8,0,44.46,44.46,0,0,0-17.88,5,9.33,9.33,0,0,0-5.77-1.1l-11.46,1.54-.19-.23a9.27,9.27,0,0,0-6.4-3.25L135,20.76a9,9,0,0,0-3.13.3,8.91,8.91,0,0,0-2.31-.17l-14.06.78a9.26,9.26,0,0,0-5.5,2.11l-.05-.12a9.3,9.3,0,0,0-10.3-5.42L90.47,20l.24-.71a9.31,9.31,0,0,0-4.42-11.1L73.23,1.12a9.32,9.32,0,0,0-8.85,0L51.28,8.18A9.32,9.32,0,0,0,46.85,19.3l1.65,5a21.07,21.07,0,0,0-4-2.21c-4-1.68-9.19-2.62-16-2.86H10.44a9.32,9.32,0,0,0-9.31,9.48L2.27,92.33a9.27,9.27,0,0,0,3.32,7L.4,116.44a9.32,9.32,0,0,0,6.83,11.78Z" fill="#071c21"/>
    <path id="Caminho_9485" data-name="Caminho 9485" d="M40.65,64.83a10.5,10.5,0,0,1,3.66,6.25,38.37,38.37,0,0,1-.39,18.52q-1.61,5-20.27,3.73L11.58,92.16,10.44,28.52H28.19q16.73.6,17.29,7.31Q46,52,43.74,59.26a9.74,9.74,0,0,1-3.09,5.57ZM23.08,42.11l.21,16.08,7.07-.07q4.76-.13,4.33-8.66-.33-5.68-2.59-6.78C30.44,41.61,27.43,41.43,23.08,42.11Zm.25,27.23.18,12.6q6.49.11,8.62-.61c1.66-.4,2.4-1.91,2.24-4.54q0-7-3.84-7.42Z" fill="#fff"/>
    <path id="Caminho_9486" data-name="Caminho 9486" d="M66.67,92.87q-7.77.13-10.3-3.12-1.8-2.23-4.29-15.94Q49,55.89,49,46q-.19-10.8,3.4-13,6.47-4.34,20.09-5.25,12.06,0,14.37,8.37a64.679,64.679,0,0,1,1.21,14.06q0,21.93-7,37.16a10,10,0,0,1-5.47,4.33,50.63,50.63,0,0,1-8.93,1.2ZM68.8,19.08l-9.69,7.63L55.7,16.38,68.8,9.31l13.06,7.07L78.45,26.71ZM71.89,79a4.78,4.78,0,0,0,2.2-2.52q2.76-8.94,2.77-21.83a57.36,57.36,0,0,0-.47-8.2c-.54-2.81-2.45-4.45-5.71-4.9q-6.36-.6-9.41,2.56-2,2,.68,22.4,1.59,10,2.3,11.36,1,1.88,4.12,1.84A15.77,15.77,0,0,0,71.89,79Z" fill="#fff"/>
    <path id="Caminho_9487" data-name="Caminho 9487" d="M101.45,27.38l15.34,35.14L116,31l14-.81-2.1,63.18h-9.87L102.94,58.48l-.53,31.05-10.19.68L89.85,29.62Z" fill="#fff"/>
    <path id="Caminho_9488" data-name="Caminho 9488" d="M168.4,80.84q-.39,9-10.83,11.67Q151.33,93.83,140,91q-5.66-1.3-6.82-9.51Q131.3,66.39,134.25,30l12.32.93q-2.81,32.87-1.78,43.23c.38,3.12,1.37,5,3,5.68a6.7,6.7,0,0,0,4.51.32c2.18-.48,3.5-2.06,4-4.76q1.88-11.64-1.81-41l12.1-1.63a327.1,327.1,0,0,1,1.81,48.07Z" fill="#fff"/>
    <path id="Caminho_9489" data-name="Caminho 9489" d="M189.94,55.24q21.9,8.2,11.4,32.09c-.9,2.11-2.73,3.55-5.47,4.33a38.3,38.3,0,0,1-10.79,1.21c-6.15-.28-9.83-1.33-11-3.12a21,21,0,0,1-3.62-12.09,25.06,25.06,0,0,1,2.45-10.49l9.9,1.24c-2.1,3.51-2.39,6.65-.85,9.45q1,1.88,4.86,1.84,4.26,0,5.36-.71a3.2,3.2,0,0,0,2.2-2.52q1-6.52-5.57-8.94-18.17-8.34-18.49-18.71-.15-12.39,3.09-14.55,5.82-4.34,16.39-5.26,10.88,0,13,8.38,1.09,5.22.18,15.09l-9.23.42a52.1,52.1,0,0,0-.39-5.22q-.65-4.89-5-5.57-5.82.07-6.89,4.86Q180.28,50.68,189.94,55.24Z" fill="#fff"/>
    <path id="Caminho_9490" data-name="Caminho 9490" d="M239.6,78l21.58-1.1-2.13,14.7-34.43-.07V81.2q.33-12,18.5-21.66,6.1-2.66,5.57-12.24a3.61,3.61,0,0,0-2.2-2.91q-1.09-.85-5.36-.85-3.87,0-4.86,2.16-2.31,4.83,1.88,12.85L229,61.28q-4.08-8.41-4.29-15.41a27,27,0,0,1,3.62-14q1.8-3.12,11-3.62a34,34,0,0,1,10.79,1.38,12.37,12.37,0,0,1,8.13,8.17q6.38,24.6-13,35Q237,78.08,239.6,78Z" fill="#fff"/>
    <path id="Caminho_9491" data-name="Caminho 9491" d="M16.48,95.46,9.31,119.14l4.8,1.1,1-4.59h6.43l1.11,3.8,4.41-.88-7.7-22.76ZM16.21,111l1.67-6.87,2.24,7Z" fill="#faaf40"/>
    <path id="Caminho_9492" data-name="Caminho 9492" d="M36,97.6q1.41,11.22.69,15.68a2,2,0,0,1-1.52,1.82,2.55,2.55,0,0,1-1.77-.1c-.61-.25-1-1-1.14-2.17q-.39-4,.68-16.54l-4.71-.35q-1.12,13.91-.42,19.69.45,3.14,2.61,3.64a16.21,16.21,0,0,0,6.73.57q4-1,4.14-4.47A125.061,125.061,0,0,0,40.59,97Z" fill="#faaf40"/>
    <path id="Caminho_9493" data-name="Caminho 9493" d="M47.78,94.14l-5.33.56.53,24.84,11.68-.76.02-4.77H47.23Z" fill="#faaf40"/>
    <path id="Caminho_9494" data-name="Caminho 9494" d="M66.18,95.91l-3-.49-7.82,23.15,4.41.88,1.11-3.8H67.3l1,4.59,4.79-1.1Zm-3.92,15.26,2.24-7L66.17,111Z" fill="#faaf40"/>
    <path id="Caminho_9495" data-name="Caminho 9495" d="M80.92,105.55c-2.46-1.17-3.56-2.22-3.29-3.17a2.377,2.377,0,0,1,2.64-1.86,2.19,2.19,0,0,1,1.92,2.14,16.76,16.76,0,0,1,.15,2l3.53-.16a20.46,20.46,0,0,0-.06-5.77q-.81-3.21-5-3.21a12.23,12.23,0,0,0-6.27,2c-.83.56-1.22,2.41-1.19,5.57.09,2.64,2.44,5,7.08,7.16a2.86,2.86,0,0,1,2.13,3.42,1.2,1.2,0,0,1-.84,1,4.68,4.68,0,0,1-2.05.27c-1,0-1.61-.22-1.86-.7a3.45,3.45,0,0,1,.32-3.61l-3.78-.48a9.52,9.52,0,0,0-.94,4,8,8,0,0,0,1.38,4.63c.47.69,1.87,1.08,4.23,1.19a14.69,14.69,0,0,0,4.13-.46,3,3,0,0,0,2.09-1.66Q89.3,108.69,80.92,105.55Z" fill="#faaf40"/>
    <path id="Caminho_9496" data-name="Caminho 9496" d="M106,115.2q.93-2.74,1.34-13.52,0-6-6.72-6h-6l.26,23.89Q104.93,118.6,106,115.2ZM99.49,101a4.94,4.94,0,0,1,3.05.46c.59.31.82,1.12.68,2.43-.26,6.2-.79,9.35-1.61,9.47l-2.14.73Z" fill="#faaf40"/>
    <path id="Caminho_9497" data-name="Caminho 9497" d="M120.99,114.14l-7.66-.38v-2.62l5.6-.35v-4.32l-5.6-.17v-4.76h7.62l-.12-4.33-11.57-.81-.67,22.51,12.7-.52Z" fill="#faaf40"/>
    <path id="Caminho_9498" data-name="Caminho 9498" d="M134.56,115.65H141l1,4.59,4.79-1.1-6.88-23.23-3-.49L129,118.57l4.41.88Zm3.62-11.51,1.67,6.87-3.91.16Z" fill="#faaf40"/>
    <path id="Caminho_9499" data-name="Caminho 9499" d="M160.71,98.28c-.13-1.72-2.5-2.69-7.09-2.9h-6l.81,24.1,4.3.72v-8.64l4.74-1.68a3.33,3.33,0,0,0,2.44-2.63Q160.84,104.475,160.71,98.28ZM156.65,103c-.16,2.21-.71,3.45-1.64,3.69l-2.28.73V100.2a7.36,7.36,0,0,1,3.22.65C156.57,101.12,156.81,101.85,156.65,103Z" fill="#faaf40"/>
    <path id="Caminho_9500" data-name="Caminho 9500" d="M174.1,118.78l.03-4.77h-7.46l.56-19.87-5.34.56.53,24.84Z" fill="#faaf40"/>
    <path id="Caminho_9501" data-name="Caminho 9501" d="M176.19,120.15l3.87-1.09V101.68l-4.7.54Z" fill="#faaf40"/>
    <path id="Caminho_9502" data-name="Caminho 9502" d="M179.63,100.29l.37-6.07-4.7-.19.46,6.09Z" fill="#faaf40"/>
    <path id="Caminho_9503" data-name="Caminho 9503" d="M186.24,119.56a7.1,7.1,0,0,0,3.34.17c1.67-.27,3.4-1.66,5.2-4.19l-2.85-3.41q-2.12,2.48-3.38,2.79c-1.3.32-2.09-.13-2.36-1.36a42.42,42.42,0,0,1-.5-10.22q.23-1.8,1.11-2.19a2.62,2.62,0,0,1,1.78-.31c.77,0,1.22.5,1.37,1.38.07.54.13,1.07.16,1.62l4-.46q.08-1.89,0-3.45a4,4,0,0,0-3.48-4.15,10.52,10.52,0,0,0-5.55.59,5.3,5.3,0,0,0-3.68,4.53,51.131,51.131,0,0,0,.69,14.14C182.68,117.58,184.05,119.08,186.24,119.56Z" fill="#faaf40"/>
    <path id="Caminho_9504" data-name="Caminho 9504" d="M200.62,115.65h6.43l1,4.59,4.8-1.1-6.89-23.23-3-.49-7.82,23.15,4.41.88Zm3.63-11.51,1.67,6.87-3.91.16Z" fill="#faaf40"/>
    <path id="Caminho_9505" data-name="Caminho 9505" d="M220.92,114.16c-1.3.3-2.09-.14-2.36-1.32a39.508,39.508,0,0,1-.5-9.8c.15-1.15.52-1.85,1.11-2.11a2.79,2.79,0,0,1,1.78-.3,1.4,1.4,0,0,1,1.37,1.33c.08.51.13,1,.17,1.55l4-.45c0-1.2.05-2.3,0-3.31a3.886,3.886,0,0,0-3.47-4,10.93,10.93,0,0,0-5.56.56,5.16,5.16,0,0,0-3.68,4.36,47.139,47.139,0,0,0,.69,13.57,5.17,5.17,0,0,0,4.11,4.36.28.28,0,0,1,.12,0l.08,3.89,2.65,1c0-.53.2-.77.47-.72l.3.06a.26.26,0,0,1,.19.09,2.44,2.44,0,0,1,.26,1.47,2.469,2.469,0,0,1-.12.53q-.1.19-.75.24a2.71,2.71,0,0,1-1.34-.16c-.06,0,0-.4.25-1.1l-2.55-.53a12.741,12.741,0,0,0-.5,2.24c-.11,1,.09,1.63.61,1.85a10.69,10.69,0,0,0,3.72.68c1.57,0,2.55-.39,3-1.16a6.24,6.24,0,0,0,.4-1.85,7.82,7.82,0,0,0-.89-4.78,2,2,0,0,0-1.09-.63,12.638,12.638,0,0,0-1.41-.14h-.34l.12-.8h.21c1.66-.24,3.4-1.58,5.2-4l-2.85-3.28C222.89,113.07,221.77,114,220.92,114.16Z" fill="#faaf40"/>
    <path id="Caminho_9506" data-name="Caminho 9506" d="M234.48,95.24q2,.3,3.42-3.52c.15-.51.42-.69.8-.54a.937.937,0,0,1,.09.22,2.58,2.58,0,0,1,.09.91,25.092,25.092,0,0,1-.28,2.76l3.2-.13c0-.94.07-1.58.08-1.91a10.66,10.66,0,0,0-.21-2.35,2.52,2.52,0,0,0-.85-1.56q-4.26-3.23-5.72,1.59c-.33.86-.55,1.26-.65,1.2a1,1,0,0,1-.48-1c0-.16.18-1,.49-2.36l-3.32-.13q-.09.77-.09,1a11,11,0,0,0,.81,4.44C232.15,94.54,233,95,234.48,95.24Z" fill="#faaf40"/>
    <path id="Caminho_9507" data-name="Caminho 9507" d="M235.21,95.46,228,119.14l4.79,1.1,1-4.59h6.42l1.12,3.8,4.41-.88-7.7-22.76ZM234.94,111l1.67-6.87,2.24,7Z" fill="#faaf40"/>
    <path id="Caminho_9508" data-name="Caminho 9508" d="M258.63,97.13a3.92,3.92,0,0,0-2.09-1.66,21.53,21.53,0,0,0-3.42-.45c-2,0-3.29.37-3.94,1.2q-.69.86-1.64,6.1a66.188,66.188,0,0,0-1.2,10.66q0,4.11,1.32,4.94c1.65,1.1,4.21,1.78,7.69,2q4.62,0,5.5-3.2a24.851,24.851,0,0,0,.46-5.38,33.93,33.93,0,0,0-2.68-14.21Zm-1.79,15.66a2.29,2.29,0,0,1-2.18,1.87,4.21,4.21,0,0,1-3.6-1q-.78-.75.26-8.58a24.706,24.706,0,0,1,.88-4.33,1.58,1.58,0,0,1,1.57-.71,6.17,6.17,0,0,1,1.35.27,1.8,1.8,0,0,1,.84,1,28.34,28.34,0,0,1,1.06,8.34,21.9,21.9,0,0,1-.18,3.14Z" fill="#faaf40"/>
    <path id="Caminho_9509" data-name="Caminho 9509" d="M60.78,125.64h-6l.26,23.89q10-.88,11.08-4.28.91-2.76,1.34-13.53Q67.47,125.74,60.78,125.64Zm2.59,8.23c-.25,6.19-.78,9.35-1.6,9.46l-2.14.74V130.98a4.88,4.88,0,0,1,3.05.46Q63.6,131.9,63.37,133.87Z" fill="#faaf40"/>
    <path id="Caminho_9510" data-name="Caminho 9510" d="M73.49,143.77v-2.62l5.6-.36v-4.31l-5.6-.18v-4.75h7.62l-.12-4.33-11.57-.82-.67,22.51,12.7-.51-.3-4.25Z" fill="#faaf40"/>
    <path id="Caminho_9511" data-name="Caminho 9511" d="M97,144.92c-1.3.33-2.09-.12-2.36-1.36a43.48,43.48,0,0,1-.5-10.22c.15-1.2.52-1.92,1.11-2.19a2.69,2.69,0,0,1,1.78-.31,1.42,1.42,0,0,1,1.37,1.39c.08.53.13,1.07.17,1.61l4-.46v-3.45a4,4,0,0,0-3.47-4.14,10.53,10.53,0,0,0-5.56.58,5.32,5.32,0,0,0-3.68,4.54,50.72,50.72,0,0,0,.7,14.13q.81,3.81,4.1,4.53a7.11,7.11,0,0,0,3.34.16c1.66-.26,3.4-1.66,5.2-4.18l-2.85-3.41C99,143.79,97.87,144.71,97,144.92Z" fill="#faaf40"/>
    <path id="Caminho_9512" data-name="Caminho 9512" d="M111.39,125.42l-7.82,23.16,4.41.88,1.12-3.8h6.42l1,4.59,4.79-1.1-6.88-23.24Zm-.91,15.75,2.24-7,1.67,6.87Z" fill="#faaf40"/>
    <path id="Caminho_9513" data-name="Caminho 9513" d="M128.31,125.64h-6l.26,23.89q10-.88,11.08-4.28.93-2.76,1.34-13.53Q135,125.74,128.31,125.64Zm2.6,8.23c-.26,6.19-.79,9.35-1.61,9.46l-2.14.74V130.98a4.86,4.86,0,0,1,3,.46C130.82,131.75,131.05,132.56,130.91,133.87Z" fill="#faaf40"/>
    <path id="Caminho_9514" data-name="Caminho 9514" d="M142.07,125.42l-7.82,23.16,4.41.88,1.11-3.8h6.43l1,4.59,4.8-1.1-6.89-23.24Zm-.91,15.75,2.24-7,1.67,6.87Z" fill="#faaf40"/>
    <path id="Caminho_9515" data-name="Caminho 9515" d="M172,137.25c.64-1.85.92-4.83.83-9q-.21-2.58-7.09-2.91h-6l.8,24.11,4.3.71v-8.63l4.74-1.69A3.36,3.36,0,0,0,172,137.25ZM168.77,133c-.17,2.22-.71,3.45-1.65,3.69l-2.28.74V130.2a7.47,7.47,0,0,1,3.22.65C168.68,131.13,168.92,131.85,168.77,133Z" fill="#faaf40"/>
    <path id="Caminho_9516" data-name="Caminho 9516" d="M178.15,125.42l-7.82,23.16,4.41.88,1.11-3.8h6.43l1,4.59,4.79-1.1-6.89-23.24Zm-.91,15.75,2.24-7,1.67,6.87Z" fill="#faaf40"/>
    <path id="Caminho_9517" data-name="Caminho 9517" d="M194.74,144.92c-1.3.33-2.09-.12-2.36-1.36a42.94,42.94,0,0,1-.5-10.22c.15-1.2.52-1.92,1.11-2.19a2.68,2.68,0,0,1,1.78-.31,1.42,1.42,0,0,1,1.37,1.39c.07.53.13,1.07.17,1.61l4-.46q.08-1.89,0-3.45a4,4,0,0,0-3.47-4.14,10.53,10.53,0,0,0-5.56.58,5.32,5.32,0,0,0-3.68,4.54,51,51,0,0,0,.69,14.13c.55,2.54,1.91,4.05,4.11,4.53a7.11,7.11,0,0,0,3.34.16c1.66-.26,3.4-1.66,5.2-4.18l-2.86-3.41C196.71,143.79,195.59,144.71,194.74,144.92Z" fill="#faaf40"/>
    <path id="Caminho_9518" data-name="Caminho 9518" d="M215.59,127.77l-3.79-1.22-4.9,7.48v-8.65l-5.08.22.91,23.97,4.17.44v-7.86l.02-.01,4.58,7.24,4.31-1.08-5.74-10.55Z" fill="#faaf40"/>
  </g>
</svg>
