<svg xmlns="http://www.w3.org/2000/svg" width="269.979" height="147.027" viewBox="0 0 269.979 147.027">
  <g id="personagem" transform="translate(0.002 -0.003)">
    <path id="Caminho_9459" data-name="Caminho 9459" d="M267,102a9.24,9.24,0,0,0,.83-3.83v-66a9.31,9.31,0,0,0-9.31-9.31H246.18A9.32,9.32,0,0,0,239,26.23l-13.87,17a9.31,9.31,0,0,0,.51,12.35l8.48,8.82a9.57,9.57,0,0,0,2.22,1.7V84.56a11.63,11.63,0,0,0-4.68.52l-.54.19-2.8-.1a9.32,9.32,0,0,0-6.7,2.52c2.32-8.15,2.17-15.46-.5-21.78a25.48,25.48,0,0,0-2.5-4.59,9.28,9.28,0,0,0,2.66-5.69c.74-7.94.63-14-.35-18.67a.582.582,0,0,0-.07-.34c-1.2-4.77-5.8-15.88-22.68-15.88h-.81c-7.5.65-13.82,2.45-18.87,5.32a9.34,9.34,0,0,0-6-1.24l-12.34,1.67a5.541,5.541,0,0,0-.37-.45,9.25,9.25,0,0,0-6.39-3.25l-13-1a9.44,9.44,0,0,0-3.24.34,8.91,8.91,0,0,0-2.42-.2l-14.8.82A9.28,9.28,0,0,0,114,25.37l-.33-.76a9.32,9.32,0,0,0-10.3-5.42l-10.53,2,.51-1.55A9.32,9.32,0,0,0,89,8.56L75.19,1.12a9.32,9.32,0,0,0-8.85,0L52.55,8.55a9.32,9.32,0,0,0-4.43,11.12L50,25.45l-.56.32A20.15,20.15,0,0,0,45,23.2c-4.12-1.75-9.57-2.72-16.64-3h-19A9.32,9.32,0,0,0,0,29.7l1.2,67a8.86,8.86,0,0,0,.18,1.64,9.4,9.4,0,0,0-.76,4l.87,26.13a9.31,9.31,0,0,0,7.77,8.88l4.67.78a8.889,8.889,0,0,0,1.54.13,9.32,9.32,0,0,0,5.85-2.08,9.28,9.28,0,0,0,4.72,1.3,7.624,7.624,0,0,0,.82,0,43.349,43.349,0,0,0,9.2-1.61,9.29,9.29,0,0,0,5.4,1.74h.4l4.76-.21a9.3,9.3,0,0,0,8.73-7.5,9.29,9.29,0,0,0,9.15,7.63,7.5,7.5,0,0,0,.82,0,42.25,42.25,0,0,0,9.55-1.72,9.33,9.33,0,0,0,4.46,1.14h.38l13.77-.56a9.27,9.27,0,0,0,4.25-1.23c3.37,2.62,7.68,2.82,9.53,2.91h.43a25,25,0,0,0,7.11-.88,15.065,15.065,0,0,0,1.47-.52,11.912,11.912,0,0,0,1.24.37,31.82,31.82,0,0,0,7.61,1.06,18.38,18.38,0,0,0,3.79-.38l.35-.08a9.15,9.15,0,0,0,3.85.84h.14l7.05-.1h.34a27.349,27.349,0,0,0,6.29-1,9.411,9.411,0,0,0,2.13.26h.6l9.58-.63a9.28,9.28,0,0,0,4.75,1.31,9.069,9.069,0,0,0,2.52-.35l2.12-.59c.19,0,.37.07.57.09l4.35.53a8.681,8.681,0,0,0,1.13.07,9.34,9.34,0,0,0,5.08-1.5,9.34,9.34,0,0,0,4.58.47l3.31-.48,4.17.83a9.28,9.28,0,0,0,5.7-.66l.35.23a9.34,9.34,0,0,0,5,1.46,9.742,9.742,0,0,0,1.43-.12,10.41,10.41,0,0,0,5.84,7.17,20,20,0,0,0,7.45,1.56h.45c7.41,0,10.49-4.4,11.46-6.29.11-.21.21-.42.31-.64a14.92,14.92,0,0,0,.58-1.71,9.29,9.29,0,0,0,4.39-1.44l.35-.23a9.28,9.28,0,0,0,5.7.66l4.36-.87a33.38,33.38,0,0,0,8.34,1.56h.66c7.57,0,13.16-3.86,14.94-10.32a1.865,1.865,0,0,1,.1-.39,36,36,0,0,0,.74-7.91A48,48,0,0,0,267,102Z" fill="#071c21"/>
    <path id="Caminho_9460" data-name="Caminho 9460" d="M46.2,37.23q-.59-7-18.2-7.69H9.31l1.2,67,12.71,1.24q19.65,1.38,21.34-3.93A40.32,40.32,0,0,0,45,74.35a11.09,11.09,0,0,0-3.85-6.58A10.14,10.14,0,0,0,44.4,61.9Q46.77,54.24,46.2,37.23ZM32.15,85.15q-2.23.75-9.08.64l-.19-13.27h7.59c2.69.33,4,2.93,4,7.82C34.68,83.13,33.9,84.73,32.15,85.15ZM30.28,60.71l-7.44.07-.22-16.93q6.89-1.08,9.49.6,2.4,1.15,2.73,7.14Q35.29,60.56,30.28,60.71Z" fill="#fff"/>
    <path id="Caminho_9461" data-name="Caminho 9461" d="M74.65,28.71q-14.36,1-21.16,5.53-3.77,2.32-3.62,13.65,0,10.45,3.29,29.34Q55.77,91.66,57.68,94q2.66,3.43,10.84,3.29A54.359,54.359,0,0,0,77.94,96a10.53,10.53,0,0,0,5.75-4.56q7.36-16,7.37-39.14a68.231,68.231,0,0,0-1.28-14.8Q87.37,28.71,74.65,28.71ZM76.33,80A5,5,0,0,1,74,82.68a16,16,0,0,1-3.7.75c-2.19,0-3.64-.62-4.33-1.94q-.75-1.38-2.43-12Q60.7,48,62.84,45.94q3.21-3.31,9.9-2.69,5.16.72,6,5.16a61.758,61.758,0,0,1,.5,8.59Q79.24,70.62,76.33,80Z" fill="#fff"/>
    <path id="Caminho_9462" data-name="Caminho 9462" d="M70.76,19.59l10.17,8.04,3.59-10.88L70.76,9.31,56.97,16.75l3.59,10.88Z" fill="#fff"/>
    <path id="Caminho_9463" data-name="Caminho 9463" d="M121.29,65.34l-16.14-37L92.92,30.69,95.43,94.5l10.73-.72.56-32.7,15.92,36.74h10.39l2.2-66.53-14.8.82Z" fill="#fff"/>
    <path id="Caminho_9464" data-name="Caminho 9464" d="M161,35.81q3.88,30.88,1.9,43.14c-.49,2.84-1.89,4.51-4.18,5a7,7,0,0,1-4.75-.33q-2.53-1.05-3.14-6-1.08-10.92,1.87-45.53l-13-1q-3.1,38.28-1.16,54.2,1.23,8.63,7.18,10,12,3,18.54,1.57,11-2.83,11.4-12.29a345.77,345.77,0,0,0-1.95-50.53Z" fill="#fff"/>
    <path id="Caminho_9465" data-name="Caminho 9465" d="M198.32,57.68q-10.15-4.82-9-8.71,1.13-5,7.25-5.12,4.64.7,5.31,5.87c.2,1.49.33,3.32.41,5.49l9.72-.45q1-10.38-.19-15.88-2.21-8.82-13.64-8.82Q187,31,180.87,35.59q-3.41,2.28-3.25,15.32.33,10.92,19.47,19.7Q204,73.16,203,80a3.36,3.36,0,0,1-2.32,2.65q-1.15.75-5.64.75-4.08,0-5.12-1.94-2.43-4.41.89-9.94l-10.42-1.31a26.33,26.33,0,0,0-2.58,11A22.08,22.08,0,0,0,181.58,94q1.9,2.83,11.62,3.29A40.851,40.851,0,0,0,204.57,96q4.34-1.25,5.75-4.56Q221.39,66.32,198.32,57.68Z" fill="#fff"/>
    <path id="Caminho_9466" data-name="Caminho 9466" d="M246.18,32.12l-13.87,17,8.48,8.82,4.83-5.9V98.12h12.93v-66Z" fill="#fff"/>
    <path id="Caminho_9467" data-name="Caminho 9467" d="M16.47,102H9.93l.87,26.13,4.67.78v-9.36l5.14-1.83a3.64,3.64,0,0,0,2.65-2.85q1-3,.9-9.72Q23.94,102.37,16.47,102Zm3.28,8.3c-.17,2.41-.77,3.74-1.78,4l-2.47.79v-7.88A8.07,8.07,0,0,1,19,108c.66.25.92,1,.75,2.32Z" fill="#faaf40"/>
    <path id="Caminho_9468" data-name="Caminho 9468" d="M32.23,102.3H25.76l.28,25.9q10.86-.95,12-4.63,1-3,1.45-14.67Q39.48,102.4,32.23,102.3ZM35,111.22q-.42,10.08-1.74,10.26l-2.33.8v-14.2a5.39,5.39,0,0,1,3.3.5C35,108.92,35.19,109.8,35,111.22Z" fill="#faaf40"/>
    <path id="Caminho_9469" data-name="Caminho 9469" d="M41.46,128.24l4.75-.2V117.91l5.92-.87.39-4.95H46.21v-4.26l8.41-.51.56-5.3H40.78Z" fill="#faaf40"/>
    <path id="Caminho_9470" data-name="Caminho 9470" d="M70.69,102.3H64.22l.28,25.9q10.86-.95,12-4.63,1-3,1.46-14.67Q77.95,102.4,70.69,102.3Zm2.81,8.92q-.41,10.08-1.74,10.26l-2.32.8v-14.2a5.34,5.34,0,0,1,3.29.5C73.41,108.92,73.66,109.8,73.5,111.22Z" fill="#faaf40"/>
    <path id="Caminho_9471" data-name="Caminho 9471" d="M84.47,121.95v-2.84l6.07-.38v-4.68l-6.07-.19V108.7h8.26L92.6,104l-12.55-.88-.72,24.42,13.77-.56-.32-4.61Z" fill="#faaf40"/>
    <path id="Caminho_9472" data-name="Caminho 9472" d="M109.71,113.05q-4-1.9-3.56-3.43c.29-1.33,1.24-2,2.85-2a2.35,2.35,0,0,1,2.09,2.31c.08.59.14,1.31.17,2.16l3.83-.17a22.24,22.24,0,0,0-.08-6.26q-.87-3.48-5.37-3.48a13.34,13.34,0,0,0-6.81,2.18q-1.33.9-1.28,6,.14,4.31,7.67,7.76a3.12,3.12,0,0,1,2.32,3.71,1.35,1.35,0,0,1-.92,1.05,5.15,5.15,0,0,1-2.22.29c-1.07,0-1.74-.24-2-.76a3.73,3.73,0,0,1,.36-3.92l-4.11-.52a10.41,10.41,0,0,0-1,4.36,8.68,8.68,0,0,0,1.5,5c.5.75,2,1.18,4.58,1.3a15.7,15.7,0,0,0,4.48-.51,3.24,3.24,0,0,0,2.27-1.79Q118.79,116.45,109.71,113.05Z" fill="#faaf40"/>
    <path id="Caminho_9473" data-name="Caminho 9473" d="M125.7,104.43q1.53,12.16.75,17a2.15,2.15,0,0,1-1.65,2,2.84,2.84,0,0,1-1.87-.13c-.66-.28-1.08-1.06-1.23-2.36q-.44-4.3.73-17.94l-5.11-.38q-1.21,15.07-.45,21.35.48,3.41,2.82,4a17.44,17.44,0,0,0,7.31.62c2.88-.75,4.38-2.36,4.49-4.85a136,136,0,0,0-.77-19.91Z" fill="#faaf40"/>
    <path id="Caminho_9474" data-name="Caminho 9474" d="M145.17,114.33a4.51,4.51,0,0,0,1.49-2.62,18,18,0,0,0-.25-8.19c-.47-1.38-3.27-1.85-8.43-1.43l-5.27.37.4,26.61,7-.11c4.63-.23,7-1.28,7.14-3.13a29.82,29.82,0,0,0-.82-9.22A4,4,0,0,0,145.17,114.33Zm-7.2-7.5a13.25,13.25,0,0,1,3.58.19c.69.16,1,.79.95,1.89,0,2.26-.5,3.45-1.56,3.59h-3Zm4.78,13.39c-.06,1.58-.41,2.53-1,2.84a6.789,6.789,0,0,1-3.73.29v-6.17h2.93C142.24,117.19,142.85,118.21,142.75,120.22Z" fill="#faaf40"/>
    <path id="Caminho_9475" data-name="Caminho 9475" d="M154.27,100.68l-5.79.6.58,26.93,12.66-.82.03-5.17h-8.08Z" fill="#faaf40"/>
    <path id="Caminho_9476" data-name="Caminho 9476" d="M167.71,107.35l.4-6.58-5.09-.21.5,6.6Z" fill="#faaf40"/>
    <path id="Caminho_9477" data-name="Caminho 9477" d="M163.99,128.88l4.2-1.18V108.85l-5.1.59Z" fill="#faaf40"/>
    <path id="Caminho_9478" data-name="Caminho 9478" d="M178.73,115.49l-5.1-13.35-4.21,1.38.9,24.58,4.36.53-.03-12.24,2.89,7.61,2.41-.06,3.03-8.92V127.7l4.1-.61,1.07-25.51-4.15-.55Z" fill="#faaf40"/>
    <path id="Caminho_9479" data-name="Caminho 9479" d="M197.34,102.06l-8.48,25.11,4.79,1,1.2-4.13h7l1.06,5,5.2-1.19-7.47-25.2Zm-1,17.08,2.42-7.63L200.6,119Z" fill="#faaf40"/>
    <path id="Caminho_9480" data-name="Caminho 9480" d="M216.87,122.38c-1.42.33-2.27-.15-2.56-1.43a43.13,43.13,0,0,1-.55-10.63c.17-1.24.57-2,1.21-2.28a3.05,3.05,0,0,1,1.93-.32,1.5,1.5,0,0,1,1.48,1.44q.12.82.18,1.68l4.36-.49c.05-1.3.06-2.5,0-3.59q-.09-3.56-3.77-4.3a11.86,11.86,0,0,0-6,.6,5.57,5.57,0,0,0-4,4.73,51,51,0,0,0,.75,14.71q.89,4,4.44,4.73h.14l.09,4.23,2.87,1.06q.07-.87.51-.78l.33.06a.29.29,0,0,1,.2.1,2.58,2.58,0,0,1,.28,1.59,2.1,2.1,0,0,1-.13.57q-.1.22-.81.27a2.9,2.9,0,0,1-1.46-.18c-.06,0,0-.43.28-1.19l-2.77-.58a15,15,0,0,0-.54,2.43q-.18,1.65.66,2a11.22,11.22,0,0,0,4,.73c1.69,0,2.76-.41,3.19-1.25a6.84,6.84,0,0,0,.44-2,8.44,8.44,0,0,0-1-5.18,2.14,2.14,0,0,0-1.18-.7,14.48,14.48,0,0,0-1.53-.14h-.37l.14-.87h.22q2.7-.39,5.64-4.34l-3.1-3.55Q218.24,122.06,216.87,122.38Z" fill="#faaf40"/>
    <path id="Caminho_9481" data-name="Caminho 9481" d="M231.56,101.87c1.43.22,2.66-1.06,3.71-3.81.17-.56.46-.76.87-.59a.55.55,0,0,1,.11.23,3.19,3.19,0,0,1,.08,1,25.156,25.156,0,0,1-.29,3l3.46-.13c.05-1,.08-1.72.09-2.08a11.76,11.76,0,0,0-.22-2.55,2.79,2.79,0,0,0-.93-1.69q-4.6-3.49-6.2,1.72c-.36.93-.6,1.37-.71,1.31a1.09,1.09,0,0,1-.51-1.09c0-.17.19-1,.53-2.56l-3.61-.13c-.06.55-.09.93-.09,1.13a11.91,11.91,0,0,0,.87,4.82C229.05,101.11,230,101.59,231.56,101.87Z" fill="#faaf40"/>
    <path id="Caminho_9482" data-name="Caminho 9482" d="M232.36,102.11l-7.78,25.68,5.2,1.19,1.06-5h7l1.2,4.13,4.79-1-8.35-24.68Zm-.3,16.86,1.82-7.46,2.43,7.63Z" fill="#faaf40"/>
    <path id="Caminho_9483" data-name="Caminho 9483" d="M257.76,103.92a4.2,4.2,0,0,0-2.27-1.8,22.671,22.671,0,0,0-3.71-.49c-2.15,0-3.57.4-4.27,1.3q-.75.93-1.78,6.61a72.729,72.729,0,0,0-1.3,11.56c0,3,.44,4.76,1.43,5.36q2.69,1.8,8.34,2.2,5,0,6-3.48a27.34,27.34,0,0,0,.5-5.83A37,37,0,0,0,257.76,103.92Zm-1.94,17a2.5,2.5,0,0,1-2.37,2,4.62,4.62,0,0,1-3.91-1.06c-.56-.55-.46-3.66.28-9.31a27,27,0,0,1,1-4.7,1.72,1.72,0,0,1,1.71-.76,6.711,6.711,0,0,1,1.46.29,2,2,0,0,1,.91,1,31,31,0,0,1,1.15,9,25.3,25.3,0,0,1-.23,3.51Z" fill="#faaf40"/>
  </g>
</svg>
